<?xml version="1.0" encoding="UTF-8" standalone="no"?>
<!-- Created with Inkscape (http://www.inkscape.org/) -->

<svg
   width="206mm"
   height="43mm"
   viewBox="0 0 206 43"
   version="1.1"
   id="svg5"
   sodipodi:docname="atom.svg"
   inkscape:version="1.1 (ce6663b3b7, 2021-05-25)"
   xmlns:inkscape="http://www.inkscape.org/namespaces/inkscape"
   xmlns:sodipodi="http://sodipodi.sourceforge.net/DTD/sodipodi-0.dtd"
   xmlns:xlink="http://www.w3.org/1999/xlink"
   xmlns="http://www.w3.org/2000/svg"
   xmlns:svg="http://www.w3.org/2000/svg">
  <sodipodi:namedview
     id="namedview7"
     pagecolor="#ffffff"
     bordercolor="#666666"
     borderopacity="1.0"
     inkscape:pageshadow="2"
     inkscape:pageopacity="0.0"
     inkscape:pagecheckerboard="0"
     inkscape:document-units="mm"
     showgrid="false"
     width="167mm"
     inkscape:zoom="0.518874"
     inkscape:cx="145.50739"
     inkscape:cy="164.77989"
     inkscape:window-width="1976"
     inkscape:window-height="1216"
     inkscape:window-x="72"
     inkscape:window-y="27"
     inkscape:window-maximized="1"
     inkscape:current-layer="layer1"
     height="96mm" />
  <defs
     id="defs2">
    <rect
       x="117.62965"
       y="74.612038"
       width="112.94866"
       height="109.91532"
       id="rect24434" />
    <rect
       x="117.46307"
       y="120.41714"
       width="107.27493"
       height="97.682419"
       id="rect11492" />
    <rect
       x="117.46307"
       y="120.41714"
       width="107.27493"
       height="97.682419"
       id="rect13686" />
    <rect
       x="117.46307"
       y="120.41714"
       width="107.27493"
       height="97.682419"
       id="rect15566" />
    <rect
       x="117.62965"
       y="74.612038"
       width="112.94866"
       height="109.91532"
       id="rect25578" />
    <rect
       x="117.62965"
       y="74.612038"
       width="137.69481"
       height="109.91532"
       id="rect25992" />
    <rect
       x="117.62965"
       y="74.612038"
       width="112.94866"
       height="109.91532"
       id="rect27342" />
    <rect
       x="117.62965"
       y="74.612038"
       width="112.94866"
       height="109.91532"
       id="rect33324" />
    <rect
       x="117.62965"
       y="74.612038"
       width="112.94866"
       height="109.91532"
       id="rect34594" />
    <rect
       x="117.46307"
       y="120.41714"
       width="107.27493"
       height="97.682419"
       id="rect41966" />
    <rect
       x="117.46307"
       y="120.41714"
       width="107.27493"
       height="97.682419"
       id="rect41968" />
    <rect
       x="117.46307"
       y="120.41714"
       width="107.27493"
       height="97.682419"
       id="rect41970" />
    <rect
       x="117.62965"
       y="74.612038"
       width="112.94866"
       height="109.91532"
       id="rect41972" />
    <rect
       x="117.62965"
       y="74.612038"
       width="112.94866"
       height="109.91532"
       id="rect41974" />
    <rect
       x="117.62965"
       y="74.612038"
       width="137.69481"
       height="109.91532"
       id="rect41976" />
    <rect
       x="117.62965"
       y="74.612038"
       width="112.94866"
       height="109.91532"
       id="rect41978" />
    <rect
       x="117.62965"
       y="74.612038"
       width="112.94866"
       height="109.91532"
       id="rect41980" />
    <rect
       x="117.62965"
       y="74.612038"
       width="112.94866"
       height="109.91532"
       id="rect41982" />
    <rect
       x="117.46307"
       y="120.41714"
       width="107.27493"
       height="97.682419"
       id="rect42390" />
    <rect
       x="117.46307"
       y="120.41714"
       width="107.27493"
       height="97.682419"
       id="rect43556" />
    <radialGradient
       inkscape:collect="always"
       xlink:href="#linearGradient2558"
       id="radialGradient20059"
       gradientUnits="userSpaceOnUse"
       gradientTransform="matrix(1,0,0,0.96143033,132.29169,14.051843)"
       cx="34.520073"
       cy="358.63547"
       fx="34.520073"
       fy="358.63547"
       r="46.464863" />
    <linearGradient
       inkscape:collect="always"
       id="linearGradient2558">
      <stop
         style="stop-color:#ffeeaa;stop-opacity:1;"
         offset="0"
         id="stop2554" />
      <stop
         style="stop-color:#ffeeaa;stop-opacity:0;"
         offset="1"
         id="stop2556" />
    </linearGradient>
    <radialGradient
       inkscape:collect="always"
       xlink:href="#linearGradient2904"
       id="radialGradient20061"
       gradientUnits="userSpaceOnUse"
       gradientTransform="matrix(1,0,0,0.96143033,132.29169,14.051843)"
       cx="73.845734"
       cy="336.76404"
       fx="73.845734"
       fy="336.76404"
       r="46.464863" />
    <linearGradient
       inkscape:collect="always"
       id="linearGradient2904">
      <stop
         style="stop-color:#b380ff;stop-opacity:1;"
         offset="0"
         id="stop2900" />
      <stop
         style="stop-color:#b380ff;stop-opacity:0;"
         offset="1"
         id="stop2902" />
    </linearGradient>
    <radialGradient
       inkscape:collect="always"
       xlink:href="#linearGradient3234"
       id="radialGradient20063"
       gradientUnits="userSpaceOnUse"
       gradientTransform="matrix(1,0,0,0.96143033,132.29169,14.051843)"
       cx="72.927315"
       cy="391.36871"
       fx="72.927315"
       fy="391.36871"
       r="46.464863" />
    <linearGradient
       inkscape:collect="always"
       id="linearGradient3234">
      <stop
         style="stop-color:#ff2a7f;stop-opacity:1;"
         offset="0"
         id="stop3230" />
      <stop
         style="stop-color:#ff2a7f;stop-opacity:0;"
         offset="1"
         id="stop3232" />
    </linearGradient>
    <radialGradient
       inkscape:collect="always"
       xlink:href="#linearGradient3436"
       id="radialGradient20065"
       gradientUnits="userSpaceOnUse"
       gradientTransform="matrix(1,0,0,0.96143033,132.29169,14.051843)"
       cx="121.21793"
       cy="344.59756"
       fx="121.21793"
       fy="344.59756"
       r="46.464863" />
    <linearGradient
       inkscape:collect="always"
       id="linearGradient3436">
      <stop
         style="stop-color:#2a7fff;stop-opacity:1;"
         offset="0"
         id="stop3432" />
      <stop
         style="stop-color:#2a7fff;stop-opacity:0;"
         offset="1"
         id="stop3434" />
    </linearGradient>
    <radialGradient
       inkscape:collect="always"
       xlink:href="#linearGradient3702"
       id="radialGradient20067"
       gradientUnits="userSpaceOnUse"
       gradientTransform="matrix(1,0,0,0.96143033,132.29169,14.051843)"
       cx="120.26282"
       cy="390.41745"
       fx="120.26282"
       fy="390.41745"
       r="46.464863" />
    <linearGradient
       inkscape:collect="always"
       id="linearGradient3702">
      <stop
         style="stop-color:#55ddff;stop-opacity:1"
         offset="0"
         id="stop3698" />
      <stop
         style="stop-color:#ffcc00;stop-opacity:0;"
         offset="1"
         id="stop3700" />
    </linearGradient>
    <rect
       x="423.47202"
       y="1225.3185"
       width="989.35474"
       height="458.22409"
       id="rect20057" />
    <rect
       x="117.46307"
       y="120.41714"
       width="107.27493"
       height="97.682419"
       id="rect99363" />
    <rect
       x="117.46307"
       y="120.41714"
       width="107.27493"
       height="97.682419"
       id="rect115289" />
    <rect
       x="117.46307"
       y="120.41714"
       width="107.27493"
       height="97.682419"
       id="rect115291" />
    <rect
       x="117.46307"
       y="120.41714"
       width="107.27493"
       height="97.682419"
       id="rect115293" />
    <rect
       x="117.46307"
       y="120.41714"
       width="107.27493"
       height="97.682419"
       id="rect115807" />
    <rect
       x="117.46307"
       y="120.41714"
       width="107.27493"
       height="97.682419"
       id="rect116055" />
    <rect
       x="117.46307"
       y="120.41714"
       width="107.27493"
       height="97.682419"
       id="rect116063" />
    <rect
       x="117.46307"
       y="120.41714"
       width="107.27493"
       height="97.682419"
       id="rect116071" />
    <rect
       x="117.46307"
       y="120.41714"
       width="107.27493"
       height="97.682419"
       id="rect116079" />
    <rect
       x="117.46307"
       y="120.41714"
       width="107.27493"
       height="97.682419"
       id="rect1266" />
    <rect
       x="117.46307"
       y="120.41714"
       width="749.00708"
       height="155.60893"
       id="rect6778" />
    <rect
       x="117.46307"
       y="120.41714"
       width="663.50995"
       height="154.89778"
       id="rect18560" />
    <rect
       x="117.46307"
       y="120.41714"
       width="663.50995"
       height="154.89778"
       id="rect19292" />
    <rect
       x="117.46307"
       y="120.41714"
       width="663.50995"
       height="154.89778"
       id="rect21332" />
    <rect
       x="117.46307"
       y="120.41714"
       width="749.00708"
       height="155.60893"
       id="rect57645" />
    <rect
       x="117.46307"
       y="120.41714"
       width="663.50995"
       height="154.89778"
       id="rect57647" />
    <rect
       x="117.46307"
       y="120.41714"
       width="663.50995"
       height="154.89778"
       id="rect57649" />
    <rect
       x="117.46307"
       y="120.41714"
       width="663.50995"
       height="154.89778"
       id="rect57651" />
  </defs>
  <g
     inkscape:label="Layer 1"
     inkscape:groupmode="layer"
     id="layer1">
    <path
       style="fill:none;stroke:#000000;stroke-width:0.665;stroke-linecap:butt;stroke-linejoin:miter;stroke-miterlimit:4;stroke-dasharray:none;stroke-opacity:1"
       d="M 141.91842,-120.60248 H 269.93728"
       id="path116114" />
    <path
       style="fill:none;stroke:#000000;stroke-width:0.665;stroke-linecap:butt;stroke-linejoin:miter;stroke-miterlimit:4;stroke-dasharray:none;stroke-opacity:1"
       d="M 141.91842,-51.810808 H 269.93728"
       id="path116253" />
    <path
       style="fill:none;stroke:#000000;stroke-width:0.665;stroke-linecap:butt;stroke-linejoin:miter;stroke-miterlimit:4;stroke-dasharray:none;stroke-opacity:1"
       d="m 141.91842,-120.60248 v 68.791672 0 0 0"
       id="path116288" />
    <path
       style="fill:none;stroke:#000000;stroke-width:0.665;stroke-linecap:butt;stroke-linejoin:miter;stroke-miterlimit:4;stroke-dasharray:none;stroke-opacity:1"
       d="m 269.93728,-120.60248 v 68.791672"
       id="path116290" />
    <path
       style="fill:none;stroke:#000000;stroke-width:0.665;stroke-linecap:butt;stroke-linejoin:miter;stroke-miterlimit:4;stroke-dasharray:none;stroke-opacity:1"
       d="m 141.91842,-120.60248 128.01886,68.791672"
       id="path116292" />
    <path
       style="opacity:1;fill:#5595e4;fill-opacity:1;stroke:#000000;stroke-width:0.665;stroke-linecap:butt;stroke-linejoin:miter;stroke-miterlimit:4;stroke-dasharray:none;stroke-opacity:1"
       d="m -181.61545,35.147504 c 2.30646,6.971604 11.65336,9.139162 14.47343,16.925276 2.45349,6.773997 -1.45344,15.469848 0.56445,20.796787 4.77965,11.962818 14.79402,11.784312 21.46249,9.249813 4.76015,-1.809202 6.99144,-4.925941 17.39211,-7.537228 9.27264,-2.328075 24.77913,0.185912 31.532002,-7.531674 9.350309,-10.686097 21.141273,-60.9688268 -3.045234,-67.2979305 -13.603228,-3.5596811 -23.857388,6.3963217 -32.612848,8.1509225 -11.25681,2.255873 -19.60043,1.458412 -32.30141,1.117798 -16.93146,0.272027 -22.59561,14.001407 -17.46499,26.126236 z"
       id="path114646"
       sodipodi:nodetypes="cscssssscc" />
    <path
       style="fill:#87dcd7;fill-opacity:1;stroke:#000000;stroke-width:0.665;stroke-linecap:butt;stroke-linejoin:miter;stroke-miterlimit:4;stroke-dasharray:none;stroke-opacity:1"
       d="m -41.888545,9.890603 c -11.74314,8.891072 -9.53588,27.839911 -25.22251,33.910164 -8.65123,3.347765 -37.520675,-6.672178 -49.940375,1.092153 -4.99541,3.122943 -8.30161,11.232887 -5.30431,18.915042 1.74365,4.469033 6.07338,7.606418 11.23529,8.503753 7.80154,1.356203 17.737567,0.561355 22.43812,4.086772 5.807005,4.355248 5.965925,12.687168 10.415515,18.21622 6.24871,7.764633 17.68181,6.985893 23.39905,0.0412 19.00503,-25.343102 10.1285,-41.563762 32.78353,-61.560101 3.8468,-2.884225 7.1331,-15.32951 0.43971,-21.166913 -4.76704,-4.1574007 -13.28964,-7.6601152 -20.24402,-2.03829 z"
       id="path61011"
       sodipodi:nodetypes="cssssssccsc" />
    <path
       style="opacity:0.55;fill:#5595e4;fill-opacity:1;stroke:#000000;stroke-width:0.665;stroke-linecap:butt;stroke-linejoin:miter;stroke-miterlimit:4;stroke-dasharray:none;stroke-opacity:1"
       d="m -181.61545,35.147504 c 2.30646,6.971604 11.65336,9.139162 14.47343,16.925276 2.45349,6.773997 -1.45344,15.469848 0.56445,20.796787 4.77965,11.962818 14.79402,11.784312 21.46249,9.249813 4.76015,-1.809202 6.99144,-4.925941 17.39211,-7.537228 9.27264,-2.328075 24.77913,0.185912 31.532002,-7.531674 9.350309,-10.686097 21.141273,-60.9688268 -3.045234,-67.2979305 -13.603228,-3.5596811 -23.857388,6.3963217 -32.612848,8.1509225 -11.25681,2.255873 -19.60043,1.458412 -32.30141,1.117798 -16.93146,0.272027 -22.59561,14.001407 -17.46499,26.126236 z"
       id="path99896"
       sodipodi:nodetypes="cscssssscc" />
    <path
       style="fill:#fb86ad;fill-opacity:1;stroke:#000000;stroke-width:0.665;stroke-linecap:butt;stroke-linejoin:miter;stroke-miterlimit:4;stroke-dasharray:none;stroke-opacity:1"
       d="m -180.75657,28.906313 c 0.67936,8.736771 7.64024,11.920164 12.56594,13.364138 8.85322,2.595333 23.30957,-5.615005 35.71886,-7.645526 16.92891,-2.770062 32.978915,-1.275348 37.883218,-6.429453 6.531987,-6.864693 7.973339,-21.5280301 -6.888108,-25.9248458 -15.06964,-3.0347989 -17.78878,9.5922088 -39.94073,9.8478328 -25.6885,-2.201428 -39.18818,-1.521224 -39.33918,16.787854 z"
       id="path46030"
       sodipodi:nodetypes="csssccc" />
    <circle
       style="fill:#ffffff;stroke:#000000;stroke-width:0.665001"
       id="path1086"
       cx="-164.96152"
       cy="27.02326"
       r="12.655605" />
    <text
       xml:space="preserve"
       transform="matrix(0.26458333,0,0,0.26458333,-199.08908,-11.131946)"
       id="text11490"
       style="font-size:40px;line-height:1.25;font-family:'CMU Classical Serif';-inkscape-font-specification:'CMU Classical Serif';white-space:pre;shape-inside:url(#rect11492)"><tspan
         x="117.46289"
         y="157.71766"
         id="tspan1427"><tspan
           style="font-family:Ubuntu;-inkscape-font-specification:Ubuntu"
           id="tspan1425">1</tspan></tspan></text>
    <circle
       style="fill:#ffffff;stroke:#000000;stroke-width:0.665001"
       id="circle13680"
       cx="-105.78516"
       cy="16.944778"
       r="12.655605" />
    <text
       xml:space="preserve"
       transform="matrix(0.26458333,0,0,0.26458333,-139.91267,-21.210428)"
       id="text13684"
       style="font-size:40px;line-height:1.25;font-family:'CMU Classical Serif';-inkscape-font-specification:'CMU Classical Serif';white-space:pre;shape-inside:url(#rect13686)"><tspan
         x="117.46289"
         y="157.71766"
         id="tspan1431"><tspan
           style="font-family:Ubuntu;-inkscape-font-specification:Ubuntu"
           id="tspan1429">2</tspan></tspan></text>
    <circle
       style="fill:#ffffff;stroke:#000000;stroke-width:0.665001"
       id="circle15560"
       cx="-33.446655"
       cy="22.64537"
       r="12.655605" />
    <text
       xml:space="preserve"
       transform="matrix(0.26458333,0,0,0.26458333,-67.574175,-15.509838)"
       id="text15564"
       style="font-size:40px;line-height:1.25;font-family:'CMU Classical Serif';-inkscape-font-specification:'CMU Classical Serif';white-space:pre;shape-inside:url(#rect15566)"><tspan
         x="117.46289"
         y="157.71766"
         id="tspan1435"><tspan
           style="font-family:Ubuntu;-inkscape-font-specification:Ubuntu"
           id="tspan1433">3</tspan></tspan></text>
    <circle
       style="fill:#5595e4;fill-opacity:1;stroke:#000000;stroke-width:0.665001"
       id="circle41930"
       cx="141.61247"
       cy="-121.54603"
       r="12.655605" />
    <text
       xml:space="preserve"
       transform="matrix(0.26458333,0,0,0.26458333,107.4849,-159.70126)"
       id="text41934"
       style="font-size:40px;line-height:1.25;font-family:'CMU Classical Serif';-inkscape-font-specification:'CMU Classical Serif';white-space:pre;shape-inside:url(#rect41966)"><tspan
         x="117.46289"
         y="157.71766"
         id="tspan1439"><tspan
           style="font-family:Ubuntu;-inkscape-font-specification:Ubuntu"
           id="tspan1437">1</tspan></tspan></text>
    <text
       xml:space="preserve"
       transform="matrix(0.26458333,0,0,0.26458333,15.419105,-55.167681)"
       id="text41950"
       style="font-size:40px;line-height:1.25;font-family:'CMU Classical Serif';-inkscape-font-specification:'CMU Classical Serif';white-space:pre;shape-inside:url(#rect41972)"><tspan
         x="117.62891"
         y="111.61133"
         id="tspan1441">x = 0</tspan></text>
    <text
       xml:space="preserve"
       transform="matrix(0.26458333,0,0,0.26458333,20.181607,-48.288511)"
       id="text41960"
       style="font-size:21.3333px;line-height:1.25;font-family:'CMU Classical Serif';-inkscape-font-specification:'CMU Classical Serif';white-space:pre;shape-inside:url(#rect41978)"><tspan
         x="117.62891"
         y="94.34463"
         id="tspan1443">1</tspan></text>
    <circle
       style="fill:#ffffff;stroke:#000000;stroke-width:0.665001"
       id="circle42384"
       cx="-108.49428"
       cy="57.392742"
       r="12.655605" />
    <text
       xml:space="preserve"
       transform="matrix(0.26458333,0,0,0.26458333,-142.62181,19.237529)"
       id="text42388"
       style="font-size:40px;line-height:1.25;font-family:'CMU Classical Serif';-inkscape-font-specification:'CMU Classical Serif';white-space:pre;shape-inside:url(#rect42390)"><tspan
         x="117.46289"
         y="157.71766"
         id="tspan1447"><tspan
           style="font-family:Ubuntu;-inkscape-font-specification:Ubuntu"
           id="tspan1445">4</tspan></tspan></text>
    <circle
       style="fill:#ffffff;stroke:#000000;stroke-width:0.665001"
       id="circle43550"
       cx="-66.486137"
       cy="84.811684"
       r="12.655605" />
    <text
       xml:space="preserve"
       transform="matrix(0.26458333,0,0,0.26458333,-100.61364,46.656473)"
       id="text43554"
       style="font-size:40px;line-height:1.25;font-family:'CMU Classical Serif';-inkscape-font-specification:'CMU Classical Serif';white-space:pre;shape-inside:url(#rect43556)"><tspan
         x="117.46289"
         y="157.71766"
         id="tspan1451"><tspan
           style="font-family:Ubuntu;-inkscape-font-specification:Ubuntu"
           id="tspan1449">5</tspan></tspan></text>
    <g
       inkscape:label="Layer 1"
       id="layer1-1"
       transform="translate(-105.67695,-122.79724)">
      <path
         id="path19995"
         style="fill:#ffffff;stroke:none;stroke-width:0.256742"
         d="m 61.967966,1.4649845 -29.496754,29.4967545 -2.864783,2.8648 -0.0115,-0.01278 L 18.607177,44.801043 32.47125,58.665075 48.103937,74.297764 61.968002,88.161825 72.955757,77.174564 59.091692,63.310531 58.782297,63.001138 H 108.78282 V 47.462732 H 43.243845 l -2.649657,-2.650167 2.864282,-2.864264 h 65.32432 V 26.409891 H 58.997378 L 72.955714,12.451537 Z" />
      <g
         id="g20007"
         transform="matrix(0.97036361,0,0,0.97036361,-137.21379,-308.71261)">
        <path
           id="path19997"
           style="fill:url(#radialGradient20059);fill-opacity:1;stroke:none;stroke-width:0.264583"
           d="m 205.26507,319.65091 -30.39765,30.39764 -2.95229,2.95227 -0.0119,-0.0124 -11.32333,11.32283 14.28751,14.28749 16.11013,16.11013 14.28751,14.2875 11.32335,-11.32282 -14.28751,-14.2875 -0.31884,-0.31884 h 51.52762 v -16.01298 h -67.54062 l -2.73058,-2.7311 2.95175,-2.95176 h 67.31945 V 345.3584 h -51.30594 l 14.38466,-14.38466 z" />
        <path
           id="path19999"
           style="fill:url(#radialGradient20061);fill-opacity:1;stroke:none;stroke-width:0.264583"
           d="m 205.26507,319.65091 -30.39765,30.39764 -2.95229,2.95227 -0.0119,-0.0124 -11.32333,11.32283 14.28751,14.28749 16.11013,16.11013 14.28751,14.2875 11.32335,-11.32282 -14.28751,-14.2875 -0.31884,-0.31884 h 51.52762 v -16.01298 h -67.54062 l -2.73058,-2.7311 2.95175,-2.95176 h 67.31945 V 345.3584 h -51.30594 l 14.38466,-14.38466 z" />
        <path
           id="path20001"
           style="fill:url(#radialGradient20063);fill-opacity:1;stroke:none;stroke-width:0.264583"
           d="m 205.26507,319.65091 -30.39765,30.39764 -2.95229,2.95227 -0.0119,-0.0124 -11.32333,11.32283 14.28751,14.28749 16.11013,16.11013 14.28751,14.2875 11.32335,-11.32282 -14.28751,-14.2875 -0.31884,-0.31884 h 51.52762 v -16.01298 h -67.54062 l -2.73058,-2.7311 2.95175,-2.95176 h 67.31945 V 345.3584 h -51.30594 l 14.38466,-14.38466 z" />
        <path
           id="path20003"
           style="fill:url(#radialGradient20065);fill-opacity:1;stroke:none;stroke-width:0.264583"
           d="m 205.26507,319.65091 -30.39765,30.39764 -2.95229,2.95227 -0.0119,-0.0124 -11.32333,11.32283 14.28751,14.28749 16.11013,16.11013 14.28751,14.2875 11.32335,-11.32282 -14.28751,-14.2875 -0.31884,-0.31884 h 51.52762 v -16.01298 h -67.54062 l -2.73058,-2.7311 2.95175,-2.95176 h 67.31945 V 345.3584 h -51.30594 l 14.38466,-14.38466 z" />
        <path
           id="path20005"
           style="fill:url(#radialGradient20067);fill-opacity:1;stroke:none;stroke-width:0.264583"
           d="m 205.26506,319.65091 -30.39765,30.39764 -2.95228,2.95227 -0.0119,-0.0124 -11.32333,11.32283 14.2875,14.28749 16.11013,16.11013 14.28751,14.2875 11.32335,-11.32282 -14.28751,-14.2875 -0.31884,-0.31884 h 51.52762 v -16.01298 h -67.54062 l -2.73058,-2.7311 2.95175,-2.95176 h 67.31945 V 345.3584 h -51.30594 l 14.38466,-14.38466 z" />
      </g>
      <g
         id="g20035"
         transform="matrix(0.97036361,0,0,0.97036361,-8.8426969,-308.71261)">
        <path
           style="fill:none;stroke:#000000;stroke-width:0.665;stroke-linecap:butt;stroke-linejoin:miter;stroke-miterlimit:4;stroke-dasharray:none;stroke-opacity:1"
           d="m 28.288202,364.31125 44.685121,-44.66034 11.323339,11.32283 -14.38465,14.38466 h 51.305918 v 16.01297 H 53.898519 l -2.951758,2.95176 2.730582,2.7311 h 67.540587 v 16.01298 H 69.690323 l 14.606344,14.60633 -11.323338,11.32281 z"
           id="path20009" />
        <path
           style="fill:none;stroke:#000000;stroke-width:0.665;stroke-linecap:butt;stroke-linejoin:miter;stroke-miterlimit:4;stroke-dasharray:none;stroke-opacity:1"
           d="m 53.898519,361.37137 16.013493,-16.01297 3.061311,-25.70749 v 0 0 0"
           id="path20011" />
        <path
           style="fill:none;stroke:#000000;stroke-width:0.665;stroke-linecap:butt;stroke-linejoin:miter;stroke-miterlimit:4;stroke-dasharray:none;stroke-opacity:1"
           d="m 50.946761,364.32313 -22.658559,-0.0119"
           id="path20013" />
        <path
           style="fill:none;stroke:#000000;stroke-width:0.665;stroke-linecap:butt;stroke-linejoin:miter;stroke-miterlimit:4;stroke-dasharray:none;stroke-opacity:1"
           d="m 53.677343,367.05423 16.01298,16.01298"
           id="path20015" />
        <path
           style="fill:none;stroke:#000000;stroke-width:0.665;stroke-linecap:butt;stroke-linejoin:miter;stroke-miterlimit:4;stroke-dasharray:none;stroke-opacity:1"
           d="m 69.690323,383.06721 3.283006,25.92914"
           id="path20017" />
        <path
           style="fill:none;stroke:#000000;stroke-width:0.665;stroke-linecap:butt;stroke-linejoin:miter;stroke-miterlimit:4;stroke-dasharray:none;stroke-opacity:1"
           d="M 84.296667,397.67354 28.288202,364.31125 v 0 0 0"
           id="path20019" />
        <path
           style="fill:none;stroke:#000000;stroke-width:0.665;stroke-linecap:butt;stroke-linejoin:miter;stroke-miterlimit:4;stroke-dasharray:none;stroke-opacity:1"
           d="m 28.288202,364.31125 56.00846,-33.33751"
           id="path20021" />
        <path
           style="fill:none;stroke:#000000;stroke-width:0.665;stroke-linecap:butt;stroke-linejoin:miter;stroke-miterlimit:4;stroke-dasharray:none;stroke-opacity:1"
           d="m 69.912012,345.3584 51.305918,16.01297"
           id="path20023" />
        <path
           style="fill:none;stroke:#000000;stroke-width:0.665;stroke-linecap:butt;stroke-linejoin:miter;stroke-miterlimit:4;stroke-dasharray:none;stroke-opacity:1"
           d="m 121.21793,367.05423 -51.527607,16.01298 v 0 0 0"
           id="path20025" />
        <path
           style="fill:none;stroke:#000000;stroke-width:0.665;stroke-linecap:butt;stroke-linejoin:miter;stroke-miterlimit:4;stroke-dasharray:none;stroke-opacity:1"
           d="m 69.912012,345.3584 7.259194,15.94915"
           id="path20027"
           sodipodi:nodetypes="cc" />
        <path
           style="fill:none;stroke:#000000;stroke-width:0.665;stroke-linecap:butt;stroke-linejoin:miter;stroke-miterlimit:4;stroke-dasharray:none;stroke-opacity:1"
           d="M 50.946761,364.32313 45.136395,354.25928"
           id="path20029" />
        <path
           style="fill:none;stroke:#000000;stroke-width:0.665;stroke-linecap:butt;stroke-linejoin:miter;stroke-miterlimit:4;stroke-dasharray:none;stroke-opacity:1"
           d="m 50.946762,364.32313 -5.810366,10.06385"
           id="path20031" />
        <path
           style="fill:none;stroke:#000000;stroke-width:0.665;stroke-linecap:butt;stroke-linejoin:miter;stroke-miterlimit:4;stroke-dasharray:none;stroke-opacity:1"
           d="m 69.912012,383.0034 7.259194,-15.94915"
           id="path20033"
           sodipodi:nodetypes="cc" />
      </g>
      <text
         xml:space="preserve"
         transform="matrix(0.20913209,0,0,0.20913209,-89.34394,-168.3194)"
         id="text20039"
         style="font-style:normal;font-variant:normal;font-weight:normal;font-stretch:normal;font-size:96px;line-height:1.25;font-family:Z003;-inkscape-font-specification:Z003;white-space:pre;shape-inside:url(#rect20057);fill:#000000;fill-opacity:1;stroke:none"><tspan
           x="423.47266"
           y="1302.3104"
           id="tspan1455"><tspan
             style="font-family:AnjaliOldLipi;-inkscape-font-specification:AnjaliOldLipi"
             id="tspan1453">PyNeuraLogic</tspan></tspan></text>
      <path
         style="opacity:0.2;fill:#000000;stroke:#000000;stroke-width:0.675806px;stroke-linecap:butt;stroke-linejoin:miter;stroke-opacity:1"
         d="M 59.989864,20.537514 C 59.4214,25.546387 59.4214,25.546387 59.4214,25.546387 L 70.907705,14.054989 Z"
         id="path20041" />
      <path
         style="opacity:0.2;fill:#000000;stroke:#000000;stroke-width:0.675806px;stroke-linecap:butt;stroke-linejoin:miter;stroke-opacity:1"
         d="M 59.565843,69.300407 58.782275,63.001859 71.687647,76.216124 Z"
         id="path20043"
         sodipodi:nodetypes="cccc" />
      <path
         style="opacity:0.4;fill:#ffffff;stroke:none;stroke-width:0.675806px;stroke-linecap:butt;stroke-linejoin:miter;stroke-opacity:1"
         d="m 19.797635,44.468998 14.975217,-8.819607 5.240195,8.821549 z"
         id="path20045"
         sodipodi:nodetypes="cccc" />
      <path
         style="opacity:0.4;fill:#ffffff;stroke:none;stroke-width:0.675806px;stroke-linecap:butt;stroke-linejoin:miter;stroke-opacity:1"
         d="m 19.797635,45.112689 14.975217,8.819607 5.240195,-8.821548 z"
         id="path20047"
         sodipodi:nodetypes="cccc" />
      <path
         style="opacity:0.1;fill:#000000;stroke:none;stroke-width:0.675806px;stroke-linecap:butt;stroke-linejoin:miter;stroke-opacity:1"
         d="m 19.797635,45.112689 c 0,0 40.192222,24.593278 40.192222,24.593278 v 0 L 61.968002,88.161855 18.607174,44.801023 v 0 0"
         id="path20049" />
      <path
         style="opacity:0.1;fill:#000000;stroke:none;stroke-width:0.675806px;stroke-linecap:butt;stroke-linejoin:miter;stroke-opacity:1"
         d="m 19.797635,44.598524 c 0,0 40.192222,-24.593286 40.192222,-24.593286 v 0 L 61.968002,1.5493505 18.607174,44.910191 v 0 0"
         id="path20051" />
      <path
         style="opacity:0.1;fill:#000000;stroke:none;stroke-width:0.675806px;stroke-linecap:butt;stroke-linejoin:miter;stroke-opacity:1"
         d="m 58.997386,26.41056 7.04405,15.476519 42.741354,0.06155 -49.785404,-15.537742 v 0 0"
         id="path20053" />
      <path
         style="opacity:0.1;fill:#000000;stroke:none;stroke-width:0.675806px;stroke-linecap:butt;stroke-linejoin:miter;stroke-opacity:1"
         d="m 58.997386,62.939971 7.04405,-15.47652 42.741354,-0.06155 -49.785404,15.537745 v 0 0"
         id="path20055" />
      <circle
         style="fill:#000000;stroke:none;stroke-width:1.69856;stroke-miterlimit:4;stroke-dasharray:none"
         id="path20125"
         cx="19.594463"
         cy="44.67437"
         r="1.5387037" />
      <circle
         style="fill:#000000;stroke:none;stroke-width:1.69856;stroke-miterlimit:4;stroke-dasharray:none"
         id="circle20229"
         cx="34.952255"
         cy="35.095436"
         r="1.5387037" />
      <circle
         style="fill:#000000;stroke:none;stroke-width:1.69856;stroke-miterlimit:4;stroke-dasharray:none"
         id="circle20231"
         cx="59.51445"
         cy="20.217194"
         r="1.5387037" />
      <circle
         style="fill:#000000;stroke:none;stroke-width:1.69856;stroke-miterlimit:4;stroke-dasharray:none"
         id="circle20233"
         cx="59.121956"
         cy="26.353285"
         r="1.5387037" />
      <circle
         style="fill:#000000;stroke:none;stroke-width:1.69856;stroke-miterlimit:4;stroke-dasharray:none"
         id="circle20235"
         cx="40.495323"
         cy="44.568832"
         r="1.5387037" />
      <circle
         style="fill:#000000;stroke:none;stroke-width:1.69856;stroke-miterlimit:4;stroke-dasharray:none"
         id="circle20237"
         cx="58.86264"
         cy="62.729012"
         r="1.5387037" />
      <circle
         style="fill:#000000;stroke:none;stroke-width:1.69856;stroke-miterlimit:4;stroke-dasharray:none"
         id="circle20239"
         cx="59.444035"
         cy="69.218643"
         r="1.5387037" />
      <circle
         style="fill:#000000;stroke:none;stroke-width:1.69856;stroke-miterlimit:4;stroke-dasharray:none"
         id="circle20355"
         cx="34.848427"
         cy="54.235725"
         r="1.5387037" />
      <circle
         style="fill:#000000;stroke:none;stroke-width:1.69856;stroke-miterlimit:4;stroke-dasharray:none"
         id="circle20459"
         cx="108.10012"
         cy="41.582123"
         r="1.5387037" />
      <circle
         style="fill:#000000;stroke:none;stroke-width:1.69856;stroke-miterlimit:4;stroke-dasharray:none"
         id="circle20461"
         cx="65.759529"
         cy="41.734207"
         r="1.5387037" />
      <circle
         style="fill:#000000;stroke:none;stroke-width:1.69856;stroke-miterlimit:4;stroke-dasharray:none"
         id="circle20463"
         cx="43.820663"
         cy="41.558289"
         r="1.5387037" />
      <circle
         style="fill:#000000;stroke:none;stroke-width:1.69856;stroke-miterlimit:4;stroke-dasharray:none"
         id="circle20465"
         cx="108.66669"
         cy="26.464491"
         r="1.5387037" />
      <circle
         style="fill:#000000;stroke:none;stroke-width:1.69856;stroke-miterlimit:4;stroke-dasharray:none"
         id="circle20467"
         cx="73.120689"
         cy="12.518727"
         r="1.5387037" />
      <circle
         style="fill:#000000;stroke:none;stroke-width:1.69856;stroke-miterlimit:4;stroke-dasharray:none"
         id="circle20469"
         cx="61.817482"
         cy="1.9137866"
         r="1.5387037" />
      <circle
         style="fill:#000000;stroke:none;stroke-width:1.34258;stroke-miterlimit:4;stroke-dasharray:none"
         id="circle20471"
         cx="61.872753"
         cy="87.364723"
         r="1.216223" />
      <circle
         style="fill:#000000;stroke:none;stroke-width:1.69856;stroke-miterlimit:4;stroke-dasharray:none"
         id="circle20473"
         cx="72.299736"
         cy="77.111435"
         r="1.5387037" />
      <circle
         style="fill:#000000;stroke:none;stroke-width:1.69856;stroke-miterlimit:4;stroke-dasharray:none"
         id="circle20475"
         cx="65.681313"
         cy="47.779224"
         r="1.5387037" />
      <circle
         style="fill:#000000;stroke:none;stroke-width:1.69856;stroke-miterlimit:4;stroke-dasharray:none"
         id="circle20477"
         cx="108.18116"
         cy="47.330059"
         r="1.5387037" />
      <circle
         style="fill:#000000;stroke:none;stroke-width:1.69856;stroke-miterlimit:4;stroke-dasharray:none"
         id="circle20479"
         cx="108.22749"
         cy="62.404057"
         r="1.5387037" />
      <circle
         style="fill:#000000;stroke:none;stroke-width:1.69856;stroke-miterlimit:4;stroke-dasharray:none"
         id="circle2467"
         cx="61.892311"
         cy="87.260521"
         r="1.5387037" />
      <circle
         style="fill:#000000;stroke:none;stroke-width:1.69856;stroke-miterlimit:4;stroke-dasharray:none"
         id="circle2664"
         cx="43.820663"
         cy="47.908291"
         r="1.5387037" />
    </g>
    <circle
       style="fill:#ffffff;stroke:#000000;stroke-width:0.665001"
       id="circle99357"
       cx="-151.72723"
       cy="68.148415"
       r="12.655605" />
    <text
       xml:space="preserve"
       transform="matrix(0.26458333,0,0,0.26458333,-185.85477,29.993213)"
       id="text99361"
       style="font-size:40px;line-height:1.25;font-family:'CMU Classical Serif';-inkscape-font-specification:'CMU Classical Serif';white-space:pre;shape-inside:url(#rect99363)"><tspan
         x="117.46289"
         y="157.71766"
         id="tspan1459"><tspan
           style="font-family:Ubuntu;-inkscape-font-specification:Ubuntu"
           id="tspan1457">6</tspan></tspan></text>
    <path
       style="fill:none;stroke:#000000;stroke-width:0.765;stroke-linecap:butt;stroke-linejoin:miter;stroke-miterlimit:4;stroke-dasharray:none;stroke-opacity:1"
       d="M -156.92982,125.2727 H -50.692506"
       id="path115265" />
    <path
       style="fill:none;stroke:#000000;stroke-width:0.765;stroke-linecap:butt;stroke-linejoin:miter;stroke-miterlimit:4;stroke-dasharray:none;stroke-opacity:1"
       d="m -156.92982,125.2727 52.96909,42.78637"
       id="path115267"
       sodipodi:nodetypes="cc" />
    <path
       style="fill:none;stroke:#000000;stroke-width:0.765;stroke-linecap:butt;stroke-linejoin:miter;stroke-miterlimit:4;stroke-dasharray:none;stroke-opacity:1"
       d="m -51.044066,125.2727 -52.969084,42.78637"
       id="path115269"
       sodipodi:nodetypes="cc" />
    <circle
       style="fill:#ffffff;stroke:#000000;stroke-width:0.665001"
       id="circle115271"
       cx="-156.49719"
       cy="125.01398"
       r="12.655605" />
    <text
       xml:space="preserve"
       transform="matrix(0.26458333,0,0,0.26458333,-190.62476,86.85875)"
       id="text115275"
       style="font-size:40px;line-height:1.25;font-family:'CMU Classical Serif';-inkscape-font-specification:'CMU Classical Serif';white-space:pre;shape-inside:url(#rect115289)"><tspan
         x="117.46289"
         y="157.71766"
         id="tspan1463"><tspan
           style="font-family:Ubuntu;-inkscape-font-specification:Ubuntu"
           id="tspan1461">1</tspan></tspan></text>
    <circle
       style="fill:#ffffff;stroke:#000000;stroke-width:0.665001"
       id="circle115277"
       cx="-50.663898"
       cy="125.01398"
       r="12.655605" />
    <text
       xml:space="preserve"
       transform="matrix(0.26458333,0,0,0.26458333,-84.791416,86.85875)"
       id="text115281"
       style="font-size:40px;line-height:1.25;font-family:'CMU Classical Serif';-inkscape-font-specification:'CMU Classical Serif';white-space:pre;shape-inside:url(#rect115291)"><tspan
         x="117.46289"
         y="157.71766"
         id="tspan1467"><tspan
           style="font-family:Ubuntu;-inkscape-font-specification:Ubuntu"
           id="tspan1465">2</tspan></tspan></text>
    <circle
       style="fill:#ffffff;stroke:#000000;stroke-width:0.665001"
       id="circle115283"
       cx="-103.58055"
       cy="167.34735"
       r="12.655605" />
    <text
       xml:space="preserve"
       transform="matrix(0.26458333,0,0,0.26458333,-137.70809,129.19211)"
       id="text115287"
       style="font-size:40px;line-height:1.25;font-family:'CMU Classical Serif';-inkscape-font-specification:'CMU Classical Serif';white-space:pre;shape-inside:url(#rect115293)"><tspan
         x="117.46289"
         y="157.71766"
         id="tspan1471"><tspan
           style="font-family:Ubuntu;-inkscape-font-specification:Ubuntu"
           id="tspan1469">3</tspan></tspan></text>
    <circle
       style="fill:#fb86ad;fill-opacity:1;stroke:#000000;stroke-width:0.665001"
       id="circle116049"
       cx="141.61247"
       cy="-52.754379"
       r="12.655605" />
    <text
       xml:space="preserve"
       transform="matrix(0.26458333,0,0,0.26458333,107.4849,-90.909592)"
       id="text116053"
       style="font-size:40px;line-height:1.25;font-family:'CMU Classical Serif';-inkscape-font-specification:'CMU Classical Serif';white-space:pre;shape-inside:url(#rect116055)"><tspan
         x="117.46289"
         y="157.71766"
         id="tspan1475"><tspan
           style="font-family:Ubuntu;-inkscape-font-specification:Ubuntu"
           id="tspan1473">4</tspan></tspan></text>
    <circle
       style="fill:#fb86ad;fill-opacity:1;stroke:#000000;stroke-width:0.665001"
       id="circle116057"
       cx="269.14175"
       cy="-52.754379"
       r="12.655605" />
    <text
       xml:space="preserve"
       transform="matrix(0.26458333,0,0,0.26458333,235.01404,-90.909592)"
       id="text116061"
       style="font-size:40px;line-height:1.25;font-family:'CMU Classical Serif';-inkscape-font-specification:'CMU Classical Serif';white-space:pre;shape-inside:url(#rect116063)"><tspan
         x="117.46289"
         y="157.71766"
         id="tspan1479"><tspan
           style="font-family:Ubuntu;-inkscape-font-specification:Ubuntu"
           id="tspan1477">3</tspan></tspan></text>
    <circle
       style="fill:#5595e4;fill-opacity:1;stroke:#000000;stroke-width:0.665001"
       id="circle116065"
       cx="269.14175"
       cy="-121.54604"
       r="12.655605" />
    <text
       xml:space="preserve"
       transform="matrix(0.26458333,0,0,0.26458333,235.01404,-159.70126)"
       id="text116069"
       style="font-size:40px;line-height:1.25;font-family:'CMU Classical Serif';-inkscape-font-specification:'CMU Classical Serif';white-space:pre;shape-inside:url(#rect116071)"><tspan
         x="117.46289"
         y="157.71766"
         id="tspan1483"><tspan
           style="font-family:Ubuntu;-inkscape-font-specification:Ubuntu"
           id="tspan1481">2</tspan></tspan></text>
    <circle
       style="fill:#fb86ad;fill-opacity:1;stroke:#000000;stroke-width:0.665001"
       id="circle116073"
       cx="205.64165"
       cy="-85.562706"
       r="12.655605" />
    <text
       xml:space="preserve"
       transform="matrix(0.26458333,0,0,0.26458333,171.51406,-123.71793)"
       id="text116077"
       style="font-size:40px;line-height:1.25;font-family:'CMU Classical Serif';-inkscape-font-specification:'CMU Classical Serif';white-space:pre;shape-inside:url(#rect116079)"><tspan
         x="117.46289"
         y="157.71766"
         id="tspan1487"><tspan
           style="font-family:Ubuntu;-inkscape-font-specification:Ubuntu"
           id="tspan1485">5</tspan></tspan></text>
    <g
       aria-label="Atom.modifiers.name(Var.X, Term.Y)[W]"
       transform="matrix(0.26458333,0,0,0.26458333,-26.877567,-31.625031)"
       id="text57619"
       style="font-size:40px;line-height:1.25;font-family:'Ubuntu Mono';-inkscape-font-specification:'Ubuntu Mono';white-space:pre;shape-inside:url(#rect57645)">
      <path
         d="m 133.62289,157.72566 -1.48,-6.48 h -9.52 l -1.44,6.48 h -3.36 q 0.68,-2.64 1.52,-5.72 0.84,-3.08 1.8,-6.32 1,-3.24 2.08,-6.48 1.08,-3.28 2.28,-6.24 h 4.08 q 1.16,2.96 2.2,6.24 1.08,3.24 2,6.48 0.96,3.24 1.8,6.32 0.84,3.08 1.52,5.72 z m -6.2,-21.88 q -0.92,2.52 -2,5.84 -1.08,3.32 -2.04,6.84 h 8 q -0.92,-3.6 -2,-6.92 -1.04,-3.36 -1.96,-5.76 z"
         id="path1021" />
      <path
         d="m 147.18281,139.16566 h 7.84 v 2.76 h -7.84 v 8.64 q 0,1.4 0.2,2.28 0.2,0.88 0.64,1.44 0.48,0.52 1.2,0.72 0.72,0.2 1.76,0.2 1.44,0 2.32,-0.24 0.88,-0.24 1.68,-0.64 l 0.48,2.8 q -0.56,0.24 -1.8,0.64 -1.2,0.4 -3,0.4 -2.08,0 -3.4,-0.48 -1.32,-0.48 -2.08,-1.44 -0.72,-0.96 -1,-2.36 -0.28,-1.44 -0.28,-3.32 v -8.64 h -3.92 v -2.76 h 3.92 v -5.2 l 3.28,-0.56 z"
         id="path1023" />
      <path
         d="m 175.86274,148.44566 q 0,2.2 -0.64,4 -0.6,1.76 -1.72,3.04 -1.12,1.28 -2.68,2 -1.56,0.68 -3.4,0.68 -1.8,0 -3.36,-0.68 -1.52,-0.72 -2.64,-2 -1.12,-1.28 -1.76,-3.04 -0.6,-1.8 -0.6,-4 0,-2.2 0.6,-4 0.64,-1.8 1.76,-3.04 1.12,-1.28 2.64,-1.96 1.56,-0.72 3.36,-0.72 1.84,0 3.4,0.72 1.56,0.68 2.68,1.96 1.12,1.24 1.72,3.04 0.64,1.8 0.64,4 z m -3.4,0 q 0,-3.16 -1.36,-4.96 -1.36,-1.84 -3.68,-1.84 -2.28,0 -3.64,1.84 -1.32,1.8 -1.32,4.96 0,3.12 1.32,4.96 1.36,1.8 3.64,1.8 2.32,0 3.68,-1.8 1.36,-1.84 1.36,-4.96 z"
         id="path1025" />
      <path
         d="m 179.10266,139.68566 q 2.4,-0.92 4.52,-0.92 1.16,0 2.16,0.36 1.04,0.32 1.76,1.04 1.72,-1.4 3.68,-1.4 0.96,0 1.8,0.36 0.88,0.36 1.52,1.08 0.68,0.72 1.08,1.8 0.4,1.08 0.4,2.52 v 13.2 h -3 v -13.28 q 0,-1.44 -0.64,-2.2 -0.64,-0.76 -1.6,-0.76 -0.48,0 -1,0.24 -0.52,0.24 -0.96,0.76 0.24,0.92 0.24,2.04 v 6.04 h -3 v -6.08 q 0,-1.4 -0.44,-2.2 -0.44,-0.8 -1.72,-0.8 -0.8,0 -1.8,0.36 v 15.88 h -3 z"
         id="path1027" />
      <path
         d="m 210.42259,155.16566 q 0,1.2 -0.8,2.12 -0.8,0.92 -2.12,0.92 -1.36,0 -2.16,-0.92 -0.8,-0.92 -0.8,-2.12 0,-1.24 0.8,-2.16 0.8,-0.92 2.16,-0.92 1.32,0 2.12,0.92 0.8,0.92 0.8,2.16 z"
         id="path1029" />
      <path
         d="m 219.10251,139.68566 q 2.4,-0.92 4.52,-0.92 1.16,0 2.16,0.36 1.04,0.32 1.76,1.04 1.72,-1.4 3.68,-1.4 0.96,0 1.8,0.36 0.88,0.36 1.52,1.08 0.68,0.72 1.08,1.8 0.4,1.08 0.4,2.52 v 13.2 h -3 v -13.28 q 0,-1.44 -0.64,-2.2 -0.64,-0.76 -1.6,-0.76 -0.48,0 -1,0.24 -0.52,0.24 -0.96,0.76 0.24,0.92 0.24,2.04 v 6.04 h -3 v -6.08 q 0,-1.4 -0.44,-2.2 -0.44,-0.8 -1.72,-0.8 -0.8,0 -1.8,0.36 v 15.88 h -3 z"
         id="path1031" />
      <path
         d="m 255.86243,148.44566 q 0,2.2 -0.64,4 -0.6,1.76 -1.72,3.04 -1.12,1.28 -2.68,2 -1.56,0.68 -3.4,0.68 -1.8,0 -3.36,-0.68 -1.52,-0.72 -2.64,-2 -1.12,-1.28 -1.76,-3.04 -0.6,-1.8 -0.6,-4 0,-2.2 0.6,-4 0.64,-1.8 1.76,-3.04 1.12,-1.28 2.64,-1.96 1.56,-0.72 3.36,-0.72 1.84,0 3.4,0.72 1.56,0.68 2.68,1.96 1.12,1.24 1.72,3.04 0.64,1.8 0.64,4 z m -3.4,0 q 0,-3.16 -1.36,-4.96 -1.36,-1.84 -3.68,-1.84 -2.28,0 -3.64,1.84 -1.32,1.8 -1.32,4.96 0,3.12 1.32,4.96 1.36,1.8 3.64,1.8 2.32,0 3.68,-1.8 1.36,-1.84 1.36,-4.96 z"
         id="path1033" />
      <path
         d="m 271.30236,143.08566 q -0.56,-0.52 -1.64,-0.96 -1.08,-0.48 -2.24,-0.48 -1.32,0 -2.28,0.52 -0.92,0.52 -1.52,1.44 -0.6,0.88 -0.88,2.16 -0.28,1.24 -0.28,2.68 0,3.24 1.52,5 1.52,1.76 3.96,1.76 1.24,0 2.08,-0.12 0.88,-0.12 1.28,-0.24 z m 0,-12.52 3.32,-0.56 v 27.2 q -1.08,0.32 -2.76,0.64 -1.68,0.32 -3.92,0.32 -2,0 -3.64,-0.68 -1.64,-0.68 -2.8,-1.92 -1.16,-1.28 -1.8,-3.08 -0.64,-1.8 -0.64,-4.04 0,-2.16 0.52,-3.92 0.56,-1.8 1.6,-3.08 1.04,-1.28 2.48,-2 1.48,-0.72 3.36,-0.72 1.48,0 2.6,0.36 1.12,0.36 1.68,0.76 z"
         id="path1035" />
      <path
         d="m 285.82228,136.28566 q -1.04,0 -1.8,-0.72 -0.76,-0.72 -0.76,-1.96 0,-1.24 0.76,-1.96 0.76,-0.72 1.8,-0.72 1.08,0 1.8,0.72 0.76,0.72 0.76,1.96 0,1.24 -0.76,1.96 -0.72,0.72 -1.8,0.72 z m -0.84,5.64 h -5.36 v -2.76 h 8.64 v 11.4 q 0,2.76 0.76,3.72 0.76,0.92 2.28,0.92 1.16,0 2.12,-0.28 1,-0.28 1.56,-0.6 l 0.48,2.8 q -0.24,0.12 -0.68,0.32 -0.44,0.16 -1.04,0.32 -0.56,0.16 -1.28,0.28 -0.68,0.12 -1.44,0.12 -1.76,0 -2.92,-0.48 -1.16,-0.48 -1.88,-1.44 -0.68,-0.96 -0.96,-2.36 -0.28,-1.44 -0.28,-3.32 z"
         id="path1037" />
      <path
         d="m 303.9022,157.72566 v -15.8 h -3.92 v -2.76 h 3.92 v -1.68 q 0,-2.16 0.6,-3.56 0.6,-1.44 1.56,-2.32 1,-0.88 2.28,-1.24 1.32,-0.36 2.76,-0.36 1.44,0 2.88,0.32 1.48,0.32 2.76,0.76 l -0.6,2.84 q -0.88,-0.44 -2.2,-0.76 -1.32,-0.32 -2.68,-0.32 -0.84,0 -1.6,0.24 -0.72,0.2 -1.28,0.76 -0.56,0.52 -0.88,1.44 -0.32,0.88 -0.32,2.24 v 1.64 h 7.48 v 2.76 h -7.48 v 15.8 z"
         id="path1039" />
      <path
         d="m 325.82213,136.28566 q -1.04,0 -1.8,-0.72 -0.76,-0.72 -0.76,-1.96 0,-1.24 0.76,-1.96 0.76,-0.72 1.8,-0.72 1.08,0 1.8,0.72 0.76,0.72 0.76,1.96 0,1.24 -0.76,1.96 -0.72,0.72 -1.8,0.72 z m -0.84,5.64 h -5.36 v -2.76 h 8.64 v 11.4 q 0,2.76 0.76,3.72 0.76,0.92 2.28,0.92 1.16,0 2.12,-0.28 1,-0.28 1.56,-0.6 l 0.48,2.8 q -0.24,0.12 -0.68,0.32 -0.44,0.16 -1.04,0.32 -0.56,0.16 -1.28,0.28 -0.68,0.12 -1.44,0.12 -1.76,0 -2.92,-0.48 -1.16,-0.48 -1.88,-1.44 -0.68,-0.96 -0.96,-2.36 -0.28,-1.44 -0.28,-3.32 z"
         id="path1041" />
      <path
         d="m 347.82205,138.72566 q 3.76,0 5.8,2.36 2.04,2.32 2.04,7.08 v 1.16 h -13.28 q 0.2,2.88 1.88,4.4 1.72,1.48 4.8,1.48 1.76,0 3,-0.28 1.24,-0.28 1.88,-0.6 l 0.44,2.8 q -0.6,0.32 -2.16,0.68 -1.56,0.36 -3.52,0.36 -2.4,0 -4.24,-0.72 -1.8,-0.76 -3,-2.04 -1.2,-1.28 -1.8,-3.04 -0.6,-1.8 -0.6,-3.88 0,-2.48 0.76,-4.32 0.76,-1.84 2,-3.04 1.24,-1.2 2.8,-1.8 1.56,-0.6 3.2,-0.6 z m 4.48,7.92 q 0,-2.36 -1.24,-3.72 -1.24,-1.4 -3.28,-1.4 -1.16,0 -2.12,0.44 -0.92,0.44 -1.6,1.16 -0.68,0.72 -1.08,1.64 -0.4,0.92 -0.52,1.88 z"
         id="path1043" />
      <path
         d="m 361.74198,157.72566 v -17.56 q 4.08,-1.4 8.24,-1.4 1.28,0 2.44,0.12 1.16,0.08 2.56,0.4 l -0.6,2.92 q -1.28,-0.36 -2.28,-0.44 -0.96,-0.12 -2.12,-0.12 -2.44,0 -4.96,0.68 v 15.4 z"
         id="path1045" />
      <path
         d="m 391.50191,153.08566 q 0,-1 -0.84,-1.64 -0.8,-0.64 -2.04,-1.12 -1.2,-0.48 -2.64,-0.92 -1.44,-0.48 -2.68,-1.16 -1.2,-0.68 -2.04,-1.68 -0.8,-1 -0.8,-2.6 0,-2.24 1.8,-3.72 1.84,-1.52 5.72,-1.52 1.52,0 3.12,0.24 1.64,0.2 2.8,0.56 l -0.6,2.96 q -0.32,-0.16 -0.88,-0.32 -0.56,-0.2 -1.28,-0.32 -0.72,-0.16 -1.56,-0.24 -0.8,-0.08 -1.56,-0.08 -4.32,0 -4.32,2.36 0,0.84 0.8,1.44 0.84,0.56 2.08,1.04 1.24,0.48 2.68,1 1.44,0.48 2.68,1.2 1.24,0.72 2.04,1.76 0.84,1 0.84,2.56 0,2.52 -1.96,3.92 -1.96,1.36 -6.2,1.36 -1.92,0 -3.52,-0.32 -1.6,-0.32 -3.04,-0.96 l 0.64,-3 q 1.4,0.64 2.92,1.08 1.56,0.4 3.32,0.4 4.52,0 4.52,-2.28 z"
         id="path1047" />
      <path
         d="m 410.42182,155.16566 q 0,1.2 -0.8,2.12 -0.8,0.92 -2.12,0.92 -1.36,0 -2.16,-0.92 -0.8,-0.92 -0.8,-2.12 0,-1.24 0.8,-2.16 0.8,-0.92 2.16,-0.92 1.32,0 2.12,0.92 0.8,0.92 0.8,2.16 z"
         id="path1049" />
      <path
         d="m 420.30173,139.68566 q 1.8,-0.44 3.56,-0.68 1.8,-0.24 3.36,-0.24 3.72,0 5.6,1.92 1.92,1.92 1.92,6.16 v 10.88 h -3.28 v -10.28 q 0,-1.8 -0.32,-2.92 -0.32,-1.12 -0.92,-1.72 -0.56,-0.64 -1.4,-0.88 -0.8,-0.24 -1.76,-0.24 -0.8,0 -1.72,0.12 -0.88,0.08 -1.72,0.24 v 15.68 h -3.32 z"
         id="path1051" />
      <path
         d="m 447.66167,155.36566 q 1.24,0 2.2,-0.08 1,-0.08 1.64,-0.2 v -5.52 q -0.64,-0.2 -1.56,-0.32 -0.88,-0.12 -1.88,-0.12 -0.92,0 -1.8,0.16 -0.88,0.12 -1.56,0.48 -0.68,0.36 -1.12,0.96 -0.44,0.56 -0.44,1.44 0,1.8 1.2,2.52 1.24,0.68 3.32,0.68 z m -0.32,-16.64 q 2.08,0 3.48,0.52 1.44,0.52 2.32,1.44 0.88,0.92 1.24,2.24 0.36,1.32 0.36,2.88 v 11.6 q -1.16,0.2 -3.08,0.48 -1.88,0.28 -3.88,0.28 -1.52,0 -2.96,-0.28 -1.44,-0.24 -2.56,-0.88 -1.12,-0.68 -1.8,-1.84 -0.68,-1.16 -0.68,-2.96 0,-1.6 0.68,-2.68 0.72,-1.12 1.8,-1.8 1.12,-0.68 2.52,-0.96 1.44,-0.32 2.88,-0.32 1.96,0 3.84,0.44 v -0.92 q 0,-0.84 -0.2,-1.6 -0.16,-0.8 -0.68,-1.44 -0.48,-0.64 -1.36,-1 -0.84,-0.4 -2.2,-0.4 -1.72,0 -3,0.24 -1.28,0.24 -1.96,0.48 l -0.4,-2.72 q 0.68,-0.32 2.24,-0.56 1.6,-0.24 3.4,-0.24 z"
         id="path1053" />
      <path
         d="m 459.10161,139.68566 q 2.4,-0.92 4.52,-0.92 1.16,0 2.16,0.36 1.04,0.32 1.76,1.04 1.72,-1.4 3.68,-1.4 0.96,0 1.8,0.36 0.88,0.36 1.52,1.08 0.68,0.72 1.08,1.8 0.4,1.08 0.4,2.52 v 13.2 h -3 v -13.28 q 0,-1.44 -0.64,-2.2 -0.64,-0.76 -1.6,-0.76 -0.48,0 -1,0.24 -0.52,0.24 -0.96,0.76 0.24,0.92 0.24,2.04 v 6.04 h -3 v -6.08 q 0,-1.4 -0.44,-2.2 -0.44,-0.8 -1.72,-0.8 -0.8,0 -1.8,0.36 v 15.88 h -3 z"
         id="path1055" />
      <path
         d="m 487.82152,138.72566 q 3.76,0 5.8,2.36 2.04,2.32 2.04,7.08 v 1.16 h -13.28 q 0.2,2.88 1.88,4.4 1.72,1.48 4.8,1.48 1.76,0 3,-0.28 1.24,-0.28 1.88,-0.6 l 0.44,2.8 q -0.6,0.32 -2.16,0.68 -1.56,0.36 -3.52,0.36 -2.4,0 -4.24,-0.72 -1.8,-0.76 -3,-2.04 -1.2,-1.28 -1.8,-3.04 -0.6,-1.8 -0.6,-3.88 0,-2.48 0.76,-4.32 0.76,-1.84 2,-3.04 1.24,-1.2 2.8,-1.8 1.56,-0.6 3.2,-0.6 z m 4.48,7.92 q 0,-2.36 -1.24,-3.72 -1.24,-1.4 -3.28,-1.4 -1.16,0 -2.12,0.44 -0.92,0.44 -1.6,1.16 -0.68,0.72 -1.08,1.64 -0.4,0.92 -0.52,1.88 z"
         id="path1057" />
      <path
         d="m 512.82143,132.08566 q -3.72,2.88 -5.68,6.64 -1.96,3.76 -1.96,8.2 0,2.24 0.44,4.24 0.48,2 1.4,3.84 0.96,1.84 2.4,3.56 1.48,1.72 3.48,3.44 l -1.8,2.4 q -4.6,-3.4 -6.88,-7.88 -2.24,-4.52 -2.24,-9.52 0,-4.96 2.28,-9.48 2.28,-4.52 6.84,-7.84 l 1.76,2.4 z"
         id="path1059" />
      <path
         d="m 521.54136,132.96566 q 0.48,2.52 1.2,5.52 0.76,2.96 1.56,5.96 0.84,2.96 1.68,5.68 0.84,2.72 1.56,4.76 0.64,-2.04 1.48,-4.8 0.88,-2.76 1.72,-5.72 0.84,-3 1.56,-5.96 0.76,-2.96 1.24,-5.44 h 3.44 q -0.32,1.6 -1.04,4.32 -0.72,2.68 -1.72,6.04 -1,3.32 -2.24,7.08 -1.2,3.72 -2.52,7.32 h -4.08 q -1.24,-3.6 -2.44,-7.32 -1.16,-3.72 -2.16,-7.04 -1,-3.36 -1.72,-6.08 -0.72,-2.72 -1.08,-4.32 z"
         id="path1061" />
      <path
         d="m 547.6613,155.36566 q 1.24,0 2.2,-0.08 1,-0.08 1.64,-0.2 v -5.52 q -0.64,-0.2 -1.56,-0.32 -0.88,-0.12 -1.88,-0.12 -0.92,0 -1.8,0.16 -0.88,0.12 -1.56,0.48 -0.68,0.36 -1.12,0.96 -0.44,0.56 -0.44,1.44 0,1.8 1.2,2.52 1.24,0.68 3.32,0.68 z m -0.32,-16.64 q 2.08,0 3.48,0.52 1.44,0.52 2.32,1.44 0.88,0.92 1.24,2.24 0.36,1.32 0.36,2.88 v 11.6 q -1.16,0.2 -3.08,0.48 -1.88,0.28 -3.88,0.28 -1.52,0 -2.96,-0.28 -1.44,-0.24 -2.56,-0.88 -1.12,-0.68 -1.8,-1.84 -0.68,-1.16 -0.68,-2.96 0,-1.6 0.68,-2.68 0.72,-1.12 1.8,-1.8 1.12,-0.68 2.52,-0.96 1.44,-0.32 2.88,-0.32 1.96,0 3.84,0.44 v -0.92 q 0,-0.84 -0.2,-1.6 -0.16,-0.8 -0.68,-1.44 -0.48,-0.64 -1.36,-1 -0.84,-0.4 -2.2,-0.4 -1.72,0 -3,0.24 -1.28,0.24 -1.96,0.48 l -0.4,-2.72 q 0.68,-0.32 2.24,-0.56 1.6,-0.24 3.4,-0.24 z"
         id="path1063" />
      <path
         d="m 561.74121,157.72566 v -17.56 q 4.08,-1.4 8.24,-1.4 1.28,0 2.44,0.12 1.16,0.08 2.56,0.4 l -0.6,2.92 q -1.28,-0.36 -2.28,-0.44 -0.96,-0.12 -2.12,-0.12 -2.44,0 -4.96,0.68 v 15.4 z"
         id="path1065" />
      <path
         d="m 590.42112,155.16566 q 0,1.2 -0.8,2.12 -0.8,0.92 -2.12,0.92 -1.36,0 -2.16,-0.92 -0.8,-0.92 -0.8,-2.12 0,-1.24 0.8,-2.16 0.8,-0.92 2.16,-0.92 1.32,0 2.12,0.92 0.8,0.92 0.8,2.16 z"
         id="path1067" />
      <path
         d="m 612.82106,157.72566 q -0.44,-1.08 -1.04,-2.44 -0.6,-1.36 -1.28,-2.8 -0.68,-1.44 -1.48,-2.88 -0.76,-1.44 -1.6,-2.68 -1.4,2.24 -2.8,5.16 -1.4,2.88 -2.6,5.64 h -3.56 q 1.32,-2.96 3.08,-6.4 1.76,-3.48 3.76,-6.68 l -6.44,-11.68 h 3.64 l 4.84,9.48 5.2,-9.48 h 3.56 l -6.56,11.56 q 1.92,3.12 3.72,6.48 1.8,3.36 3.2,6.72 z"
         id="path1069" />
      <path
         d="m 623.421,160.88566 q 0.72,-0.16 1.4,-0.32 0.72,-0.16 1.32,-0.48 0.6,-0.28 1.08,-0.76 0.48,-0.44 0.76,-1.24 -1.28,-0.12 -1.88,-0.96 -0.56,-0.88 -0.56,-1.72 0,-1.6 0.88,-2.4 0.92,-0.84 2.08,-0.84 1.48,0 2.24,1.08 0.76,1.04 0.76,2.56 0,1.16 -0.48,2.4 -0.44,1.28 -1.4,2.36 -0.92,1.12 -2.32,1.88 -1.4,0.8 -3.32,1.04 z"
         id="path1071" />
      <path
         d="m 675.90082,132.96566 v 2.8 h -6.8 v 21.96 h -3.28 v -21.96 h -6.8 v -2.8 z"
         id="path1073" />
      <path
         d="m 687.82075,138.72566 q 3.76,0 5.8,2.36 2.04,2.32 2.04,7.08 v 1.16 h -13.28 q 0.2,2.88 1.88,4.4 1.72,1.48 4.8,1.48 1.76,0 3,-0.28 1.24,-0.28 1.88,-0.6 l 0.44,2.8 q -0.6,0.32 -2.16,0.68 -1.56,0.36 -3.52,0.36 -2.4,0 -4.24,-0.72 -1.8,-0.76 -3,-2.04 -1.2,-1.28 -1.8,-3.04 -0.6,-1.8 -0.6,-3.88 0,-2.48 0.76,-4.32 0.76,-1.84 2,-3.04 1.24,-1.2 2.8,-1.8 1.56,-0.6 3.2,-0.6 z m 4.48,7.92 q 0,-2.36 -1.24,-3.72 -1.24,-1.4 -3.28,-1.4 -1.16,0 -2.12,0.44 -0.92,0.44 -1.6,1.16 -0.68,0.72 -1.08,1.64 -0.4,0.92 -0.52,1.88 z"
         id="path1075" />
      <path
         d="m 701.74069,157.72566 v -17.56 q 4.08,-1.4 8.24,-1.4 1.28,0 2.44,0.12 1.16,0.08 2.56,0.4 l -0.6,2.92 q -1.28,-0.36 -2.28,-0.44 -0.96,-0.12 -2.12,-0.12 -2.44,0 -4.96,0.68 v 15.4 z"
         id="path1077" />
      <path
         d="m 719.10057,139.68566 q 2.4,-0.92 4.52,-0.92 1.16,0 2.16,0.36 1.04,0.32 1.76,1.04 1.72,-1.4 3.68,-1.4 0.96,0 1.8,0.36 0.88,0.36 1.52,1.08 0.68,0.72 1.08,1.8 0.4,1.08 0.4,2.52 v 13.2 h -3 v -13.28 q 0,-1.44 -0.64,-2.2 -0.64,-0.76 -1.6,-0.76 -0.48,0 -1,0.24 -0.52,0.24 -0.96,0.76 0.24,0.92 0.24,2.04 v 6.04 h -3 v -6.08 q 0,-1.4 -0.44,-2.2 -0.44,-0.8 -1.72,-0.8 -0.8,0 -1.8,0.36 v 15.88 h -3 z"
         id="path1079" />
      <path
         d="m 750.42051,155.16566 q 0,1.2 -0.8,2.12 -0.8,0.92 -2.12,0.92 -1.36,0 -2.16,-0.92 -0.8,-0.92 -0.8,-2.12 0,-1.24 0.8,-2.16 0.8,-0.92 2.16,-0.92 1.32,0 2.12,0.92 0.8,0.92 0.8,2.16 z"
         id="path1081" />
      <path
         d="m 765.86045,157.72566 v -9.2 q -2.44,-4 -4.44,-7.8 -1.96,-3.8 -3.44,-7.76 h 3.68 q 1.16,3.36 2.64,6.44 1.52,3.04 3.24,6.28 1.84,-3.4 3.24,-6.44 1.44,-3.08 2.6,-6.28 h 3.6 q -1.52,3.92 -3.48,7.64 -1.96,3.72 -4.36,7.84 v 9.28 z"
         id="path1083" />
      <path
         d="m 782.06039,162.00566 q 3.72,-2.88 5.68,-6.64 2,-3.76 2,-8.2 0,-2.24 -0.48,-4.24 -0.44,-2 -1.4,-3.84 -0.96,-1.84 -2.44,-3.56 -1.44,-1.72 -3.44,-3.44 l 1.8,-2.4 q 4.6,3.4 6.84,7.92 2.28,4.48 2.28,9.48 0,2.48 -0.6,4.88 -0.56,2.4 -1.72,4.64 -1.12,2.2 -2.84,4.16 -1.68,2 -3.96,3.64 l -1.76,-2.4 z"
         id="path1085" />
      <path
         d="m 803.18033,129.76566 h 9.56 v 2.6 h -6.44 v 29.36 h 6.44 v 2.6 h -9.56 z"
         id="path1087" />
      <path
         d="m 823.58021,157.72566 h -3.08 q -0.36,-2.44 -0.64,-5.36 -0.24,-2.96 -0.48,-6.16 -0.2,-3.2 -0.36,-6.56 -0.16,-3.36 -0.28,-6.68 h 3.2 l 0.44,20.68 3.6,-11.28 h 2.88 l 3.68,11.28 0.44,-20.68 h 3.2 q -0.12,3.36 -0.32,6.72 -0.16,3.36 -0.4,6.56 -0.24,3.16 -0.52,6.08 -0.28,2.92 -0.6,5.4 h -3.04 l -3.88,-12.32 z"
         id="path1089" />
      <path
         d="m 851.74014,164.32566 h -9.56 v -2.6 h 6.44 v -29.36 h -6.44 v -2.6 h 9.56 z"
         id="path1091" />
    </g>
    <g
       aria-label="Terms"
       transform="matrix(0.26458333,0,0,0.26458333,103.43677,-6.2250267)"
       id="text57623"
       style="font-size:29.3333px;line-height:1.25;font-family:'Ubuntu Mono';-inkscape-font-specification:'Ubuntu Mono';white-space:pre;shape-inside:url(#rect57647)">
      <path
         d="m 130.98554,129.6196 v 2.05333 h -4.98666 v 16.10398 h -2.40533 v -16.10398 h -4.98666 v -2.05333 z"
         id="path1094" />
      <path
         d="m 139.72681,133.84359 q 2.75733,0 4.25333,1.73067 1.496,1.70133 1.496,5.19199 v 0.85067 h -9.73866 q 0.14667,2.112 1.37867,3.22666 1.26133,1.08533 3.51999,1.08533 1.29067,0 2.2,-0.20533 0.90933,-0.20533 1.37866,-0.44 l 0.32267,2.05333 q -0.44,0.23467 -1.584,0.49867 -1.144,0.264 -2.58133,0.264 -1.76,0 -3.10933,-0.528 -1.32,-0.55733 -2.2,-1.496 -0.87999,-0.93867 -1.31999,-2.22933 -0.44,-1.32 -0.44,-2.84533 0,-1.81867 0.55733,-3.168 0.55733,-1.34933 1.46666,-2.22933 0.90934,-0.88 2.05333,-1.32 1.144,-0.44 2.34667,-0.44 z m 3.28533,5.808 q 0,-1.73067 -0.90933,-2.728 -0.90934,-1.02666 -2.40533,-1.02666 -0.85067,0 -1.55467,0.32266 -0.67467,0.32267 -1.17333,0.85067 -0.49867,0.528 -0.792,1.20266 -0.29333,0.67467 -0.38133,1.37867 z"
         id="path1096" />
      <path
         d="m 149.93474,147.77691 v -12.87732 q 2.992,-1.02666 6.04266,-1.02666 0.93867,0 1.78933,0.088 0.85067,0.0587 1.87733,0.29333 l -0.44,2.14133 q -0.93866,-0.264 -1.67199,-0.32266 -0.704,-0.088 -1.55467,-0.088 -1.78933,0 -3.63733,0.49866 v 11.29332 z"
         id="path1098" />
      <path
         d="m 162.66533,134.54759 q 1.76,-0.67466 3.31467,-0.67466 0.85066,0 1.584,0.264 0.76266,0.23466 1.29066,0.76266 1.26133,-1.02666 2.69866,-1.02666 0.704,0 1.32,0.264 0.64534,0.264 1.11467,0.792 0.49866,0.528 0.792,1.31999 0.29333,0.792 0.29333,1.848 v 9.67999 h -2.2 v -9.73865 q 0,-1.056 -0.46933,-1.61334 -0.46933,-0.55733 -1.17333,-0.55733 -0.352,0 -0.73333,0.176 -0.38134,0.176 -0.704,0.55733 0.176,0.67467 0.176,1.496 v 4.42933 h -2.2 v -4.45866 q 0,-1.02667 -0.32267,-1.61333 -0.32266,-0.58667 -1.26133,-0.58667 -0.58667,0 -1.32,0.264 v 11.64532 h -2.2 z"
         id="path1100" />
      <path
         d="m 186.42525,144.37425 q 0,-0.73333 -0.616,-1.20267 -0.58666,-0.46933 -1.49599,-0.82133 -0.88,-0.352 -1.936,-0.67466 -1.056,-0.352 -1.96533,-0.85067 -0.88,-0.49867 -1.496,-1.232 -0.58667,-0.73333 -0.58667,-1.90666 0,-1.64267 1.32,-2.728 1.34933,-1.11467 4.19466,-1.11467 1.11467,0 2.288,0.176 1.20267,0.14667 2.05333,0.41067 l -0.44,2.17066 q -0.23466,-0.11733 -0.64533,-0.23466 -0.41067,-0.14667 -0.93867,-0.23467 -0.528,-0.11733 -1.144,-0.176 -0.58666,-0.0587 -1.14399,-0.0587 -3.168,0 -3.168,1.73066 0,0.616 0.58667,1.056 0.61599,0.41066 1.52533,0.76266 0.90933,0.352 1.96533,0.73334 1.056,0.352 1.96533,0.88 0.90933,0.528 1.496,1.29066 0.616,0.73333 0.616,1.87733 0,1.848 -1.43733,2.87467 -1.43734,0.99733 -4.54667,0.99733 -1.40799,0 -2.58133,-0.23467 -1.17333,-0.23466 -2.22933,-0.704 l 0.46934,-2.2 q 1.02666,0.46934 2.14133,0.792 1.14399,0.29334 2.43466,0.29334 3.31466,0 3.31466,-1.672 z"
         id="path1102" />
    </g>
    <g
       aria-label="Weights"
       transform="matrix(0.26458333,0,0,0.26458333,147.84489,-6.2250267)"
       id="text57627"
       style="font-size:29.3333px;line-height:1.25;font-family:'Ubuntu Mono';-inkscape-font-specification:'Ubuntu Mono';white-space:pre;shape-inside:url(#rect57649)">
      <path
         d="m 121.95089,147.77691 h -2.25867 q -0.264,-1.78933 -0.46933,-3.93066 -0.176,-2.17066 -0.352,-4.51733 -0.14667,-2.34666 -0.264,-4.81066 -0.11733,-2.464 -0.20533,-4.89866 h 2.34666 l 0.32267,15.16532 2.63999,-8.272 h 2.112 l 2.69866,8.272 0.32267,-15.16532 h 2.34666 q -0.088,2.464 -0.23466,4.92799 -0.11733,2.464 -0.29333,4.81066 -0.176,2.31734 -0.38134,4.45867 -0.20533,2.14133 -0.44,3.95999 h -2.22933 l -2.84533,-9.03465 z"
         id="path1105" />
      <path
         d="m 139.72681,133.84359 q 2.75733,0 4.25333,1.73067 1.496,1.70133 1.496,5.19199 v 0.85067 h -9.73866 q 0.14667,2.112 1.37867,3.22666 1.26133,1.08533 3.51999,1.08533 1.29067,0 2.2,-0.20533 0.90933,-0.20533 1.37866,-0.44 l 0.32267,2.05333 q -0.44,0.23467 -1.584,0.49867 -1.144,0.264 -2.58133,0.264 -1.76,0 -3.10933,-0.528 -1.32,-0.55733 -2.2,-1.496 -0.87999,-0.93867 -1.31999,-2.22933 -0.44,-1.32 -0.44,-2.84533 0,-1.81867 0.55733,-3.168 0.55733,-1.34933 1.46666,-2.22933 0.90934,-0.88 2.05333,-1.32 1.144,-0.44 2.34667,-0.44 z m 3.28533,5.808 q 0,-1.73067 -0.90933,-2.728 -0.90934,-1.02666 -2.40533,-1.02666 -0.85067,0 -1.55467,0.32266 -0.67467,0.32267 -1.17333,0.85067 -0.49867,0.528 -0.792,1.20266 -0.29333,0.67467 -0.38133,1.37867 z"
         id="path1107" />
      <path
         d="m 152.92674,132.05426 q -0.76267,0 -1.32,-0.528 -0.55733,-0.528 -0.55733,-1.43733 0,-0.90933 0.55733,-1.43733 0.55733,-0.528 1.32,-0.528 0.792,0 1.32,0.528 0.55733,0.528 0.55733,1.43733 0,0.90933 -0.55733,1.43733 -0.528,0.528 -1.32,0.528 z m -0.616,4.136 h -3.93066 v -2.024 h 6.33599 v 8.35999 q 0,2.024 0.55733,2.728 0.55733,0.67466 1.672,0.67466 0.85067,0 1.55466,-0.20533 0.73334,-0.20533 1.144,-0.44 l 0.352,2.05333 q -0.176,0.088 -0.49866,0.23467 -0.32267,0.11733 -0.76267,0.23466 -0.41067,0.11734 -0.93866,0.20534 -0.49867,0.088 -1.056,0.088 -1.29067,0 -2.14133,-0.352 -0.85067,-0.352 -1.37867,-1.056 -0.49867,-0.704 -0.704,-1.73067 -0.20533,-1.05599 -0.20533,-2.43466 z"
         id="path1109" />
      <path
         d="m 171.61199,146.51558 q -0.41067,0.23467 -1.26133,0.49867 -0.85067,0.264 -1.96533,0.264 -1.20267,0 -2.25867,-0.38134 -1.02666,-0.41066 -1.81866,-1.20266 -0.76267,-0.82133 -1.232,-2.05333 -0.44,-1.26134 -0.44,-2.96267 0,-1.496 0.41067,-2.72799 0.44,-1.26134 1.232,-2.17067 0.82133,-0.90933 1.99466,-1.408 1.17333,-0.528 2.66933,-0.528 1.76,0 2.992,0.264 1.26133,0.23467 2.11199,0.46934 v 12.14398 q 0,3.168 -1.61333,4.576 -1.58399,1.408 -4.81066,1.408 -1.32,0 -2.40533,-0.20534 -1.056,-0.20533 -1.87733,-0.49866 l 0.44,-2.14133 q 0.76267,0.32266 1.73066,0.528 0.99734,0.20533 2.17067,0.20533 2.112,0 3.02133,-0.85067 0.90933,-0.85066 0.90933,-2.75733 z m 0,-10.20799 q -0.352,-0.11733 -0.968,-0.20533 -0.616,-0.11733 -1.672,-0.11733 -1.87733,0 -2.87466,1.29066 -0.968,1.29067 -0.968,3.432 0,1.17333 0.264,2.02399 0.29333,0.82134 0.76267,1.37867 0.49866,0.528 1.11466,0.792 0.616,0.23466 1.32,0.23466 0.90933,0 1.70133,-0.26399 0.82133,-0.264 1.32,-0.616 z"
         id="path1111" />
      <path
         d="M 178.21193,147.77691 V 127.8596 l 2.43466,-0.41066 v 6.92265 q 0.58667,-0.23466 1.32,-0.352 0.73333,-0.14666 1.43733,-0.14666 1.55467,0 2.58133,0.46933 1.056,0.44 1.672,1.26133 0.616,0.82133 0.88,1.96533 0.264,1.144 0.264,2.52267 v 7.68532 h -2.40533 v -7.15732 q 0,-2.52267 -0.704,-3.54933 -0.704,-1.056 -2.52266,-1.056 -0.76267,0 -1.496,0.176 -0.704,0.14666 -1.02667,0.29333 v 11.29332 z"
         id="path1113" />
      <path
         d="m 197.92385,134.16626 h 5.74933 v 2.024 h -5.74933 v 6.33599 q 0,1.02667 0.14667,1.672 0.14667,0.64533 0.46933,1.056 0.352,0.38133 0.88,0.528 0.528,0.14666 1.29067,0.14666 1.05599,0 1.70133,-0.176 0.64533,-0.176 1.232,-0.46933 l 0.352,2.05333 q -0.41067,0.176 -1.32,0.46933 -0.88,0.29334 -2.2,0.29334 -1.52533,0 -2.49333,-0.352 -0.968,-0.352 -1.52533,-1.056 -0.528,-0.704 -0.73334,-1.73067 -0.20533,-1.05599 -0.20533,-2.43466 v -6.33599 h -2.87466 v -2.024 h 2.87466 v -3.81333 l 2.40533,-0.41066 z"
         id="path1115" />
      <path
         d="m 215.75844,144.37425 q 0,-0.73333 -0.616,-1.20267 -0.58667,-0.46933 -1.496,-0.82133 -0.88,-0.352 -1.936,-0.67466 -1.056,-0.352 -1.96533,-0.85067 -0.88,-0.49867 -1.496,-1.232 -0.58666,-0.73333 -0.58666,-1.90666 0,-1.64267 1.31999,-2.728 1.34934,-1.11467 4.19467,-1.11467 1.11466,0 2.28799,0.176 1.20267,0.14667 2.05333,0.41067 l -0.44,2.17066 q -0.23466,-0.11733 -0.64533,-0.23466 -0.41066,-0.14667 -0.93866,-0.23467 -0.528,-0.11733 -1.144,-0.176 -0.58667,-0.0587 -1.144,-0.0587 -3.168,0 -3.168,1.73066 0,0.616 0.58667,1.056 0.616,0.41066 1.52533,0.76266 0.90933,0.352 1.96533,0.73334 1.056,0.352 1.96533,0.88 0.90933,0.528 1.496,1.29066 0.616,0.73333 0.616,1.87733 0,1.848 -1.43733,2.87467 -1.43733,0.99733 -4.54666,0.99733 -1.408,0 -2.58133,-0.23467 -1.17334,-0.23466 -2.22933,-0.704 l 0.46933,-2.2 q 1.02666,0.46934 2.14133,0.792 1.144,0.29334 2.43466,0.29334 3.31467,0 3.31467,-1.672 z"
         id="path1117" />
    </g>
    <g
       aria-label="Predicate
name"
       transform="matrix(0.26458333,0,0,0.26458333,45.22841,-4.1083601)"
       id="text57631"
       style="font-size:29.3333px;line-height:0.85;font-family:'Ubuntu Mono';-inkscape-font-specification:'Ubuntu Mono';white-space:pre;shape-inside:url(#rect57651)">
      <path
         d="m 124.35622,123.57694 q 1.61333,0 2.81599,0.41067 1.232,0.41066 2.024,1.17333 0.82133,0.73333 1.20267,1.76 0.41066,1.02666 0.41066,2.28799 0,2.84533 -1.672,4.4 -1.67199,1.52533 -5.01599,1.52533 h -2.112 v 6.77599 h -2.40533 v -17.89331 q 0.528,-0.11733 1.144,-0.20533 0.64533,-0.088 1.26133,-0.14667 0.64533,-0.0587 1.232,-0.0587 0.616,-0.0293 1.11467,-0.0293 z m 0.176,2.08266 q -0.76267,0 -1.46667,0.0293 -0.704,0 -1.056,0.0587 v 7.33333 h 1.99467 q 2.19999,0 3.25599,-0.88 1.08533,-0.88 1.08533,-2.904 0,-3.63733 -3.81332,-3.63733 z"
         id="path1120" />
      <path
         d="m 135.26815,141.91025 v -12.87732 q 2.99199,-1.02666 6.04266,-1.02666 0.93866,0 1.78933,0.088 0.85066,0.0587 1.87733,0.29333 l -0.44,2.14133 q -0.93867,-0.264 -1.672,-0.32266 -0.704,-0.088 -1.55466,-0.088 -1.78933,0 -3.63733,0.49866 v 11.29332 z"
         id="path1122" />
      <path
         d="m 154.3934,127.97693 q 2.75733,0 4.25333,1.73067 1.496,1.70133 1.496,5.19199 v 0.85067 h -9.73866 q 0.14667,2.112 1.37867,3.22666 1.26133,1.08533 3.51999,1.08533 1.29067,0 2.2,-0.20533 0.90933,-0.20533 1.37867,-0.44 l 0.32266,2.05333 q -0.44,0.23467 -1.58399,0.49867 -1.144,0.264 -2.58134,0.264 -1.75999,0 -3.10932,-0.528 -1.32,-0.55733 -2.2,-1.496 -0.88,-0.93866 -1.32,-2.22933 -0.44,-1.32 -0.44,-2.84533 0,-1.81866 0.55733,-3.168 0.55734,-1.34933 1.46667,-2.22933 0.90933,-0.88 2.05333,-1.32 1.144,-0.44 2.34666,-0.44 z m 3.28533,5.808 q 0,-1.73067 -0.90933,-2.728 -0.90933,-1.02666 -2.40533,-1.02666 -0.85067,0 -1.55467,0.32266 -0.67466,0.32267 -1.17333,0.85067 -0.49866,0.528 -0.792,1.20266 -0.29333,0.67467 -0.38133,1.37867 z"
         id="path1124" />
      <path
         d="m 171.61199,131.17426 q -0.41067,-0.38133 -1.20266,-0.70399 -0.792,-0.352 -1.64267,-0.352 -0.968,0 -1.672,0.38133 -0.67466,0.38133 -1.11466,1.056 -0.44,0.64533 -0.64534,1.584 -0.20533,0.90933 -0.20533,1.96533 0,2.37599 1.11467,3.66666 1.11466,1.29066 2.90399,1.29066 0.90934,0 1.52534,-0.088 0.64533,-0.088 0.93866,-0.176 z m 0,-9.18132 2.43466,-0.41066 v 19.94664 q -0.79199,0.23467 -2.02399,0.46933 -1.232,0.23467 -2.87467,0.23467 -1.46666,0 -2.66933,-0.49867 -1.20266,-0.49866 -2.05333,-1.408 -0.85066,-0.93866 -1.32,-2.25866 -0.46933,-1.32 -0.46933,-2.96266 0,-1.584 0.38133,-2.87467 0.41067,-1.32 1.17334,-2.25866 0.76266,-0.93867 1.81866,-1.46667 1.08533,-0.528 2.464,-0.528 1.08533,0 1.90666,0.264 0.82133,0.264 1.232,0.55734 z"
         id="path1126" />
      <path
         d="m 182.25992,126.1876 q -0.76266,0 -1.31999,-0.528 -0.55734,-0.528 -0.55734,-1.43733 0,-0.90933 0.55734,-1.43733 0.55733,-0.528 1.31999,-0.528 0.792,0 1.32,0.528 0.55734,0.528 0.55734,1.43733 0,0.90933 -0.55734,1.43733 -0.528,0.528 -1.32,0.528 z m -0.61599,4.136 h -3.93067 v -2.024 h 6.336 v 8.35999 q 0,2.024 0.55733,2.728 0.55733,0.67466 1.672,0.67466 0.85066,0 1.55466,-0.20533 0.73333,-0.20533 1.144,-0.44 l 0.352,2.05333 q -0.176,0.088 -0.49867,0.23467 -0.32266,0.11733 -0.76266,0.23467 -0.41067,0.11733 -0.93867,0.20533 -0.49866,0.088 -1.056,0.088 -1.29066,0 -2.14133,-0.352 -0.85066,-0.352 -1.37866,-1.056 -0.49867,-0.704 -0.704,-1.73066 -0.20533,-1.056 -0.20533,-2.43467 z"
         id="path1128" />
      <path
         d="m 192.23319,135.13426 q 0,-1.848 0.58667,-3.19733 0.58666,-1.34933 1.61333,-2.22933 1.02666,-0.88 2.376,-1.29067 1.37866,-0.44 2.93333,-0.44 0.99733,0 1.96533,0.14667 0.99733,0.11733 2.112,0.46933 l -0.55734,2.08267 q -0.968,-0.352 -1.78933,-0.44 -0.792,-0.11733 -1.61333,-0.11733 -1.056,0 -1.99466,0.29333 -0.93867,0.264 -1.64267,0.88 -0.67467,0.58666 -1.08533,1.55466 -0.41067,0.93867 -0.41067,2.288 0,1.29067 0.38134,2.22933 0.38133,0.90933 1.05599,1.52533 0.704,0.58667 1.672,0.88 0.968,0.29333 2.14133,0.29333 0.93867,0 1.78933,-0.088 0.88,-0.11733 1.90667,-0.46933 l 0.352,2.024 q -1.02667,0.38133 -2.08267,0.528 -1.05599,0.176 -2.28799,0.176 -1.64267,0 -3.02133,-0.44 -1.34933,-0.46933 -2.34667,-1.34933 -0.968,-0.88 -1.52533,-2.2 -0.528,-1.34933 -0.528,-3.10933 z"
         id="path1130" />
      <path
         d="m 212.94244,140.17959 q 0.90933,0 1.61333,-0.0587 0.73333,-0.0587 1.20267,-0.14667 v -4.04799 q -0.46934,-0.14667 -1.144,-0.23467 -0.64533,-0.088 -1.37867,-0.088 -0.67466,0 -1.32,0.11734 -0.64533,0.088 -1.14399,0.352 -0.49867,0.264 -0.82134,0.70399 -0.32266,0.41067 -0.32266,1.056 0,1.32 0.88,1.848 0.90933,0.49867 2.43466,0.49867 z m -0.23467,-12.20266 q 1.52533,0 2.552,0.38134 1.056,0.38133 1.70133,1.056 0.64533,0.67466 0.90933,1.64266 0.264,0.968 0.264,2.112 v 8.50666 q -0.85066,0.14666 -2.25866,0.352 -1.37867,0.20533 -2.84533,0.20533 -1.11467,0 -2.17066,-0.20533 -1.056,-0.176 -1.87734,-0.64534 -0.82133,-0.49866 -1.31999,-1.34933 -0.49867,-0.85066 -0.49867,-2.17066 0,-1.17334 0.49867,-1.96533 0.52799,-0.82134 1.31999,-1.32 0.82134,-0.49867 1.848,-0.704 1.056,-0.23467 2.112,-0.23467 1.43733,0 2.816,0.32267 v -0.67467 q 0,-0.616 -0.14667,-1.17333 -0.11733,-0.58667 -0.49867,-1.056 -0.352,-0.46933 -0.99733,-0.73333 -0.616,-0.29333 -1.61333,-0.29333 -1.26133,0 -2.2,0.176 -0.93866,0.176 -1.43733,0.352 l -0.29333,-1.99467 q 0.49866,-0.23467 1.64266,-0.41067 1.17333,-0.176 2.49333,-0.176 z"
         id="path1132" />
      <path
         d="m 227.25704,128.2996 h 5.74932 v 2.024 h -5.74932 v 6.33599 q 0,1.02667 0.14666,1.672 0.14667,0.64533 0.46933,1.056 0.352,0.38133 0.88,0.528 0.528,0.14666 1.29067,0.14666 1.056,0 1.70133,-0.176 0.64533,-0.176 1.232,-0.46933 l 0.352,2.05333 q -0.41067,0.176 -1.32,0.46934 -0.88,0.29333 -2.2,0.29333 -1.52533,0 -2.49333,-0.352 -0.968,-0.352 -1.52533,-1.056 -0.528,-0.704 -0.73333,-1.73066 -0.20534,-1.056 -0.20534,-2.43467 v -6.33599 h -2.87466 v -2.024 h 2.87466 v -3.81333 l 2.40534,-0.41066 z"
         id="path1134" />
      <path
         d="m 242.39296,127.97693 q 2.75733,0 4.25333,1.73067 1.496,1.70133 1.496,5.19199 v 0.85067 h -9.73866 q 0.14667,2.112 1.37867,3.22666 1.26133,1.08533 3.52,1.08533 1.29066,0 2.19999,-0.20533 0.90934,-0.20533 1.37867,-0.44 l 0.32266,2.05333 q -0.43999,0.23467 -1.58399,0.49867 -1.144,0.264 -2.58133,0.264 -1.76,0 -3.10933,-0.528 -1.32,-0.55733 -2.2,-1.496 -0.88,-0.93866 -1.32,-2.22933 -0.44,-1.32 -0.44,-2.84533 0,-1.81866 0.55733,-3.168 0.55734,-1.34933 1.46667,-2.22933 0.90933,-0.88 2.05333,-1.32 1.144,-0.44 2.34666,-0.44 z m 3.28533,5.808 q 0,-1.73067 -0.90933,-2.728 -0.90933,-1.02666 -2.40533,-1.02666 -0.85067,0 -1.55466,0.32266 -0.67467,0.32267 -1.17334,0.85067 -0.49866,0.528 -0.792,1.20266 -0.29333,0.67467 -0.38133,1.37867 z"
         id="path1136" />
      <path
         d="m 119.54555,153.61424 q 1.32,-0.32267 2.61067,-0.49867 1.32,-0.176 2.464,-0.176 2.72799,0 4.10666,1.408 1.408,1.408 1.408,4.51733 v 7.97866 h -2.40533 v -7.53866 q 0,-1.32 -0.23467,-2.14133 -0.23467,-0.82134 -0.67467,-1.26133 -0.41066,-0.46934 -1.02666,-0.64534 -0.58667,-0.176 -1.29067,-0.176 -0.58666,0 -1.26133,0.088 -0.64533,0.0587 -1.26133,0.176 v 11.49866 h -2.43467 z"
         id="path1138" />
      <path
         d="m 139.60948,165.11289 q 0.90933,0 1.61333,-0.0587 0.73333,-0.0587 1.20266,-0.14666 v -4.048 q -0.46933,-0.14666 -1.144,-0.23466 -0.64533,-0.088 -1.37866,-0.088 -0.67467,0 -1.32,0.11733 -0.64533,0.088 -1.144,0.352 -0.49866,0.264 -0.82133,0.704 -0.32267,0.41066 -0.32267,1.056 0,1.32 0.88,1.848 0.90933,0.49866 2.43467,0.49866 z m -0.23467,-12.20265 q 1.52533,0 2.552,0.38133 1.056,0.38133 1.70133,1.056 0.64533,0.67467 0.90933,1.64267 0.264,0.96799 0.264,2.11199 v 8.50666 q -0.85067,0.14667 -2.25866,0.352 -1.37867,0.20533 -2.84533,0.20533 -1.11467,0 -2.17067,-0.20533 -1.056,-0.176 -1.87733,-0.64533 -0.82133,-0.49867 -1.32,-1.34934 -0.49866,-0.85066 -0.49866,-2.17066 0,-1.17333 0.49866,-1.96533 0.528,-0.82133 1.32,-1.32 0.82133,-0.49867 1.848,-0.704 1.056,-0.23466 2.112,-0.23466 1.43733,0 2.81599,0.32266 v -0.67466 q 0,-0.616 -0.14666,-1.17334 -0.11734,-0.58666 -0.49867,-1.05599 -0.352,-0.46934 -0.99733,-0.73334 -0.616,-0.29333 -1.61333,-0.29333 -1.26134,0 -2.2,0.176 -0.93867,0.176 -1.43733,0.352 l -0.29334,-1.99467 q 0.49867,-0.23466 1.64267,-0.41066 1.17333,-0.176 2.49333,-0.176 z"
         id="path1140" />
      <path
         d="m 147.99874,153.61424 q 1.76,-0.67467 3.31467,-0.67467 0.85066,0 1.58399,0.264 0.76267,0.23467 1.29067,0.76267 1.26133,-1.02667 2.69866,-1.02667 0.704,0 1.32,0.264 0.64533,0.264 1.11467,0.792 0.49866,0.528 0.792,1.32 0.29333,0.792 0.29333,1.848 v 9.67999 h -2.2 v -9.73866 q 0,-1.056 -0.46933,-1.61333 -0.46933,-0.55733 -1.17333,-0.55733 -0.352,0 -0.73334,0.176 -0.38133,0.176 -0.704,0.55733 0.176,0.67466 0.176,1.496 v 4.42933 h -2.19999 v -4.45867 q 0,-1.02666 -0.32267,-1.61333 -0.32267,-0.58666 -1.26133,-0.58666 -0.58667,0 -1.32,0.264 v 11.64532 h -2.2 z"
         id="path1142" />
      <path
         d="m 169.05999,152.91024 q 2.75733,0 4.25333,1.73066 1.496,1.70133 1.496,5.192 v 0.85066 h -9.73865 q 0.14666,2.112 1.37866,3.22667 1.26133,1.08533 3.52,1.08533 1.29066,0 2.19999,-0.20534 0.90934,-0.20533 1.37867,-0.43999 l 0.32267,2.05333 q -0.44,0.23466 -1.584,0.49866 -1.144,0.264 -2.58133,0.264 -1.76,0 -3.10933,-0.528 -1.32,-0.55733 -2.2,-1.496 -0.88,-0.93866 -1.32,-2.22933 -0.44,-1.31999 -0.44,-2.84533 0,-1.81866 0.55733,-3.16799 0.55734,-1.34933 1.46667,-2.22933 0.90933,-0.88 2.05333,-1.32 1.144,-0.44 2.34666,-0.44 z m 3.28533,5.80799 q 0,-1.73066 -0.90933,-2.72799 -0.90933,-1.02667 -2.40533,-1.02667 -0.85067,0 -1.55466,0.32267 -0.67467,0.32266 -1.17334,0.85066 -0.49866,0.528 -0.792,1.20267 -0.29333,0.67466 -0.38133,1.37866 z"
         id="path1144" />
    </g>
    <path
       style="fill:none;stroke:#000000;stroke-width:0.865;stroke-linecap:round;stroke-linejoin:round;stroke-miterlimit:4;stroke-dasharray:none;stroke-opacity:1"
       d="m 84.660509,17.170748 v 3.509507 h 7.868185 l 1.857139,1.85714"
       id="path57633"
       sodipodi:nodetypes="cccc" />
    <path
       style="fill:none;stroke:#000000;stroke-width:0.865;stroke-linecap:round;stroke-linejoin:round;stroke-miterlimit:4;stroke-dasharray:none;stroke-opacity:1"
       d="m 104.11118,17.170748 v 3.509507 h -7.868208 l -1.857139,1.85714"
       id="path57635"
       sodipodi:nodetypes="cccc" />
    <path
       style="fill:none;stroke:#000000;stroke-width:0.865;stroke-linecap:round;stroke-linejoin:round;stroke-miterlimit:4;stroke-dasharray:none;stroke-opacity:1"
       d="m 110.06054,17.170748 v 3.509507 h 32.20987 l 1.85715,1.85714"
       id="path57637"
       sodipodi:nodetypes="cccc" />
    <path
       style="fill:none;stroke:#000000;stroke-width:0.865;stroke-linecap:round;stroke-linejoin:round;stroke-miterlimit:4;stroke-dasharray:none;stroke-opacity:1"
       d="m 178.19456,17.170748 v 3.509507 h -32.20987 l -1.85713,1.85714"
       id="path57639"
       sodipodi:nodetypes="cccc" />
    <path
       style="fill:none;stroke:#000000;stroke-width:0.865;stroke-linecap:round;stroke-linejoin:round;stroke-miterlimit:4;stroke-dasharray:none;stroke-opacity:1"
       d="m 186.60848,17.144663 v 3.509512 h 3.63486 l 1.85714,1.85714"
       id="path57641"
       sodipodi:nodetypes="cccc" />
    <path
       style="fill:none;stroke:#000000;stroke-width:0.865;stroke-linecap:round;stroke-linejoin:round;stroke-miterlimit:4;stroke-dasharray:none;stroke-opacity:1"
       d="m 197.59248,17.144663 v 3.509512 h -3.63486 l -1.85714,1.85714"
       id="path57643"
       sodipodi:nodetypes="cccc" />
  </g>
</svg>
