<?xml version="1.0" encoding="UTF-8" standalone="no"?>
<!-- Created with Inkscape (http://www.inkscape.org/) -->

<svg
   width="335mm"
   height="166mm"
   viewBox="0 0 335 166"
   version="1.1"
   id="svg5"
   inkscape:version="1.1.1 (eb90963e84, 2021-10-02)"
   sodipodi:docname="benchmark.svg"
   xmlns:inkscape="http://www.inkscape.org/namespaces/inkscape"
   xmlns:sodipodi="http://sodipodi.sourceforge.net/DTD/sodipodi-0.dtd"
   xmlns:xlink="http://www.w3.org/1999/xlink"
   xmlns="http://www.w3.org/2000/svg"
   xmlns:svg="http://www.w3.org/2000/svg">
  <sodipodi:namedview
     id="namedview7"
     pagecolor="#ffffff"
     bordercolor="#666666"
     borderopacity="1.0"
     inkscape:pageshadow="2"
     inkscape:pageopacity="0.0"
     inkscape:pagecheckerboard="0"
     inkscape:document-units="mm"
     showgrid="false"
     inkscape:zoom="1.3279029"
     inkscape:cx="617.51503"
     inkscape:cy="413.81038"
     inkscape:window-width="2488"
     inkscape:window-height="1529"
     inkscape:window-x="72"
     inkscape:window-y="34"
     inkscape:window-maximized="1"
     inkscape:current-layer="layer1"
     height="296mm" />
  <defs
     id="defs2">
    <rect
       x="-60.044193"
       y="-15.860934"
       width="260.21143"
       height="105.8008"
       id="rect26071" />
    <rect
       x="255.10213"
       y="474.78253"
       width="328.22894"
       height="126.7137"
       id="rect14449" />
    <style
       type="text/css"
       id="style826">*{stroke-linecap:butt;stroke-linejoin:round;}</style>
    <path
       d="M 0,0 V 3.5"
       id="mff964f95e2"
       style="stroke:#000000;stroke-width:0.8" />
    <path
       d="M 678,2272 H 4684 V 1741 H 678 Z"
       id="DejaVuSans-2212"
       transform="scale(0.015625)" />
    <path
       d="m 2034,4250 q -487,0 -733,-480 -245,-479 -245,-1442 0,-959 245,-1439 246,-480 733,-480 491,0 736,480 246,480 246,1439 0,963 -246,1442 -245,480 -736,480 z m 0,500 q 785,0 1199,-621 414,-620 414,-1801 0,-1178 -414,-1799 -414,-620 -1199,-620 -784,0 -1198,620 -414,621 -414,1799 0,1181 414,1801 414,621 1198,621 z"
       id="DejaVuSans-30"
       transform="scale(0.015625)" />
    <path
       d="m 684,794 h 660 V 0 H 684 Z"
       id="DejaVuSans-2e"
       transform="scale(0.015625)" />
    <path
       d="M 2419,4116 825,1625 h 1594 z m -166,550 h 794 V 1625 h 666 V 1100 H 3047 V 0 H 2419 V 1100 H 313 v 609 z"
       id="DejaVuSans-34"
       transform="scale(0.015625)" />
    <path
       d="M 1228,531 H 3431 V 0 H 469 v 531 q 359,372 979,998 621,627 780,809 303,340 423,576 121,236 121,464 0,372 -261,606 -261,235 -680,235 -297,0 -627,-103 -329,-103 -704,-313 v 638 q 381,153 712,231 332,78 607,78 725,0 1156,-363 431,-362 431,-968 0,-288 -108,-546 -107,-257 -392,-607 -78,-91 -497,-524 Q 1991,1309 1228,531 Z"
       id="DejaVuSans-32"
       transform="scale(0.015625)" />
    <path
       d="m 2113,2584 q -425,0 -674,-291 -248,-290 -248,-796 0,-503 248,-796 249,-292 674,-292 425,0 673,292 248,293 248,796 0,506 -248,796 -248,291 -673,291 z m 1253,1979 v -575 q -238,112 -480,171 -242,60 -480,60 -625,0 -955,-422 -329,-422 -376,-1275 184,272 462,417 279,145 613,145 703,0 1111,-427 408,-426 408,-1160 0,-719 -425,-1154 -425,-434 -1131,-434 -810,0 -1238,620 -428,621 -428,1799 0,1106 525,1764 525,658 1409,658 238,0 480,-47 242,-47 505,-140 z"
       id="DejaVuSans-36"
       transform="scale(0.015625)" />
    <path
       d="m 2034,2216 q -450,0 -708,-241 -257,-241 -257,-662 0,-422 257,-663 258,-241 708,-241 450,0 709,242 260,243 260,662 0,421 -258,662 -257,241 -711,241 z m -631,268 q -406,100 -633,378 -226,279 -226,679 0,559 398,884 399,325 1092,325 697,0 1094,-325 397,-325 397,-884 0,-400 -227,-679 -226,-278 -629,-378 456,-106 710,-416 255,-309 255,-755 Q 3634,634 3220,271 2806,-91 2034,-91 1263,-91 848,271 434,634 434,1313 q 0,446 256,755 257,310 713,416 z m -231,997 q 0,-362 226,-565 227,-203 636,-203 407,0 636,203 230,203 230,565 0,363 -230,566 -229,203 -636,203 -409,0 -636,-203 -226,-203 -226,-566 z"
       id="DejaVuSans-38"
       transform="scale(0.015625)" />
    <path
       d="M 794,531 H 1825 V 4091 L 703,3866 v 575 l 1116,225 h 631 V 531 H 3481 V 0 H 794 Z"
       id="DejaVuSans-31"
       transform="scale(0.015625)" />
    <path
       d="M 0,0 H -3.5"
       id="m7d083d858a"
       style="stroke:#000000;stroke-width:0.8" />
    <path
       d="M 691,4666 H 3169 V 4134 H 1269 V 2991 q 137,47 274,70 138,23 276,23 781,0 1237,-428 457,-428 457,-1159 Q 3513,744 3044,326 2575,-91 1722,-91 1428,-91 1123,-41 819,9 494,109 v 635 q 281,-153 581,-228 300,-75 634,-75 541,0 856,284 316,284 316,772 0,487 -316,771 -315,285 -856,285 -253,0 -505,-56 -251,-56 -513,-175 z"
       id="DejaVuSans-35"
       transform="scale(0.015625)" />
    <clipPath
       id="p174d04131e">
      <rect
         height="266.112"
         width="357.12"
         x="57.599998"
         y="41.472"
         id="rect1102" />
    </clipPath>
    <rect
       x="255.10213"
       y="474.78253"
       width="328.22894"
       height="126.7137"
       id="rect28584" />
    <rect
       x="255.10213"
       y="474.78253"
       width="328.22894"
       height="126.7137"
       id="rect32386" />
    <rect
       x="255.10213"
       y="474.78253"
       width="328.22894"
       height="126.7137"
       id="rect32400" />
    <rect
       x="255.10213"
       y="474.78253"
       width="328.22894"
       height="126.7137"
       id="rect32402" />
    <rect
       x="255.10213"
       y="474.78253"
       width="328.22894"
       height="126.7137"
       id="rect39977" />
    <rect
       x="255.10213"
       y="474.78253"
       width="328.22894"
       height="126.7137"
       id="rect47314" />
    <rect
       x="255.10213"
       y="474.78253"
       width="1149.5786"
       height="255.04477"
       id="rect51877" />
    <rect
       x="255.10213"
       y="474.78253"
       width="582.8952"
       height="169.00597"
       id="rect71096" />
    <rect
       x="255.10213"
       y="474.78253"
       width="582.8952"
       height="169.00597"
       id="rect81845" />
    <style
       type="text/css"
       id="style975">*{stroke-linecap:butt;stroke-linejoin:round;}</style>
    <path
       d="M 0,0 V 3.5"
       id="m6ecaed2228"
       style="stroke:#000000;stroke-width:0.8" />
    <path
       d="m 2034,4250 q -487,0 -733,-480 -245,-479 -245,-1442 0,-959 245,-1439 246,-480 733,-480 491,0 736,480 246,480 246,1439 0,963 -246,1442 -245,480 -736,480 z m 0,500 q 785,0 1199,-621 414,-620 414,-1801 0,-1178 -414,-1799 -414,-620 -1199,-620 -784,0 -1198,620 -414,621 -414,1799 0,1181 414,1801 414,621 1198,621 z"
       id="DejaVuSans-30-6"
       transform="scale(0.015625)" />
    <path
       d="m 684,794 h 660 V 0 H 684 Z"
       id="DejaVuSans-2e-2"
       transform="scale(0.015625)" />
    <path
       d="M 691,4666 H 3169 V 4134 H 1269 V 2991 q 137,47 274,70 138,23 276,23 781,0 1237,-428 457,-428 457,-1159 Q 3513,744 3044,326 2575,-91 1722,-91 1428,-91 1123,-41 819,9 494,109 v 635 q 281,-153 581,-228 300,-75 634,-75 541,0 856,284 316,284 316,772 0,487 -316,771 -315,285 -856,285 -253,0 -505,-56 -251,-56 -513,-175 z"
       id="DejaVuSans-35-1"
       transform="scale(0.015625)" />
    <path
       d="M 794,531 H 1825 V 4091 L 703,3866 v 575 l 1116,225 h 631 V 531 H 3481 V 0 H 794 Z"
       id="DejaVuSans-31-7"
       transform="scale(0.015625)" />
    <path
       d="M 1228,531 H 3431 V 0 H 469 v 531 q 359,372 979,998 621,627 780,809 303,340 423,576 121,236 121,464 0,372 -261,606 -261,235 -680,235 -297,0 -627,-103 -329,-103 -704,-313 v 638 q 381,153 712,231 332,78 607,78 725,0 1156,-363 431,-362 431,-968 0,-288 -108,-546 -107,-257 -392,-607 -78,-91 -497,-524 Q 1991,1309 1228,531 Z"
       id="DejaVuSans-32-0"
       transform="scale(0.015625)" />
    <path
       d="M 0,0 H -3.5"
       id="m3c30331df2"
       style="stroke:#000000;stroke-width:0.8" />
    <path
       d="m 2597,2516 q 453,-97 707,-404 255,-306 255,-756 0,-690 -475,-1069 -475,-378 -1350,-378 -293,0 -604,58 -311,58 -642,174 v 609 q 262,-153 574,-231 313,-78 654,-78 593,0 904,234 311,234 311,681 0,413 -289,645 -289,233 -804,233 h -544 v 519 h 569 q 465,0 712,186 247,186 247,536 0,359 -255,551 -254,193 -729,193 -260,0 -557,-57 -297,-56 -653,-174 v 562 q 360,100 674,150 314,50 592,50 719,0 1137,-327 419,-326 419,-882 0,-388 -222,-655 -222,-267 -631,-370 z"
       id="DejaVuSans-33"
       transform="scale(0.015625)" />
    <path
       d="M 2419,4116 825,1625 h 1594 z m -166,550 h 794 V 1625 h 666 V 1100 H 3047 V 0 H 2419 V 1100 H 313 v 609 z"
       id="DejaVuSans-34-7"
       transform="scale(0.015625)" />
    <path
       d="m 2113,2584 q -425,0 -674,-291 -248,-290 -248,-796 0,-503 248,-796 249,-292 674,-292 425,0 673,292 248,293 248,796 0,506 -248,796 -248,291 -673,291 z m 1253,1979 v -575 q -238,112 -480,171 -242,60 -480,60 -625,0 -955,-422 -329,-422 -376,-1275 184,272 462,417 279,145 613,145 703,0 1111,-427 408,-426 408,-1160 0,-719 -425,-1154 -425,-434 -1131,-434 -810,0 -1238,620 -428,621 -428,1799 0,1106 525,1764 525,658 1409,658 238,0 480,-47 242,-47 505,-140 z"
       id="DejaVuSans-36-9"
       transform="scale(0.015625)" />
    <path
       d="M 525,4666 H 3525 V 4397 L 1831,0 H 1172 L 2766,4134 H 525 Z"
       id="DejaVuSans-37"
       transform="scale(0.015625)" />
    <path
       d="m 2034,2216 q -450,0 -708,-241 -257,-241 -257,-662 0,-422 257,-663 258,-241 708,-241 450,0 709,242 260,243 260,662 0,421 -258,662 -257,241 -711,241 z m -631,268 q -406,100 -633,378 -226,279 -226,679 0,559 398,884 399,325 1092,325 697,0 1094,-325 397,-325 397,-884 0,-400 -227,-679 -226,-278 -629,-378 456,-106 710,-416 255,-309 255,-755 Q 3634,634 3220,271 2806,-91 2034,-91 1263,-91 848,271 434,634 434,1313 q 0,446 256,755 257,310 713,416 z m -231,997 q 0,-362 226,-565 227,-203 636,-203 407,0 636,203 230,203 230,565 0,363 -230,566 -229,203 -636,203 -409,0 -636,-203 -226,-203 -226,-566 z"
       id="DejaVuSans-38-6"
       transform="scale(0.015625)" />
    <path
       d="m 703,97 v 575 q 238,-113 481,-172 244,-59 479,-59 625,0 954,420 330,420 377,1277 -181,-269 -460,-413 -278,-144 -615,-144 -700,0 -1108,423 -408,424 -408,1159 0,718 425,1152 425,435 1131,435 810,0 1236,-621 427,-620 427,-1801 Q 3622,1225 3098,567 2575,-91 1691,-91 1453,-91 1209,-44 966,3 703,97 Z m 1256,1978 q 425,0 673,290 249,291 249,798 0,503 -249,795 -248,292 -673,292 -425,0 -673,-292 -248,-292 -248,-795 0,-507 248,-798 248,-290 673,-290 z"
       id="DejaVuSans-39"
       transform="scale(0.015625)" />
    <clipPath
       id="pf2f1bbb102">
      <rect
         height="266.112"
         width="357.12"
         x="57.599998"
         y="41.472"
         id="rect1265" />
    </clipPath>
    <style
       type="text/css"
       id="style1745">*{stroke-linecap:butt;stroke-linejoin:round;}</style>
    <path
       d="M 0,0 V 3.5"
       id="mbd139052f0"
       style="stroke:#000000;stroke-width:0.8" />
    <path
       d="m 2034,4250 q -487,0 -733,-480 -245,-479 -245,-1442 0,-959 245,-1439 246,-480 733,-480 491,0 736,480 246,480 246,1439 0,963 -246,1442 -245,480 -736,480 z m 0,500 q 785,0 1199,-621 414,-620 414,-1801 0,-1178 -414,-1799 -414,-620 -1199,-620 -784,0 -1198,620 -414,621 -414,1799 0,1181 414,1801 414,621 1198,621 z"
       id="DejaVuSans-30-60"
       transform="scale(0.015625)" />
    <path
       d="m 684,794 h 660 V 0 H 684 Z"
       id="DejaVuSans-2e-6"
       transform="scale(0.015625)" />
    <path
       d="M 691,4666 H 3169 V 4134 H 1269 V 2991 q 137,47 274,70 138,23 276,23 781,0 1237,-428 457,-428 457,-1159 Q 3513,744 3044,326 2575,-91 1722,-91 1428,-91 1123,-41 819,9 494,109 v 635 q 281,-153 581,-228 300,-75 634,-75 541,0 856,284 316,284 316,772 0,487 -316,771 -315,285 -856,285 -253,0 -505,-56 -251,-56 -513,-175 z"
       id="DejaVuSans-35-8"
       transform="scale(0.015625)" />
    <path
       d="M 794,531 H 1825 V 4091 L 703,3866 v 575 l 1116,225 h 631 V 531 H 3481 V 0 H 794 Z"
       id="DejaVuSans-31-0"
       transform="scale(0.015625)" />
    <path
       d="M 1228,531 H 3431 V 0 H 469 v 531 q 359,372 979,998 621,627 780,809 303,340 423,576 121,236 121,464 0,372 -261,606 -261,235 -680,235 -297,0 -627,-103 -329,-103 -704,-313 v 638 q 381,153 712,231 332,78 607,78 725,0 1156,-363 431,-362 431,-968 0,-288 -108,-546 -107,-257 -392,-607 -78,-91 -497,-524 Q 1991,1309 1228,531 Z"
       id="DejaVuSans-32-2"
       transform="scale(0.015625)" />
    <path
       d="M 0,0 H -3.5"
       id="mdc55df1293"
       style="stroke:#000000;stroke-width:0.8" />
    <path
       d="m 2597,2516 q 453,-97 707,-404 255,-306 255,-756 0,-690 -475,-1069 -475,-378 -1350,-378 -293,0 -604,58 -311,58 -642,174 v 609 q 262,-153 574,-231 313,-78 654,-78 593,0 904,234 311,234 311,681 0,413 -289,645 -289,233 -804,233 h -544 v 519 h 569 q 465,0 712,186 247,186 247,536 0,359 -255,551 -254,193 -729,193 -260,0 -557,-57 -297,-56 -653,-174 v 562 q 360,100 674,150 314,50 592,50 719,0 1137,-327 419,-326 419,-882 0,-388 -222,-655 -222,-267 -631,-370 z"
       id="DejaVuSans-33-6"
       transform="scale(0.015625)" />
    <path
       d="M 2419,4116 825,1625 h 1594 z m -166,550 h 794 V 1625 h 666 V 1100 H 3047 V 0 H 2419 V 1100 H 313 v 609 z"
       id="DejaVuSans-34-3"
       transform="scale(0.015625)" />
    <path
       d="m 2113,2584 q -425,0 -674,-291 -248,-290 -248,-796 0,-503 248,-796 249,-292 674,-292 425,0 673,292 248,293 248,796 0,506 -248,796 -248,291 -673,291 z m 1253,1979 v -575 q -238,112 -480,171 -242,60 -480,60 -625,0 -955,-422 -329,-422 -376,-1275 184,272 462,417 279,145 613,145 703,0 1111,-427 408,-426 408,-1160 0,-719 -425,-1154 -425,-434 -1131,-434 -810,0 -1238,620 -428,621 -428,1799 0,1106 525,1764 525,658 1409,658 238,0 480,-47 242,-47 505,-140 z"
       id="DejaVuSans-36-4"
       transform="scale(0.015625)" />
    <path
       d="M 525,4666 H 3525 V 4397 L 1831,0 H 1172 L 2766,4134 H 525 Z"
       id="DejaVuSans-37-6"
       transform="scale(0.015625)" />
    <path
       d="M 5,0 H -5"
       id="m309821c1bd"
       style="stroke:#000000" />
    <clipPath
       id="p61de8f65bf">
      <rect
         height="266.112"
         width="357.12"
         x="57.599998"
         y="41.472"
         id="rect2117" />
    </clipPath>
    <style
       type="text/css"
       id="style2380">*{stroke-linecap:butt;stroke-linejoin:round;}</style>
    <path
       d="M 0,0 V 3.5"
       id="m054f3570c4"
       style="stroke:#000000;stroke-width:0.8" />
    <path
       d="m 2034,4250 q -487,0 -733,-480 -245,-479 -245,-1442 0,-959 245,-1439 246,-480 733,-480 491,0 736,480 246,480 246,1439 0,963 -246,1442 -245,480 -736,480 z m 0,500 q 785,0 1199,-621 414,-620 414,-1801 0,-1178 -414,-1799 -414,-620 -1199,-620 -784,0 -1198,620 -414,621 -414,1799 0,1181 414,1801 414,621 1198,621 z"
       id="DejaVuSans-30-68"
       transform="scale(0.015625)" />
    <path
       d="m 684,794 h 660 V 0 H 684 Z"
       id="DejaVuSans-2e-9"
       transform="scale(0.015625)" />
    <path
       d="M 691,4666 H 3169 V 4134 H 1269 V 2991 q 137,47 274,70 138,23 276,23 781,0 1237,-428 457,-428 457,-1159 Q 3513,744 3044,326 2575,-91 1722,-91 1428,-91 1123,-41 819,9 494,109 v 635 q 281,-153 581,-228 300,-75 634,-75 541,0 856,284 316,284 316,772 0,487 -316,771 -315,285 -856,285 -253,0 -505,-56 -251,-56 -513,-175 z"
       id="DejaVuSans-35-5"
       transform="scale(0.015625)" />
    <path
       d="M 794,531 H 1825 V 4091 L 703,3866 v 575 l 1116,225 h 631 V 531 H 3481 V 0 H 794 Z"
       id="DejaVuSans-31-71"
       transform="scale(0.015625)" />
    <path
       d="M 1228,531 H 3431 V 0 H 469 v 531 q 359,372 979,998 621,627 780,809 303,340 423,576 121,236 121,464 0,372 -261,606 -261,235 -680,235 -297,0 -627,-103 -329,-103 -704,-313 v 638 q 381,153 712,231 332,78 607,78 725,0 1156,-363 431,-362 431,-968 0,-288 -108,-546 -107,-257 -392,-607 -78,-91 -497,-524 Q 1991,1309 1228,531 Z"
       id="DejaVuSans-32-06"
       transform="scale(0.015625)" />
    <path
       d="M 0,0 H -3.5"
       id="m9fbca81db8"
       style="stroke:#000000;stroke-width:0.8" />
    <path
       d="m 2597,2516 q 453,-97 707,-404 255,-306 255,-756 0,-690 -475,-1069 -475,-378 -1350,-378 -293,0 -604,58 -311,58 -642,174 v 609 q 262,-153 574,-231 313,-78 654,-78 593,0 904,234 311,234 311,681 0,413 -289,645 -289,233 -804,233 h -544 v 519 h 569 q 465,0 712,186 247,186 247,536 0,359 -255,551 -254,193 -729,193 -260,0 -557,-57 -297,-56 -653,-174 v 562 q 360,100 674,150 314,50 592,50 719,0 1137,-327 419,-326 419,-882 0,-388 -222,-655 -222,-267 -631,-370 z"
       id="DejaVuSans-33-3"
       transform="scale(0.015625)" />
    <path
       d="M 2419,4116 825,1625 h 1594 z m -166,550 h 794 V 1625 h 666 V 1100 H 3047 V 0 H 2419 V 1100 H 313 v 609 z"
       id="DejaVuSans-34-9"
       transform="scale(0.015625)" />
    <path
       d="m 2113,2584 q -425,0 -674,-291 -248,-290 -248,-796 0,-503 248,-796 249,-292 674,-292 425,0 673,292 248,293 248,796 0,506 -248,796 -248,291 -673,291 z m 1253,1979 v -575 q -238,112 -480,171 -242,60 -480,60 -625,0 -955,-422 -329,-422 -376,-1275 184,272 462,417 279,145 613,145 703,0 1111,-427 408,-426 408,-1160 0,-719 -425,-1154 -425,-434 -1131,-434 -810,0 -1238,620 -428,621 -428,1799 0,1106 525,1764 525,658 1409,658 238,0 480,-47 242,-47 505,-140 z"
       id="DejaVuSans-36-90"
       transform="scale(0.015625)" />
    <path
       d="M 525,4666 H 3525 V 4397 L 1831,0 H 1172 L 2766,4134 H 525 Z"
       id="DejaVuSans-37-9"
       transform="scale(0.015625)" />
    <path
       d="m 2034,2216 q -450,0 -708,-241 -257,-241 -257,-662 0,-422 257,-663 258,-241 708,-241 450,0 709,242 260,243 260,662 0,421 -258,662 -257,241 -711,241 z m -631,268 q -406,100 -633,378 -226,279 -226,679 0,559 398,884 399,325 1092,325 697,0 1094,-325 397,-325 397,-884 0,-400 -227,-679 -226,-278 -629,-378 456,-106 710,-416 255,-309 255,-755 Q 3634,634 3220,271 2806,-91 2034,-91 1263,-91 848,271 434,634 434,1313 q 0,446 256,755 257,310 713,416 z m -231,997 q 0,-362 226,-565 227,-203 636,-203 407,0 636,203 230,203 230,565 0,363 -230,566 -229,203 -636,203 -409,0 -636,-203 -226,-203 -226,-566 z"
       id="DejaVuSans-38-5"
       transform="scale(0.015625)" />
    <path
       d="m 703,97 v 575 q 238,-113 481,-172 244,-59 479,-59 625,0 954,420 330,420 377,1277 -181,-269 -460,-413 -278,-144 -615,-144 -700,0 -1108,423 -408,424 -408,1159 0,718 425,1152 425,435 1131,435 810,0 1236,-621 427,-620 427,-1801 Q 3622,1225 3098,567 2575,-91 1691,-91 1453,-91 1209,-44 966,3 703,97 Z m 1256,1978 q 425,0 673,290 249,291 249,798 0,503 -249,795 -248,292 -673,292 -425,0 -673,-292 -248,-292 -248,-795 0,-507 248,-798 248,-290 673,-290 z"
       id="DejaVuSans-39-5"
       transform="scale(0.015625)" />
    <clipPath
       id="p41df545797">
      <rect
         height="266.112"
         width="357.12"
         x="57.599998"
         y="41.472"
         id="rect2670" />
    </clipPath>
    <rect
       x="255.10213"
       y="474.78253"
       width="328.22894"
       height="126.7137"
       id="rect3543" />
    <rect
       x="255.10213"
       y="474.78253"
       width="582.8952"
       height="169.00597"
       id="rect5655" />
    <rect
       x="255.10213"
       y="474.78253"
       width="118.33596"
       height="35.881368"
       id="rect44003" />
    <rect
       x="255.10213"
       y="474.78253"
       width="118.33596"
       height="35.881368"
       id="rect65911" />
    <rect
       x="255.10213"
       y="474.78253"
       width="118.33596"
       height="35.881368"
       id="rect67063" />
    <rect
       x="255.10213"
       y="474.78253"
       width="118.33596"
       height="35.881368"
       id="rect70821" />
    <rect
       x="255.10213"
       y="474.78253"
       width="118.33596"
       height="35.881368"
       id="rect70823" />
    <rect
       x="255.10213"
       y="474.78253"
       width="118.33596"
       height="35.881368"
       id="rect70825" />
    <rect
       x="255.10213"
       y="474.78253"
       width="118.33596"
       height="35.881368"
       id="rect71330" />
    <rect
       x="255.10213"
       y="474.78253"
       width="118.33596"
       height="35.881368"
       id="rect71332" />
    <rect
       x="255.10213"
       y="474.78253"
       width="118.33596"
       height="35.881368"
       id="rect71334" />
    <style
       type="text/css"
       id="style465">*{stroke-linecap:butt;stroke-linejoin:round;}</style>
    <path
       d="M 0 0  L 0 3.5  "
       id="m7ca754b14b"
       style="stroke:#000000;stroke-width:0.8;" />
    <path
       d="M 2034 4250  Q 1547 4250 1301 3770  Q 1056 3291 1056 2328  Q 1056 1369 1301 889  Q 1547 409 2034 409  Q 2525 409 2770 889  Q 3016 1369 3016 2328  Q 3016 3291 2770 3770  Q 2525 4250 2034 4250  z M 2034 4750  Q 2819 4750 3233 4129  Q 3647 3509 3647 2328  Q 3647 1150 3233 529  Q 2819 -91 2034 -91  Q 1250 -91 836 529  Q 422 1150 422 2328  Q 422 3509 836 4129  Q 1250 4750 2034 4750  z "
       id="DejaVuSans-30-3"
       transform="scale(0.015625)" />
    <path
       d="M 684 794  L 1344 794  L 1344 0  L 684 0  L 684 794  z "
       id="DejaVuSans-2e-67"
       transform="scale(0.015625)" />
    <path
       d="M 691 4666  L 3169 4666  L 3169 4134  L 1269 4134  L 1269 2991  Q 1406 3038 1543 3061  Q 1681 3084 1819 3084  Q 2600 3084 3056 2656  Q 3513 2228 3513 1497  Q 3513 744 3044 326  Q 2575 -91 1722 -91  Q 1428 -91 1123 -41  Q 819 9 494 109  L 494 744  Q 775 591 1075 516  Q 1375 441 1709 441  Q 2250 441 2565 725  Q 2881 1009 2881 1497  Q 2881 1984 2565 2268  Q 2250 2553 1709 2553  Q 1456 2553 1204 2497  Q 953 2441 691 2322  L 691 4666  z "
       id="DejaVuSans-35-53"
       transform="scale(0.015625)" />
    <path
       d="M 794 531  L 1825 531  L 1825 4091  L 703 3866  L 703 4441  L 1819 4666  L 2450 4666  L 2450 531  L 3481 531  L 3481 0  L 794 0  L 794 531  z "
       id="DejaVuSans-31-5"
       transform="scale(0.015625)" />
    <path
       d="M 1228 531  L 3431 531  L 3431 0  L 469 0  L 469 531  Q 828 903 1448 1529  Q 2069 2156 2228 2338  Q 2531 2678 2651 2914  Q 2772 3150 2772 3378  Q 2772 3750 2511 3984  Q 2250 4219 1831 4219  Q 1534 4219 1204 4116  Q 875 4013 500 3803  L 500 4441  Q 881 4594 1212 4672  Q 1544 4750 1819 4750  Q 2544 4750 2975 4387  Q 3406 4025 3406 3419  Q 3406 3131 3298 2873  Q 3191 2616 2906 2266  Q 2828 2175 2409 1742  Q 1991 1309 1228 531  z "
       id="DejaVuSans-32-6"
       transform="scale(0.015625)" />
    <path
       d="M 0 0  L -3.5 0  "
       id="m3e788c7405"
       style="stroke:#000000;stroke-width:0.8;" />
    <path
       d="M 2597 2516  Q 3050 2419 3304 2112  Q 3559 1806 3559 1356  Q 3559 666 3084 287  Q 2609 -91 1734 -91  Q 1441 -91 1130 -33  Q 819 25 488 141  L 488 750  Q 750 597 1062 519  Q 1375 441 1716 441  Q 2309 441 2620 675  Q 2931 909 2931 1356  Q 2931 1769 2642 2001  Q 2353 2234 1838 2234  L 1294 2234  L 1294 2753  L 1863 2753  Q 2328 2753 2575 2939  Q 2822 3125 2822 3475  Q 2822 3834 2567 4026  Q 2313 4219 1838 4219  Q 1578 4219 1281 4162  Q 984 4106 628 3988  L 628 4550  Q 988 4650 1302 4700  Q 1616 4750 1894 4750  Q 2613 4750 3031 4423  Q 3450 4097 3450 3541  Q 3450 3153 3228 2886  Q 3006 2619 2597 2516  z "
       id="DejaVuSans-33-2"
       transform="scale(0.015625)" />
    <path
       d="M 2419 4116  L 825 1625  L 2419 1625  L 2419 4116  z M 2253 4666  L 3047 4666  L 3047 1625  L 3713 1625  L 3713 1100  L 3047 1100  L 3047 0  L 2419 0  L 2419 1100  L 313 1100  L 313 1709  L 2253 4666  z "
       id="DejaVuSans-34-91"
       transform="scale(0.015625)" />
    <clipPath
       id="p680ffb4cd5">
      <rect
         height="266.112"
         width="357.12"
         x="57.6"
         y="41.472"
         id="rect732" />
    </clipPath>
    <rect
       x="255.10213"
       y="474.78253"
       width="328.22894"
       height="126.7137"
       id="rect6027" />
    <rect
       x="255.10213"
       y="474.78253"
       width="582.8952"
       height="169.00597"
       id="rect6029" />
    <rect
       x="255.10213"
       y="474.78253"
       width="328.22894"
       height="126.7137"
       id="rect14674" />
    <defs
       id="defs2418">
      <path
         d="M 0,0 V 3.5"
         id="path2717"
         style="stroke:#000000;stroke-width:0.8" />
    </defs>
  </defs>
  <g
     inkscape:label="Layer 1"
     inkscape:groupmode="layer"
     id="layer1">
    <path
       id="rect1361"
       style="fill:#ffffff;stroke:#999999;stroke-width:0.7;stroke-linecap:round;stroke-miterlimit:2.5;paint-order:stroke fill markers"
       d="M 2.581799,1.6165672 H 332.27357 c 0.86575,0 1.56273,0.6969772 1.56273,1.5627291 V 163.02193 c 0,0.86575 -0.69698,1.56273 -1.56273,1.56273 H 2.581799 c -0.865752,0 -1.5627291,-0.69698 -1.5627291,-1.56273 V 3.1792963 c 0,-0.8657519 0.6969771,-1.5627291 1.5627291,-1.5627291 z"
       sodipodi:nodetypes="sssssssss" />
    <text
       xml:space="preserve"
       transform="scale(0.26458333)"
       id="text26069"
       style="font-size:40px;line-height:1.25;font-family:'CMU Classical Serif';-inkscape-font-specification:'CMU Classical Serif';white-space:pre;shape-inside:url(#rect26071)" />
    <circle
       style="fill:#fb86ad;fill-opacity:1;stroke:none;stroke-width:0.352999;stroke-linecap:round;stroke-linejoin:round;stroke-miterlimit:2.5;stroke-dasharray:none;paint-order:markers fill stroke"
       id="path28498"
       cx="32.062408"
       cy="154.18781"
       r="2.8282311" />
    <text
       xml:space="preserve"
       transform="matrix(0.26458333,0,0,0.26458333,-29.234161,24.904234)"
       id="text28582"
       style="font-size:21.3333px;line-height:1.25;font-family:'CMU Classical Serif';-inkscape-font-specification:'CMU Classical Serif';white-space:pre;shape-inside:url(#rect28584)"><tspan
         x="255.10156"
         y="494.51651"
         id="tspan19200"><tspan
           style="font-family:sans-serif;-inkscape-font-specification:sans-serif"
           id="tspan19198">PyNeuraLogic</tspan></tspan></text>
    <circle
       style="fill:#87dcd7;fill-opacity:1;stroke:none;stroke-width:0.352999;stroke-linecap:round;stroke-linejoin:round;stroke-miterlimit:2.5;stroke-dasharray:none;paint-order:markers fill stroke"
       id="circle39971"
       cx="142.02827"
       cy="154.18781"
       r="2.8282311" />
    <text
       xml:space="preserve"
       transform="matrix(0.26458333,0,0,0.26458333,80.731701,24.90421)"
       id="text39975"
       style="font-size:21.3333px;line-height:1.25;font-family:'CMU Classical Serif';-inkscape-font-specification:'CMU Classical Serif';white-space:pre;shape-inside:url(#rect39977)"><tspan
         x="255.10156"
         y="494.51651"
         id="tspan19204"><tspan
           style="font-family:sans-serif;-inkscape-font-specification:sans-serif"
           id="tspan19202">DGL</tspan></tspan></text>
    <text
       xml:space="preserve"
       transform="matrix(0.26458333,0,0,0.26458333,94.089646,27.344407)"
       id="text71094"
       style="font-size:12px;line-height:1.25;font-family:'CMU Classical Serif';-inkscape-font-specification:'CMU Classical Serif';text-align:start;white-space:pre;shape-inside:url(#rect71096);stroke-linecap:butt;stroke-linejoin:round"
       x="224.74292"
       y="0"><tspan
         x="255.10156"
         y="485.8832"
         id="tspan19208"><tspan
           style="font-family:sans-serif;-inkscape-font-specification:sans-serif"
           id="tspan19206">0.6.1</tspan></tspan></text>
    <circle
       style="fill:#5595e4;fill-opacity:1;stroke:none;stroke-width:0.352999;stroke-linecap:round;stroke-linejoin:round;stroke-miterlimit:2.5;stroke-dasharray:none;paint-order:markers fill stroke"
       id="circle32388"
       cx="96.743889"
       cy="154.18782"
       r="2.8282311" />
    <text
       xml:space="preserve"
       transform="matrix(0.26458333,0,0,0.26458333,35.447319,24.90422)"
       id="text32398"
       style="font-size:21.3333px;line-height:1.25;font-family:'CMU Classical Serif';-inkscape-font-specification:'CMU Classical Serif';white-space:pre;shape-inside:url(#rect32402)"><tspan
         x="255.10156"
         y="494.51651"
         id="tspan19212"><tspan
           style="font-family:sans-serif;-inkscape-font-specification:sans-serif"
           id="tspan19210">PyG</tspan></tspan></text>
    <g
       id="g83160"
       transform="translate(-11.50531,-0.52916643)">
      <text
         xml:space="preserve"
         transform="matrix(0.26458333,0,0,0.26458333,59.164642,27.87357)"
         id="text81843"
         style="font-size:12px;line-height:1.25;font-family:'CMU Classical Serif';-inkscape-font-specification:'CMU Classical Serif';text-align:start;white-space:pre;shape-inside:url(#rect81845);stroke-linecap:butt;stroke-linejoin:round"
         x="224.74292"
         y="0"><tspan
           x="255.10156"
           y="485.8832"
           id="tspan19216"><tspan
             style="font-family:sans-serif;-inkscape-font-specification:sans-serif"
             id="tspan19214">2.0.2</tspan></tspan></text>
    </g>
    <g
       id="patch_2-6"
       transform="matrix(0.35277778,0,0,0.35277778,68.081348,180.59478)" />
    <text
       xml:space="preserve"
       transform="matrix(0.26458333,0,0,0.26458333,-50.726177,-116.91251)"
       id="text51873"
       style="font-size:21.3333px;line-height:1.25;font-family:'CMU Classical Serif';-inkscape-font-specification:'CMU Classical Serif';text-align:center;white-space:pre;shape-inside:url(#rect51877);stroke-linecap:butt;stroke-linejoin:round"
       x="279.38498"
       y="0"><tspan
         x="606.668"
         y="494.51651"
         id="tspan19220"><tspan
           style="font-family:sans-serif;-inkscape-font-specification:sans-serif"
           id="tspan19218">Average time per epoch (MUTAG Dataset)</tspan></tspan></text>
    <g
       id="g18958"
       transform="translate(0.67676258)">
      <text
         xml:space="preserve"
         transform="matrix(0,-0.27802803,0.27802803,0,-52.869126,161.07989)"
         id="text47310"
         style="font-size:14.6667px;line-height:1.25;font-family:'CMU Classical Serif';-inkscape-font-specification:'CMU Classical Serif';white-space:pre;shape-inside:url(#rect47314)"><tspan
           x="255.10156"
           y="488.3499"
           id="tspan19224"><tspan
             style="font-family:sans-serif;-inkscape-font-specification:sans-serif"
             id="tspan19222">time (s)</tspan></tspan></text>
      <g
         id="g2422"
         transform="matrix(0.37070404,0,0,0.37070404,73.682181,22.40736)">
        <use
           style="stroke:#000000;stroke-width:0.8"
           x="88.589752"
           xlink:href="#m054f3570c4"
           y="307.58401"
           id="use2420"
           width="100%"
           height="100%" />
      </g>
      <g
         id="g2441"
         transform="matrix(0.37070404,0,0,0.37070404,92.056749,22.40736)">
        <use
           style="stroke:#000000;stroke-width:0.8"
           x="147.61784"
           xlink:href="#m054f3570c4"
           y="307.58401"
           id="use2439"
           width="100%"
           height="100%" />
      </g>
      <text
         xml:space="preserve"
         transform="matrix(0.27802803,0,0,0.27802803,38.975768,6.2441881)"
         id="text43999"
         style="font-size:14.6667px;line-height:1.25;font-family:'CMU Classical Serif';-inkscape-font-specification:'CMU Classical Serif';text-align:center;white-space:pre;shape-inside:url(#rect44003)"
         x="22.046839"
         y="0"><tspan
           x="297.98076"
           y="488.3499"
           id="tspan19228"><tspan
             style="font-family:sans-serif;-inkscape-font-specification:sans-serif"
             id="tspan19226">GCN</tspan></tspan></text>
      <g
         id="g2459"
         transform="matrix(0.37070404,0,0,0.37070404,79.803422,22.40736)">
        <use
           style="stroke:#000000;stroke-width:0.8"
           x="206.64595"
           xlink:href="#m054f3570c4"
           y="307.58401"
           id="use2457"
           width="100%"
           height="100%" />
      </g>
      <g
         id="g2477"
         transform="matrix(0.37070404,0,0,0.37070404,98.348743,22.40736)">
        <use
           style="stroke:#000000;stroke-width:0.8"
           x="265.67404"
           xlink:href="#m054f3570c4"
           y="307.58401"
           id="use2475"
           width="100%"
           height="100%" />
      </g>
      <text
         xml:space="preserve"
         transform="matrix(0.27802803,0,0,0.27802803,89.020818,6.2441881)"
         id="text65909"
         style="font-size:14.6667px;line-height:1.25;font-family:'CMU Classical Serif';-inkscape-font-specification:'CMU Classical Serif';text-align:center;white-space:pre;shape-inside:url(#rect65911)"
         x="22.046839"
         y="0"><tspan
           x="273.45987"
           y="488.3499"
           id="tspan19232"><tspan
             style="font-family:sans-serif;-inkscape-font-specification:sans-serif"
             id="tspan19230">GraphSage</tspan></tspan></text>
      <g
         id="g2492"
         transform="matrix(0.37070404,0,0,0.37070404,86.09918,22.364406)">
        <use
           style="stroke:#000000;stroke-width:0.8"
           x="324.70215"
           xlink:href="#m054f3570c4"
           y="307.58401"
           id="use2490"
           width="100%"
           height="100%" />
      </g>
      <g
         id="g2510"
         transform="matrix(0.37070404,0,0,0.37070404,104.48884,22.40736)">
        <use
           style="stroke:#000000;stroke-width:0.8"
           x="383.73026"
           xlink:href="#m054f3570c4"
           y="307.58401"
           id="use2508"
           width="100%"
           height="100%" />
      </g>
      <text
         xml:space="preserve"
         transform="matrix(0.27802803,0,0,0.27802803,139.02905,6.0903823)"
         id="text67061"
         style="font-size:14.6667px;line-height:1.25;font-family:'CMU Classical Serif';-inkscape-font-specification:'CMU Classical Serif';text-align:center;white-space:pre;shape-inside:url(#rect67063)"
         x="22.046839"
         y="0"><tspan
           x="300.93845"
           y="488.3499"
           id="tspan19236"><tspan
             style="font-family:sans-serif;-inkscape-font-specification:sans-serif"
             id="tspan19234">GIN</tspan></tspan></text>
      <path
         d="M 99.650096,136.48771 H 253.5218 V 21.828468 H 99.650096 Z"
         style="fill:#ffffff;stroke-width:0.430869"
         id="path472" />
      <path
         clip-path="url(#p680ffb4cd5)"
         d="m 73.832727,307.584 h 23.189611 v -4.49494 H 73.832727 Z"
         style="fill:#fb86ad;stroke:#fb86ad;stroke-linejoin:miter"
         id="path475"
         transform="matrix(0.43086836,0,0,0.43086836,74.832078,3.9594961)" />
      <path
         clip-path="url(#p680ffb4cd5)"
         d="m 189.78078,307.584 h 23.18961 v -5.55683 h -23.18961 z"
         style="fill:#fb86ad;stroke:#fb86ad;stroke-linejoin:miter"
         id="path478"
         transform="matrix(0.43086836,0,0,0.43086836,74.832078,3.9594961)" />
      <path
         clip-path="url(#p680ffb4cd5)"
         d="m 305.72883,307.584 h 23.18961 v -21.21811 h -23.18961 z"
         style="fill:#fb86ad;stroke:#fb86ad;stroke-linejoin:miter"
         id="path481"
         transform="matrix(0.43086836,0,0,0.43086836,74.832078,3.9594961)" />
      <path
         clip-path="url(#p680ffb4cd5)"
         d="M 97.022338,307.584 H 120.21195 V 268.2897 H 97.022338 Z"
         style="fill:#5595e4;stroke:#5595e4;stroke-linejoin:miter"
         id="path484"
         transform="matrix(0.43086836,0,0,0.43086836,74.832078,3.9594961)" />
      <path
         clip-path="url(#p680ffb4cd5)"
         d="M 212.97039,307.584 H 236.16 v -52.3668 h -23.18961 z"
         style="fill:#5595e4;stroke:#5595e4;stroke-linejoin:miter"
         id="path487"
         transform="matrix(0.43086836,0,0,0.43086836,74.832078,3.9594961)" />
      <path
         clip-path="url(#p680ffb4cd5)"
         d="m 328.91844,307.584 h 23.18961 V 158.07532 h -23.18961 z"
         style="fill:#5595e4;stroke:#5595e4;stroke-linejoin:miter"
         id="path490"
         transform="matrix(0.43086836,0,0,0.43086836,74.832078,3.9594961)" />
      <path
         clip-path="url(#p680ffb4cd5)"
         d="m 120.21195,307.584 h 23.18961 v -60.22208 h -23.18961 z"
         style="fill:#87dcd7;stroke:#87dcd7;stroke-linejoin:miter"
         id="path493"
         transform="matrix(0.43086836,0,0,0.43086836,74.832078,3.9594961)" />
      <path
         clip-path="url(#p680ffb4cd5)"
         d="m 236.16,307.584 h 23.18961 V 223.28444 H 236.16 Z"
         style="fill:#87dcd7;stroke:#87dcd7;stroke-linejoin:miter"
         id="path496"
         transform="matrix(0.43086836,0,0,0.43086836,74.832078,3.9594961)" />
      <path
         clip-path="url(#p680ffb4cd5)"
         d="m 352.10805,307.584 h 23.18961 V 54.144 h -23.18961 z"
         style="fill:#87dcd7;stroke:#87dcd7;stroke-linejoin:miter"
         id="path499"
         transform="matrix(0.43086836,0,0,0.43086836,74.832078,3.9594961)" />
      <path
         clip-path="url(#p680ffb4cd5)"
         d="m 143.40156,307.584 h 23.18961 v -58.30486 h -23.18961 z"
         style="fill:#c7a0f8;stroke:#c7a0f8;stroke-linejoin:miter"
         id="path502"
         transform="matrix(0.43086836,0,0,0.43086836,74.832078,3.9594961)" />
      <path
         clip-path="url(#p680ffb4cd5)"
         d="m 259.34961,307.584 h 23.18961 v -72.53642 h -23.18961 z"
         style="fill:#c7a0f8;stroke:#c7a0f8;stroke-linejoin:miter"
         id="path505"
         transform="matrix(0.43086836,0,0,0.43086836,74.832078,3.9594961)" />
      <path
         clip-path="url(#p680ffb4cd5)"
         d="m 375.29766,307.584 h 23.18961 V 192.71483 h -23.18961 z"
         style="fill:#c7a0f8;stroke:#c7a0f8;stroke-linejoin:miter"
         id="path508"
         transform="matrix(0.43086836,0,0,0.43086836,74.832078,3.9594961)" />
      <g
         id="ytick_1"
         transform="matrix(0.43086836,0,0,0.43086836,74.832078,3.9594961)">
        <g
           id="line2d_7">
          <defs
             id="defs619">
            <path
               d="M 0,0 H -3.5"
               id="path853"
               style="stroke:#000000;stroke-width:0.8" />
          </defs>
          <g
             id="g623">
            <use
               style="stroke:#000000;stroke-width:0.8"
               x="57.599998"
               xlink:href="#m3e788c7405"
               y="307.58401"
               id="use621"
               width="100%"
               height="100%" />
          </g>
        </g>
        <g
           id="text_7">
          <!-- 0.0 -->
          <g
             transform="matrix(0.1,0,0,-0.1,34.696875,311.38322)"
             id="g632">
            <use
               xlink:href="#DejaVuSans-30-3"
               id="use626"
               x="0"
               y="0"
               width="100%"
               height="100%" />
            <use
               x="63.623047"
               xlink:href="#DejaVuSans-2e-67"
               id="use628"
               y="0"
               width="100%"
               height="100%" />
            <use
               x="95.410156"
               xlink:href="#DejaVuSans-30-3"
               id="use630"
               y="0"
               width="100%"
               height="100%" />
          </g>
        </g>
      </g>
      <g
         id="ytick_2"
         transform="matrix(0.43086836,0,0,0.43086836,74.832078,3.9594961)">
        <g
           id="line2d_8">
          <g
             id="g638">
            <use
               style="stroke:#000000;stroke-width:0.8"
               x="57.599998"
               xlink:href="#m3e788c7405"
               y="260.93011"
               id="use636"
               width="100%"
               height="100%" />
          </g>
        </g>
        <g
           id="text_8">
          <!-- 0.1 -->
          <g
             transform="matrix(0.1,0,0,-0.1,34.696875,264.72933)"
             id="g647">
            <use
               xlink:href="#DejaVuSans-30-3"
               id="use641"
               x="0"
               y="0"
               width="100%"
               height="100%" />
            <use
               x="63.623047"
               xlink:href="#DejaVuSans-2e-67"
               id="use643"
               y="0"
               width="100%"
               height="100%" />
            <use
               x="95.410156"
               xlink:href="#DejaVuSans-31-5"
               id="use645"
               y="0"
               width="100%"
               height="100%" />
          </g>
        </g>
      </g>
      <g
         id="ytick_3"
         transform="matrix(0.43086836,0,0,0.43086836,74.832078,3.9594961)">
        <g
           id="line2d_9">
          <g
             id="g653">
            <use
               style="stroke:#000000;stroke-width:0.8"
               x="57.599998"
               xlink:href="#m3e788c7405"
               y="214.27623"
               id="use651"
               width="100%"
               height="100%" />
          </g>
        </g>
        <g
           id="text_9">
          <!-- 0.2 -->
          <g
             transform="matrix(0.1,0,0,-0.1,34.696875,218.07545)"
             id="g662">
            <use
               xlink:href="#DejaVuSans-30-3"
               id="use656"
               x="0"
               y="0"
               width="100%"
               height="100%" />
            <use
               x="63.623047"
               xlink:href="#DejaVuSans-2e-67"
               id="use658"
               y="0"
               width="100%"
               height="100%" />
            <use
               x="95.410156"
               xlink:href="#DejaVuSans-32-6"
               id="use660"
               y="0"
               width="100%"
               height="100%" />
          </g>
        </g>
      </g>
      <g
         id="ytick_4"
         transform="matrix(0.43086836,0,0,0.43086836,74.832078,3.9594961)">
        <g
           id="line2d_10">
          <g
             id="g668">
            <use
               style="stroke:#000000;stroke-width:0.8"
               x="57.599998"
               xlink:href="#m3e788c7405"
               y="167.62234"
               id="use666"
               width="100%"
               height="100%" />
          </g>
        </g>
        <g
           id="text_10">
          <!-- 0.3 -->
          <g
             transform="matrix(0.1,0,0,-0.1,34.696875,171.42156)"
             id="g680">
            <defs
               id="defs672">
              <path
                 d="m 2597,2516 q 453,-97 707,-404 255,-306 255,-756 0,-690 -475,-1069 -475,-378 -1350,-378 -293,0 -604,58 -311,58 -642,174 v 609 q 262,-153 574,-231 313,-78 654,-78 593,0 904,234 311,234 311,681 0,413 -289,645 -289,233 -804,233 h -544 v 519 h 569 q 465,0 712,186 247,186 247,536 0,359 -255,551 -254,193 -729,193 -260,0 -557,-57 -297,-56 -653,-174 v 562 q 360,100 674,150 314,50 592,50 719,0 1137,-327 419,-326 419,-882 0,-388 -222,-655 -222,-267 -631,-370 z"
                 id="path886"
                 transform="scale(0.015625)" />
            </defs>
            <use
               xlink:href="#DejaVuSans-30-3"
               id="use674"
               x="0"
               y="0"
               width="100%"
               height="100%" />
            <use
               x="63.623047"
               xlink:href="#DejaVuSans-2e-67"
               id="use676"
               y="0"
               width="100%"
               height="100%" />
            <use
               x="95.410156"
               xlink:href="#DejaVuSans-33-2"
               id="use678"
               y="0"
               width="100%"
               height="100%" />
          </g>
        </g>
      </g>
      <g
         id="ytick_5"
         transform="matrix(0.43086836,0,0,0.43086836,74.832078,3.9594961)">
        <g
           id="line2d_11">
          <g
             id="g686">
            <use
               style="stroke:#000000;stroke-width:0.8"
               x="57.599998"
               xlink:href="#m3e788c7405"
               y="120.96845"
               id="use684"
               width="100%"
               height="100%" />
          </g>
        </g>
        <g
           id="text_11">
          <!-- 0.4 -->
          <g
             transform="matrix(0.1,0,0,-0.1,34.696875,124.76767)"
             id="g698">
            <defs
               id="defs690">
              <path
                 d="M 2419,4116 825,1625 h 1594 z m -166,550 h 794 V 1625 h 666 V 1100 H 3047 V 0 H 2419 V 1100 H 313 v 609 z"
                 id="path898"
                 transform="scale(0.015625)" />
            </defs>
            <use
               xlink:href="#DejaVuSans-30-3"
               id="use692"
               x="0"
               y="0"
               width="100%"
               height="100%" />
            <use
               x="63.623047"
               xlink:href="#DejaVuSans-2e-67"
               id="use694"
               y="0"
               width="100%"
               height="100%" />
            <use
               x="95.410156"
               xlink:href="#DejaVuSans-34-91"
               id="use696"
               y="0"
               width="100%"
               height="100%" />
          </g>
        </g>
      </g>
      <g
         id="ytick_6"
         transform="matrix(0.43086836,0,0,0.43086836,74.832078,3.9594961)">
        <g
           id="line2d_12">
          <g
             id="g704">
            <use
               style="stroke:#000000;stroke-width:0.8"
               x="57.599998"
               xlink:href="#m3e788c7405"
               y="74.314568"
               id="use702"
               width="100%"
               height="100%" />
          </g>
        </g>
        <g
           id="text_12">
          <!-- 0.5 -->
          <g
             transform="matrix(0.1,0,0,-0.1,34.696875,78.113787)"
             id="g713">
            <use
               xlink:href="#DejaVuSans-30-3"
               id="use707"
               x="0"
               y="0"
               width="100%"
               height="100%" />
            <use
               x="63.623047"
               xlink:href="#DejaVuSans-2e-67"
               id="use709"
               y="0"
               width="100%"
               height="100%" />
            <use
               x="95.410156"
               xlink:href="#DejaVuSans-35-53"
               id="use711"
               y="0"
               width="100%"
               height="100%" />
          </g>
        </g>
      </g>
      <path
         d="M 99.650096,136.48771 V 21.828468"
         style="fill:none;stroke:#000000;stroke-width:0.344694;stroke-linecap:square;stroke-linejoin:miter"
         id="path718" />
      <path
         d="M 253.5218,136.48771 V 21.828468"
         style="fill:none;stroke:#000000;stroke-width:0.344694;stroke-linecap:square;stroke-linejoin:miter"
         id="path721" />
      <path
         d="M 99.650096,136.48771 H 253.5218"
         style="fill:none;stroke:#000000;stroke-width:0.344694;stroke-linecap:square;stroke-linejoin:miter"
         id="path724" />
      <path
         d="M 99.650096,21.828468 H 253.5218"
         style="fill:none;stroke:#000000;stroke-width:0.344694;stroke-linecap:square;stroke-linejoin:miter"
         id="path727" />
    </g>
    <circle
       style="fill:#c7a0f8;fill-opacity:1;stroke:none;stroke-width:0.352999;stroke-linecap:round;stroke-linejoin:round;stroke-miterlimit:2.5;stroke-dasharray:none;paint-order:markers fill stroke"
       id="circle6013"
       cx="190.18248"
       cy="154.18781"
       r="2.8282311" />
    <text
       xml:space="preserve"
       transform="matrix(0.26458333,0,0,0.26458333,128.88589,24.90421)"
       id="text6019"
       style="font-size:21.3333px;line-height:1.25;font-family:'CMU Classical Serif';-inkscape-font-specification:'CMU Classical Serif';white-space:pre;shape-inside:url(#rect6027)"><tspan
         x="255.10156"
         y="494.51651"
         id="tspan19240"><tspan
           style="font-family:sans-serif;-inkscape-font-specification:sans-serif"
           id="tspan19238">Spektral</tspan></tspan></text>
    <text
       xml:space="preserve"
       transform="matrix(0.26458333,0,0,0.26458333,153.88549,27.344407)"
       id="text6025"
       style="font-size:12px;line-height:1.25;font-family:'CMU Classical Serif';-inkscape-font-specification:'CMU Classical Serif';text-align:start;white-space:pre;shape-inside:url(#rect6029);stroke-linecap:butt;stroke-linejoin:round"
       x="224.74292"
       y="0"><tspan
         x="255.10156"
         y="485.8832"
         id="tspan19244"><tspan
           style="font-family:sans-serif;-inkscape-font-specification:sans-serif"
           id="tspan19242">1.0.8</tspan></tspan></text>
  </g>
</svg>
