<?xml version="1.0" encoding="UTF-8" standalone="no"?>
<!-- Created with Inkscape (http://www.inkscape.org/) -->

<svg
   width="210mm"
   height="297mm"
   viewBox="0 0 210 297"
   version="1.1"
   id="svg5"
   xmlns:xlink="http://www.w3.org/1999/xlink"
   xmlns="http://www.w3.org/2000/svg"
   xmlns:svg="http://www.w3.org/2000/svg">
  <defs
     id="defs2">
    <rect
       x="-60.044194"
       y="-15.860934"
       width="260.21144"
       height="105.8008"
       id="rect26071" />
    <rect
       x="255.10212"
       y="474.78252"
       width="328.22895"
       height="126.7137"
       id="rect14449" />
    <style
       type="text/css"
       id="style826">*{stroke-linecap:butt;stroke-linejoin:round;}</style>
    <path
       d="M 0 0  L 0 3.5  "
       id="mff964f95e2"
       style="stroke:#000000;stroke-width:0.8;" />
    <path
       d="M 678 2272  L 4684 2272  L 4684 1741  L 678 1741  L 678 2272  z "
       id="DejaVuSans-2212"
       transform="scale(0.015625)" />
    <path
       d="M 2034 4250  Q 1547 4250 1301 3770  Q 1056 3291 1056 2328  Q 1056 1369 1301 889  Q 1547 409 2034 409  Q 2525 409 2770 889  Q 3016 1369 3016 2328  Q 3016 3291 2770 3770  Q 2525 4250 2034 4250  z M 2034 4750  Q 2819 4750 3233 4129  Q 3647 3509 3647 2328  Q 3647 1150 3233 529  Q 2819 -91 2034 -91  Q 1250 -91 836 529  Q 422 1150 422 2328  Q 422 3509 836 4129  Q 1250 4750 2034 4750  z "
       id="DejaVuSans-30"
       transform="scale(0.015625)" />
    <path
       d="M 684 794  L 1344 794  L 1344 0  L 684 0  L 684 794  z "
       id="DejaVuSans-2e"
       transform="scale(0.015625)" />
    <path
       d="M 2419 4116  L 825 1625  L 2419 1625  L 2419 4116  z M 2253 4666  L 3047 4666  L 3047 1625  L 3713 1625  L 3713 1100  L 3047 1100  L 3047 0  L 2419 0  L 2419 1100  L 313 1100  L 313 1709  L 2253 4666  z "
       id="DejaVuSans-34"
       transform="scale(0.015625)" />
    <path
       d="M 1228 531  L 3431 531  L 3431 0  L 469 0  L 469 531  Q 828 903 1448 1529  Q 2069 2156 2228 2338  Q 2531 2678 2651 2914  Q 2772 3150 2772 3378  Q 2772 3750 2511 3984  Q 2250 4219 1831 4219  Q 1534 4219 1204 4116  Q 875 4013 500 3803  L 500 4441  Q 881 4594 1212 4672  Q 1544 4750 1819 4750  Q 2544 4750 2975 4387  Q 3406 4025 3406 3419  Q 3406 3131 3298 2873  Q 3191 2616 2906 2266  Q 2828 2175 2409 1742  Q 1991 1309 1228 531  z "
       id="DejaVuSans-32"
       transform="scale(0.015625)" />
    <path
       d="M 2113 2584  Q 1688 2584 1439 2293  Q 1191 2003 1191 1497  Q 1191 994 1439 701  Q 1688 409 2113 409  Q 2538 409 2786 701  Q 3034 994 3034 1497  Q 3034 2003 2786 2293  Q 2538 2584 2113 2584  z M 3366 4563  L 3366 3988  Q 3128 4100 2886 4159  Q 2644 4219 2406 4219  Q 1781 4219 1451 3797  Q 1122 3375 1075 2522  Q 1259 2794 1537 2939  Q 1816 3084 2150 3084  Q 2853 3084 3261 2657  Q 3669 2231 3669 1497  Q 3669 778 3244 343  Q 2819 -91 2113 -91  Q 1303 -91 875 529  Q 447 1150 447 2328  Q 447 3434 972 4092  Q 1497 4750 2381 4750  Q 2619 4750 2861 4703  Q 3103 4656 3366 4563  z "
       id="DejaVuSans-36"
       transform="scale(0.015625)" />
    <path
       d="M 2034 2216  Q 1584 2216 1326 1975  Q 1069 1734 1069 1313  Q 1069 891 1326 650  Q 1584 409 2034 409  Q 2484 409 2743 651  Q 3003 894 3003 1313  Q 3003 1734 2745 1975  Q 2488 2216 2034 2216  z M 1403 2484  Q 997 2584 770 2862  Q 544 3141 544 3541  Q 544 4100 942 4425  Q 1341 4750 2034 4750  Q 2731 4750 3128 4425  Q 3525 4100 3525 3541  Q 3525 3141 3298 2862  Q 3072 2584 2669 2484  Q 3125 2378 3379 2068  Q 3634 1759 3634 1313  Q 3634 634 3220 271  Q 2806 -91 2034 -91  Q 1263 -91 848 271  Q 434 634 434 1313  Q 434 1759 690 2068  Q 947 2378 1403 2484  z M 1172 3481  Q 1172 3119 1398 2916  Q 1625 2713 2034 2713  Q 2441 2713 2670 2916  Q 2900 3119 2900 3481  Q 2900 3844 2670 4047  Q 2441 4250 2034 4250  Q 1625 4250 1398 4047  Q 1172 3844 1172 3481  z "
       id="DejaVuSans-38"
       transform="scale(0.015625)" />
    <path
       d="M 794 531  L 1825 531  L 1825 4091  L 703 3866  L 703 4441  L 1819 4666  L 2450 4666  L 2450 531  L 3481 531  L 3481 0  L 794 0  L 794 531  z "
       id="DejaVuSans-31"
       transform="scale(0.015625)" />
    <path
       d="M 0 0  L -3.5 0  "
       id="m7d083d858a"
       style="stroke:#000000;stroke-width:0.8;" />
    <path
       d="M 691 4666  L 3169 4666  L 3169 4134  L 1269 4134  L 1269 2991  Q 1406 3038 1543 3061  Q 1681 3084 1819 3084  Q 2600 3084 3056 2656  Q 3513 2228 3513 1497  Q 3513 744 3044 326  Q 2575 -91 1722 -91  Q 1428 -91 1123 -41  Q 819 9 494 109  L 494 744  Q 775 591 1075 516  Q 1375 441 1709 441  Q 2250 441 2565 725  Q 2881 1009 2881 1497  Q 2881 1984 2565 2268  Q 2250 2553 1709 2553  Q 1456 2553 1204 2497  Q 953 2441 691 2322  L 691 4666  z "
       id="DejaVuSans-35"
       transform="scale(0.015625)" />
    <clipPath
       id="p174d04131e">
      <rect
         height="266.112"
         width="357.12"
         x="57.6"
         y="41.472"
         id="rect1102" />
    </clipPath>
    <rect
       x="255.10212"
       y="474.78252"
       width="328.22895"
       height="126.7137"
       id="rect28584" />
    <rect
       x="255.10212"
       y="474.78252"
       width="328.22895"
       height="126.7137"
       id="rect32386" />
    <rect
       x="255.10212"
       y="474.78252"
       width="328.22895"
       height="126.7137"
       id="rect32400" />
    <rect
       x="255.10212"
       y="474.78252"
       width="328.22895"
       height="126.7137"
       id="rect32402" />
    <rect
       x="255.10212"
       y="474.78252"
       width="328.22895"
       height="126.7137"
       id="rect39977" />
    <rect
       x="255.10212"
       y="474.78252"
       width="328.22895"
       height="126.7137"
       id="rect47314" />
    <rect
       x="255.10212"
       y="474.78252"
       width="582.8952"
       height="169.00596"
       id="rect51877" />
    <rect
       x="255.10212"
       y="474.78252"
       width="582.8952"
       height="169.00596"
       id="rect71096" />
    <rect
       x="255.10212"
       y="474.78252"
       width="582.8952"
       height="169.00596"
       id="rect81845" />
  </defs>
  <g
     id="layer1">
    <path
       id="rect1361"
       style="fill:#ffffff;stroke:#999999;stroke-width:0.7;stroke-linecap:round;stroke-miterlimit:2.5;paint-order:stroke fill markers"
       d="M 6.8151324,4.7915673 H 204.21525 c 0.86575,0 1.56273,0.6969772 1.56273,1.5627291 V 164.60944 c 0,0.86575 -0.69698,1.56273 -1.56273,1.56273 H 6.8151324 c -0.865752,0 -1.5627291,-0.69698 -1.5627291,-1.56273 V 6.3542964 c 0,-0.8657519 0.6969771,-1.5627291 1.5627291,-1.5627291 z" />
    <g
       id="patch_1"
       transform="matrix(0.35277778,0,0,0.35277778,25.822691,20.393958)">
      <path
         d="M 0,345.6 H 460.8 V 0 H 0 Z"
         style="fill:#ffffff"
         id="path830" />
    </g>
    <text
       xml:space="preserve"
       transform="scale(0.26458333)"
       id="text26069"
       style="line-height:1.25;font-family:'CMU Classical Serif';font-size:40px;-inkscape-font-specification:'CMU Classical Serif';white-space:pre;shape-inside:url(#rect26071)" />
    <g
       id="patch_2"
       transform="matrix(0.35277778,0,0,0.35277778,24.764358,25.156458)">
      <path
         d="M 57.6,307.584 H 414.72 V 41.472 H 57.6 Z"
         style="fill:#ffffff"
         id="path833" />
    </g>
    <g
       id="ytick_1"
       transform="matrix(0.35277778,0,0,0.35277778,24.764358,25.156458)">
      <g
         id="line2d_9">
        <defs
           id="defs992">
          <path
             d="M 0,0 H -3.5"
             id="path1234"
             style="stroke:#000000;stroke-width:0.8" />
        </defs>
        <g
           id="g996">
          <use
             style="stroke:#000000;stroke-width:0.8"
             x="57.599998"
             xlink:href="#m7d083d858a"
             y="307.58401"
             id="use994"
             width="100%"
             height="100%" />
        </g>
      </g>
      <g
         id="text_9">
        <!-- 0.0 -->
        <g
           transform="matrix(0.1,0,0,-0.1,34.696875,311.38322)"
           id="g1005">
          <use
             xlink:href="#DejaVuSans-30"
             id="use999"
             x="0"
             y="0"
             width="100%"
             height="100%" />
          <use
             x="63.623047"
             xlink:href="#DejaVuSans-2e"
             id="use1001"
             y="0"
             width="100%"
             height="100%" />
          <use
             x="95.410156"
             xlink:href="#DejaVuSans-30"
             id="use1003"
             y="0"
             width="100%"
             height="100%" />
        </g>
      </g>
    </g>
    <g
       id="ytick_2"
       transform="matrix(0.35277778,0,0,0.35277778,24.764358,25.156458)">
      <g
         id="line2d_10">
        <g
           id="g1011">
          <use
             style="stroke:#000000;stroke-width:0.8"
             x="57.599998"
             xlink:href="#m7d083d858a"
             y="258.85968"
             id="use1009"
             width="100%"
             height="100%" />
        </g>
      </g>
      <g
         id="text_10">
        <!-- 0.5 -->
        <g
           transform="matrix(0.1,0,0,-0.1,34.696875,262.65889)"
           id="g1023">
          <defs
             id="defs1015">
            <path
               d="M 691,4666 H 3169 V 4134 H 1269 V 2991 q 137,47 274,70 138,23 276,23 781,0 1237,-428 457,-428 457,-1159 Q 3513,744 3044,326 2575,-91 1722,-91 1428,-91 1123,-41 819,9 494,109 v 635 q 281,-153 581,-228 300,-75 634,-75 541,0 856,284 316,284 316,772 0,487 -316,771 -315,285 -856,285 -253,0 -505,-56 -251,-56 -513,-175 z"
               id="path1249"
               transform="scale(0.015625)" />
          </defs>
          <use
             xlink:href="#DejaVuSans-30"
             id="use1017"
             x="0"
             y="0"
             width="100%"
             height="100%" />
          <use
             x="63.623047"
             xlink:href="#DejaVuSans-2e"
             id="use1019"
             y="0"
             width="100%"
             height="100%" />
          <use
             x="95.410156"
             xlink:href="#DejaVuSans-35"
             id="use1021"
             y="0"
             width="100%"
             height="100%" />
        </g>
      </g>
    </g>
    <g
       id="ytick_3"
       transform="matrix(0.35277778,0,0,0.35277778,24.764358,25.156458)">
      <g
         id="line2d_11">
        <g
           id="g1029">
          <use
             style="stroke:#000000;stroke-width:0.8"
             x="57.599998"
             xlink:href="#m7d083d858a"
             y="210.13535"
             id="use1027"
             width="100%"
             height="100%" />
        </g>
      </g>
      <g
         id="text_11">
        <!-- 1.0 -->
        <g
           transform="matrix(0.1,0,0,-0.1,34.696875,213.93456)"
           id="g1038">
          <use
             xlink:href="#DejaVuSans-31"
             id="use1032"
             x="0"
             y="0"
             width="100%"
             height="100%" />
          <use
             x="63.623047"
             xlink:href="#DejaVuSans-2e"
             id="use1034"
             y="0"
             width="100%"
             height="100%" />
          <use
             x="95.410156"
             xlink:href="#DejaVuSans-30"
             id="use1036"
             y="0"
             width="100%"
             height="100%" />
        </g>
      </g>
    </g>
    <g
       id="ytick_4"
       transform="matrix(0.35277778,0,0,0.35277778,24.764358,25.156458)">
      <g
         id="line2d_12">
        <g
           id="g1044">
          <use
             style="stroke:#000000;stroke-width:0.8"
             x="57.599998"
             xlink:href="#m7d083d858a"
             y="161.41101"
             id="use1042"
             width="100%"
             height="100%" />
        </g>
      </g>
      <g
         id="text_12">
        <!-- 1.5 -->
        <g
           transform="matrix(0.1,0,0,-0.1,34.696875,165.21023)"
           id="g1053">
          <use
             xlink:href="#DejaVuSans-31"
             id="use1047"
             x="0"
             y="0"
             width="100%"
             height="100%" />
          <use
             x="63.623047"
             xlink:href="#DejaVuSans-2e"
             id="use1049"
             y="0"
             width="100%"
             height="100%" />
          <use
             x="95.410156"
             xlink:href="#DejaVuSans-35"
             id="use1051"
             y="0"
             width="100%"
             height="100%" />
        </g>
      </g>
    </g>
    <g
       id="ytick_5"
       transform="matrix(0.35277778,0,0,0.35277778,24.764358,25.156458)">
      <g
         id="line2d_13">
        <g
           id="g1059">
          <use
             style="stroke:#000000;stroke-width:0.8"
             x="57.599998"
             xlink:href="#m7d083d858a"
             y="112.68668"
             id="use1057"
             width="100%"
             height="100%" />
        </g>
      </g>
      <g
         id="text_13">
        <!-- 2.0 -->
        <g
           transform="matrix(0.1,0,0,-0.1,34.696875,116.4859)"
           id="g1068">
          <use
             xlink:href="#DejaVuSans-32"
             id="use1062"
             x="0"
             y="0"
             width="100%"
             height="100%" />
          <use
             x="63.623047"
             xlink:href="#DejaVuSans-2e"
             id="use1064"
             y="0"
             width="100%"
             height="100%" />
          <use
             x="95.410156"
             xlink:href="#DejaVuSans-30"
             id="use1066"
             y="0"
             width="100%"
             height="100%" />
        </g>
      </g>
    </g>
    <g
       id="ytick_6"
       transform="matrix(0.35277778,0,0,0.35277778,24.764358,25.156458)">
      <g
         id="line2d_14">
        <g
           id="g1074">
          <use
             style="stroke:#000000;stroke-width:0.8"
             x="57.599998"
             xlink:href="#m7d083d858a"
             y="63.962357"
             id="use1072"
             width="100%"
             height="100%" />
        </g>
      </g>
      <g
         id="text_14">
        <!-- 2.5 -->
        <g
           transform="matrix(0.1,0,0,-0.1,34.696875,67.761574)"
           id="g1083">
          <use
             xlink:href="#DejaVuSans-32"
             id="use1077"
             x="0"
             y="0"
             width="100%"
             height="100%" />
          <use
             x="63.623047"
             xlink:href="#DejaVuSans-2e"
             id="use1079"
             y="0"
             width="100%"
             height="100%" />
          <use
             x="95.410156"
             xlink:href="#DejaVuSans-35"
             id="use1081"
             y="0"
             width="100%"
             height="100%" />
        </g>
      </g>
    </g>
    <g
       id="patch_6"
       transform="matrix(0.35277778,0,0,0.35277778,24.764358,25.156458)">
      <path
         d="M 57.6,307.584 V 41.472"
         style="fill:none;stroke:#000000;stroke-width:0.8;stroke-linecap:square;stroke-linejoin:miter"
         id="path1088" />
    </g>
    <g
       id="patch_7"
       transform="matrix(0.35277778,0,0,0.35277778,24.764358,25.156458)">
      <path
         d="M 414.72,307.584 V 41.472"
         style="fill:none;stroke:#000000;stroke-width:0.8;stroke-linecap:square;stroke-linejoin:miter"
         id="path1091" />
    </g>
    <g
       id="patch_8"
       transform="matrix(0.35277778,0,0,0.35277778,24.764358,25.156458)">
      <path
         d="M 57.6,307.584 H 414.72"
         style="fill:none;stroke:#000000;stroke-width:0.8;stroke-linecap:square;stroke-linejoin:miter"
         id="path1094" />
    </g>
    <g
       id="patch_9"
       transform="matrix(0.35277778,0,0,0.35277778,24.764358,25.156458)">
      <path
         d="M 57.6,41.472 H 414.72"
         style="fill:none;stroke:#000000;stroke-width:0.8;stroke-linecap:square;stroke-linejoin:miter"
         id="path1097" />
    </g>
    <g
       id="g12775"
       transform="translate(13.651249,11.641666)">
      <rect
         style="fill:#87dcd7;fill-opacity:1;stroke:#000000;stroke-width:0.353;stroke-linecap:round;stroke-linejoin:round;stroke-miterlimit:2.5;stroke-dasharray:none;paint-order:markers fill stroke"
         id="rect2849"
         width="25.929178"
         height="89.407997"
         x="107.34764"
         y="32.615589" />
      <rect
         style="fill:#5595e4;fill-opacity:1;stroke:#000000;stroke-width:0.353;stroke-linecap:round;stroke-linejoin:round;stroke-miterlimit:2.5;stroke-dasharray:none;paint-order:markers fill stroke"
         id="rect7014"
         width="25.887119"
         height="84.953026"
         x="81.460526"
         y="37.070564" />
      <rect
         style="fill:#fb86ad;fill-opacity:1;stroke:#000000;stroke-width:0.352999;stroke-linecap:round;stroke-linejoin:round;stroke-miterlimit:2.5;stroke-dasharray:none;paint-order:markers fill stroke"
         id="rect9893"
         width="25.887125"
         height="22.963396"
         x="55.573399"
         y="99.060196" />
    </g>
    <text
       xml:space="preserve"
       transform="matrix(0.26458333,0,0,0.26458333,34.430563,11.087335)"
       id="text14447"
       style="font-size:21.3333px;line-height:1.25;font-family:'CMU Classical Serif';-inkscape-font-specification:'CMU Classical Serif';white-space:pre;shape-inside:url(#rect14449)"><tspan
         x="255.10156"
         y="494.51651"
         id="tspan83851"><tspan
           style="font-family:sans-serif;-inkscape-font-specification:sans-serif"
           id="tspan83849">GCN</tspan></tspan></text>
    <g
       id="g44845"
       transform="translate(-9.1605544,19.02026)">
      <circle
         style="fill:#fb86ad;fill-opacity:1;stroke:#000000;stroke-width:0.352999;stroke-linecap:round;stroke-linejoin:round;stroke-miterlimit:2.5;stroke-dasharray:none;paint-order:markers fill stroke"
         id="path28498"
         cx="47.572968"
         cy="134.63846"
         r="2.8282311" />
      <text
         xml:space="preserve"
         transform="matrix(0.26458333,0,0,0.26458333,-13.723603,5.3548073)"
         id="text28582"
         style="font-size:21.3333px;line-height:1.25;font-family:'CMU Classical Serif';-inkscape-font-specification:'CMU Classical Serif';white-space:pre;shape-inside:url(#rect28584)"><tspan
           x="255.10156"
           y="494.51651"
           id="tspan83855"><tspan
             style="font-family:sans-serif;-inkscape-font-specification:sans-serif"
             id="tspan83853">PyNeuraLogic</tspan></tspan></text>
    </g>
    <text
       xml:space="preserve"
       transform="matrix(0,-0.26458333,0.26458333,0,-98.089701,161.63228)"
       id="text47310"
       style="font-size:14.6667px;line-height:1.25;font-family:'CMU Classical Serif';-inkscape-font-specification:'CMU Classical Serif';white-space:pre;shape-inside:url(#rect47314)"><tspan
         x="255.10156"
         y="488.3499"
         id="tspan83859"><tspan
           style="font-family:sans-serif;-inkscape-font-specification:sans-serif"
           id="tspan83857">time (s)</tspan></tspan></text>
    <text
       xml:space="preserve"
       transform="matrix(0.26458333,0,0,0.26458333,-39.084508,-112.14998)"
       id="text51873"
       style="font-size:21.3333px;line-height:1.25;font-family:'CMU Classical Serif';-inkscape-font-specification:'CMU Classical Serif';text-align:center;white-space:pre;shape-inside:url(#rect51877);stroke-linecap:butt;stroke-linejoin:round"
       x="279.38498"
       y="0"><tspan
         x="267.19608"
         y="494.51651"
         id="tspan83863"><tspan
           style="font-family:sans-serif;-inkscape-font-specification:sans-serif"
           id="tspan83861">The average time per epoch of different models and </tspan></tspan><tspan
         x="417.87813"
         y="522.04147"
         id="tspan83867"><tspan
           style="font-family:sans-serif;-inkscape-font-specification:sans-serif"
           id="tspan83865">frameworks comparison</tspan></tspan></text>
    <g
       id="g83156"
       transform="translate(-4.2333333,-1.0583333)">
      <g
         id="g44835"
         transform="translate(50.618066,12.401315)">
        <g
           id="g47190"
           transform="translate(54.420572,-12.96025)">
          <circle
             style="fill:#87dcd7;fill-opacity:1;stroke:#000000;stroke-width:0.352999;stroke-linecap:round;stroke-linejoin:round;stroke-miterlimit:2.5;stroke-dasharray:none;paint-order:markers fill stroke"
             id="circle39971"
             cx="47.572968"
             cy="155.27599"
             r="2.8282311" />
          <text
             xml:space="preserve"
             transform="matrix(0.26458333,0,0,0.26458333,-13.723603,25.992308)"
             id="text39975"
             style="font-size:21.3333px;line-height:1.25;font-family:'CMU Classical Serif';-inkscape-font-specification:'CMU Classical Serif';white-space:pre;shape-inside:url(#rect39977)"><tspan
               x="255.10156"
               y="494.51651"
               id="tspan83871"><tspan
                 style="font-family:sans-serif;-inkscape-font-specification:sans-serif"
                 id="tspan83869">DGL</tspan></tspan></text>
        </g>
      </g>
      <text
         xml:space="preserve"
         transform="matrix(0.26458333,0,0,0.26458333,104.67298,27.87357)"
         id="text71094"
         style="font-size:12px;line-height:1.25;font-family:'CMU Classical Serif';-inkscape-font-specification:'CMU Classical Serif';text-align:start;white-space:pre;shape-inside:url(#rect71096);stroke-linecap:butt;stroke-linejoin:round"
         x="224.74292"
         y="0"><tspan
           x="255.10156"
           y="485.8832"
           id="tspan83875"><tspan
             style="font-family:sans-serif;-inkscape-font-specification:sans-serif"
             id="tspan83873">0.6.1</tspan></tspan></text>
    </g>
    <g
       id="g83169"
       transform="translate(0.13635686,-1.0583333)">
      <g
         id="g44840"
         transform="translate(55.384565,10.024409)">
        <circle
           style="fill:#5595e4;fill-opacity:1;stroke:#000000;stroke-width:0.352999;stroke-linecap:round;stroke-linejoin:round;stroke-miterlimit:2.5;stroke-dasharray:none;paint-order:markers fill stroke"
           id="circle32388"
           cx="47.572968"
           cy="144.69264"
           r="2.8282311" />
        <text
           xml:space="preserve"
           transform="matrix(0.26458333,0,0,0.26458333,-13.723603,15.408974)"
           id="text32398"
           style="font-size:21.3333px;line-height:1.25;font-family:'CMU Classical Serif';-inkscape-font-specification:'CMU Classical Serif';white-space:pre;shape-inside:url(#rect32402)"><tspan
             x="255.10156"
             y="494.51651"
             id="tspan83879"><tspan
               style="font-family:sans-serif;-inkscape-font-specification:sans-serif"
               id="tspan83877">PyG</tspan></tspan></text>
      </g>
      <g
         id="g83160"
         transform="translate(-5.2916667)">
        <text
           xml:space="preserve"
           transform="matrix(0.26458333,0,0,0.26458333,59.164642,27.87357)"
           id="text81843"
           style="font-size:12px;line-height:1.25;font-family:'CMU Classical Serif';-inkscape-font-specification:'CMU Classical Serif';text-align:start;white-space:pre;shape-inside:url(#rect81845);stroke-linecap:butt;stroke-linejoin:round"
           x="224.74292"
           y="0"><tspan
             x="255.10156"
             y="485.8832"
             id="tspan83883"><tspan
               style="font-family:sans-serif;-inkscape-font-specification:sans-serif"
               id="tspan83881">2.0.2</tspan></tspan></text>
      </g>
    </g>
    <g
       id="g83344"
       transform="matrix(0.35277778,0,0,0.35277778,24.764358,25.156458)">
      <g
         id="g83332">
        <g
           id="g83330">
          <use
             style="stroke:#000000;stroke-width:0.8"
             x="57.599998"
             xlink:href="#m7d083d858a"
             y="112.68668"
             id="use83328"
             width="100%"
             height="100%" />
        </g>
      </g>
      <g
         id="g83342">
        <!-- 2.0 -->
        <g
           transform="matrix(0.1,0,0,-0.1,34.696875,116.4859)"
           id="g83340">
          <use
             xlink:href="#DejaVuSans-32"
             id="use83334"
             x="0"
             y="0"
             width="100%"
             height="100%" />
          <use
             x="63.623047"
             xlink:href="#DejaVuSans-2e"
             id="use83336"
             y="0"
             width="100%"
             height="100%" />
          <use
             x="95.410156"
             xlink:href="#DejaVuSans-30"
             id="use83338"
             y="0"
             width="100%"
             height="100%" />
        </g>
      </g>
    </g>
    <g
       id="g83350"
       transform="matrix(0,-0.35277778,0.35277778,0,12.202468,153.93504)">
      <g
         id="g83348">
        <use
           style="stroke:#000000;stroke-width:0.8"
           x="57.599998"
           xlink:href="#m7d083d858a"
           y="161.41101"
           id="use83346"
           width="100%"
           height="100%" />
      </g>
    </g>
    <g
       id="g83570"
       transform="matrix(0,-0.35277778,0.35277778,0,89.989975,153.93504)">
      <g
         id="g83568">
        <use
           style="stroke:#000000;stroke-width:0.8"
           x="57.599998"
           xlink:href="#m7d083d858a"
           y="161.41101"
           id="use83566"
           width="100%"
           height="100%" />
      </g>
    </g>
  </g>
</svg>
