<?xml version="1.0" encoding="UTF-8" standalone="no"?>
<!-- Created with Inkscape (http://www.inkscape.org/) -->

<svg
   width="126mm"
   height="110mm"
   viewBox="0 0 126 110"
   version="1.1"
   id="svg1322"
   inkscape:version="1.1 (ce6663b3b7, 2021-05-25)"
   sodipodi:docname="logo.svg"
   xmlns:inkscape="http://www.inkscape.org/namespaces/inkscape"
   xmlns:sodipodi="http://sodipodi.sourceforge.net/DTD/sodipodi-0.dtd"
   xmlns:xlink="http://www.w3.org/1999/xlink"
   xmlns="http://www.w3.org/2000/svg"
   xmlns:svg="http://www.w3.org/2000/svg">
  <sodipodi:namedview
     id="namedview1324"
     pagecolor="#ffffff"
     bordercolor="#666666"
     borderopacity="1.0"
     inkscape:pageshadow="2"
     inkscape:pageopacity="0.0"
     inkscape:pagecheckerboard="0"
     inkscape:document-units="mm"
     showgrid="false"
     height="50mm"
     inkscape:zoom="0.94867185"
     inkscape:cx="335.73253"
     inkscape:cy="273.54032"
     inkscape:window-width="1976"
     inkscape:window-height="1216"
     inkscape:window-x="72"
     inkscape:window-y="27"
     inkscape:window-maximized="1"
     inkscape:current-layer="layer1"
     showguides="true"
     inkscape:guide-bbox="true" />
  <defs
     id="defs1319">
    <radialGradient
       inkscape:collect="always"
       xlink:href="#linearGradient2558"
       id="radialGradient20059"
       gradientUnits="userSpaceOnUse"
       gradientTransform="matrix(1,0,0,0.96143033,132.29169,14.051843)"
       cx="34.520073"
       cy="358.63547"
       fx="34.520073"
       fy="358.63547"
       r="46.464863" />
    <linearGradient
       inkscape:collect="always"
       id="linearGradient2558">
      <stop
         style="stop-color:#ffeeaa;stop-opacity:1;"
         offset="0"
         id="stop2554" />
      <stop
         style="stop-color:#ffeeaa;stop-opacity:0;"
         offset="1"
         id="stop2556" />
    </linearGradient>
    <radialGradient
       inkscape:collect="always"
       xlink:href="#linearGradient2904"
       id="radialGradient20061"
       gradientUnits="userSpaceOnUse"
       gradientTransform="matrix(1,0,0,0.96143033,132.29169,14.051843)"
       cx="73.845734"
       cy="336.76404"
       fx="73.845734"
       fy="336.76404"
       r="46.464863" />
    <linearGradient
       inkscape:collect="always"
       id="linearGradient2904">
      <stop
         style="stop-color:#b380ff;stop-opacity:1;"
         offset="0"
         id="stop2900" />
      <stop
         style="stop-color:#b380ff;stop-opacity:0;"
         offset="1"
         id="stop2902" />
    </linearGradient>
    <radialGradient
       inkscape:collect="always"
       xlink:href="#linearGradient3234"
       id="radialGradient20063"
       gradientUnits="userSpaceOnUse"
       gradientTransform="matrix(1,0,0,0.96143033,132.29169,14.051843)"
       cx="72.927315"
       cy="391.36871"
       fx="72.927315"
       fy="391.36871"
       r="46.464863" />
    <linearGradient
       inkscape:collect="always"
       id="linearGradient3234">
      <stop
         style="stop-color:#ff2a7f;stop-opacity:1;"
         offset="0"
         id="stop3230" />
      <stop
         style="stop-color:#ff2a7f;stop-opacity:0;"
         offset="1"
         id="stop3232" />
    </linearGradient>
    <radialGradient
       inkscape:collect="always"
       xlink:href="#linearGradient3436"
       id="radialGradient20065"
       gradientUnits="userSpaceOnUse"
       gradientTransform="matrix(1,0,0,0.96143033,132.29169,14.051843)"
       cx="121.21793"
       cy="344.59756"
       fx="121.21793"
       fy="344.59756"
       r="46.464863" />
    <linearGradient
       inkscape:collect="always"
       id="linearGradient3436">
      <stop
         style="stop-color:#2a7fff;stop-opacity:1;"
         offset="0"
         id="stop3432" />
      <stop
         style="stop-color:#2a7fff;stop-opacity:0;"
         offset="1"
         id="stop3434" />
    </linearGradient>
    <radialGradient
       inkscape:collect="always"
       xlink:href="#linearGradient3702"
       id="radialGradient20067"
       gradientUnits="userSpaceOnUse"
       gradientTransform="matrix(1,0,0,0.96143033,132.29169,14.051843)"
       cx="120.26282"
       cy="390.41745"
       fx="120.26282"
       fy="390.41745"
       r="46.464863" />
    <linearGradient
       inkscape:collect="always"
       id="linearGradient3702">
      <stop
         style="stop-color:#55ddff;stop-opacity:1"
         offset="0"
         id="stop3698" />
      <stop
         style="stop-color:#ffcc00;stop-opacity:0;"
         offset="1"
         id="stop3700" />
    </linearGradient>
    <rect
       x="423.47202"
       y="1225.3185"
       width="613.62766"
       height="138.27023"
       id="rect20057" />
    <rect
       x="423.47202"
       y="1225.3185"
       width="542.57932"
       height="105.34159"
       id="rect26256" />
  </defs>
  <g
     inkscape:label="Layer 1"
     inkscape:groupmode="layer"
     id="layer1">
    <path
       id="path19995"
       style="fill:#ffffff;stroke:none;stroke-width:0.256742"
       d="m 61.967966,1.9941512 -29.496754,29.4967548 -2.864783,2.8648 -0.0115,-0.01278 L 18.607177,45.33021 32.47125,59.194242 48.103937,74.826931 61.968002,88.690992 72.955757,77.703731 59.091692,63.839698 58.782297,63.530305 H 108.78282 V 47.991899 H 43.243845 l -2.649657,-2.650167 2.864282,-2.864264 h 65.32432 V 26.939058 H 58.997378 L 72.955714,12.980704 Z" />
    <g
       id="g20007"
       transform="matrix(0.97036361,0,0,0.97036361,-137.21379,-308.18344)">
      <path
         id="path19997"
         style="fill:url(#radialGradient20059);fill-opacity:1;stroke:none;stroke-width:0.264583"
         d="m 205.26507,319.65091 -30.39765,30.39764 -2.95229,2.95227 -0.0119,-0.0124 -11.32333,11.32283 14.28751,14.28749 16.11013,16.11013 14.28751,14.2875 11.32335,-11.32282 -14.28751,-14.2875 -0.31884,-0.31884 h 51.52762 v -16.01298 h -67.54062 l -2.73058,-2.7311 2.95175,-2.95176 h 67.31945 V 345.3584 h -51.30594 l 14.38466,-14.38466 z" />
      <path
         id="path19999"
         style="fill:url(#radialGradient20061);fill-opacity:1;stroke:none;stroke-width:0.264583"
         d="m 205.26507,319.65091 -30.39765,30.39764 -2.95229,2.95227 -0.0119,-0.0124 -11.32333,11.32283 14.28751,14.28749 16.11013,16.11013 14.28751,14.2875 11.32335,-11.32282 -14.28751,-14.2875 -0.31884,-0.31884 h 51.52762 v -16.01298 h -67.54062 l -2.73058,-2.7311 2.95175,-2.95176 h 67.31945 V 345.3584 h -51.30594 l 14.38466,-14.38466 z" />
      <path
         id="path20001"
         style="fill:url(#radialGradient20063);fill-opacity:1;stroke:none;stroke-width:0.264583"
         d="m 205.26507,319.65091 -30.39765,30.39764 -2.95229,2.95227 -0.0119,-0.0124 -11.32333,11.32283 14.28751,14.28749 16.11013,16.11013 14.28751,14.2875 11.32335,-11.32282 -14.28751,-14.2875 -0.31884,-0.31884 h 51.52762 v -16.01298 h -67.54062 l -2.73058,-2.7311 2.95175,-2.95176 h 67.31945 V 345.3584 h -51.30594 l 14.38466,-14.38466 z" />
      <path
         id="path20003"
         style="fill:url(#radialGradient20065);fill-opacity:1;stroke:none;stroke-width:0.264583"
         d="m 205.26507,319.65091 -30.39765,30.39764 -2.95229,2.95227 -0.0119,-0.0124 -11.32333,11.32283 14.28751,14.28749 16.11013,16.11013 14.28751,14.2875 11.32335,-11.32282 -14.28751,-14.2875 -0.31884,-0.31884 h 51.52762 v -16.01298 h -67.54062 l -2.73058,-2.7311 2.95175,-2.95176 h 67.31945 V 345.3584 h -51.30594 l 14.38466,-14.38466 z" />
      <path
         id="path20005"
         style="fill:url(#radialGradient20067);fill-opacity:1;stroke:none;stroke-width:0.264583"
         d="m 205.26506,319.65091 -30.39765,30.39764 -2.95228,2.95227 -0.0119,-0.0124 -11.32333,11.32283 14.2875,14.28749 16.11013,16.11013 14.28751,14.2875 11.32335,-11.32282 -14.28751,-14.2875 -0.31884,-0.31884 h 51.52762 v -16.01298 h -67.54062 l -2.73058,-2.7311 2.95175,-2.95176 h 67.31945 V 345.3584 h -51.30594 l 14.38466,-14.38466 z" />
    </g>
    <g
       id="g20035"
       transform="matrix(0.97036361,0,0,0.97036361,-8.8426969,-308.18344)">
      <path
         style="fill:none;stroke:#000000;stroke-width:0.665;stroke-linecap:butt;stroke-linejoin:miter;stroke-miterlimit:4;stroke-dasharray:none;stroke-opacity:1"
         d="m 28.288202,364.31125 44.685121,-44.66034 11.323339,11.32283 -14.38465,14.38466 h 51.305918 v 16.01297 H 53.898519 l -2.951758,2.95176 2.730582,2.7311 h 67.540587 v 16.01298 H 69.690323 l 14.606344,14.60633 -11.323338,11.32281 z"
         id="path20009" />
      <path
         style="fill:none;stroke:#000000;stroke-width:0.665;stroke-linecap:butt;stroke-linejoin:miter;stroke-miterlimit:4;stroke-dasharray:none;stroke-opacity:1"
         d="m 53.898519,361.37137 16.013493,-16.01297 3.061311,-25.70749 v 0 0 0"
         id="path20011" />
      <path
         style="fill:none;stroke:#000000;stroke-width:0.665;stroke-linecap:butt;stroke-linejoin:miter;stroke-miterlimit:4;stroke-dasharray:none;stroke-opacity:1"
         d="m 50.946761,364.32313 -22.658559,-0.0119"
         id="path20013" />
      <path
         style="fill:none;stroke:#000000;stroke-width:0.665;stroke-linecap:butt;stroke-linejoin:miter;stroke-miterlimit:4;stroke-dasharray:none;stroke-opacity:1"
         d="m 53.677343,367.05423 16.01298,16.01298"
         id="path20015" />
      <path
         style="fill:none;stroke:#000000;stroke-width:0.665;stroke-linecap:butt;stroke-linejoin:miter;stroke-miterlimit:4;stroke-dasharray:none;stroke-opacity:1"
         d="m 69.690323,383.06721 3.283006,25.92914"
         id="path20017" />
      <path
         style="fill:none;stroke:#000000;stroke-width:0.665;stroke-linecap:butt;stroke-linejoin:miter;stroke-miterlimit:4;stroke-dasharray:none;stroke-opacity:1"
         d="M 84.296667,397.67354 28.288202,364.31125 v 0 0 0"
         id="path20019" />
      <path
         style="fill:none;stroke:#000000;stroke-width:0.665;stroke-linecap:butt;stroke-linejoin:miter;stroke-miterlimit:4;stroke-dasharray:none;stroke-opacity:1"
         d="m 28.288202,364.31125 56.00846,-33.33751"
         id="path20021" />
      <path
         style="fill:none;stroke:#000000;stroke-width:0.665;stroke-linecap:butt;stroke-linejoin:miter;stroke-miterlimit:4;stroke-dasharray:none;stroke-opacity:1"
         d="m 69.912012,345.3584 51.305918,16.01297"
         id="path20023" />
      <path
         style="fill:none;stroke:#000000;stroke-width:0.665;stroke-linecap:butt;stroke-linejoin:miter;stroke-miterlimit:4;stroke-dasharray:none;stroke-opacity:1"
         d="m 121.21793,367.05423 -51.527607,16.01298 v 0 0 0"
         id="path20025" />
      <path
         style="fill:none;stroke:#000000;stroke-width:0.665;stroke-linecap:butt;stroke-linejoin:miter;stroke-miterlimit:4;stroke-dasharray:none;stroke-opacity:1"
         d="m 69.912012,345.3584 7.259194,15.94915"
         id="path20027"
         sodipodi:nodetypes="cc" />
      <path
         style="fill:none;stroke:#000000;stroke-width:0.665;stroke-linecap:butt;stroke-linejoin:miter;stroke-miterlimit:4;stroke-dasharray:none;stroke-opacity:1"
         d="M 50.946761,364.32313 45.136395,354.25928"
         id="path20029" />
      <path
         style="fill:none;stroke:#000000;stroke-width:0.665;stroke-linecap:butt;stroke-linejoin:miter;stroke-miterlimit:4;stroke-dasharray:none;stroke-opacity:1"
         d="m 50.946762,364.32313 -5.810366,10.06385"
         id="path20031" />
      <path
         style="fill:none;stroke:#000000;stroke-width:0.665;stroke-linecap:butt;stroke-linejoin:miter;stroke-miterlimit:4;stroke-dasharray:none;stroke-opacity:1"
         d="m 69.912012,383.0034 7.259194,-15.94915"
         id="path20033"
         sodipodi:nodetypes="cc" />
    </g>
    <path
       style="opacity:0.2;fill:#000000;stroke:#000000;stroke-width:0.675806px;stroke-linecap:butt;stroke-linejoin:miter;stroke-opacity:1"
       d="M 59.989864,21.066681 C 59.4214,26.075554 59.4214,26.075554 59.4214,26.075554 L 70.907705,14.584156 Z"
       id="path20041" />
    <path
       style="opacity:0.2;fill:#000000;stroke:#000000;stroke-width:0.675806px;stroke-linecap:butt;stroke-linejoin:miter;stroke-opacity:1"
       d="M 59.565843,69.829574 58.782275,63.531026 71.687647,76.745291 Z"
       id="path20043"
       sodipodi:nodetypes="cccc" />
    <path
       style="opacity:0.4;fill:#ffffff;stroke:none;stroke-width:0.675806px;stroke-linecap:butt;stroke-linejoin:miter;stroke-opacity:1"
       d="m 19.797635,44.998165 14.975217,-8.819607 5.240195,8.821549 z"
       id="path20045"
       sodipodi:nodetypes="cccc" />
    <path
       style="opacity:0.4;fill:#ffffff;stroke:none;stroke-width:0.675806px;stroke-linecap:butt;stroke-linejoin:miter;stroke-opacity:1"
       d="m 19.797635,45.641856 14.975217,8.819607 5.240195,-8.821548 z"
       id="path20047"
       sodipodi:nodetypes="cccc" />
    <path
       style="opacity:0.1;fill:#000000;stroke:none;stroke-width:0.675806px;stroke-linecap:butt;stroke-linejoin:miter;stroke-opacity:1"
       d="m 19.797635,45.641856 c 0,0 40.192222,24.593278 40.192222,24.593278 v 0 L 61.968002,88.691022 18.607174,45.33019 v 0 0"
       id="path20049" />
    <path
       style="opacity:0.1;fill:#000000;stroke:none;stroke-width:0.675806px;stroke-linecap:butt;stroke-linejoin:miter;stroke-opacity:1"
       d="m 19.797635,45.127691 c 0,0 40.192222,-24.593286 40.192222,-24.593286 v 0 L 61.968002,2.0785172 18.607174,45.439358 v 0 0"
       id="path20051" />
    <path
       style="opacity:0.1;fill:#000000;stroke:none;stroke-width:0.675806px;stroke-linecap:butt;stroke-linejoin:miter;stroke-opacity:1"
       d="m 58.997386,26.939727 7.04405,15.476519 42.741354,0.06155 -49.785404,-15.537742 v 0 0"
       id="path20053" />
    <path
       style="opacity:0.1;fill:#000000;stroke:none;stroke-width:0.675806px;stroke-linecap:butt;stroke-linejoin:miter;stroke-opacity:1"
       d="m 58.997386,63.469138 7.04405,-15.47652 42.741354,-0.06155 -49.785404,15.537745 v 0 0"
       id="path20055" />
    <path
       style="fill:none;stroke:#000000;stroke-width:3.065;stroke-linecap:round;stroke-linejoin:miter;stroke-miterlimit:4;stroke-dasharray:none;stroke-opacity:1"
       d="m 61.968001,2.0785172 -3.5e-5,-0.084366 v 0"
       id="path420" />
    <path
       style="fill:none;stroke:#000000;stroke-width:0.264583px;stroke-linecap:butt;stroke-linejoin:miter;stroke-opacity:1"
       d="m 61.967966,1.4649845 v 0 0"
       id="path422"
       sodipodi:nodetypes="ccc" />
    <path
       style="fill:none;stroke:#000000;stroke-width:3.065;stroke-linecap:round;stroke-linejoin:miter;stroke-miterlimit:4;stroke-dasharray:none;stroke-opacity:1"
       d="m 72.955715,12.98143 c 10e-7,0 10e-7,0 10e-7,0"
       id="path1658"
       sodipodi:nodetypes="cc" />
    <path
       style="fill:none;stroke:#000000;stroke-width:3.065;stroke-linecap:round;stroke-linejoin:miter;stroke-miterlimit:4;stroke-dasharray:none;stroke-opacity:1"
       d="m 59.691646,20.868296 v 0"
       id="path2247"
       sodipodi:nodetypes="cc" />
    <path
       style="fill:none;stroke:#000000;stroke-width:3.065;stroke-linecap:round;stroke-linejoin:miter;stroke-miterlimit:4;stroke-dasharray:none;stroke-opacity:1"
       d="m 59.355783,26.923985 v 0"
       id="path2594"
       sodipodi:nodetypes="cc" />
    <path
       style="fill:none;stroke:#000000;stroke-width:3.065;stroke-linecap:round;stroke-linejoin:miter;stroke-miterlimit:4;stroke-dasharray:none;stroke-opacity:1"
       d="m 34.956017,35.047703 v 0 l 10e-7,1e-6"
       id="path2879"
       sodipodi:nodetypes="ccc" />
    <path
       style="fill:none;stroke:#000000;stroke-width:3.065;stroke-linecap:round;stroke-linejoin:miter;stroke-miterlimit:4;stroke-dasharray:none;stroke-opacity:1"
       d="m 19.136344,45.33021 -3e-6,0.109148"
       id="path3267"
       sodipodi:nodetypes="cc" />
    <path
       style="fill:none;stroke:#000000;stroke-width:3.065;stroke-linecap:round;stroke-linejoin:miter;stroke-miterlimit:4;stroke-dasharray:none;stroke-opacity:1"
       d="m 108.78277,26.939781 v 0"
       id="path3769"
       sodipodi:nodetypes="cc" />
    <path
       style="fill:none;stroke:#000000;stroke-width:3.065;stroke-linecap:round;stroke-linejoin:miter;stroke-miterlimit:4;stroke-dasharray:none;stroke-opacity:1"
       d="m 108.78279,42.477468 v 0"
       id="path3976"
       sodipodi:nodetypes="cc" />
    <path
       style="fill:none;stroke:#000000;stroke-width:3.065;stroke-linecap:round;stroke-linejoin:miter;stroke-miterlimit:4;stroke-dasharray:none;stroke-opacity:1"
       d="m 108.78276,47.992625 v 0"
       id="path4341"
       sodipodi:nodetypes="cc" />
    <path
       style="fill:none;stroke:#000000;stroke-width:3.065;stroke-linecap:round;stroke-linejoin:miter;stroke-miterlimit:4;stroke-dasharray:none;stroke-opacity:1"
       d="m 108.78276,63.531038 6e-5,-7.33e-4"
       id="path4466"
       sodipodi:nodetypes="cc" />
    <path
       style="fill:none;stroke:#000000;stroke-width:3.065;stroke-linecap:round;stroke-linejoin:miter;stroke-miterlimit:4;stroke-dasharray:none;stroke-opacity:1"
       d="m 58.997386,63.469136 v 2e-6"
       id="path4831"
       sodipodi:nodetypes="cc" />
    <path
       style="fill:none;stroke:#000000;stroke-width:3.065;stroke-linecap:round;stroke-linejoin:miter;stroke-miterlimit:4;stroke-dasharray:none;stroke-opacity:1"
       d="m 66.041433,47.992644 v 0"
       id="path4918"
       sodipodi:nodetypes="cc" />
    <path
       style="fill:none;stroke:#000000;stroke-width:3.065;stroke-linecap:round;stroke-linejoin:miter;stroke-miterlimit:4;stroke-dasharray:none;stroke-opacity:1"
       d="m 59.565844,69.829574 v 0"
       id="path5443"
       sodipodi:nodetypes="cc" />
    <path
       style="fill:none;stroke:#000000;stroke-width:3.065;stroke-linecap:round;stroke-linejoin:miter;stroke-miterlimit:4;stroke-dasharray:none;stroke-opacity:1"
       d="m 72.955755,77.70373 -5.3e-5,7.69e-4"
       id="path5530"
       sodipodi:nodetypes="cc" />
    <path
       style="fill:none;stroke:#000000;stroke-width:3.065;stroke-linecap:round;stroke-linejoin:miter;stroke-miterlimit:4;stroke-dasharray:none;stroke-opacity:1"
       d="m 61.968001,88.161825 -3.5e-5,7.4e-4"
       id="path5617"
       sodipodi:nodetypes="cc" />
    <path
       style="fill:none;stroke:#000000;stroke-width:3.065;stroke-linecap:round;stroke-linejoin:miter;stroke-miterlimit:4;stroke-dasharray:none;stroke-opacity:1"
       d="m 66.041436,42.416246 -3e-6,10e-6"
       id="path6151"
       sodipodi:nodetypes="cc" />
    <path
       style="fill:none;stroke:#000000;stroke-width:3.065;stroke-linecap:round;stroke-linejoin:miter;stroke-miterlimit:4;stroke-dasharray:none;stroke-opacity:1"
       d="m 40.594142,45.342463 v 0"
       id="path6634"
       sodipodi:nodetypes="cc" />
    <path
       style="fill:none;stroke:#000000;stroke-width:3.065;stroke-linecap:round;stroke-linejoin:miter;stroke-miterlimit:4;stroke-dasharray:none;stroke-opacity:1"
       d="m 43.458471,42.477468 -6e-6,7.16e-4"
       id="path6759"
       sodipodi:nodetypes="cc" />
    <path
       style="fill:none;stroke:#000000;stroke-width:3.065;stroke-linecap:round;stroke-linejoin:miter;stroke-miterlimit:4;stroke-dasharray:none;stroke-opacity:1"
       d="m 43.243843,47.992625 v 0"
       id="path6846"
       sodipodi:nodetypes="cc" />
    <path
       style="fill:none;stroke:#000000;stroke-width:3.065;stroke-linecap:round;stroke-linejoin:miter;stroke-miterlimit:4;stroke-dasharray:none;stroke-opacity:1"
       d="m 34.956019,55.108057 v 10e-7"
       id="path7093"
       sodipodi:nodetypes="cc" />
    <g
       aria-label="PyNeuraLogic"
       transform="matrix(0.20913209,0,0,0.20913209,-81.703858,-164.00332)"
       id="text26254"
       style="font-size:80.9696px;line-height:1.25;font-family:Z003;-inkscape-font-specification:Z003;white-space:pre;shape-inside:url(#rect26256)">
      <path
         d="m 447.3656,1232.3358 h 24.23553 q 8.42115,0 13.36314,4.8629 4.942,4.863 4.942,12.4143 0,7.5909 -4.90246,12.4143 -4.90246,4.8234 -13.40268,4.7839 h -18.77957 v 23.6425 h -5.45596 z m 5.45596,5.456 v 23.5634 h 18.77957 q 6.049,0.04 9.44909,-3.2815 3.40009,-3.321 3.40009,-8.3816 0,-5.1397 -3.47916,-8.5398 -3.47917,-3.4 -9.37002,-3.3605 z"
         style="font-family:AnjaliOldLipi;-inkscape-font-specification:AnjaliOldLipi;text-align:center;text-anchor:middle"
         id="path26950" />
      <path
         d="m 514.73483,1282.6651 12.49336,-35.1079 5.13967,1.8186 q -3.40009,9.6468 -5.53503,15.6958 -2.13494,6.0094 -3.43963,9.7258 -1.30468,3.6769 -2.49076,6.9979 -1.18608,3.321 -2.17448,6.049 -0.98839,2.6884 -1.77911,4.8234 -0.79072,2.1744 -1.66051,4.3094 -0.83026,2.1745 -2.37216,4.7443 -1.50236,2.6094 -4.78385,4.0722 -3.28148,1.5024 -9.56769,1.5024 v -5.456 q 6.32575,0 8.93512,-2.5698 1.34422,-1.3443 2.29308,-3.4792 0.9884,-2.1349 2.09541,-5.1792 l -15.37948,-41.1569 5.13967,-1.8977 z"
         style="font-family:AnjaliOldLipi;-inkscape-font-specification:AnjaliOldLipi;text-align:center;text-anchor:middle"
         id="path26952" />
      <path
         d="m 580.28542,1290.256 -33.13111,-48.8664 v 48.8664 h -5.45596 v -57.9597 h 5.89085 l 33.28926,49.0641 v -48.8664 h 5.45596 v 57.762 z"
         style="font-family:AnjaliOldLipi;-inkscape-font-specification:AnjaliOldLipi;text-align:center;text-anchor:middle"
         id="path26954" />
      <path
         d="m 602.2674,1270.8043 q 0.5535,6.4839 4.26988,10.7538 3.71638,4.2699 9.6863,4.2303 5.4955,-0.039 9.13281,-3.2024 1.50236,-1.2651 2.17447,-2.5698 0.71165,-1.3443 0.71165,-2.0954 h 5.45596 q 0.0395,3.4396 -4.15127,7.9072 -5.10014,5.4164 -11.58403,5.4164 -6.44436,0 -10.08167,-1.7791 -3.59777,-1.8187 -6.08853,-4.9025 -5.0606,-6.2467 -5.0606,-15.419 0,-9.1724 4.98153,-15.3795 4.98152,-6.2071 14.15386,-6.2071 9.17234,0 14.15387,5.9699 4.98152,5.9304 4.98152,17.2772 z m 27.12165,-5.456 q -1.38376,-12.3352 -14.03526,-12.3352 -5.29781,0 -8.6979,3.5583 -3.40009,3.5582 -4.23035,8.7769 z"
         style="font-family:AnjaliOldLipi;-inkscape-font-specification:AnjaliOldLipi;text-align:center;text-anchor:middle"
         id="path26956" />
      <path
         d="m 671.85063,1283.7721 q -6.91879,7.4723 -13.40268,7.4723 -6.48389,0.039 -10.43749,-3.6769 -3.95359,-3.7163 -3.95359,-9.4491 v -29.8496 h 5.45596 v 29.8496 q 0,3.3606 2.5303,5.5351 2.5303,2.1349 6.16761,2.1349 4.66524,-0.039 10.43748,-6.6816 1.70005,-1.9768 3.20241,-4.1512 v -26.6868 h 5.45596 v 41.9872 h -5.45596 z"
         style="font-family:AnjaliOldLipi;-inkscape-font-specification:AnjaliOldLipi;text-align:center;text-anchor:middle"
         id="path26958" />
      <path
         d="m 694.42565,1254.9108 q 5.21875,-7.3536 12.37475,-7.3536 h 3.67684 v 5.4559 h -3.67684 q -4.70477,0 -8.38162,4.9025 -2.72798,3.5978 -3.99313,8.4211 v 23.9193 h -5.45595 v -41.9872 h 5.45595 z"
         style="font-family:AnjaliOldLipi;-inkscape-font-specification:AnjaliOldLipi;text-align:center;text-anchor:middle"
         id="path26960" />
      <path
         d="m 743.37114,1285.3535 q -7.23508,5.8909 -13.99573,5.8909 -8.97465,0 -12.41428,-3.9932 -2.64891,-3.0838 -2.64891,-8.7769 0,-5.6932 4.34896,-9.3305 5.77224,-4.8234 16.76323,-4.8234 h 7.94673 v -3.2024 q -0.0395,-3.4396 -2.88613,-5.7723 -2.84658,-2.3326 -7.98626,-2.3326 -5.0606,0 -8.34208,2.135 -3.28148,2.1349 -3.28148,5.1396 h -5.45596 q 0,-5.2187 4.82338,-8.9746 4.82339,-3.7559 12.33522,-3.7559 7.51182,0 11.86078,3.8745 4.34895,3.8745 4.38849,9.6863 v 29.138 h -5.45596 z m -19.84704,-0.3953 q 1.81865,0.8302 6.76064,0.8302 4.98153,0 13.0864,-7.749 v -8.263 h -7.94673 q -11.38635,0 -14.70737,5.4559 -0.86979,1.5024 -0.90932,3.7955 0,2.2535 0.94886,3.6768 0.9884,1.3838 2.76752,2.2536 z"
         style="font-family:AnjaliOldLipi;-inkscape-font-specification:AnjaliOldLipi;text-align:center;text-anchor:middle"
         id="path26962" />
      <path
         d="m 762.74375,1232.3358 h 5.45596 V 1284.8 h 29.41473 v 5.456 h -34.87069 z"
         style="font-family:AnjaliOldLipi;-inkscape-font-specification:AnjaliOldLipi;text-align:center;text-anchor:middle"
         id="path26964" />
      <path
         d="m 828.01758,1253.8829 q -2.25355,-0.8698 -5.89086,-0.8698 -3.6373,0 -6.40482,1.5815 -2.72798,1.5814 -4.30941,4.0326 -2.92566,4.4281 -2.92566,10.6352 0,6.2071 2.96519,10.8328 3.67684,5.7328 11.14914,5.7328 7.47229,0 11.18867,-6.2467 2.84658,-4.7443 2.80705,-10.2398 0,-12.1376 -8.5793,-15.4586 z m -17.31674,-2.6884 q 2.21401,-1.6605 5.13967,-2.6489 2.9652,-0.9884 7.0374,-0.9884 4.11173,0 7.23507,1.1465 3.12334,1.1465 6.08854,3.7559 2.96519,2.5699 4.42802,7.4328 1.4233,4.9024 1.4233,8.0653 0,3.1629 -0.59304,6.8002 -0.63258,3.7164 -3.40009,8.2235 -1.4233,2.3721 -3.55824,4.1908 -4.82338,4.1117 -11.86078,4.1117 -7.03739,0 -11.86078,-3.7164 -5.96993,-4.5466 -7.35368,-13.4817 -0.39536,-2.4908 -0.39536,-4.7443 0,-2.2931 0.35582,-4.7839 0.39536,-2.4907 1.30469,-4.9024 0.90932,-2.4513 2.37215,-4.6257 1.46283,-2.2141 3.63731,-3.835 z"
         style="font-family:AnjaliOldLipi;-inkscape-font-specification:AnjaliOldLipi;text-align:center;text-anchor:middle"
         id="path26966" />
      <path
         d="m 878.62358,1251.827 v -3.5582 h 5.45596 v 42.5802 q 0.0395,6.9188 -5.02107,11.6631 -5.0606,4.7443 -12.41428,4.7443 -7.23508,0 -11.97939,-3.6768 -4.74431,-3.6769 -4.74431,-8.9747 h 5.45596 q 0,2.9257 3.20241,5.0606 3.20241,2.135 8.06533,2.135 5.02106,0 8.50023,-3.2024 3.47916,-3.1629 3.47916,-7.7491 v -5.9699 q -6.36529,6.3653 -13.52129,6.3653 -3.28148,-0.04 -6.32575,-1.7001 -3.04427,-1.6605 -5.33735,-4.6652 -5.0606,-6.563 -5.0606,-15.7353 0,-9.1724 5.85132,-15.5772 5.49549,-6.0094 11.93985,-6.0094 6.40482,0 12.45382,4.2698 z m -13.52129,33.9614 q 6.95832,0 13.52129,-9.5281 v -17.1982 q -3.67684,-4.1117 -8.73744,-5.535 -1.81866,-0.514 -3.83499,-0.514 -2.01633,0 -4.23034,1.1861 -2.17448,1.1861 -3.9536,3.321 -4.03266,4.9025 -4.03266,11.7422 0,6.8397 3.36055,11.7026 3.36056,4.863 7.90719,4.8234 z"
         style="font-family:AnjaliOldLipi;-inkscape-font-specification:AnjaliOldLipi;text-align:center;text-anchor:middle"
         id="path26968" />
      <path
         d="m 902.38468,1248.2688 v 42.0267 h -5.45596 v -42.0267 z m -5.45596,-7.9072 v -8.0258 h 5.45596 v 8.0258 z"
         style="font-family:AnjaliOldLipi;-inkscape-font-specification:AnjaliOldLipi;text-align:center;text-anchor:middle"
         id="path26970" />
      <path
         d="m 942.1183,1260.9994 q 0.0395,-3.7955 -3.20241,-5.8909 -3.24195,-2.0954 -7.82812,-2.0954 -4.82338,0 -9.09326,4.349 -4.26988,4.3489 -4.26988,12.2166 0,7.8676 3.55823,12.0584 3.55824,4.1909 9.48863,4.1909 5.93039,0 8.65837,-2.5699 2.72798,-2.5698 2.68844,-5.2978 h 5.45596 q -0.0395,4.5071 -3.67684,8.4607 -4.46756,4.8234 -12.80965,4.8234 -13.40268,0 -17.43534,-12.2166 -1.38376,-4.1908 -1.38376,-9.7259 0,-5.535 1.81865,-9.5281 1.81865,-4.0327 4.58617,-6.7211 2.80705,-2.728 6.08853,-4.1118 3.32102,-1.3837 8.22348,-1.3837 4.94199,0 9.76537,3.4791 4.82339,3.4792 4.82339,9.9631 z"
         style="font-family:AnjaliOldLipi;-inkscape-font-specification:AnjaliOldLipi;text-align:center;text-anchor:middle"
         id="path26972" />
    </g>
  </g>
</svg>
