<?xml version="1.0" encoding="UTF-8" standalone="no"?>
<!-- Created with Inkscape (http://www.inkscape.org/) -->

<svg
   width="133mm"
   height="97mm"
   viewBox="0 0 133 97"
   version="1.1"
   id="svg5"
   sodipodi:docname="simple_graph.svg"
   inkscape:version="1.1 (ce6663b3b7, 2021-05-25)"
   xmlns:inkscape="http://www.inkscape.org/namespaces/inkscape"
   xmlns:sodipodi="http://sodipodi.sourceforge.net/DTD/sodipodi-0.dtd"
   xmlns="http://www.w3.org/2000/svg"
   xmlns:svg="http://www.w3.org/2000/svg">
  <sodipodi:namedview
     id="namedview41"
     pagecolor="#ffffff"
     bordercolor="#666666"
     borderopacity="1.0"
     inkscape:pageshadow="2"
     inkscape:pageopacity="0.0"
     inkscape:pagecheckerboard="0"
     inkscape:document-units="mm"
     showgrid="false"
     inkscape:zoom="2.0539304"
     inkscape:cx="251.46908"
     inkscape:cy="183.30709"
     inkscape:window-width="1976"
     inkscape:window-height="1216"
     inkscape:window-x="72"
     inkscape:window-y="27"
     inkscape:window-maximized="1"
     inkscape:current-layer="svg5" />
  <defs
     id="defs2">
    <rect
       x="117.62965"
       y="74.612038"
       width="112.94866"
       height="109.91532"
       id="rect24434" />
    <rect
       x="117.46307"
       y="120.41714"
       width="107.27493"
       height="97.682419"
       id="rect11492" />
    <rect
       x="117.46307"
       y="120.41714"
       width="107.27493"
       height="97.682419"
       id="rect13686" />
    <rect
       x="117.46307"
       y="120.41714"
       width="107.27493"
       height="97.682419"
       id="rect15566" />
    <rect
       x="117.62965"
       y="74.612038"
       width="112.94866"
       height="109.91532"
       id="rect25578" />
    <rect
       x="117.62965"
       y="74.612038"
       width="137.69481"
       height="109.91532"
       id="rect25992" />
    <rect
       x="117.62965"
       y="74.612038"
       width="112.94866"
       height="109.91532"
       id="rect27342" />
    <rect
       x="117.62965"
       y="74.612038"
       width="112.94866"
       height="109.91532"
       id="rect33324" />
    <rect
       x="117.62965"
       y="74.612038"
       width="112.94866"
       height="109.91532"
       id="rect34594" />
  </defs>
  <path
     style="fill:none;stroke:#000000;stroke-width:0.765;stroke-linecap:butt;stroke-linejoin:miter;stroke-miterlimit:4;stroke-dasharray:none;stroke-opacity:1"
     d="M 13.057441,26.772251 H 119.29476"
     id="path20647" />
  <path
     style="fill:none;stroke:#000000;stroke-width:0.765;stroke-linecap:butt;stroke-linejoin:miter;stroke-miterlimit:4;stroke-dasharray:none;stroke-opacity:1"
     d="m 13.057441,26.772251 52.96909,42.78635"
     id="path20729" />
  <path
     style="fill:none;stroke:#000000;stroke-width:0.765;stroke-linecap:butt;stroke-linejoin:miter;stroke-miterlimit:4;stroke-dasharray:none;stroke-opacity:1"
     d="M 118.9432,26.772251 65.974111,69.558601"
     id="path20910" />
  <circle
     style="fill:#ffffff;stroke:#000000;stroke-width:0.665001"
     id="path1086"
     cx="13.490064"
     cy="26.51354"
     r="12.655605" />
  <text
     xml:space="preserve"
     transform="matrix(0.26458333,0,0,0.26458333,-20.6375,-11.641668)"
     id="text11490"
     style="font-size:40px;line-height:1.25;font-family:'CMU Classical Serif';-inkscape-font-specification:'CMU Classical Serif';white-space:pre;shape-inside:url(#rect11492)"><tspan
       x="117.46289"
       y="157.71766"
       id="tspan1082"><tspan
         style="font-family:Ubuntu;-inkscape-font-specification:Ubuntu"
         id="tspan1080">1</tspan></tspan></text>
  <circle
     style="fill:#ffffff;stroke:#000000;stroke-width:0.665001"
     id="circle13680"
     cx="119.32336"
     cy="26.51354"
     r="12.655605" />
  <text
     xml:space="preserve"
     transform="matrix(0.26458333,0,0,0.26458333,85.195845,-11.641668)"
     id="text13684"
     style="font-size:40px;line-height:1.25;font-family:'CMU Classical Serif';-inkscape-font-specification:'CMU Classical Serif';white-space:pre;shape-inside:url(#rect13686)"><tspan
       x="117.46289"
       y="157.71766"
       id="tspan1086"><tspan
         style="font-family:Ubuntu;-inkscape-font-specification:Ubuntu"
         id="tspan1084">2</tspan></tspan></text>
  <circle
     style="fill:#ffffff;stroke:#000000;stroke-width:0.665001"
     id="circle15560"
     cx="66.406715"
     cy="68.846878"
     r="12.655605" />
  <text
     xml:space="preserve"
     transform="matrix(0.26458333,0,0,0.26458333,32.279172,30.691667)"
     id="text15564"
     style="font-size:40px;line-height:1.25;font-family:'CMU Classical Serif';-inkscape-font-specification:'CMU Classical Serif';white-space:pre;shape-inside:url(#rect15566)"><tspan
       x="117.46289"
       y="157.71766"
       id="tspan1090"><tspan
         style="font-family:Ubuntu;-inkscape-font-specification:Ubuntu"
         id="tspan1088">3</tspan></tspan></text>
  <g
     aria-label="x = 0"
     transform="matrix(0.26458333,0,0,0.26458333,-30.956206,-21.561749)"
     id="text24432"
     style="font-size:40px;line-height:1.25;font-family:'CMU Classical Serif';-inkscape-font-specification:'CMU Classical Serif';white-space:pre;shape-inside:url(#rect24434)">
    <path
       d="m 119.74891,109.53133 q 0,-0.84 0.52,-1.48 0.56,-0.64 1.4,-0.64 0.6,0 0.96,0.4 0.4,0.36 0.4,0.92 0,1.36 -1.56,1.88 0.92,0.52 1.76,0.52 0.64,0 1.16,-0.28 0.56,-0.28 1,-0.92 0.44,-0.64 0.72,-1.24 0.32,-0.64 0.64,-1.8 0.36,-1.2 0.56,-2 0.2,-0.8 0.56,-2.32 0.36,-1.56 0.56,-2.44 0.48,-2.120002 0.48,-2.720002 0,-1.16 -0.56,-1.84 -0.52,-0.72 -1.4,-0.72 -1.36,0 -2.64,1.32 -1.24,1.28 -1.96,3.32 -0.04,0.08 -0.08,0.24 -0.04,0.16 -0.08,0.24 -0.04,0.04 -0.12,0.200002 -0.04,0.12 -0.12,0.2 -0.08,0.04 -0.2,0.08 -0.08,0.04 -0.24,0.04 -0.56,0 -0.56,-0.520002 0,-0.64 0.64,-2 0.68,-1.36 2.16,-2.68 1.52,-1.36 3.32,-1.36 h 0.04 q 2.68,0.04 3.84,2.76 1.52,-2.76 3.92,-2.76 1.24,0 2.32,0.64 1.12,0.64 1.12,1.88 0,0.92 -0.6,1.52 -0.6,0.6 -1.36,0.6 -0.56,0 -0.96,-0.36 -0.36,-0.36 -0.36,-0.92 0,-0.6 0.4,-1.12 0.4,-0.56 1.12,-0.76 -0.76,-0.56 -1.72,-0.56 -0.52,0 -1.04,0.24 -0.52,0.2 -1.32,1.32 -0.76,1.12 -1.24,3.04 -0.36,1.400002 -0.72,2.840002 -0.32,1.44 -0.52,2.16 -0.16,0.68 -0.36,1.44 -0.2,0.76 -0.28,1.08 -0.04,0.32 -0.12,0.68 -0.04,0.36 -0.08,0.56 0,0.16 0,0.44 0,1.08 0.52,1.8 0.52,0.68 1.44,0.68 1.36,0 2.64,-1.28 1.28,-1.32 1.96,-3.36 0.04,-0.08 0.08,-0.24 0.08,-0.16 0.08,-0.24 0.04,-0.08 0.08,-0.2 0.08,-0.12 0.16,-0.16 0.08,-0.08 0.16,-0.12 0.12,-0.04 0.28,-0.04 0.56,0 0.56,0.52 0,0.64 -0.68,2 -0.64,1.36 -2.16,2.72 -1.52,1.32 -3.28,1.32 -1.12,0 -2.2,-0.6 -1.08,-0.64 -1.64,-2.12 -0.52,0.76 -0.92,1.24 -0.36,0.44 -1.24,0.96 -0.84,0.52 -1.8,0.52 -1.32,0 -2.4,-0.64 -1.04,-0.68 -1.04,-1.88 z"
       id="path885" />
    <path
       d="m 156.02885,105.93133 q -0.88,0 -0.88,-0.44 0,-0.44 1,-0.44 h 22.32 q 0.64,0 0.8,0.08 0.2,0.08 0.24,0.28 0.04,0.2 -0.12,0.36 -0.16,0.16 -1,0.16 z m 1.08,-8.200002 q 0,-0.44 0.8,-0.44 h 22.76 q 0.76,0 0.76,0.44 0,0.44 -1,0.44 h -21.36 q -0.16,0 -0.44,0.04 -0.28,0 -0.44,0 h -0.12 q -0.96,0 -0.96,-0.48 z"
       id="path887" />
    <path
       d="m 200.1088,105.65133 q 0,-1.8 0.56,-4.92 0.6,-3.160002 2.16,-7.160002 1.6,-4 3.72,-6.04 2.64,-2.56 5.76,-2.56 0.92,0 1.76,0.28 0.84,0.24 1.68,0.92 0.88,0.68 1.4,2.16 0.52,1.44 0.52,3.52 0,1.16 -0.32,3.32 -0.32,2.12 -1.2,5.200002 -0.88,3.08 -2.16,5.72 -1.28,2.64 -3.52,4.52 -2.24,1.88 -5,1.88 -0.96,0 -1.8,-0.28 -0.8,-0.24 -1.68,-0.92 -0.84,-0.68 -1.36,-2.12 -0.52,-1.44 -0.52,-3.52 z m 2.56,2.08 q 0,2.04 0.92,2.96 0.92,0.88 2.12,0.88 0.64,0 1.4,-0.24 0.8,-0.28 1.88,-1.28 1.08,-1.04 1.8,-2.64 1.08,-2.36 2.72,-8.880002 1.68,-6.52 1.68,-8.88 0,-1.76 -0.88,-2.76 -0.84,-1.04 -2.24,-1.04 -2.2,0 -4.04,2.4 -1.6,2.04 -3.4,9.28 -1.96,7.840002 -1.96,10.200002 z"
       id="path889" />
  </g>
  <g
     aria-label="x = 1"
     transform="matrix(0.26458333,0,0,0.26458333,74.877131,-21.561749)"
     id="text25576"
     style="font-size:40px;line-height:1.25;font-family:'CMU Classical Serif';-inkscape-font-specification:'CMU Classical Serif';white-space:pre;shape-inside:url(#rect25578)">
    <path
       d="m 119.74891,109.53133 q 0,-0.84 0.52,-1.48 0.56,-0.64 1.4,-0.64 0.6,0 0.96,0.4 0.4,0.36 0.4,0.92 0,1.36 -1.56,1.88 0.92,0.52 1.76,0.52 0.64,0 1.16,-0.28 0.56,-0.28 1,-0.92 0.44,-0.64 0.72,-1.24 0.32,-0.64 0.64,-1.8 0.36,-1.2 0.56,-2 0.2,-0.8 0.56,-2.32 0.36,-1.56 0.56,-2.44 0.48,-2.120002 0.48,-2.720002 0,-1.16 -0.56,-1.84 -0.52,-0.72 -1.4,-0.72 -1.36,0 -2.64,1.32 -1.24,1.28 -1.96,3.32 -0.04,0.08 -0.08,0.24 -0.04,0.16 -0.08,0.24 -0.04,0.04 -0.12,0.200002 -0.04,0.12 -0.12,0.2 -0.08,0.04 -0.2,0.08 -0.08,0.04 -0.24,0.04 -0.56,0 -0.56,-0.520002 0,-0.64 0.64,-2 0.68,-1.36 2.16,-2.68 1.52,-1.36 3.32,-1.36 h 0.04 q 2.68,0.04 3.84,2.76 1.52,-2.76 3.92,-2.76 1.24,0 2.32,0.64 1.12,0.64 1.12,1.88 0,0.92 -0.6,1.52 -0.6,0.6 -1.36,0.6 -0.56,0 -0.96,-0.36 -0.36,-0.36 -0.36,-0.92 0,-0.6 0.4,-1.12 0.4,-0.56 1.12,-0.76 -0.76,-0.56 -1.72,-0.56 -0.52,0 -1.04,0.24 -0.52,0.2 -1.32,1.32 -0.76,1.12 -1.24,3.04 -0.36,1.400002 -0.72,2.840002 -0.32,1.44 -0.52,2.16 -0.16,0.68 -0.36,1.44 -0.2,0.76 -0.28,1.08 -0.04,0.32 -0.12,0.68 -0.04,0.36 -0.08,0.56 0,0.16 0,0.44 0,1.08 0.52,1.8 0.52,0.68 1.44,0.68 1.36,0 2.64,-1.28 1.28,-1.32 1.96,-3.36 0.04,-0.08 0.08,-0.24 0.08,-0.16 0.08,-0.24 0.04,-0.08 0.08,-0.2 0.08,-0.12 0.16,-0.16 0.08,-0.08 0.16,-0.12 0.12,-0.04 0.28,-0.04 0.56,0 0.56,0.52 0,0.64 -0.68,2 -0.64,1.36 -2.16,2.72 -1.52,1.32 -3.28,1.32 -1.12,0 -2.2,-0.6 -1.08,-0.64 -1.64,-2.12 -0.52,0.76 -0.92,1.24 -0.36,0.44 -1.24,0.96 -0.84,0.52 -1.8,0.52 -1.32,0 -2.4,-0.64 -1.04,-0.68 -1.04,-1.88 z"
       id="path892" />
    <path
       d="m 156.02885,105.93133 q -0.88,0 -0.88,-0.44 0,-0.44 1,-0.44 h 22.32 q 0.64,0 0.8,0.08 0.2,0.08 0.24,0.28 0.04,0.2 -0.12,0.36 -0.16,0.16 -1,0.16 z m 1.08,-8.200002 q 0,-0.44 0.8,-0.44 h 22.76 q 0.76,0 0.76,0.44 0,0.44 -1,0.44 h -21.36 q -0.16,0 -0.44,0.04 -0.28,0 -0.44,0 h -0.12 q -0.96,0 -0.96,-0.48 z"
       id="path894" />
    <path
       d="m 200.1888,111.09133 q 0,-0.72 1,-0.72 h 0.4 q 2.36,-0.04 2.92,-0.4 0.56,-0.36 0.92,-1.84 l 4.64,-18.400002 q -2.48,1.6 -4.24,1.6 -0.64,0 -0.76,-0.32 -0.12,-0.36 0.12,-0.68 0.16,-0.2 0.84,-0.28 0.68,-0.12 1.52,-0.32 0.84,-0.2 2.28,-1.28 1.44,-1.12 2.96,-3.04 0.32,-0.4 0.6,-0.4 0.44,0 0.44,0.52 0,0.2 -0.08,0.52 l -5.68,22.640002 q -0.12,0.52 -0.12,0.84 0,0.84 2.04,0.84 0.12,0 0.36,0 0.24,-0.04 0.36,-0.04 0.84,0 1.12,0.16 0.44,0.32 0.08,0.84 -0.2,0.28 -0.68,0.28 -0.16,0 -0.8,-0.04 -0.64,-0.04 -1.8,-0.04 -1.16,-0.04 -2.52,-0.04 -1.36,0 -2.56,0.04 -1.16,0 -1.84,0.04 -0.64,0.04 -0.8,0.04 -0.72,0 -0.72,-0.52 z"
       id="path896" />
  </g>
  <g
     aria-label="x = −1"
     transform="matrix(0.26458333,0,0,0.26458333,17.727125,63.104921)"
     id="text25990"
     style="font-size:40px;line-height:1.25;font-family:'CMU Classical Serif';-inkscape-font-specification:'CMU Classical Serif';white-space:pre;shape-inside:url(#rect25992)">
    <path
       d="m 119.74891,109.53133 q 0,-0.84 0.52,-1.48 0.56,-0.64 1.4,-0.64 0.6,0 0.96,0.4 0.4,0.36 0.4,0.92 0,1.36 -1.56,1.88 0.92,0.52 1.76,0.52 0.64,0 1.16,-0.28 0.56,-0.28 1,-0.92 0.44,-0.64 0.72,-1.24 0.32,-0.64 0.64,-1.8 0.36,-1.2 0.56,-2 0.2,-0.8 0.56,-2.32 0.36,-1.56 0.56,-2.44 0.48,-2.120002 0.48,-2.720002 0,-1.16 -0.56,-1.84 -0.52,-0.72 -1.4,-0.72 -1.36,0 -2.64,1.32 -1.24,1.28 -1.96,3.32 -0.04,0.08 -0.08,0.24 -0.04,0.16 -0.08,0.24 -0.04,0.04 -0.12,0.200002 -0.04,0.12 -0.12,0.2 -0.08,0.04 -0.2,0.08 -0.08,0.04 -0.24,0.04 -0.56,0 -0.56,-0.520002 0,-0.64 0.64,-2 0.68,-1.36 2.16,-2.68 1.52,-1.36 3.32,-1.36 h 0.04 q 2.68,0.04 3.84,2.76 1.52,-2.76 3.92,-2.76 1.24,0 2.32,0.64 1.12,0.64 1.12,1.88 0,0.92 -0.6,1.52 -0.6,0.6 -1.36,0.6 -0.56,0 -0.96,-0.36 -0.36,-0.36 -0.36,-0.92 0,-0.6 0.4,-1.12 0.4,-0.56 1.12,-0.76 -0.76,-0.56 -1.72,-0.56 -0.52,0 -1.04,0.24 -0.52,0.2 -1.32,1.32 -0.76,1.12 -1.24,3.04 -0.36,1.400002 -0.72,2.840002 -0.32,1.44 -0.52,2.16 -0.16,0.68 -0.36,1.44 -0.2,0.76 -0.28,1.08 -0.04,0.32 -0.12,0.68 -0.04,0.36 -0.08,0.56 0,0.16 0,0.44 0,1.08 0.52,1.8 0.52,0.68 1.44,0.68 1.36,0 2.64,-1.28 1.28,-1.32 1.96,-3.36 0.04,-0.08 0.08,-0.24 0.08,-0.16 0.08,-0.24 0.04,-0.08 0.08,-0.2 0.08,-0.12 0.16,-0.16 0.08,-0.08 0.16,-0.12 0.12,-0.04 0.28,-0.04 0.56,0 0.56,0.52 0,0.64 -0.68,2 -0.64,1.36 -2.16,2.72 -1.52,1.32 -3.28,1.32 -1.12,0 -2.2,-0.6 -1.08,-0.64 -1.64,-2.12 -0.52,0.76 -0.92,1.24 -0.36,0.44 -1.24,0.96 -0.84,0.52 -1.8,0.52 -1.32,0 -2.4,-0.64 -1.04,-0.68 -1.04,-1.88 z"
       id="path905" />
    <path
       d="m 156.02885,105.93133 q -0.88,0 -0.88,-0.44 0,-0.44 1,-0.44 h 22.32 q 0.64,0 0.8,0.08 0.2,0.08 0.24,0.28 0.04,0.2 -0.12,0.36 -0.16,0.16 -1,0.16 z m 1.08,-8.200002 q 0,-0.44 0.8,-0.44 h 22.76 q 0.76,0 0.76,0.44 0,0.44 -1,0.44 h -21.36 q -0.16,0 -0.44,0.04 -0.28,0 -0.44,0 h -0.12 q -0.96,0 -0.96,-0.48 z"
       id="path907" />
    <path
       d="m 201.9488,102.05133 q -0.84,0 -0.84,-0.44 0,-0.44 0.8,-0.44 h 22.76 q 0.8,0 0.8,0.44 0,0.44 -1.04,0.44 z"
       id="path909" />
    <path
       d="m 230.82875,111.09133 q 0,-0.72 1,-0.72 h 0.4 q 2.36,-0.04 2.92,-0.4 0.56,-0.36 0.92,-1.84 l 4.64,-18.400002 q -2.48,1.6 -4.24,1.6 -0.64,0 -0.76,-0.32 -0.12,-0.36 0.12,-0.68 0.16,-0.2 0.84,-0.28 0.68,-0.12 1.52,-0.32 0.84,-0.2 2.28,-1.28 1.44,-1.12 2.96,-3.04 0.32,-0.4 0.6,-0.4 0.44,0 0.44,0.52 0,0.2 -0.08,0.52 l -5.68,22.640002 q -0.12,0.52 -0.12,0.84 0,0.84 2.04,0.84 0.12,0 0.36,0 0.24,-0.04 0.36,-0.04 0.84,0 1.12,0.16 0.44,0.32 0.08,0.84 -0.2,0.28 -0.68,0.28 -0.16,0 -0.8,-0.04 -0.64,-0.04 -1.8,-0.04 -1.16,-0.04 -2.52,-0.04 -1.36,0 -2.56,0.04 -1.16,0 -1.84,0.04 -0.64,0.04 -0.8,0.04 -0.72,0 -0.72,-0.52 z"
       id="path911" />
  </g>
  <g
     aria-label="1"
     transform="matrix(0.26458333,0,0,0.26458333,-26.193705,-14.682582)"
     id="text27340"
     style="font-size:21.3333px;line-height:1.25;font-family:'CMU Classical Serif';-inkscape-font-specification:'CMU Classical Serif';white-space:pre;shape-inside:url(#rect27342)">
    <path
       d="m 120.14624,94.067297 q 0,-0.383999 0.53333,-0.383999 h 0.21333 q 1.25867,-0.02133 1.55733,-0.213333 0.29867,-0.192 0.49067,-0.981332 l 2.47466,-9.813318 q -1.32266,0.853332 -2.26133,0.853332 -0.34133,0 -0.40533,-0.170666 -0.064,-0.192 0.064,-0.362666 0.0853,-0.106667 0.448,-0.149333 0.36266,-0.064 0.81066,-0.170667 0.448,-0.106666 1.216,-0.682665 0.768,-0.597333 1.57866,-1.621331 0.17067,-0.213333 0.32,-0.213333 0.23467,0 0.23467,0.277333 0,0.106666 -0.0427,0.277333 l -3.02932,12.074647 q -0.064,0.277333 -0.064,0.448 0,0.447999 1.08799,0.447999 0.064,0 0.192,0 0.128,-0.02133 0.192,-0.02133 0.448,0 0.59734,0.08533 0.23466,0.170666 0.0427,0.447999 -0.10666,0.149333 -0.36266,0.149333 -0.0853,0 -0.42667,-0.02133 -0.34133,-0.02133 -0.96,-0.02133 -0.61866,-0.02133 -1.344,-0.02133 -0.72533,0 -1.36533,0.02133 -0.61866,0 -0.98133,0.02133 -0.34133,0.02133 -0.42666,0.02133 -0.384,0 -0.384,-0.277333 z"
       id="path899" />
  </g>
  <g
     aria-label="2"
     transform="matrix(0.26458333,0,0,0.26458333,79.639628,-14.682582)"
     id="text33322"
     style="font-size:21.3333px;line-height:1.25;font-family:'CMU Classical Serif';-inkscape-font-specification:'CMU Classical Serif';white-space:pre;shape-inside:url(#rect33324)">
    <path
       d="m 119.4209,94.53663 q 0,-0.298666 0.29867,-1.045332 0.29867,-0.746665 1.19466,-1.919997 0.896,-1.173331 2.15467,-1.983997 0.0213,0 0.68266,-0.405332 0.68267,-0.426666 1.04533,-0.682666 0.36267,-0.255999 1.024,-0.874665 0.68267,-0.618666 1.04533,-1.215998 0.36267,-0.597333 0.66134,-1.514664 0.32,-0.938666 0.32,-1.962664 0,-1.066665 -0.512,-1.685331 -0.512,-0.639999 -1.36533,-0.639999 -1.152,0 -2.176,1.066665 -1.024,1.045332 -1.536,2.282663 -0.49066,1.215998 -0.49066,2.047997 0,0.682666 0.49066,0.682666 0.768,0 1.408,-1.045332 0.64,-1.066665 0.64,-1.81333 0,-0.234667 -0.10667,-0.554666 -0.10666,-0.32 -0.10666,-0.362666 0,-0.08533 0.064,-0.149333 0.0853,-0.08533 0.192,-0.064 0.17066,0.04267 0.29866,0.383999 0.128,0.341333 0.128,0.725332 0,0.938665 -0.74666,2.154664 -0.74667,1.215998 -1.81333,1.215998 -0.53334,0 -0.81067,-0.362666 -0.27733,-0.384 -0.27733,-0.959999 0,-0.618666 0.34133,-1.535998 0.34133,-0.938665 0.91733,-1.87733 0.59733,-0.959998 1.55733,-1.621331 0.98133,-0.682665 2.09067,-0.682665 1.45066,0 2.38933,1.002665 0.93866,1.002665 0.93866,2.581329 0,1.685331 -1.04533,2.922662 -1.04533,1.237331 -3.64799,2.730662 -0.0427,0.02133 -0.34134,0.192 -0.27733,0.170667 -0.36266,0.234666 -0.0853,0.04267 -0.384,0.213333 -0.27734,0.170667 -0.40534,0.256 -0.10666,0.08533 -0.384,0.277333 -0.25599,0.192 -0.40533,0.341333 -0.14933,0.149333 -0.384,0.383999 -0.23466,0.213333 -0.40533,0.426666 -0.17067,0.213333 -0.384,0.490666 -0.192,0.277333 -0.36267,0.575999 0.256,-0.064 0.512,-0.064 0.66134,0 2.00533,0.32 1.344,0.298666 1.984,0.298666 0.512,0 0.93867,-0.213333 0.448,-0.234666 0.72533,-0.575999 0.29866,-0.362666 0.46933,-0.639999 0.17067,-0.277333 0.27733,-0.533333 0.064,-0.127999 0.128,-0.298666 0.064,-0.192 0.0853,-0.234666 0.0213,-0.064 0.0853,-0.106667 0.0853,-0.064 0.21333,-0.064 0.29867,0 0.29867,0.277333 0,0.234667 -0.23467,0.831999 -0.21333,0.575999 -0.59733,1.279998 -0.384,0.703999 -1.088,1.237331 -0.704,0.533333 -1.49333,0.533333 -0.85333,0 -2.048,-0.810666 -1.17333,-0.810665 -1.81333,-0.810665 -0.36266,0 -0.61866,0.256 -0.192,0.191999 -0.34133,0.469332 -0.128,0.256 -0.192,0.426666 -0.0427,0.192 -0.14934,0.32 -0.10666,0.149333 -0.27733,0.149333 -0.29867,0 -0.29867,-0.277333 z"
       id="path902" />
  </g>
  <g
     aria-label="3"
     transform="matrix(0.26458333,0,0,0.26458333,22.489622,70.513252)"
     id="text34592"
     style="font-size:21.3333px;line-height:1.25;font-family:'CMU Classical Serif';-inkscape-font-specification:'CMU Classical Serif';white-space:pre;shape-inside:url(#rect34594)">
    <path
       d="m 119.63424,92.083301 q 0,-0.917332 0.32,-1.279998 0.34133,-0.362667 0.78933,-0.362667 0.34133,0 0.53333,0.192 0.192,0.192 0.192,0.490666 0,0.341333 -0.27733,0.682666 -0.256,0.341332 -0.85333,0.341332 h -0.0427 q 0.0427,0.853332 0.448,1.386665 0.42666,0.511999 0.832,0.661332 0.42666,0.128 0.87466,0.128 0.896,0 1.728,-0.533333 0.85333,-0.554665 1.32266,-1.429331 0.384,-0.725332 0.59734,-1.663997 0.21333,-0.938665 0.21333,-1.407998 0,-1.770664 -1.70666,-1.770664 h -0.61867 q -0.448,0 -0.448,-0.277332 0,-0.384 0.53333,-0.384 0.0427,0 0.128,0.02133 0.0853,0 0.128,0 h 0.23467 q 0.96,0 1.68533,-0.405332 0.74666,-0.405333 1.10933,-0.938665 0.384,-0.554666 0.61867,-1.237332 0.23466,-0.682665 0.27733,-1.087998 0.064,-0.426666 0.064,-0.703999 0,-0.895999 -0.512,-1.386664 -0.49067,-0.512 -1.30133,-0.512 -1.51467,0 -2.77333,1.194665 -1.23733,1.173332 -1.23733,2.45333 0,0.810665 0.59733,0.810665 0.40533,0 0.81067,-0.383999 0.42666,-0.384 0.42666,-0.917332 0,-0.213333 -0.128,-0.490666 -0.10666,-0.277333 -0.10666,-0.362666 0,-0.213333 0.21333,-0.213333 0.14933,0 0.32,0.319999 0.192,0.32 0.192,0.725332 0,0.725333 -0.55467,1.258665 -0.55466,0.533333 -1.23733,0.533333 -0.53333,0 -0.85333,-0.362667 -0.32,-0.383999 -0.32,-0.981331 0,-1.429331 1.42933,-2.751996 1.42933,-1.322665 3.28533,-1.322665 1.28,0 2.15466,0.789333 0.896,0.767998 0.896,2.090663 0,1.279998 -0.896,2.474663 -0.896,1.173331 -2.55999,1.834663 0.74666,0.341333 1.21599,1.045332 0.46934,0.703999 0.46934,1.663997 0,1.919997 -1.68533,3.370662 -1.664,1.429331 -3.66933,1.429331 -1.28,0 -2.06933,-0.746666 -0.78933,-0.767998 -0.78933,-1.983996 z"
       id="path914" />
  </g>
</svg>
