<?xml version="1.0" encoding="UTF-8" standalone="no"?>
<!-- Created with Inkscape (http://www.inkscape.org/) -->

<svg
   width="133mm"
   height="97mm"
   viewBox="0 0 133 97"
   version="1.1"
   id="svg5"
   sodipodi:docname="simple_graph.svg"
   inkscape:version="1.1.2 (08b2f3d93c, 2022-04-05)"
   xmlns:inkscape="http://www.inkscape.org/namespaces/inkscape"
   xmlns:sodipodi="http://sodipodi.sourceforge.net/DTD/sodipodi-0.dtd"
   xmlns="http://www.w3.org/2000/svg"
   xmlns:svg="http://www.w3.org/2000/svg">
  <sodipodi:namedview
     id="namedview41"
     pagecolor="#ffffff"
     bordercolor="#666666"
     borderopacity="1.0"
     inkscape:pageshadow="2"
     inkscape:pageopacity="0.0"
     inkscape:pagecheckerboard="0"
     inkscape:document-units="mm"
     showgrid="false"
     inkscape:zoom="2.0539304"
     inkscape:cx="266.07523"
     inkscape:cy="183.79396"
     inkscape:window-width="2490"
     inkscape:window-height="1529"
     inkscape:window-x="0"
     inkscape:window-y="0"
     inkscape:window-maximized="1"
     inkscape:current-layer="svg5" />
  <defs
     id="defs2">
    <rect
       x="117.62965"
       y="74.612038"
       width="112.94866"
       height="109.91532"
       id="rect24434" />
    <rect
       x="117.46307"
       y="120.41714"
       width="107.27493"
       height="97.682419"
       id="rect11492" />
    <rect
       x="117.46307"
       y="120.41714"
       width="107.27493"
       height="97.682419"
       id="rect13686" />
    <rect
       x="117.46307"
       y="120.41714"
       width="107.27493"
       height="97.682419"
       id="rect15566" />
    <rect
       x="117.62965"
       y="74.612038"
       width="112.94866"
       height="109.91532"
       id="rect25578" />
    <rect
       x="117.62965"
       y="74.612038"
       width="137.69481"
       height="109.91532"
       id="rect25992" />
    <rect
       x="117.62965"
       y="74.612038"
       width="112.94866"
       height="109.91532"
       id="rect27342" />
    <rect
       x="117.62965"
       y="74.612038"
       width="112.94866"
       height="109.91532"
       id="rect33324" />
    <rect
       x="117.62965"
       y="74.612038"
       width="112.94866"
       height="109.91532"
       id="rect34594" />
  </defs>
  <path
     style="fill:none;stroke:#000000;stroke-width:0.765;stroke-linecap:butt;stroke-linejoin:miter;stroke-miterlimit:4;stroke-dasharray:none;stroke-opacity:1"
     d="M 13.057441,26.772251 H 119.29476"
     id="path20647" />
  <path
     style="fill:none;stroke:#000000;stroke-width:0.765;stroke-linecap:butt;stroke-linejoin:miter;stroke-miterlimit:4;stroke-dasharray:none;stroke-opacity:1"
     d="m 13.057441,26.772251 52.96909,42.78635"
     id="path20729" />
  <path
     style="fill:none;stroke:#000000;stroke-width:0.765;stroke-linecap:butt;stroke-linejoin:miter;stroke-miterlimit:4;stroke-dasharray:none;stroke-opacity:1"
     d="M 118.9432,26.772251 65.974111,69.558601"
     id="path20910" />
  <circle
     style="fill:#ffffff;stroke:#000000;stroke-width:0.665001"
     id="path1086"
     cx="13.490064"
     cy="26.51354"
     r="12.655605" />
  <text
     xml:space="preserve"
     transform="matrix(0.26458333,0,0,0.26458333,-21.3933,-10.955309)"
     id="text11490"
     style="font-size:40px;line-height:1.25;font-family:'CMU Classical Serif';-inkscape-font-specification:'CMU Classical Serif';white-space:pre;shape-inside:url(#rect11492)"><tspan
       x="117.46289"
       y="155.80859"
       id="tspan5330"><tspan
         style="font-family:serif;-inkscape-font-specification:serif"
         id="tspan5328">0</tspan></tspan></text>
  <circle
     style="fill:#ffffff;stroke:#000000;stroke-width:0.665001"
     id="circle13680"
     cx="119.32336"
     cy="26.51354"
     r="12.655605" />
  <text
     xml:space="preserve"
     transform="matrix(0.26458333,0,0,0.26458333,85.195845,-11.112501)"
     id="text13684"
     style="font-size:40px;line-height:1.25;font-family:'CMU Classical Serif';-inkscape-font-specification:'CMU Classical Serif';white-space:pre;shape-inside:url(#rect13686)"><tspan
       x="117.46289"
       y="155.80859"
       id="tspan5334"><tspan
         style="font-family:serif;-inkscape-font-specification:serif"
         id="tspan5332">1</tspan></tspan></text>
  <circle
     style="fill:#ffffff;stroke:#000000;stroke-width:0.665001"
     id="circle15560"
     cx="66.406715"
     cy="68.846878"
     r="12.655605" />
  <text
     xml:space="preserve"
     transform="matrix(0.26458333,0,0,0.26458333,32.279172,31.220834)"
     id="text15564"
     style="font-size:40px;line-height:1.25;font-family:'CMU Classical Serif';-inkscape-font-specification:'CMU Classical Serif';white-space:pre;shape-inside:url(#rect15566)"><tspan
       x="117.46289"
       y="155.80859"
       id="tspan5338"><tspan
         style="font-family:serif;-inkscape-font-specification:serif"
         id="tspan5336">2</tspan></tspan></text>
  <g
     aria-label="x = 0"
     transform="matrix(0.26458333,0,0,0.26458333,-30.956206,-21.561749)"
     id="text24432"
     style="font-size:40px;line-height:1.25;font-family:'CMU Classical Serif';-inkscape-font-specification:'CMU Classical Serif';white-space:pre;shape-inside:url(#rect24434)">
    <path
       d="m 119.74891,109.53133 q 0,-0.84 0.52,-1.48 0.56,-0.64 1.4,-0.64 0.6,0 0.96,0.4 0.4,0.36 0.4,0.92 0,1.36 -1.56,1.88 0.92,0.52 1.76,0.52 0.64,0 1.16,-0.28 0.56,-0.28 1,-0.92 0.44,-0.64 0.72,-1.24 0.32,-0.64 0.64,-1.8 0.36,-1.2 0.56,-2 0.2,-0.8 0.56,-2.32 0.36,-1.56 0.56,-2.44 0.48,-2.120002 0.48,-2.720002 0,-1.16 -0.56,-1.84 -0.52,-0.72 -1.4,-0.72 -1.36,0 -2.64,1.32 -1.24,1.28 -1.96,3.32 -0.04,0.08 -0.08,0.24 -0.04,0.16 -0.08,0.24 -0.04,0.04 -0.12,0.200002 -0.04,0.12 -0.12,0.2 -0.08,0.04 -0.2,0.08 -0.08,0.04 -0.24,0.04 -0.56,0 -0.56,-0.520002 0,-0.64 0.64,-2 0.68,-1.36 2.16,-2.68 1.52,-1.36 3.32,-1.36 h 0.04 q 2.68,0.04 3.84,2.76 1.52,-2.76 3.92,-2.76 1.24,0 2.32,0.64 1.12,0.64 1.12,1.88 0,0.92 -0.6,1.52 -0.6,0.6 -1.36,0.6 -0.56,0 -0.96,-0.36 -0.36,-0.36 -0.36,-0.92 0,-0.6 0.4,-1.12 0.4,-0.56 1.12,-0.76 -0.76,-0.56 -1.72,-0.56 -0.52,0 -1.04,0.24 -0.52,0.2 -1.32,1.32 -0.76,1.12 -1.24,3.04 -0.36,1.400002 -0.72,2.840002 -0.32,1.44 -0.52,2.16 -0.16,0.68 -0.36,1.44 -0.2,0.76 -0.28,1.08 -0.04,0.32 -0.12,0.68 -0.04,0.36 -0.08,0.56 0,0.16 0,0.44 0,1.08 0.52,1.8 0.52,0.68 1.44,0.68 1.36,0 2.64,-1.28 1.28,-1.32 1.96,-3.36 0.04,-0.08 0.08,-0.24 0.08,-0.16 0.08,-0.24 0.04,-0.08 0.08,-0.2 0.08,-0.12 0.16,-0.16 0.08,-0.08 0.16,-0.12 0.12,-0.04 0.28,-0.04 0.56,0 0.56,0.52 0,0.64 -0.68,2 -0.64,1.36 -2.16,2.72 -1.52,1.32 -3.28,1.32 -1.12,0 -2.2,-0.6 -1.08,-0.64 -1.64,-2.12 -0.52,0.76 -0.92,1.24 -0.36,0.44 -1.24,0.96 -0.84,0.52 -1.8,0.52 -1.32,0 -2.4,-0.64 -1.04,-0.68 -1.04,-1.88 z"
       id="path885" />
    <path
       d="m 156.02885,105.93133 q -0.88,0 -0.88,-0.44 0,-0.44 1,-0.44 h 22.32 q 0.64,0 0.8,0.08 0.2,0.08 0.24,0.28 0.04,0.2 -0.12,0.36 -0.16,0.16 -1,0.16 z m 1.08,-8.200002 q 0,-0.44 0.8,-0.44 h 22.76 q 0.76,0 0.76,0.44 0,0.44 -1,0.44 h -21.36 q -0.16,0 -0.44,0.04 -0.28,0 -0.44,0 h -0.12 q -0.96,0 -0.96,-0.48 z"
       id="path887" />
    <path
       d="m 200.1088,105.65133 q 0,-1.8 0.56,-4.92 0.6,-3.160002 2.16,-7.160002 1.6,-4 3.72,-6.04 2.64,-2.56 5.76,-2.56 0.92,0 1.76,0.28 0.84,0.24 1.68,0.92 0.88,0.68 1.4,2.16 0.52,1.44 0.52,3.52 0,1.16 -0.32,3.32 -0.32,2.12 -1.2,5.200002 -0.88,3.08 -2.16,5.72 -1.28,2.64 -3.52,4.52 -2.24,1.88 -5,1.88 -0.96,0 -1.8,-0.28 -0.8,-0.24 -1.68,-0.92 -0.84,-0.68 -1.36,-2.12 -0.52,-1.44 -0.52,-3.52 z m 2.56,2.08 q 0,2.04 0.92,2.96 0.92,0.88 2.12,0.88 0.64,0 1.4,-0.24 0.8,-0.28 1.88,-1.28 1.08,-1.04 1.8,-2.64 1.08,-2.36 2.72,-8.880002 1.68,-6.52 1.68,-8.88 0,-1.76 -0.88,-2.76 -0.84,-1.04 -2.24,-1.04 -2.2,0 -4.04,2.4 -1.6,2.04 -3.4,9.28 -1.96,7.840002 -1.96,10.200002 z"
       id="path889" />
  </g>
  <g
     aria-label="x = 1"
     transform="matrix(0.26458333,0,0,0.26458333,74.877131,-21.561749)"
     id="text25576"
     style="font-size:40px;line-height:1.25;font-family:'CMU Classical Serif';-inkscape-font-specification:'CMU Classical Serif';white-space:pre;shape-inside:url(#rect25578)">
    <path
       d="m 119.74891,109.53133 q 0,-0.84 0.52,-1.48 0.56,-0.64 1.4,-0.64 0.6,0 0.96,0.4 0.4,0.36 0.4,0.92 0,1.36 -1.56,1.88 0.92,0.52 1.76,0.52 0.64,0 1.16,-0.28 0.56,-0.28 1,-0.92 0.44,-0.64 0.72,-1.24 0.32,-0.64 0.64,-1.8 0.36,-1.2 0.56,-2 0.2,-0.8 0.56,-2.32 0.36,-1.56 0.56,-2.44 0.48,-2.120002 0.48,-2.720002 0,-1.16 -0.56,-1.84 -0.52,-0.72 -1.4,-0.72 -1.36,0 -2.64,1.32 -1.24,1.28 -1.96,3.32 -0.04,0.08 -0.08,0.24 -0.04,0.16 -0.08,0.24 -0.04,0.04 -0.12,0.200002 -0.04,0.12 -0.12,0.2 -0.08,0.04 -0.2,0.08 -0.08,0.04 -0.24,0.04 -0.56,0 -0.56,-0.520002 0,-0.64 0.64,-2 0.68,-1.36 2.16,-2.68 1.52,-1.36 3.32,-1.36 h 0.04 q 2.68,0.04 3.84,2.76 1.52,-2.76 3.92,-2.76 1.24,0 2.32,0.64 1.12,0.64 1.12,1.88 0,0.92 -0.6,1.52 -0.6,0.6 -1.36,0.6 -0.56,0 -0.96,-0.36 -0.36,-0.36 -0.36,-0.92 0,-0.6 0.4,-1.12 0.4,-0.56 1.12,-0.76 -0.76,-0.56 -1.72,-0.56 -0.52,0 -1.04,0.24 -0.52,0.2 -1.32,1.32 -0.76,1.12 -1.24,3.04 -0.36,1.400002 -0.72,2.840002 -0.32,1.44 -0.52,2.16 -0.16,0.68 -0.36,1.44 -0.2,0.76 -0.28,1.08 -0.04,0.32 -0.12,0.68 -0.04,0.36 -0.08,0.56 0,0.16 0,0.44 0,1.08 0.52,1.8 0.52,0.68 1.44,0.68 1.36,0 2.64,-1.28 1.28,-1.32 1.96,-3.36 0.04,-0.08 0.08,-0.24 0.08,-0.16 0.08,-0.24 0.04,-0.08 0.08,-0.2 0.08,-0.12 0.16,-0.16 0.08,-0.08 0.16,-0.12 0.12,-0.04 0.28,-0.04 0.56,0 0.56,0.52 0,0.64 -0.68,2 -0.64,1.36 -2.16,2.72 -1.52,1.32 -3.28,1.32 -1.12,0 -2.2,-0.6 -1.08,-0.64 -1.64,-2.12 -0.52,0.76 -0.92,1.24 -0.36,0.44 -1.24,0.96 -0.84,0.52 -1.8,0.52 -1.32,0 -2.4,-0.64 -1.04,-0.68 -1.04,-1.88 z"
       id="path892" />
    <path
       d="m 156.02885,105.93133 q -0.88,0 -0.88,-0.44 0,-0.44 1,-0.44 h 22.32 q 0.64,0 0.8,0.08 0.2,0.08 0.24,0.28 0.04,0.2 -0.12,0.36 -0.16,0.16 -1,0.16 z m 1.08,-8.200002 q 0,-0.44 0.8,-0.44 h 22.76 q 0.76,0 0.76,0.44 0,0.44 -1,0.44 h -21.36 q -0.16,0 -0.44,0.04 -0.28,0 -0.44,0 h -0.12 q -0.96,0 -0.96,-0.48 z"
       id="path894" />
    <path
       d="m 200.1888,111.09133 q 0,-0.72 1,-0.72 h 0.4 q 2.36,-0.04 2.92,-0.4 0.56,-0.36 0.92,-1.84 l 4.64,-18.400002 q -2.48,1.6 -4.24,1.6 -0.64,0 -0.76,-0.32 -0.12,-0.36 0.12,-0.68 0.16,-0.2 0.84,-0.28 0.68,-0.12 1.52,-0.32 0.84,-0.2 2.28,-1.28 1.44,-1.12 2.96,-3.04 0.32,-0.4 0.6,-0.4 0.44,0 0.44,0.52 0,0.2 -0.08,0.52 l -5.68,22.640002 q -0.12,0.52 -0.12,0.84 0,0.84 2.04,0.84 0.12,0 0.36,0 0.24,-0.04 0.36,-0.04 0.84,0 1.12,0.16 0.44,0.32 0.08,0.84 -0.2,0.28 -0.68,0.28 -0.16,0 -0.8,-0.04 -0.64,-0.04 -1.8,-0.04 -1.16,-0.04 -2.52,-0.04 -1.36,0 -2.56,0.04 -1.16,0 -1.84,0.04 -0.64,0.04 -0.8,0.04 -0.72,0 -0.72,-0.52 z"
       id="path896" />
  </g>
  <g
     aria-label="x = −1"
     transform="matrix(0.26458333,0,0,0.26458333,17.727125,63.104921)"
     id="text25990"
     style="font-size:40px;line-height:1.25;font-family:'CMU Classical Serif';-inkscape-font-specification:'CMU Classical Serif';white-space:pre;shape-inside:url(#rect25992)">
    <path
       d="m 119.74891,109.53133 q 0,-0.84 0.52,-1.48 0.56,-0.64 1.4,-0.64 0.6,0 0.96,0.4 0.4,0.36 0.4,0.92 0,1.36 -1.56,1.88 0.92,0.52 1.76,0.52 0.64,0 1.16,-0.28 0.56,-0.28 1,-0.92 0.44,-0.64 0.72,-1.24 0.32,-0.64 0.64,-1.8 0.36,-1.2 0.56,-2 0.2,-0.8 0.56,-2.32 0.36,-1.56 0.56,-2.44 0.48,-2.120002 0.48,-2.720002 0,-1.16 -0.56,-1.84 -0.52,-0.72 -1.4,-0.72 -1.36,0 -2.64,1.32 -1.24,1.28 -1.96,3.32 -0.04,0.08 -0.08,0.24 -0.04,0.16 -0.08,0.24 -0.04,0.04 -0.12,0.200002 -0.04,0.12 -0.12,0.2 -0.08,0.04 -0.2,0.08 -0.08,0.04 -0.24,0.04 -0.56,0 -0.56,-0.520002 0,-0.64 0.64,-2 0.68,-1.36 2.16,-2.68 1.52,-1.36 3.32,-1.36 h 0.04 q 2.68,0.04 3.84,2.76 1.52,-2.76 3.92,-2.76 1.24,0 2.32,0.64 1.12,0.64 1.12,1.88 0,0.92 -0.6,1.52 -0.6,0.6 -1.36,0.6 -0.56,0 -0.96,-0.36 -0.36,-0.36 -0.36,-0.92 0,-0.6 0.4,-1.12 0.4,-0.56 1.12,-0.76 -0.76,-0.56 -1.72,-0.56 -0.52,0 -1.04,0.24 -0.52,0.2 -1.32,1.32 -0.76,1.12 -1.24,3.04 -0.36,1.400002 -0.72,2.840002 -0.32,1.44 -0.52,2.16 -0.16,0.68 -0.36,1.44 -0.2,0.76 -0.28,1.08 -0.04,0.32 -0.12,0.68 -0.04,0.36 -0.08,0.56 0,0.16 0,0.44 0,1.08 0.52,1.8 0.52,0.68 1.44,0.68 1.36,0 2.64,-1.28 1.28,-1.32 1.96,-3.36 0.04,-0.08 0.08,-0.24 0.08,-0.16 0.08,-0.24 0.04,-0.08 0.08,-0.2 0.08,-0.12 0.16,-0.16 0.08,-0.08 0.16,-0.12 0.12,-0.04 0.28,-0.04 0.56,0 0.56,0.52 0,0.64 -0.68,2 -0.64,1.36 -2.16,2.72 -1.52,1.32 -3.28,1.32 -1.12,0 -2.2,-0.6 -1.08,-0.64 -1.64,-2.12 -0.52,0.76 -0.92,1.24 -0.36,0.44 -1.24,0.96 -0.84,0.52 -1.8,0.52 -1.32,0 -2.4,-0.64 -1.04,-0.68 -1.04,-1.88 z"
       id="path905" />
    <path
       d="m 156.02885,105.93133 q -0.88,0 -0.88,-0.44 0,-0.44 1,-0.44 h 22.32 q 0.64,0 0.8,0.08 0.2,0.08 0.24,0.28 0.04,0.2 -0.12,0.36 -0.16,0.16 -1,0.16 z m 1.08,-8.200002 q 0,-0.44 0.8,-0.44 h 22.76 q 0.76,0 0.76,0.44 0,0.44 -1,0.44 h -21.36 q -0.16,0 -0.44,0.04 -0.28,0 -0.44,0 h -0.12 q -0.96,0 -0.96,-0.48 z"
       id="path907" />
    <path
       d="m 201.9488,102.05133 q -0.84,0 -0.84,-0.44 0,-0.44 0.8,-0.44 h 22.76 q 0.8,0 0.8,0.44 0,0.44 -1.04,0.44 z"
       id="path909" />
    <path
       d="m 230.82875,111.09133 q 0,-0.72 1,-0.72 h 0.4 q 2.36,-0.04 2.92,-0.4 0.56,-0.36 0.92,-1.84 l 4.64,-18.400002 q -2.48,1.6 -4.24,1.6 -0.64,0 -0.76,-0.32 -0.12,-0.36 0.12,-0.68 0.16,-0.2 0.84,-0.28 0.68,-0.12 1.52,-0.32 0.84,-0.2 2.28,-1.28 1.44,-1.12 2.96,-3.04 0.32,-0.4 0.6,-0.4 0.44,0 0.44,0.52 0,0.2 -0.08,0.52 l -5.68,22.640002 q -0.12,0.52 -0.12,0.84 0,0.84 2.04,0.84 0.12,0 0.36,0 0.24,-0.04 0.36,-0.04 0.84,0 1.12,0.16 0.44,0.32 0.08,0.84 -0.2,0.28 -0.68,0.28 -0.16,0 -0.8,-0.04 -0.64,-0.04 -1.8,-0.04 -1.16,-0.04 -2.52,-0.04 -1.36,0 -2.56,0.04 -1.16,0 -1.84,0.04 -0.64,0.04 -0.8,0.04 -0.72,0 -0.72,-0.52 z"
       id="path911" />
  </g>
  <g
     aria-label="1"
     transform="matrix(0.26458333,0,0,0.26458333,-26.193705,-14.682582)"
     id="text27340"
     style="font-size:21.3333px;line-height:1.25;font-family:'CMU Classical Serif';-inkscape-font-specification:'CMU Classical Serif';white-space:pre;shape-inside:url(#rect27342)" />
</svg>
