<?xml version="1.0" encoding="UTF-8" standalone="no"?>
<!-- Created with Inkscape (http://www.inkscape.org/) -->

<svg
   width="207.60596mm"
   height="22.597776mm"
   viewBox="0 0 207.60596 22.597776"
   version="1.1"
   id="svg5"
   xml:space="preserve"
   xmlns:inkscape="http://www.inkscape.org/namespaces/inkscape"
   xmlns:sodipodi="http://sodipodi.sourceforge.net/DTD/sodipodi-0.dtd"
   xmlns:xlink="http://www.w3.org/1999/xlink"
   xmlns="http://www.w3.org/2000/svg"
   xmlns:svg="http://www.w3.org/2000/svg"><sodipodi:namedview
     id="namedview7"
     pagecolor="#ffffff"
     bordercolor="#666666"
     borderopacity="1.0"
     inkscape:showpageshadow="2"
     inkscape:pageopacity="0.0"
     inkscape:pagecheckerboard="0"
     inkscape:deskcolor="#d1d1d1"
     inkscape:document-units="mm"
     showgrid="false" /><defs
     id="defs2"><linearGradient
       inkscape:collect="always"
       id="linearGradient13437"><stop
         style="stop-color:#99e4dc;stop-opacity:1;"
         offset="0.09962749"
         id="stop13433" /><stop
         style="stop-color:#d7d4ff;stop-opacity:1;"
         offset="1"
         id="stop13441" /></linearGradient><linearGradient
       inkscape:collect="always"
       id="linearGradient4660"><stop
         style="stop-color:#c5d3cf;stop-opacity:1;"
         offset="0"
         id="stop4664" /><stop
         style="stop-color:#f5f5f5;stop-opacity:1;"
         offset="0.35271889"
         id="stop5396" /><stop
         style="stop-color:#f5f5f5;stop-opacity:1;"
         offset="0.6463877"
         id="stop5398" /><stop
         style="stop-color:#b7c8c4;stop-opacity:1;"
         offset="1"
         id="stop4656" /></linearGradient><linearGradient
       inkscape:collect="always"
       id="linearGradient4645"><stop
         style="stop-color:#fafafa;stop-opacity:1;"
         offset="0.29933417"
         id="stop4641" /><stop
         style="stop-color:#568478;stop-opacity:1;"
         offset="1"
         id="stop4643" /></linearGradient><linearGradient
       inkscape:collect="always"
       id="linearGradient1465"><stop
         style="stop-color:#000000;stop-opacity:1;"
         offset="0"
         id="stop1461" /><stop
         style="stop-color:#000000;stop-opacity:0;"
         offset="1"
         id="stop1463" /></linearGradient><radialGradient
       inkscape:collect="always"
       xlink:href="#linearGradient1465"
       id="radialGradient1467"
       cx="117.93295"
       cy="90.713974"
       fx="117.93295"
       fy="90.713974"
       r="8.8200493"
       gradientTransform="matrix(0.6946541,0.01953875,-0.00842338,0.28960112,36.774462,63.839053)"
       gradientUnits="userSpaceOnUse" /><radialGradient
       inkscape:collect="always"
       xlink:href="#linearGradient4645"
       id="radialGradient2401"
       cx="72.07589"
       cy="136.74977"
       fx="72.07589"
       fy="136.74977"
       r="4.1114321"
       gradientTransform="matrix(1.16616,-0.01590349,0.00761392,0.55830783,-26.419128,14.49439)"
       gradientUnits="userSpaceOnUse" /><linearGradient
       inkscape:collect="always"
       xlink:href="#linearGradient4660"
       id="linearGradient4662"
       x1="67.955162"
       y1="140.92784"
       x2="76.185394"
       y2="140.92784"
       gradientUnits="userSpaceOnUse"
       gradientTransform="matrix(0.4976715,0,0,0.4976715,22.805724,21.604917)" /><radialGradient
       inkscape:collect="always"
       xlink:href="#linearGradient2558"
       id="radialGradient20059"
       gradientUnits="userSpaceOnUse"
       gradientTransform="matrix(1,0,0,0.96143033,132.29169,14.051843)"
       cx="34.520073"
       cy="358.63547"
       fx="34.520073"
       fy="358.63547"
       r="46.464863" /><linearGradient
       inkscape:collect="always"
       id="linearGradient2558"><stop
         style="stop-color:#ffeeaa;stop-opacity:1;"
         offset="0"
         id="stop2554" /><stop
         style="stop-color:#ffeeaa;stop-opacity:0;"
         offset="1"
         id="stop2556" /></linearGradient><radialGradient
       inkscape:collect="always"
       xlink:href="#linearGradient2904"
       id="radialGradient20061"
       gradientUnits="userSpaceOnUse"
       gradientTransform="matrix(1,0,0,0.96143033,132.29169,14.051843)"
       cx="73.845734"
       cy="336.76404"
       fx="73.845734"
       fy="336.76404"
       r="46.464863" /><linearGradient
       inkscape:collect="always"
       id="linearGradient2904"><stop
         style="stop-color:#b380ff;stop-opacity:1;"
         offset="0"
         id="stop2900" /><stop
         style="stop-color:#b380ff;stop-opacity:0;"
         offset="1"
         id="stop2902" /></linearGradient><radialGradient
       inkscape:collect="always"
       xlink:href="#linearGradient3234"
       id="radialGradient20063"
       gradientUnits="userSpaceOnUse"
       gradientTransform="matrix(1,0,0,0.96143033,132.29169,14.051843)"
       cx="72.927315"
       cy="391.36871"
       fx="72.927315"
       fy="391.36871"
       r="46.464863" /><linearGradient
       inkscape:collect="always"
       id="linearGradient3234"><stop
         style="stop-color:#ff2a7f;stop-opacity:1;"
         offset="0"
         id="stop3230" /><stop
         style="stop-color:#ff2a7f;stop-opacity:0;"
         offset="1"
         id="stop3232" /></linearGradient><radialGradient
       inkscape:collect="always"
       xlink:href="#linearGradient3436"
       id="radialGradient20065"
       gradientUnits="userSpaceOnUse"
       gradientTransform="matrix(1,0,0,0.96143033,132.29169,14.051843)"
       cx="121.21793"
       cy="344.59756"
       fx="121.21793"
       fy="344.59756"
       r="46.464863" /><linearGradient
       inkscape:collect="always"
       id="linearGradient3436"><stop
         style="stop-color:#2a7fff;stop-opacity:1;"
         offset="0"
         id="stop3432" /><stop
         style="stop-color:#2a7fff;stop-opacity:0;"
         offset="1"
         id="stop3434" /></linearGradient><radialGradient
       inkscape:collect="always"
       xlink:href="#linearGradient3702"
       id="radialGradient20067"
       gradientUnits="userSpaceOnUse"
       gradientTransform="matrix(1,0,0,0.96143033,132.29169,14.051843)"
       cx="120.26282"
       cy="390.41745"
       fx="120.26282"
       fy="390.41745"
       r="46.464863" /><linearGradient
       inkscape:collect="always"
       id="linearGradient3702"><stop
         style="stop-color:#55ddff;stop-opacity:1"
         offset="0"
         id="stop3698" /><stop
         style="stop-color:#ffcc00;stop-opacity:0;"
         offset="1"
         id="stop3700" /></linearGradient><radialGradient
       inkscape:collect="always"
       xlink:href="#linearGradient13437"
       id="radialGradient13439"
       cx="91.071236"
       cy="91.511711"
       fx="91.071236"
       fy="91.511711"
       r="36.355206"
       gradientTransform="matrix(0.97242258,-0.00259145,7.7911757e-4,0.30917397,3.4421813,63.454681)"
       gradientUnits="userSpaceOnUse" /></defs><g
     inkscape:label="Layer 1"
     inkscape:groupmode="layer"
     id="layer1"
     transform="translate(-1.0923795,-1.2129374)"><g
       id="g18395"
       transform="matrix(2.9376621,0,0,2.9376621,-165.5846,-256.31867)"><rect
         style="opacity:0.99;fill:url(#radialGradient13439);fill-opacity:1;stroke:none;stroke-width:0.0355002;stroke-dasharray:none"
         id="rect399"
         width="70.670471"
         height="7.6924353"
         x="56.737968"
         y="87.665497"
         inkscape:export-filename="sql_banner.svg"
         inkscape:export-xdpi="431.29755"
         inkscape:export-ydpi="431.29755" /><g
         aria-label="Deep Learning on Databases"
         id="text612"
         style="font-size:2.11667px;line-height:1.25;stroke-width:0.147104"
         transform="translate(9.5250003)"><path
           d="m 56.65964,91.119026 v -1.543052 h 0.603251 q 0.177801,0 0.292101,0.04233 0.116417,0.04233 0.194733,0.135467 0.188384,0.224367 0.188384,0.592668 0,0.372534 -0.188384,0.592667 -0.150283,0.179917 -0.486834,0.179917 z m 0.317501,-0.264584 h 0.28575 q 0.357718,0 0.357718,-0.505884 0,-0.508 -0.357718,-0.508 h -0.28575 z"
           style="font-weight:600;font-family:FreeSans;-inkscape-font-specification:'FreeSans Semi-Bold'"
           id="path16320" /><path
           d="m 58.636608,89.956974 q 0.07408,0 0.143934,0.01693 0.06985,0.01693 0.141816,0.06138 0.07408,0.04445 0.127001,0.1143 0.05503,0.06773 0.0889,0.182034 0.03387,0.112183 0.03387,0.258234 0,0.0254 -0.0021,0.0508 h -0.766235 q 0.0021,0.06562 0.01058,0.1143 0.01058,0.04657 0.03387,0.09313 0.0254,0.04445 0.07197,0.06985 0.04868,0.02328 0.12065,0.02328 0.169334,0 0.226484,-0.143934 h 0.2921 q -0.04868,0.169334 -0.192616,0.270934 -0.143934,0.09948 -0.336551,0.09948 -0.243417,0 -0.383117,-0.156634 -0.1397,-0.15875 -0.1397,-0.433917 0,-0.287867 0.141816,-0.452968 0.141817,-0.167217 0.387351,-0.167217 z m 0.226484,0.486834 q -0.01058,-0.124883 -0.06985,-0.192616 -0.05715,-0.06773 -0.160867,-0.06773 -0.194734,0 -0.224367,0.26035 z"
           style="font-weight:600;font-family:FreeSans;-inkscape-font-specification:'FreeSans Semi-Bold'"
           id="path16322" /><path
           d="m 59.870623,89.956974 q 0.07408,0 0.143934,0.01693 0.06985,0.01693 0.141816,0.06138 0.07408,0.04445 0.127001,0.1143 0.05503,0.06773 0.0889,0.182034 0.03387,0.112183 0.03387,0.258234 0,0.0254 -0.0021,0.0508 h -0.766235 q 0.0021,0.06562 0.01058,0.1143 0.01058,0.04657 0.03387,0.09313 0.0254,0.04445 0.07197,0.06985 0.04868,0.02328 0.12065,0.02328 0.169334,0 0.226484,-0.143934 h 0.2921 q -0.04868,0.169334 -0.192616,0.270934 -0.143934,0.09948 -0.336551,0.09948 -0.243417,0 -0.383117,-0.156634 -0.1397,-0.15875 -0.1397,-0.433917 0,-0.287867 0.141816,-0.452968 0.141817,-0.167217 0.387351,-0.167217 z m 0.226484,0.486834 q -0.01058,-0.124883 -0.06985,-0.192616 -0.05715,-0.06773 -0.160867,-0.06773 -0.194734,0 -0.224367,0.26035 z"
           style="font-weight:600;font-family:FreeSans;-inkscape-font-specification:'FreeSans Semi-Bold'"
           id="path16324" /><path
           d="m 61.242222,89.956974 q 0.2159,0 0.347133,0.173567 0.131234,0.173567 0.131234,0.433918 0,0.26035 -0.137584,0.433917 -0.135466,0.17145 -0.340783,0.17145 -0.211667,0 -0.317501,-0.186267 v 0.596901 h -0.296334 v -1.604436 h 0.296334 v 0.169334 q 0.105834,-0.188384 0.317501,-0.188384 z m 0.112183,0.349251 q -0.06773,-0.1016 -0.179917,-0.1016 -0.112183,0 -0.182034,0.09948 -0.06773,0.09948 -0.06773,0.260351 0,0.160867 0.06773,0.26035 0.06985,0.09737 0.182034,0.09737 0.110067,0 0.179917,-0.09948 0.06985,-0.09948 0.06985,-0.254 0,-0.162984 -0.06985,-0.262467 z"
           style="font-weight:600;font-family:FreeSans;-inkscape-font-specification:'FreeSans Semi-Bold'"
           id="path16326" /><path
           d="m 62.88052,89.575974 v 1.278468 h 0.738718 v 0.264584 H 62.56302 v -1.543052 z"
           style="font-weight:600;font-family:FreeSans;-inkscape-font-specification:'FreeSans Semi-Bold'"
           id="path16328" /><path
           d="m 64.317738,89.956974 q 0.07408,0 0.143933,0.01693 0.06985,0.01693 0.141817,0.06138 0.07408,0.04445 0.127001,0.1143 0.05503,0.06773 0.0889,0.182034 0.03387,0.112183 0.03387,0.258234 0,0.0254 -0.0021,0.0508 h -0.766235 q 0.0021,0.06562 0.01058,0.1143 0.01058,0.04657 0.03387,0.09313 0.0254,0.04445 0.07197,0.06985 0.04868,0.02328 0.12065,0.02328 0.169334,0 0.226484,-0.143934 h 0.2921 q -0.04868,0.169334 -0.192617,0.270934 -0.143933,0.09948 -0.33655,0.09948 -0.243417,0 -0.383117,-0.156634 -0.139701,-0.15875 -0.139701,-0.433917 0,-0.287867 0.141817,-0.452968 0.141817,-0.167217 0.387351,-0.167217 z m 0.226484,0.486834 q -0.01058,-0.124883 -0.06985,-0.192616 -0.05715,-0.06773 -0.160867,-0.06773 -0.194734,0 -0.224367,0.26035 z"
           style="font-weight:600;font-family:FreeSans;-inkscape-font-specification:'FreeSans Semi-Bold'"
           id="path16330" /><path
           d="m 65.369719,91.16771 q -0.156633,0 -0.251883,-0.09313 -0.09525,-0.09525 -0.09525,-0.249767 0,-0.302684 0.336551,-0.359834 l 0.118533,-0.02117 q 0.0042,0 0.04233,-0.0042 0.0381,-0.0064 0.04868,-0.0085 0.01058,-0.0042 0.04022,-0.01058 0.03175,-0.0063 0.04445,-0.01482 0.0127,-0.0085 0.02963,-0.02117 0.01905,-0.01482 0.0254,-0.03175 0.0063,-0.01905 0.0063,-0.04233 0,-0.1143 -0.171451,-0.1143 -0.110067,0 -0.154517,0.03387 -0.04445,0.03387 -0.05503,0.122767 h -0.285751 q 0.02752,-0.395818 0.488951,-0.395818 0.467784,0 0.467784,0.351368 v 0.635001 q 0,0.07832 0.06773,0.1397 v 0.03598 H 65.75072 q -0.03387,-0.04233 -0.03387,-0.1143 -0.156633,0.162984 -0.347134,0.162984 z m 0.345018,-0.508001 v -0.08043 q -0.04022,0.01905 -0.124884,0.03598 l -0.1016,0.01905 q -0.09313,0.01905 -0.131234,0.05503 -0.0381,0.03598 -0.0381,0.1016 0,0.0635 0.04233,0.101601 0.04445,0.03598 0.118533,0.03598 0.112184,0 0.173567,-0.06985 0.06138,-0.06985 0.06138,-0.198967 z"
           style="font-weight:600;font-family:FreeSans;-inkscape-font-specification:'FreeSans Semi-Bold'"
           id="path16332" /><path
           d="m 66.273537,89.976024 h 0.296334 v 0.224367 q 0.04657,-0.116416 0.131234,-0.179916 0.08467,-0.0635 0.186267,-0.0635 0.01905,0 0.03598,0.0021 v 0.300567 q -0.05292,-0.0085 -0.09313,-0.0085 -0.260351,0 -0.260351,0.26035 v 0.607484 h -0.296334 z"
           style="font-weight:600;font-family:FreeSans;-inkscape-font-specification:'FreeSans Semi-Bold'"
           id="path16334" /><path
           d="m 67.103268,89.976024 h 0.296334 v 0.165101 q 0.122767,-0.184151 0.342901,-0.184151 0.182033,0 0.281517,0.103717 0.1016,0.103717 0.1016,0.292101 v 0.766234 h -0.296334 v -0.704851 q 0,-0.205317 -0.1905,-0.205317 -0.10795,0 -0.173567,0.06138 -0.06562,0.06138 -0.06562,0.162983 v 0.685801 h -0.296334 z"
           style="font-weight:600;font-family:FreeSans;-inkscape-font-specification:'FreeSans Semi-Bold'"
           id="path16336" /><path
           d="m 68.707701,89.976024 v 1.143002 h -0.296333 v -1.143002 z m 0,-0.40005 v 0.264584 h -0.296333 v -0.264584 z"
           style="font-weight:600;font-family:FreeSans;-inkscape-font-specification:'FreeSans Semi-Bold'"
           id="path16338" /><path
           d="m 68.99345,89.976024 h 0.296334 v 0.165101 q 0.122767,-0.184151 0.3429,-0.184151 0.182034,0 0.281517,0.103717 0.101601,0.103717 0.101601,0.292101 v 0.766234 h -0.296334 v -0.704851 q 0,-0.205317 -0.190501,-0.205317 -0.10795,0 -0.173566,0.06138 -0.06562,0.06138 -0.06562,0.162983 v 0.685801 H 68.99345 Z"
           style="font-weight:600;font-family:FreeSans;-inkscape-font-specification:'FreeSans Semi-Bold'"
           id="path16340" /><path
           d="m 71.029684,89.976024 h 0.281517 v 1.181102 q 0,0.201084 -0.143934,0.311151 -0.141817,0.112183 -0.40005,0.112183 -0.228601,0 -0.366184,-0.0889 -0.137584,-0.08678 -0.139701,-0.23495 h 0.306918 q 0.03598,0.13335 0.20955,0.13335 0.112183,0 0.182034,-0.06562 0.06985,-0.0635 0.06985,-0.167217 v -0.154517 q -0.08255,0.09313 -0.154517,0.129117 -0.06985,0.03598 -0.169334,0.03598 -0.211667,0 -0.340784,-0.162984 -0.127,-0.162984 -0.127,-0.429684 0,-0.264584 0.135467,-0.440267 0.135467,-0.177801 0.338667,-0.177801 0.1905,0 0.317501,0.194734 z m -0.254001,0.228601 q -0.10795,0 -0.175683,0.1016 -0.06562,0.1016 -0.06562,0.264584 0,0.154517 0.06562,0.251883 0.06562,0.09737 0.17145,0.09737 0.116417,0 0.188384,-0.09737 0.07408,-0.09737 0.07408,-0.251883 0,-0.158751 -0.07408,-0.262467 -0.07197,-0.103717 -0.184151,-0.103717 z"
           style="font-weight:600;font-family:FreeSans;-inkscape-font-specification:'FreeSans Semi-Bold'"
           id="path16342" /><path
           d="m 72.684918,89.956974 q 0.268817,0 0.416984,0.162984 0.150284,0.160867 0.150284,0.450851 0,0.275167 -0.152401,0.436034 -0.1524,0.160867 -0.41275,0.160867 -0.264584,0 -0.414868,-0.160867 -0.150283,-0.162984 -0.150283,-0.444501 0,-0.281517 0.150283,-0.442384 0.150284,-0.162984 0.412751,-0.162984 z m 0.0021,0.239184 q -0.12065,0 -0.194734,0.1016 -0.07408,0.1016 -0.07408,0.264584 0,0.162984 0.07408,0.264584 0.07408,0.1016 0.194734,0.1016 0.118533,0 0.192617,-0.09948 0.0762,-0.1016 0.0762,-0.262467 0,-0.169333 -0.07408,-0.268817 -0.07197,-0.1016 -0.194733,-0.1016 z"
           style="font-weight:600;font-family:FreeSans;-inkscape-font-specification:'FreeSans Semi-Bold'"
           id="path16344" /><path
           d="m 73.474433,89.976024 h 0.296334 v 0.165101 q 0.122766,-0.184151 0.3429,-0.184151 0.182034,0 0.281517,0.103717 0.1016,0.103717 0.1016,0.292101 v 0.766234 h -0.296333 v -0.704851 q 0,-0.205317 -0.190501,-0.205317 -0.10795,0 -0.173567,0.06138 -0.06562,0.06138 -0.06562,0.162983 v 0.685801 h -0.296334 z"
           style="font-weight:600;font-family:FreeSans;-inkscape-font-specification:'FreeSans Semi-Bold'"
           id="path16346" /><path
           d="m 75.392133,91.119026 v -1.543052 h 0.603251 q 0.1778,0 0.2921,0.04233 0.116417,0.04233 0.194734,0.135467 0.188384,0.224367 0.188384,0.592668 0,0.372534 -0.188384,0.592667 -0.150284,0.179917 -0.486834,0.179917 z m 0.3175,-0.264584 h 0.285751 q 0.357717,0 0.357717,-0.505884 0,-0.508 -0.357717,-0.508 h -0.285751 z"
           style="font-weight:600;font-family:FreeSans;-inkscape-font-specification:'FreeSans Semi-Bold'"
           id="path16348" /><path
           d="m 77.187067,91.16771 q -0.156634,0 -0.251884,-0.09313 -0.09525,-0.09525 -0.09525,-0.249767 0,-0.302684 0.33655,-0.359834 l 0.118534,-0.02117 q 0.0042,0 0.04233,-0.0042 0.0381,-0.0064 0.04868,-0.0085 0.01058,-0.0042 0.04022,-0.01058 0.03175,-0.0063 0.04445,-0.01482 0.0127,-0.0085 0.02963,-0.02117 0.01905,-0.01482 0.0254,-0.03175 0.0063,-0.01905 0.0063,-0.04233 0,-0.1143 -0.17145,-0.1143 -0.110067,0 -0.154517,0.03387 -0.04445,0.03387 -0.05503,0.122767 h -0.28575 q 0.02752,-0.395818 0.488951,-0.395818 0.467784,0 0.467784,0.351368 v 0.635001 q 0,0.07832 0.06773,0.1397 v 0.03598 h -0.321734 q -0.03387,-0.04233 -0.03387,-0.1143 -0.156634,0.162984 -0.347134,0.162984 z m 0.345017,-0.508001 v -0.08043 q -0.04022,0.01905 -0.124883,0.03598 l -0.101601,0.01905 q -0.09313,0.01905 -0.131233,0.05503 -0.0381,0.03598 -0.0381,0.1016 0,0.0635 0.04233,0.101601 0.04445,0.03598 0.118534,0.03598 0.112183,0 0.173567,-0.06985 0.06138,-0.06985 0.06138,-0.198967 z"
           style="font-weight:600;font-family:FreeSans;-inkscape-font-specification:'FreeSans Semi-Bold'"
           id="path16350" /><path
           d="m 78.605237,89.999308 v 0.19685 h -0.165101 v 0.622301 q 0,0.0762 0.01905,0.1016 0.01905,0.02328 0.07832,0.02328 0.02328,0 0.06773,-0.0063 v 0.207433 q -0.07197,0.02328 -0.171451,0.02328 -0.289983,0 -0.289983,-0.268817 V 90.1962 h -0.146051 v -0.19685 h 0.146051 v -0.306917 h 0.296333 v 0.306917 z"
           style="font-weight:600;font-family:FreeSans;-inkscape-font-specification:'FreeSans Semi-Bold'"
           id="path16352" /><path
           d="m 79.100536,91.16771 q -0.156633,0 -0.251884,-0.09313 -0.09525,-0.09525 -0.09525,-0.249767 0,-0.302684 0.336551,-0.359834 l 0.118533,-0.02117 q 0.0042,0 0.04233,-0.0042 0.0381,-0.0064 0.04868,-0.0085 0.01058,-0.0042 0.04022,-0.01058 0.03175,-0.0063 0.04445,-0.01482 0.0127,-0.0085 0.02963,-0.02117 0.01905,-0.01482 0.0254,-0.03175 0.0063,-0.01905 0.0063,-0.04233 0,-0.1143 -0.17145,-0.1143 -0.110067,0 -0.154517,0.03387 -0.04445,0.03387 -0.05503,0.122767 h -0.285751 q 0.02752,-0.395818 0.488951,-0.395818 0.467784,0 0.467784,0.351368 v 0.635001 q 0,0.07832 0.06773,0.1397 v 0.03598 h -0.321734 q -0.03387,-0.04233 -0.03387,-0.1143 -0.156634,0.162984 -0.347134,0.162984 z m 0.345017,-0.508001 v -0.08043 q -0.04022,0.01905 -0.124883,0.03598 l -0.1016,0.01905 q -0.09313,0.01905 -0.131234,0.05503 -0.0381,0.03598 -0.0381,0.1016 0,0.0635 0.04233,0.101601 0.04445,0.03598 0.118534,0.03598 0.112184,0 0.173567,-0.06985 0.06138,-0.06985 0.06138,-0.198967 z"
           style="font-weight:600;font-family:FreeSans;-inkscape-font-specification:'FreeSans Semi-Bold'"
           id="path16354" /><path
           d="m 80.616071,89.956974 q 0.205317,0 0.3429,0.171451 0.137584,0.169333 0.137584,0.433917 0,0.258234 -0.137584,0.431801 -0.137583,0.173567 -0.3429,0.173567 -0.20955,0 -0.315384,-0.165101 v 0.116417 h -0.296334 v -1.543052 h 0.296334 v 0.548217 q 0.105834,-0.167217 0.315384,-0.167217 z m 0.1143,0.349251 q -0.06985,-0.1016 -0.179917,-0.1016 -0.110067,0 -0.179917,0.09948 -0.06985,0.09737 -0.06985,0.254001 0,0.162983 0.06773,0.262467 0.06985,0.09948 0.182033,0.09948 0.110067,0 0.179917,-0.09948 0.06985,-0.09948 0.06985,-0.256117 0,-0.158751 -0.06985,-0.258234 z"
           style="font-weight:600;font-family:FreeSans;-inkscape-font-specification:'FreeSans Semi-Bold'"
           id="path16356" /><path
           d="m 81.61302,91.16771 q -0.156634,0 -0.251884,-0.09313 -0.09525,-0.09525 -0.09525,-0.249767 0,-0.302684 0.33655,-0.359834 l 0.118534,-0.02117 q 0.0042,0 0.04233,-0.0042 0.0381,-0.0064 0.04868,-0.0085 0.01058,-0.0042 0.04022,-0.01058 0.03175,-0.0063 0.04445,-0.01482 0.0127,-0.0085 0.02963,-0.02117 0.01905,-0.01482 0.0254,-0.03175 0.0063,-0.01905 0.0063,-0.04233 0,-0.1143 -0.17145,-0.1143 -0.110067,0 -0.154517,0.03387 -0.04445,0.03387 -0.05503,0.122767 h -0.28575 q 0.02752,-0.395818 0.488951,-0.395818 0.467784,0 0.467784,0.351368 v 0.635001 q 0,0.07832 0.06773,0.1397 v 0.03598 H 81.99402 q -0.03387,-0.04233 -0.03387,-0.1143 -0.156634,0.162984 -0.347134,0.162984 z m 0.345017,-0.508001 v -0.08043 q -0.04022,0.01905 -0.124884,0.03598 l -0.1016,0.01905 q -0.09313,0.01905 -0.131233,0.05503 -0.0381,0.03598 -0.0381,0.1016 0,0.0635 0.04233,0.101601 0.04445,0.03598 0.118534,0.03598 0.112183,0 0.173567,-0.06985 0.06138,-0.06985 0.06138,-0.198967 z"
           style="font-weight:600;font-family:FreeSans;-inkscape-font-specification:'FreeSans Semi-Bold'"
           id="path16358" /><path
           d="m 82.732737,90.786709 q 0.01482,0.07197 0.05927,0.110067 0.04657,0.0381 0.173567,0.0381 0.103717,0 0.160867,-0.02963 0.05927,-0.02963 0.05927,-0.08255 0,-0.03387 -0.02328,-0.05503 -0.02117,-0.02117 -0.0762,-0.0381 l -0.353484,-0.110067 q -0.0021,0 -0.0254,-0.0063 -0.02328,-0.0085 -0.03387,-0.0127 -0.0085,-0.0042 -0.03387,-0.0127 -0.0254,-0.01058 -0.04022,-0.02117 -0.0127,-0.01058 -0.03387,-0.0254 -0.02117,-0.01693 -0.03387,-0.03598 -0.01058,-0.01905 -0.02328,-0.04233 -0.0127,-0.0254 -0.01905,-0.05715 -0.0064,-0.03175 -0.0064,-0.06773 0,-0.175684 0.124884,-0.277284 0.127,-0.103717 0.345017,-0.103717 0.230717,0 0.36195,0.103717 0.131234,0.1016 0.135467,0.283634 h -0.28575 q -0.0021,-0.154517 -0.213784,-0.154517 -0.07832,0 -0.124883,0.02963 -0.04657,0.02752 -0.04657,0.0762 0,0.03387 0.02117,0.05292 0.02117,0.01693 0.08255,0.03598 l 0.37465,0.10795 q 0.224367,0.06562 0.224367,0.287867 0,0.06562 -0.02328,0.129117 -0.02328,0.06138 -0.0762,0.122767 -0.0508,0.06138 -0.154517,0.09737 -0.103717,0.0381 -0.245534,0.0381 -0.52705,0 -0.539751,-0.381001 z"
           style="font-weight:600;font-family:FreeSans;-inkscape-font-specification:'FreeSans Semi-Bold'"
           id="path16360" /><path
           d="m 84.169956,89.956974 q 0.07408,0 0.143934,0.01693 0.06985,0.01693 0.141817,0.06138 0.07408,0.04445 0.127,0.1143 0.05503,0.06773 0.0889,0.182034 0.03387,0.112183 0.03387,0.258234 0,0.0254 -0.0021,0.0508 h -0.766235 q 0.0021,0.06562 0.01058,0.1143 0.01058,0.04657 0.03387,0.09313 0.0254,0.04445 0.07197,0.06985 0.04868,0.02328 0.12065,0.02328 0.169334,0 0.226484,-0.143934 h 0.292101 q -0.04868,0.169334 -0.192617,0.270934 -0.143934,0.09948 -0.336551,0.09948 -0.243417,0 -0.383117,-0.156634 -0.1397,-0.15875 -0.1397,-0.433917 0,-0.287867 0.141817,-0.452968 0.141816,-0.167217 0.38735,-0.167217 z m 0.226484,0.486834 q -0.01058,-0.124883 -0.06985,-0.192616 -0.05715,-0.06773 -0.160867,-0.06773 -0.194734,0 -0.224367,0.26035 z"
           style="font-weight:600;font-family:FreeSans;-inkscape-font-specification:'FreeSans Semi-Bold'"
           id="path16362" /><path
           d="m 85.14362,90.786709 q 0.01482,0.07197 0.05927,0.110067 0.04657,0.0381 0.173567,0.0381 0.103717,0 0.160867,-0.02963 0.05927,-0.02963 0.05927,-0.08255 0,-0.03387 -0.02328,-0.05503 -0.02117,-0.02117 -0.0762,-0.0381 L 85.14362,90.619492 q -0.0021,0 -0.0254,-0.0063 -0.02328,-0.0085 -0.03387,-0.0127 -0.0085,-0.0042 -0.03387,-0.0127 -0.0254,-0.01058 -0.04022,-0.02117 -0.0127,-0.01058 -0.03387,-0.0254 -0.02117,-0.01693 -0.03387,-0.03598 -0.01058,-0.01905 -0.02328,-0.04233 -0.0127,-0.0254 -0.01905,-0.05715 -0.0064,-0.03175 -0.0064,-0.06773 0,-0.175684 0.124884,-0.277284 0.127,-0.103717 0.345017,-0.103717 0.230717,0 0.36195,0.103717 0.131234,0.1016 0.135467,0.283634 h -0.28575 q -0.0021,-0.154517 -0.213784,-0.154517 -0.07832,0 -0.124883,0.02963 -0.04657,0.02752 -0.04657,0.0762 0,0.03387 0.02117,0.05292 0.02117,0.01693 0.08255,0.03598 l 0.37465,0.10795 q 0.224367,0.06562 0.224367,0.287867 0,0.06562 -0.02328,0.129117 -0.02328,0.06138 -0.0762,0.122767 -0.0508,0.06138 -0.154517,0.09737 -0.103717,0.0381 -0.245534,0.0381 -0.527051,0 -0.539751,-0.381001 z"
           style="font-weight:600;font-family:FreeSans;-inkscape-font-specification:'FreeSans Semi-Bold'"
           id="path16364" /></g><g
         aria-label="Evaluate deep learning models directly in databases"
         transform="translate(9.5250003,0.03913375)"
         id="text700"
         style="font-size:1.76389px;line-height:1.25;white-space:pre;inline-size:55.2099;stroke-width:0.147104"><path
           d="m 56.795387,92.610952 v 0.440973 h 0.758473 v 0.144639 h -0.922514 v -1.285876 h 0.890764 v 0.144639 h -0.726723 v 0.410986 h 0.700265 v 0.144639 z"
           style="font-family:FreeSans;-inkscape-font-specification:FreeSans"
           id="path16367" /><path
           d="M 58.109484,93.196564 H 57.94897 l -0.324555,-0.924279 h 0.165805 l 0.246945,0.749654 0.261056,-0.749654 h 0.165805 z"
           style="font-family:FreeSans;-inkscape-font-specification:FreeSans"
           id="path16369" /><path
           d="m 58.575148,92.545688 q 0.01058,-0.299861 0.370417,-0.299861 0.171098,0 0.259292,0.06526 0.0882,0.0635 0.0882,0.186972 v 0.543278 q 0,0.07232 0.07937,0.07232 0.01588,0 0.03175,-0.0035 v 0.111125 q -0.06174,0.01587 -0.100542,0.01587 -0.07056,0 -0.107597,-0.03351 -0.03528,-0.03175 -0.0441,-0.102305 -0.148166,0.135819 -0.313972,0.135819 -0.139347,0 -0.22225,-0.07408 -0.08114,-0.07408 -0.08114,-0.19932 0,-0.04057 0.0071,-0.07408 0.0088,-0.03351 0.01764,-0.05821 0.01058,-0.02646 0.03528,-0.04763 0.02469,-0.02293 0.04057,-0.03704 0.01764,-0.01411 0.05644,-0.02646 0.04057,-0.01411 0.06174,-0.0194 0.02117,-0.0071 0.07408,-0.01588 0.05292,-0.0088 0.07761,-0.01235 0.02469,-0.0035 0.08819,-0.01235 0.08643,-0.01058 0.119945,-0.03351 0.03351,-0.02293 0.03351,-0.06879 v -0.03881 q 0,-0.06703 -0.05468,-0.102306 -0.05292,-0.03528 -0.151694,-0.03528 -0.102306,0 -0.155223,0.04057 -0.05292,0.03881 -0.06174,0.123472 z m 0.29457,0.562681 q 0.121708,0 0.19932,-0.0635 0.07761,-0.06526 0.07761,-0.139347 v -0.165806 q -0.0441,0.02117 -0.134056,0.03528 -0.08819,0.01411 -0.153458,0.02469 -0.06526,0.01058 -0.118181,0.05115 -0.05292,0.03881 -0.05292,0.109361 0,0.07056 0.04762,0.109362 0.04763,0.0388 0.134056,0.0388 z"
           style="font-family:FreeSans;-inkscape-font-specification:FreeSans"
           id="path16371" /><path
           d="m 59.693454,91.910688 v 1.285876 h -0.148167 v -1.285876 z"
           style="font-family:FreeSans;-inkscape-font-specification:FreeSans"
           id="path16373" /><path
           d="M 60.658299,93.196564 H 60.526007 V 93.0678 q -0.06526,0.09172 -0.135819,0.130528 -0.07056,0.0388 -0.172861,0.0388 -0.134056,0 -0.215195,-0.06879 -0.07938,-0.06879 -0.07938,-0.183444 v -0.712612 h 0.146403 v 0.654404 q 0,0.0829 0.05115,0.132291 0.05115,0.04939 0.139347,0.04939 0.114653,0 0.183445,-0.08467 0.06879,-0.08643 0.06879,-0.227541 V 92.27228 h 0.146403 z"
           style="font-family:FreeSans;-inkscape-font-specification:FreeSans"
           id="path16375" /><path
           d="m 60.857617,92.545688 q 0.01058,-0.299861 0.370417,-0.299861 0.171097,0 0.259292,0.06526 0.08819,0.0635 0.08819,0.186972 v 0.543278 q 0,0.07232 0.07938,0.07232 0.01587,0 0.03175,-0.0035 v 0.111125 q -0.06174,0.01587 -0.100542,0.01587 -0.07055,0 -0.107597,-0.03351 -0.03528,-0.03175 -0.0441,-0.102305 -0.148167,0.135819 -0.313973,0.135819 -0.139347,0 -0.22225,-0.07408 -0.08114,-0.07408 -0.08114,-0.19932 0,-0.04057 0.0071,-0.07408 0.0088,-0.03351 0.01764,-0.05821 0.01058,-0.02646 0.03528,-0.04763 0.02469,-0.02293 0.04057,-0.03704 0.01764,-0.01411 0.05645,-0.02646 0.04057,-0.01411 0.06174,-0.0194 0.02117,-0.0071 0.07408,-0.01588 0.05292,-0.0088 0.07761,-0.01235 0.0247,-0.0035 0.08819,-0.01235 0.08643,-0.01058 0.119944,-0.03351 0.03351,-0.02293 0.03351,-0.06879 v -0.03881 q 0,-0.06703 -0.05468,-0.102306 -0.05292,-0.03528 -0.151695,-0.03528 -0.102306,0 -0.155222,0.04057 -0.05292,0.03881 -0.06174,0.123472 z m 0.294569,0.562681 q 0.121709,0 0.19932,-0.0635 0.07761,-0.06526 0.07761,-0.139347 v -0.165806 q -0.0441,0.02117 -0.134056,0.03528 -0.08819,0.01411 -0.153458,0.02469 -0.06526,0.01058 -0.118181,0.05115 -0.05292,0.03881 -0.05292,0.109361 0,0.07056 0.04762,0.109362 0.04763,0.0388 0.134055,0.0388 z"
           style="font-family:FreeSans;-inkscape-font-specification:FreeSans"
           id="path16377" /><path
           d="m 62.180533,92.272285 v 0.119945 h -0.151695 v 0.633236 q 0,0.04939 0.01588,0.06703 0.01764,0.01587 0.06526,0.01587 0.0441,0 0.07056,-0.0071 v 0.123472 q -0.06879,0.01235 -0.119945,0.01235 -0.08643,0 -0.132291,-0.0388 -0.04586,-0.03704 -0.04586,-0.107598 v -0.6985 h -0.125236 v -0.119945 h 0.125236 v -0.254 h 0.146403 v 0.254 z"
           style="font-family:FreeSans;-inkscape-font-specification:FreeSans"
           id="path16379" /><path
           d="m 63.103045,92.783813 h -0.680861 q 0.0035,0.144639 0.07408,0.23107 0.07232,0.08643 0.197556,0.08643 0.179916,0 0.241653,-0.185209 h 0.148166 q -0.02822,0.151695 -0.132291,0.236361 -0.10407,0.08467 -0.26282,0.08467 -0.194028,0 -0.306917,-0.130528 -0.112889,-0.132291 -0.112889,-0.359833 0,-0.227542 0.114653,-0.363362 0.116417,-0.137583 0.308681,-0.137583 0.410986,0 0.410986,0.537986 z m -0.677334,-0.119944 h 0.520348 q 0,-0.119945 -0.07232,-0.201084 -0.07232,-0.08114 -0.183444,-0.08114 -0.111125,0 -0.183445,0.07761 -0.07232,0.07585 -0.08114,0.204611 z"
           style="font-family:FreeSans;-inkscape-font-specification:FreeSans"
           id="path16381" /><path
           d="m 64.47711,91.910688 v 1.285876 h -0.130528 v -0.121709 q -0.05997,0.08643 -0.130528,0.123473 -0.06879,0.0388 -0.164041,0.0388 -0.186973,0 -0.29457,-0.134055 -0.107597,-0.13582 -0.107597,-0.370417 0,-0.220487 0.107597,-0.352778 0.109361,-0.134056 0.289278,-0.134056 0.1905,0 0.283986,0.142875 v -0.478014 z m -0.405695,0.472722 q -0.119944,0 -0.194027,0.09878 -0.07408,0.09878 -0.07408,0.259292 0,0.162278 0.07408,0.261056 0.07408,0.09701 0.195791,0.09701 0.116417,0 0.186973,-0.09701 0.07055,-0.09701 0.07055,-0.257528 0,-0.165806 -0.07055,-0.26282 -0.07056,-0.09878 -0.188737,-0.09878 z"
           style="font-family:FreeSans;-inkscape-font-specification:FreeSans"
           id="path16383" /><path
           d="m 65.470177,92.783813 h -0.680862 q 0.0035,0.144639 0.07408,0.23107 0.07232,0.08643 0.197555,0.08643 0.179917,0 0.241653,-0.185209 h 0.148167 q -0.02822,0.151695 -0.132292,0.236361 -0.104069,0.08467 -0.262819,0.08467 -0.194028,0 -0.306917,-0.130528 -0.112889,-0.132291 -0.112889,-0.359833 0,-0.227542 0.114653,-0.363362 0.116416,-0.137583 0.30868,-0.137583 0.410987,0 0.410987,0.537986 z m -0.677334,-0.119944 h 0.520348 q 0,-0.119945 -0.07232,-0.201084 -0.07232,-0.08114 -0.183444,-0.08114 -0.111126,0 -0.183445,0.07761 -0.07232,0.07585 -0.08114,0.204611 z"
           style="font-family:FreeSans;-inkscape-font-specification:FreeSans"
           id="path16385" /><path
           d="m 66.410329,92.783813 h -0.680862 q 0.0035,0.144639 0.07408,0.23107 0.07232,0.08643 0.197555,0.08643 0.179917,0 0.241653,-0.185209 h 0.148167 q -0.02822,0.151695 -0.132292,0.236361 -0.104069,0.08467 -0.262819,0.08467 -0.194028,0 -0.306917,-0.130528 -0.112889,-0.132291 -0.112889,-0.359833 0,-0.227542 0.114653,-0.363362 0.116417,-0.137583 0.308681,-0.137583 0.410986,0 0.410986,0.537986 z m -0.677334,-0.119944 h 0.520348 q 0,-0.119945 -0.07232,-0.201084 -0.07232,-0.08114 -0.183444,-0.08114 -0.111125,0 -0.183445,0.07761 -0.07232,0.07585 -0.08114,0.204611 z"
           style="font-family:FreeSans;-inkscape-font-specification:FreeSans"
           id="path16387" /><path
           d="m 66.569077,93.581092 v -1.308807 h 0.135819 v 0.139348 q 0.10407,-0.165806 0.29457,-0.165806 0.183445,0 0.289278,0.13582 0.107597,0.135819 0.107597,0.368653 0,0.220486 -0.109361,0.354541 -0.107597,0.132292 -0.28575,0.132292 -0.171097,0 -0.283986,-0.137583 v 0.481542 z m 0.405695,-1.197682 q -0.116417,0 -0.186973,0.09878 -0.07056,0.09701 -0.07056,0.259292 0,0.162278 0.07056,0.261056 0.07056,0.09701 0.186973,0.09701 0.119944,0 0.194027,-0.09701 0.07408,-0.09878 0.07408,-0.255764 0,-0.165806 -0.07408,-0.264584 -0.07232,-0.09878 -0.194027,-0.09878 z"
           style="font-family:FreeSans;-inkscape-font-specification:FreeSans"
           id="path16389" /><path
           d="m 68.144225,91.910688 v 1.285876 h -0.148167 v -1.285876 z"
           style="font-family:FreeSans;-inkscape-font-specification:FreeSans"
           id="path16391" /><path
           d="M 69.154931,92.783813 H 68.47407 q 0.0035,0.144639 0.07408,0.23107 0.07232,0.08643 0.197556,0.08643 0.179916,0 0.241653,-0.185209 h 0.148166 q -0.02822,0.151695 -0.132291,0.236361 -0.10407,0.08467 -0.26282,0.08467 -0.194028,0 -0.306917,-0.130528 -0.112889,-0.132291 -0.112889,-0.359833 0,-0.227542 0.114653,-0.363362 0.116417,-0.137583 0.308681,-0.137583 0.410986,0 0.410986,0.537986 z m -0.677334,-0.119944 h 0.520348 q 0,-0.119945 -0.07232,-0.201084 -0.07232,-0.08114 -0.183444,-0.08114 -0.111125,0 -0.183445,0.07761 -0.07232,0.07585 -0.08114,0.204611 z"
           style="font-family:FreeSans;-inkscape-font-specification:FreeSans"
           id="path16393" /><path
           d="m 69.301333,92.545688 q 0.01058,-0.299861 0.370417,-0.299861 0.171097,0 0.259292,0.06526 0.08819,0.0635 0.08819,0.186972 v 0.543278 q 0,0.07232 0.07937,0.07232 0.01587,0 0.03175,-0.0035 v 0.111125 q -0.06174,0.01587 -0.100542,0.01587 -0.07055,0 -0.107597,-0.03351 -0.03528,-0.03175 -0.0441,-0.102305 -0.148167,0.135819 -0.313973,0.135819 -0.139347,0 -0.22225,-0.07408 -0.08114,-0.07408 -0.08114,-0.19932 0,-0.04057 0.0071,-0.07408 0.0088,-0.03351 0.01764,-0.05821 0.01058,-0.02646 0.03528,-0.04763 0.02469,-0.02293 0.04057,-0.03704 0.01764,-0.01411 0.05644,-0.02646 0.04057,-0.01411 0.06174,-0.0194 0.02117,-0.0071 0.07408,-0.01588 0.05292,-0.0088 0.07761,-0.01235 0.02469,-0.0035 0.08819,-0.01235 0.08643,-0.01058 0.119944,-0.03351 0.03351,-0.02293 0.03351,-0.06879 v -0.03881 q 0,-0.06703 -0.05468,-0.102306 -0.05292,-0.03528 -0.151695,-0.03528 -0.102306,0 -0.155222,0.04057 -0.05292,0.03881 -0.06174,0.123472 z m 0.294569,0.562681 q 0.121709,0 0.19932,-0.0635 0.07761,-0.06526 0.07761,-0.139347 v -0.165806 q -0.0441,0.02117 -0.134055,0.03528 -0.08819,0.01411 -0.153459,0.02469 -0.06526,0.01058 -0.118181,0.05115 -0.05292,0.03881 -0.05292,0.109361 0,0.07056 0.04763,0.109362 0.04762,0.0388 0.134055,0.0388 z"
           style="font-family:FreeSans;-inkscape-font-specification:FreeSans"
           id="path16395" /><path
           d="m 70.715971,92.401049 q -0.148167,0.0035 -0.22225,0.06879 -0.07408,0.06526 -0.07408,0.246945 v 0.479778 H 70.27147 v -0.924279 h 0.13582 v 0.16757 q 0.0635,-0.10407 0.121708,-0.148167 0.05997,-0.04586 0.130528,-0.04586 0.0194,0 0.05644,0.0053 z"
           style="font-family:FreeSans;-inkscape-font-specification:FreeSans"
           id="path16397" /><path
           d="m 70.85708,92.272285 h 0.135819 v 0.155223 q 0.06174,-0.09701 0.132292,-0.139348 0.07232,-0.04233 0.174625,-0.04233 0.134056,0 0.213431,0.06879 0.07937,0.06879 0.07937,0.183444 v 0.698501 h -0.146403 v -0.640292 q 0,-0.0829 -0.05115,-0.132292 -0.05115,-0.04939 -0.139347,-0.04939 -0.112889,0 -0.181681,0.08643 -0.06879,0.08467 -0.06879,0.225778 v 0.509764 H 70.85708 Z"
           style="font-family:FreeSans;-inkscape-font-specification:FreeSans"
           id="path16399" /><path
           d="m 71.963036,92.272285 v 0.924279 h -0.146402 v -0.924279 z m 0,-0.361597 v 0.185208 H 71.81487 v -0.185208 z"
           style="font-family:FreeSans;-inkscape-font-specification:FreeSans"
           id="path16401" /><path
           d="m 72.195867,92.272285 h 0.135819 v 0.155223 q 0.06174,-0.09701 0.132292,-0.139348 0.07232,-0.04233 0.174625,-0.04233 0.134056,0 0.213431,0.06879 0.07937,0.06879 0.07937,0.183444 v 0.698501 h -0.146403 v -0.640292 q 0,-0.0829 -0.05115,-0.132292 -0.05115,-0.04939 -0.139347,-0.04939 -0.112889,0 -0.181681,0.08643 -0.06879,0.08467 -0.06879,0.225778 v 0.509764 h -0.148167 z"
           style="font-family:FreeSans;-inkscape-font-specification:FreeSans"
           id="path16403" /><path
           d="m 73.471158,93.237133 q -0.162278,0 -0.271639,-0.132292 -0.109361,-0.134055 -0.109361,-0.354541 0,-0.225778 0.107597,-0.365126 0.109361,-0.139347 0.28575,-0.139347 0.172861,0 0.282223,0.160514 l -0.01764,-0.134056 h 0.153458 v 0.772584 q 0,0.132292 -0.01587,0.220486 -0.01587,0.08996 -0.05821,0.165806 -0.04233,0.07585 -0.127,0.112889 -0.0829,0.03704 -0.211667,0.03704 -0.162278,0 -0.259292,-0.07408 -0.09701,-0.07408 -0.109361,-0.204611 h 0.14993 q 0.0247,0.155222 0.224014,0.155222 0.148167,0 0.202848,-0.08467 0.05468,-0.0829 0.05468,-0.254 v -0.04763 q -0.06174,0.08819 -0.128764,0.127 -0.06526,0.0388 -0.151694,0.0388 z m 0.02822,-0.855486 q -0.11818,0 -0.186972,0.09701 -0.06879,0.09701 -0.06879,0.26282 0,0.16757 0.06879,0.264584 0.06879,0.09525 0.188736,0.09525 0.116417,0 0.183445,-0.09349 0.06703,-0.09525 0.06703,-0.261055 0,-0.172861 -0.06703,-0.268112 -0.06526,-0.09701 -0.185209,-0.09701 z"
           style="font-family:FreeSans;-inkscape-font-specification:FreeSans"
           id="path16405" /><path
           d="M 74.55418,92.272285 H 74.69 v 0.130528 q 0.05997,-0.0829 0.125236,-0.119944 0.06703,-0.03704 0.15875,-0.03704 0.171098,0 0.248709,0.141111 0.06526,-0.07761 0.128764,-0.109361 0.0635,-0.03175 0.155222,-0.03175 0.128764,0 0.197556,0.06703 0.07055,0.06526 0.07055,0.1905 v 0.693209 h -0.148166 v -0.636765 q 0,-0.08819 -0.04586,-0.135819 -0.0441,-0.04939 -0.125236,-0.04939 -0.08996,0 -0.153458,0.07056 -0.0635,0.07055 -0.0635,0.171097 v 0.58032 H 75.0904 v -0.636765 q 0,-0.08819 -0.04586,-0.135819 -0.0441,-0.04939 -0.125236,-0.04939 -0.08996,0 -0.153459,0.07056 -0.0635,0.07055 -0.0635,0.171097 v 0.58032 H 74.55418 Z"
           style="font-family:FreeSans;-inkscape-font-specification:FreeSans"
           id="path16407" /><path
           d="m 76.349818,92.245827 q 0.199319,0 0.30868,0.132292 0.111125,0.130528 0.111125,0.370417 0,0.227541 -0.112889,0.358069 -0.111125,0.130528 -0.305152,0.130528 -0.197556,0 -0.308681,-0.130528 -0.109361,-0.132291 -0.109361,-0.365125 0,-0.232833 0.111125,-0.363361 0.111125,-0.132292 0.305153,-0.132292 z m 0.0018,0.13582 q -0.123473,0 -0.194028,0.09701 -0.07056,0.09525 -0.07056,0.26282 0,0.16757 0.07056,0.264584 0.07055,0.09525 0.194028,0.09525 0.121708,0 0.192264,-0.09525 0.07232,-0.09701 0.07232,-0.259292 0,-0.171098 -0.07056,-0.268112 -0.06879,-0.09701 -0.194027,-0.09701 z"
           style="font-family:FreeSans;-inkscape-font-specification:FreeSans"
           id="path16409" /><path
           d="m 77.702719,91.910688 v 1.285876 h -0.130527 v -0.121709 q -0.05997,0.08643 -0.130528,0.123473 -0.06879,0.0388 -0.164042,0.0388 -0.186972,0 -0.29457,-0.134055 -0.107597,-0.13582 -0.107597,-0.370417 0,-0.220487 0.107597,-0.352778 0.109362,-0.134056 0.289278,-0.134056 0.1905,0 0.283987,0.142875 v -0.478014 z m -0.405694,0.472722 q -0.119945,0 -0.194028,0.09878 -0.07408,0.09878 -0.07408,0.259292 0,0.162278 0.07408,0.261056 0.07408,0.09701 0.195792,0.09701 0.116416,0 0.186972,-0.09701 0.07056,-0.09701 0.07056,-0.257528 0,-0.165806 -0.07056,-0.26282 -0.07056,-0.09878 -0.188736,-0.09878 z"
           style="font-family:FreeSans;-inkscape-font-specification:FreeSans"
           id="path16411" /><path
           d="m 78.695787,92.783813 h -0.680862 q 0.0035,0.144639 0.07408,0.23107 0.07232,0.08643 0.197556,0.08643 0.179917,0 0.241653,-0.185209 h 0.148167 q -0.02822,0.151695 -0.132292,0.236361 -0.104069,0.08467 -0.26282,0.08467 -0.194027,0 -0.306916,-0.130528 -0.112889,-0.132291 -0.112889,-0.359833 0,-0.227542 0.114652,-0.363362 0.116417,-0.137583 0.308681,-0.137583 0.410987,0 0.410987,0.537986 z M 78.018453,92.663869 H 78.5388 q 0,-0.119945 -0.07232,-0.201084 -0.07232,-0.08114 -0.183445,-0.08114 -0.111125,0 -0.183444,0.07761 -0.07232,0.07585 -0.08114,0.204611 z"
           style="font-family:FreeSans;-inkscape-font-specification:FreeSans"
           id="path16413" /><path
           d="m 79.002701,91.910688 v 1.285876 h -0.148167 v -1.285876 z"
           style="font-family:FreeSans;-inkscape-font-specification:FreeSans"
           id="path16415" /><path
           d="m 79.341366,92.921397 q 0.01058,0.0829 0.05644,0.132292 0.04762,0.04762 0.169334,0.04762 0.09701,0 0.155222,-0.03881 0.05997,-0.04057 0.05997,-0.105833 0,-0.05115 -0.03351,-0.08114 -0.03351,-0.02999 -0.109361,-0.04762 l -0.137583,-0.03351 q -0.164042,-0.03881 -0.229306,-0.09701 -0.0635,-0.05997 -0.0635,-0.169334 0,-0.128764 0.09701,-0.204611 0.09701,-0.07761 0.257528,-0.07761 0.160514,0 0.246944,0.07408 0.08643,0.07408 0.08819,0.209903 h -0.155222 q -0.0053,-0.148166 -0.185209,-0.148166 -0.08996,0 -0.142875,0.0388 -0.05292,0.03704 -0.05292,0.100542 0,0.04939 0.04057,0.08114 0.04057,0.02999 0.130528,0.05115 l 0.141111,0.03351 q 0.137583,0.03351 0.199319,0.09525 0.06174,0.05997 0.06174,0.162277 0,0.134056 -0.10407,0.213431 -0.102305,0.07937 -0.276931,0.07937 -0.358069,0 -0.368653,-0.315736 z"
           style="font-family:FreeSans;-inkscape-font-specification:FreeSans"
           id="path16417" /><path
           d="m 81.316916,91.910688 v 1.285876 h -0.130528 v -0.121709 q -0.05997,0.08643 -0.130527,0.123473 -0.06879,0.0388 -0.164042,0.0388 -0.186973,0 -0.29457,-0.134055 -0.107597,-0.13582 -0.107597,-0.370417 0,-0.220487 0.107597,-0.352778 0.109361,-0.134056 0.289278,-0.134056 0.1905,0 0.283986,0.142875 v -0.478014 z m -0.405694,0.472722 q -0.119945,0 -0.194028,0.09878 -0.07408,0.09878 -0.07408,0.259292 0,0.162278 0.07408,0.261056 0.07408,0.09701 0.195791,0.09701 0.116417,0 0.186973,-0.09701 0.07055,-0.09701 0.07055,-0.257528 0,-0.165806 -0.07055,-0.26282 -0.07056,-0.09878 -0.188736,-0.09878 z"
           style="font-family:FreeSans;-inkscape-font-specification:FreeSans"
           id="path16419" /><path
           d="m 81.68733,92.272285 v 0.924279 h -0.146403 v -0.924279 z m 0,-0.361597 v 0.185208 h -0.148167 v -0.185208 z"
           style="font-family:FreeSans;-inkscape-font-specification:FreeSans"
           id="path16421" /><path
           d="m 82.364661,92.401049 q -0.148167,0.0035 -0.22225,0.06879 -0.07408,0.06526 -0.07408,0.246945 v 0.479778 h -0.148166 v -0.924279 h 0.135819 v 0.16757 q 0.0635,-0.10407 0.121709,-0.148167 0.05997,-0.04586 0.130527,-0.04586 0.0194,0 0.05644,0.0053 z"
           style="font-family:FreeSans;-inkscape-font-specification:FreeSans"
           id="path16423" /><path
           d="m 83.287173,92.783813 h -0.680861 q 0.0035,0.144639 0.07408,0.23107 0.07232,0.08643 0.197556,0.08643 0.179917,0 0.241653,-0.185209 h 0.148167 q -0.02822,0.151695 -0.132292,0.236361 -0.10407,0.08467 -0.26282,0.08467 -0.194028,0 -0.306917,-0.130528 -0.112889,-0.132291 -0.112889,-0.359833 0,-0.227542 0.114653,-0.363362 0.116417,-0.137583 0.308681,-0.137583 0.410986,0 0.410986,0.537986 z M 82.60984,92.663869 h 0.520347 q 0,-0.119945 -0.07232,-0.201084 -0.07232,-0.08114 -0.183445,-0.08114 -0.111125,0 -0.183444,0.07761 -0.07232,0.07585 -0.08114,0.204611 z"
           style="font-family:FreeSans;-inkscape-font-specification:FreeSans"
           id="path16425" /><path
           d="m 84.169116,92.58273 h -0.148167 q -0.01411,-0.09701 -0.07055,-0.148167 -0.05644,-0.05292 -0.148167,-0.05292 -0.119944,0 -0.188736,0.09878 -0.06703,0.09701 -0.06703,0.269876 0,0.164041 0.06879,0.257527 0.06879,0.09349 0.1905,0.09349 0.188736,0 0.225778,-0.22225 H 84.1797 q -0.01411,0.169333 -0.112889,0.264583 -0.09878,0.09349 -0.264584,0.09349 -0.188736,0 -0.299861,-0.130528 -0.109361,-0.132291 -0.109361,-0.356305 0,-0.229306 0.111125,-0.36689 0.112889,-0.137583 0.299861,-0.137583 0.160514,0 0.255764,0.08643 0.09701,0.08643 0.109361,0.250472 z"
           style="font-family:FreeSans;-inkscape-font-specification:FreeSans"
           id="path16427" /><path
           d="m 84.691226,92.272285 v 0.119945 h -0.151695 v 0.633236 q 0,0.04939 0.01588,0.06703 0.01764,0.01587 0.06526,0.01587 0.0441,0 0.07056,-0.0071 v 0.123472 q -0.06879,0.01235 -0.119945,0.01235 -0.08643,0 -0.132291,-0.0388 -0.04586,-0.03704 -0.04586,-0.107598 v -0.6985 h -0.125237 v -0.119945 h 0.125237 v -0.254 h 0.146402 v 0.254 z"
           style="font-family:FreeSans;-inkscape-font-specification:FreeSans"
           id="path16429" /><path
           d="m 84.980502,91.910688 v 1.285876 h -0.148167 v -1.285876 z"
           style="font-family:FreeSans;-inkscape-font-specification:FreeSans"
           id="path16431" /><path
           d="m 85.770722,92.272285 h 0.15875 l -0.410986,1.118307 q -0.07232,0.1905 -0.238126,0.1905 -0.05468,0 -0.09878,-0.02293 V 93.42587 q 0.04762,0.01058 0.07761,0.01058 0.04586,0 0.07232,-0.02117 0.02646,-0.0194 0.04586,-0.06879 l 0.05644,-0.146402 -0.312209,-0.927807 h 0.156987 l 0.236361,0.719667 z"
           style="font-family:FreeSans;-inkscape-font-specification:FreeSans"
           id="path16433" /><path
           d="m 86.65266,92.272285 v 0.924279 h -0.146403 v -0.924279 z m 0,-0.361597 v 0.185208 h -0.148166 v -0.185208 z"
           style="font-family:FreeSans;-inkscape-font-specification:FreeSans"
           id="path16435" /><path
           d="m 86.885491,92.272285 h 0.135819 v 0.155223 q 0.06174,-0.09701 0.132292,-0.139348 0.07232,-0.04233 0.174625,-0.04233 0.134056,0 0.213431,0.06879 0.07937,0.06879 0.07937,0.183444 v 0.698501 H 87.47463 v -0.640292 q 0,-0.0829 -0.05115,-0.132292 -0.05115,-0.04939 -0.139347,-0.04939 -0.112889,0 -0.181681,0.08643 -0.06879,0.08467 -0.06879,0.225778 v 0.509764 h -0.148167 z"
           style="font-family:FreeSans;-inkscape-font-specification:FreeSans"
           id="path16437" /><path
           d="m 89.048014,91.910688 v 1.285876 h -0.130527 v -0.121709 q -0.05997,0.08643 -0.130528,0.123473 -0.06879,0.0388 -0.164042,0.0388 -0.186972,0 -0.29457,-0.134055 -0.107597,-0.13582 -0.107597,-0.370417 0,-0.220487 0.107597,-0.352778 0.109362,-0.134056 0.289278,-0.134056 0.1905,0 0.283987,0.142875 V 91.910688 Z M 88.64232,92.38341 q -0.119945,0 -0.194028,0.09878 -0.07408,0.09878 -0.07408,0.259292 0,0.162278 0.07408,0.261056 0.07408,0.09701 0.195792,0.09701 0.116416,0 0.186972,-0.09701 0.07056,-0.09701 0.07056,-0.257528 0,-0.165806 -0.07056,-0.26282 -0.07056,-0.09878 -0.188736,-0.09878 z"
           style="font-family:FreeSans;-inkscape-font-specification:FreeSans"
           id="path16439" /><path
           d="m 89.247333,92.545688 q 0.01058,-0.299861 0.370417,-0.299861 0.171097,0 0.259292,0.06526 0.08819,0.0635 0.08819,0.186972 v 0.543278 q 0,0.07232 0.07937,0.07232 0.01587,0 0.03175,-0.0035 v 0.111125 q -0.06174,0.01587 -0.100542,0.01587 -0.07055,0 -0.107597,-0.03351 -0.03528,-0.03175 -0.0441,-0.102305 -0.148167,0.135819 -0.313972,0.135819 -0.139348,0 -0.222251,-0.07408 -0.08114,-0.07408 -0.08114,-0.19932 0,-0.04057 0.0071,-0.07408 0.0088,-0.03351 0.01764,-0.05821 0.01058,-0.02646 0.03528,-0.04763 0.02469,-0.02293 0.04057,-0.03704 0.01764,-0.01411 0.05644,-0.02646 0.04057,-0.01411 0.06174,-0.0194 0.02117,-0.0071 0.07408,-0.01588 0.05292,-0.0088 0.07761,-0.01235 0.0247,-0.0035 0.08819,-0.01235 0.08643,-0.01058 0.119944,-0.03351 0.03351,-0.02293 0.03351,-0.06879 v -0.03881 q 0,-0.06703 -0.05468,-0.102306 -0.05292,-0.03528 -0.151695,-0.03528 -0.102305,0 -0.155222,0.04057 -0.05292,0.03881 -0.06174,0.123472 z m 0.29457,0.562681 q 0.121708,0 0.199319,-0.0635 0.07761,-0.06526 0.07761,-0.139347 v -0.165806 q -0.0441,0.02117 -0.134055,0.03528 -0.08819,0.01411 -0.153459,0.02469 -0.06526,0.01058 -0.11818,0.05115 -0.05292,0.03881 -0.05292,0.109361 0,0.07056 0.04763,0.109362 0.04762,0.0388 0.134056,0.0388 z"
           style="font-family:FreeSans;-inkscape-font-specification:FreeSans"
           id="path16441" /><path
           d="m 90.570249,92.272285 v 0.119945 h -0.151695 v 0.633236 q 0,0.04939 0.01587,0.06703 0.01764,0.01587 0.06526,0.01587 0.0441,0 0.07056,-0.0071 v 0.123472 q -0.06879,0.01235 -0.119945,0.01235 -0.08643,0 -0.132292,-0.0388 -0.04586,-0.03704 -0.04586,-0.107598 v -0.6985 h -0.125236 v -0.119945 h 0.125236 v -0.254 h 0.146403 v 0.254 z"
           style="font-family:FreeSans;-inkscape-font-specification:FreeSans"
           id="path16443" /><path
           d="m 90.699008,92.545688 q 0.01058,-0.299861 0.370417,-0.299861 0.171098,0 0.259292,0.06526 0.08819,0.0635 0.08819,0.186972 v 0.543278 q 0,0.07232 0.07937,0.07232 0.01588,0 0.03175,-0.0035 v 0.111125 q -0.06174,0.01587 -0.100542,0.01587 -0.07056,0 -0.107597,-0.03351 -0.03528,-0.03175 -0.0441,-0.102305 -0.148166,0.135819 -0.313972,0.135819 -0.139347,0 -0.22225,-0.07408 -0.08114,-0.07408 -0.08114,-0.19932 0,-0.04057 0.0071,-0.07408 0.0088,-0.03351 0.01764,-0.05821 0.01058,-0.02646 0.03528,-0.04763 0.02469,-0.02293 0.04057,-0.03704 0.01764,-0.01411 0.05644,-0.02646 0.04057,-0.01411 0.06174,-0.0194 0.02117,-0.0071 0.07408,-0.01588 0.05292,-0.0088 0.07761,-0.01235 0.02469,-0.0035 0.08819,-0.01235 0.08643,-0.01058 0.119945,-0.03351 0.03351,-0.02293 0.03351,-0.06879 v -0.03881 q 0,-0.06703 -0.05468,-0.102306 -0.05292,-0.03528 -0.151694,-0.03528 -0.102306,0 -0.155223,0.04057 -0.05292,0.03881 -0.06174,0.123472 z m 0.29457,0.562681 q 0.121708,0 0.19932,-0.0635 0.07761,-0.06526 0.07761,-0.139347 v -0.165806 q -0.0441,0.02117 -0.134056,0.03528 -0.08819,0.01411 -0.153458,0.02469 -0.06526,0.01058 -0.118181,0.05115 -0.05292,0.03881 -0.05292,0.109361 0,0.07056 0.04762,0.109362 0.04762,0.0388 0.134056,0.0388 z"
           style="font-family:FreeSans;-inkscape-font-specification:FreeSans"
           id="path16445" /><path
           d="m 91.669146,91.910688 h 0.146403 v 0.486834 q 0.100542,-0.151695 0.28575,-0.151695 0.183445,0 0.289278,0.130528 0.105833,0.130528 0.105833,0.354542 0,0.229305 -0.109361,0.368653 -0.109361,0.137583 -0.292806,0.137583 -0.188736,0 -0.292805,-0.15875 v 0.118181 h -0.132292 z m 0.403931,0.472722 q -0.116417,0 -0.186973,0.09878 -0.07055,0.09701 -0.07055,0.259292 0,0.162278 0.07055,0.261056 0.07056,0.09701 0.186973,0.09701 0.119944,0 0.194028,-0.09701 0.07585,-0.09878 0.07585,-0.255764 0,-0.165806 -0.07408,-0.264584 -0.07232,-0.09878 -0.195792,-0.09878 z"
           style="font-family:FreeSans;-inkscape-font-specification:FreeSans"
           id="path16447" /><path
           d="m 92.64281,92.545688 q 0.01058,-0.299861 0.370417,-0.299861 0.171097,0 0.259292,0.06526 0.08819,0.0635 0.08819,0.186972 v 0.543278 q 0,0.07232 0.07937,0.07232 0.01588,0 0.03175,-0.0035 v 0.111125 q -0.06174,0.01587 -0.100542,0.01587 -0.07056,0 -0.107598,-0.03351 -0.03528,-0.03175 -0.0441,-0.102305 -0.148167,0.135819 -0.313972,0.135819 -0.139347,0 -0.22225,-0.07408 -0.08114,-0.07408 -0.08114,-0.19932 0,-0.04057 0.0071,-0.07408 0.0088,-0.03351 0.01764,-0.05821 0.01058,-0.02646 0.03528,-0.04763 0.02469,-0.02293 0.04057,-0.03704 0.01764,-0.01411 0.05644,-0.02646 0.04057,-0.01411 0.06174,-0.0194 0.02117,-0.0071 0.07408,-0.01588 0.05292,-0.0088 0.07761,-0.01235 0.02469,-0.0035 0.08819,-0.01235 0.08643,-0.01058 0.119945,-0.03351 0.03351,-0.02293 0.03351,-0.06879 v -0.03881 q 0,-0.06703 -0.05468,-0.102306 -0.05292,-0.03528 -0.151695,-0.03528 -0.102305,0 -0.155222,0.04057 -0.05292,0.03881 -0.06174,0.123472 z m 0.29457,0.562681 q 0.121708,0 0.199319,-0.0635 0.07761,-0.06526 0.07761,-0.139347 v -0.165806 q -0.0441,0.02117 -0.134056,0.03528 -0.08819,0.01411 -0.153458,0.02469 -0.06526,0.01058 -0.118181,0.05115 -0.05292,0.03881 -0.05292,0.109361 0,0.07056 0.04762,0.109362 0.04762,0.0388 0.134056,0.0388 z"
           style="font-family:FreeSans;-inkscape-font-specification:FreeSans"
           id="path16449" /><path
           d="m 93.722309,92.921397 q 0.01058,0.0829 0.05644,0.132292 0.04763,0.04762 0.169334,0.04762 0.09701,0 0.155222,-0.03881 0.05997,-0.04057 0.05997,-0.105833 0,-0.05115 -0.03351,-0.08114 -0.03351,-0.02999 -0.109362,-0.04762 l -0.137583,-0.03351 q -0.164042,-0.03881 -0.229306,-0.09701 -0.0635,-0.05997 -0.0635,-0.169334 0,-0.128764 0.09701,-0.204611 0.09701,-0.07761 0.257528,-0.07761 0.160514,0 0.246945,0.07408 0.08643,0.07408 0.08819,0.209903 h -0.155222 q -0.0053,-0.148166 -0.185209,-0.148166 -0.08996,0 -0.142875,0.0388 -0.05292,0.03704 -0.05292,0.100542 0,0.04939 0.04057,0.08114 0.04057,0.02999 0.130528,0.05115 l 0.141111,0.03351 q 0.137584,0.03351 0.19932,0.09525 0.06174,0.05997 0.06174,0.162277 0,0.134056 -0.10407,0.213431 -0.102305,0.07937 -0.27693,0.07937 -0.35807,0 -0.368653,-0.315736 z"
           style="font-family:FreeSans;-inkscape-font-specification:FreeSans"
           id="path16451" /><path
           d="m 95.263946,92.783813 h -0.680862 q 0.0035,0.144639 0.07408,0.23107 0.07232,0.08643 0.197556,0.08643 0.179917,0 0.241653,-0.185209 h 0.148167 q -0.02822,0.151695 -0.132292,0.236361 -0.104069,0.08467 -0.262819,0.08467 -0.194028,0 -0.306917,-0.130528 -0.112889,-0.132291 -0.112889,-0.359833 0,-0.227542 0.114653,-0.363362 0.116416,-0.137583 0.30868,-0.137583 0.410987,0 0.410987,0.537986 z m -0.677334,-0.119944 h 0.520347 q 0,-0.119945 -0.07232,-0.201084 -0.07232,-0.08114 -0.183445,-0.08114 -0.111125,0 -0.183444,0.07761 -0.07232,0.07585 -0.08114,0.204611 z"
           style="font-family:FreeSans;-inkscape-font-specification:FreeSans"
           id="path16453" /><path
           d="m 95.532059,92.921397 q 0.01058,0.0829 0.05644,0.132292 0.04762,0.04762 0.169334,0.04762 0.09701,0 0.155222,-0.03881 0.05997,-0.04057 0.05997,-0.105833 0,-0.05115 -0.03351,-0.08114 -0.03351,-0.02999 -0.109361,-0.04762 l -0.137583,-0.03351 q -0.164042,-0.03881 -0.229306,-0.09701 -0.0635,-0.05997 -0.0635,-0.169334 0,-0.128764 0.09701,-0.204611 0.09701,-0.07761 0.257528,-0.07761 0.160514,0 0.246944,0.07408 0.08643,0.07408 0.08819,0.209903 h -0.155222 q -0.0053,-0.148166 -0.185209,-0.148166 -0.08996,0 -0.142875,0.0388 -0.05292,0.03704 -0.05292,0.100542 0,0.04939 0.04057,0.08114 0.04057,0.02999 0.130528,0.05115 l 0.141111,0.03351 q 0.137583,0.03351 0.199319,0.09525 0.06174,0.05997 0.06174,0.162277 0,0.134056 -0.10407,0.213431 -0.102306,0.07937 -0.276931,0.07937 -0.358069,0 -0.368653,-0.315736 z"
           style="font-family:FreeSans;-inkscape-font-specification:FreeSans"
           id="path16455" /></g><rect
         style="opacity:0.57;fill:url(#radialGradient1467);fill-opacity:1;stroke:none;stroke-width:0.0356996;stroke-dasharray:none"
         id="rect1324"
         width="17.781803"
         height="6.0374808"
         x="108.33855"
         y="88.87278" /><rect
         style="opacity:0.99;fill:#000000;stroke:none;stroke-width:0.17"
         id="rect692"
         width="13.008454"
         height="3.7630997"
         x="111.21191"
         y="89.630165"
         ry="0.42442992" /><g
         aria-label="Read more"
         id="text696"
         style="font-weight:bold;font-size:1.41111px;line-height:1.25;font-family:FreeSans;-inkscape-font-specification:'FreeSans Bold';stroke-width:0.109125"><path
           d="m 114.67732,91.833446 q 0,-0.04233 0.001,-0.06632 0.001,-0.02399 0.001,-0.04233 0,-0.06491 -0.031,-0.09313 -0.0311,-0.02963 -0.10019,-0.02963 h -0.24271 v 0.407811 h -0.21167 v -1.028699 h 0.55175 q 0.079,0 0.13546,0.02681 0.0579,0.02681 0.0861,0.07056 0.0296,0.04374 0.0423,0.0889 0.0127,0.04374 0.0127,0.09172 0,0.186266 -0.17356,0.254 0.0381,0.01552 0.0564,0.0254 0.0183,0.0085 0.0367,0.02963 0.0198,0.02117 0.0254,0.0381 0.007,0.01693 0.0127,0.06209 0.007,0.04515 0.008,0.0889 0.001,0.04374 0.003,0.129822 0,0.05927 0.0452,0.08467 v 0.0381 h -0.22719 q -0.0198,-0.03669 -0.0268,-0.07055 -0.006,-0.03387 -0.006,-0.105833 z m 0.0339,-0.544689 q 0,-0.07902 -0.0367,-0.104422 -0.0367,-0.02681 -0.11289,-0.02681 h -0.25541 v 0.268111 h 0.25541 q 0.0748,0 0.11148,-0.02681 0.0381,-0.02681 0.0381,-0.110067 z"
           style="font-weight:600;-inkscape-font-specification:'FreeSans Semi-Bold';fill:#ffffff"
           id="path16528" /><path
           d="m 115.40968,91.235135 q 0.0494,0 0.096,0.01129 0.0466,0.01129 0.0945,0.04092 0.0494,0.02963 0.0847,0.0762 0.0367,0.04515 0.0593,0.121355 0.0226,0.07479 0.0226,0.172156 0,0.01693 -10e-4,0.03387 h -0.51082 q 0.001,0.04375 0.007,0.0762 0.007,0.03105 0.0226,0.06209 0.0169,0.02963 0.048,0.04657 0.0325,0.01552 0.0804,0.01552 0.11289,0 0.15099,-0.09596 h 0.19473 q -0.0325,0.112888 -0.12841,0.180622 -0.096,0.06632 -0.22437,0.06632 -0.16228,0 -0.25541,-0.104422 -0.0931,-0.105834 -0.0931,-0.289278 0,-0.191911 0.0945,-0.301977 0.0945,-0.111478 0.25823,-0.111478 z m 0.15099,0.324555 q -0.007,-0.08326 -0.0466,-0.128411 -0.0381,-0.04516 -0.10725,-0.04516 -0.12982,0 -0.14958,0.173566 z"
           style="font-weight:600;-inkscape-font-specification:'FreeSans Semi-Bold';fill:#ffffff"
           id="path16530" /><path
           d="m 116.111,92.04229 q -0.10442,0 -0.16792,-0.06209 -0.0635,-0.0635 -0.0635,-0.166511 0,-0.201789 0.22437,-0.239889 l 0.079,-0.01411 q 0.003,0 0.0282,-0.0028 0.0254,-0.0042 0.0325,-0.0056 0.007,-0.0028 0.0268,-0.0071 0.0212,-0.0042 0.0296,-0.0099 0.008,-0.0056 0.0198,-0.01411 0.0127,-0.0099 0.0169,-0.02117 0.004,-0.0127 0.004,-0.02822 0,-0.0762 -0.1143,-0.0762 -0.0734,0 -0.10301,0.02258 -0.0296,0.02258 -0.0367,0.08184 h -0.19049 q 0.0183,-0.263877 0.32596,-0.263877 0.31186,0 0.31186,0.234244 v 0.423333 q 0,0.05221 0.0452,0.09313 v 0.02399 H 116.365 q -0.0226,-0.02822 -0.0226,-0.0762 -0.10443,0.108656 -0.23143,0.108656 z m 0.23001,-0.338667 v -0.05362 q -0.0268,0.0127 -0.0832,0.02399 l -0.0677,0.0127 q -0.0621,0.0127 -0.0875,0.03669 -0.0254,0.02399 -0.0254,0.06773 0,0.04233 0.0282,0.06773 0.0296,0.02399 0.079,0.02399 0.0748,0 0.11571,-0.04657 0.0409,-0.04657 0.0409,-0.132645 z"
           style="font-weight:600;-inkscape-font-specification:'FreeSans Semi-Bold';fill:#ffffff"
           id="path16532" /><path
           d="m 116.99859,92.04229 q -0.14111,0 -0.23142,-0.115711 -0.0889,-0.115711 -0.0889,-0.286456 0,-0.172155 0.0917,-0.287866 0.0917,-0.117122 0.2286,-0.117122 0.13829,0 0.21026,0.111478 v -0.365478 h 0.19755 v 1.028699 h -0.19755 v -0.07761 q -0.0734,0.110067 -0.21026,0.110067 z m 0.0438,-0.642055 q -0.0734,0 -0.11995,0.06773 -0.0466,0.06632 -0.0466,0.172155 0,0.104423 0.0466,0.170745 0.0466,0.06632 0.11995,0.06632 0.0734,0 0.11994,-0.06491 0.0466,-0.06491 0.0466,-0.169333 0,-0.108656 -0.0466,-0.174978 -0.0451,-0.06773 -0.11994,-0.06773 z"
           style="font-weight:600;-inkscape-font-specification:'FreeSans Semi-Bold';fill:#ffffff"
           id="path16534" /><path
           d="m 117.98213,91.247835 h 0.19615 v 0.09454 q 0.0494,-0.05785 0.096,-0.08184 0.048,-0.0254 0.11289,-0.0254 0.14958,0 0.20744,0.112889 0.0847,-0.112889 0.22295,-0.112889 0.1143,0 0.1778,0.06209 0.0649,0.06209 0.0649,0.173566 v 0.539044 h -0.19755 v -0.507999 q 0,-0.04516 -0.0296,-0.07197 -0.0282,-0.02681 -0.0776,-0.02681 -0.0635,0 -0.10019,0.03951 -0.0353,0.03951 -0.0353,0.110067 v 0.457199 h -0.19756 v -0.507999 q 0,-0.04516 -0.0296,-0.07197 -0.0282,-0.02681 -0.0776,-0.02681 -0.0635,0 -0.10019,0.03951 -0.0353,0.03951 -0.0353,0.110067 v 0.457199 h -0.19756 z"
           style="font-weight:600;-inkscape-font-specification:'FreeSans Semi-Bold';fill:#ffffff"
           id="path16536" /><path
           d="m 119.58374,91.235135 q 0.17921,0 0.27799,0.108655 0.10019,0.107245 0.10019,0.300567 0,0.183444 -0.1016,0.290688 -0.1016,0.107245 -0.27517,0.107245 -0.17639,0 -0.27657,-0.107245 -0.10019,-0.108655 -0.10019,-0.296333 0,-0.187677 0.10019,-0.294922 0.10018,-0.108655 0.27516,-0.108655 z m 10e-4,0.159455 q -0.0804,0 -0.12982,0.06773 -0.0494,0.06773 -0.0494,0.176388 0,0.108656 0.0494,0.176389 0.0494,0.06773 0.12982,0.06773 0.079,0 0.12841,-0.06632 0.0508,-0.06773 0.0508,-0.174977 0,-0.112889 -0.0494,-0.179211 -0.048,-0.06773 -0.12983,-0.06773 z"
           style="font-weight:600;-inkscape-font-specification:'FreeSans Semi-Bold';fill:#ffffff"
           id="path16538" /><path
           d="m 120.11008,91.247835 h 0.19756 v 0.149578 q 0.031,-0.07761 0.0875,-0.119945 0.0564,-0.04233 0.12418,-0.04233 0.0127,0 0.024,0.0014 v 0.200378 q -0.0353,-0.0056 -0.0621,-0.0056 -0.17357,0 -0.17357,0.173567 v 0.404988 h -0.19756 z"
           style="font-weight:600;-inkscape-font-specification:'FreeSans Semi-Bold';fill:#ffffff"
           id="path16540" /><path
           d="m 120.98074,91.235135 q 0.0494,0 0.096,0.01129 0.0466,0.01129 0.0945,0.04092 0.0494,0.02963 0.0847,0.0762 0.0367,0.04515 0.0593,0.121355 0.0226,0.07479 0.0226,0.172156 0,0.01693 -0.001,0.03387 h -0.51083 q 0.001,0.04375 0.007,0.0762 0.007,0.03105 0.0226,0.06209 0.0169,0.02963 0.048,0.04657 0.0325,0.01552 0.0804,0.01552 0.11289,0 0.15099,-0.09596 h 0.19473 q -0.0325,0.112888 -0.12841,0.180622 -0.096,0.06632 -0.22437,0.06632 -0.16227,0 -0.25541,-0.104422 -0.0931,-0.105834 -0.0931,-0.289278 0,-0.191911 0.0945,-0.301977 0.0945,-0.111478 0.25824,-0.111478 z m 0.15098,0.324555 q -0.007,-0.08326 -0.0466,-0.128411 -0.0381,-0.04516 -0.10725,-0.04516 -0.12982,0 -0.14957,0.173566 z"
           style="font-weight:600;-inkscape-font-specification:'FreeSans Semi-Bold';fill:#ffffff"
           id="path16542" /></g><g
         id="g11836"
         transform="translate(3.1750001)"><path
           id="rect3909"
           style="fill:url(#linearGradient4662);fill-opacity:1;stroke:#6f918a;stroke-width:0.018;stroke-dasharray:none"
           d="m 56.634005,90.105283 v 2.638396 h 0.0028 a 2.0379989,0.64008184 0 0 0 2.037371,0.632406 2.0379989,0.64008184 0 0 0 2.037886,-0.64012 2.0379989,0.64008184 0 0 0 -0.0026,-0.0314 v -2.599304 z" /><path
           style="fill:none;stroke:#536c67;stroke-width:0.018;stroke-linecap:butt;stroke-linejoin:miter;stroke-dasharray:none;stroke-opacity:1"
           d="m 56.63395,91.001959 c 0,0 7.4e-4,0.651955 2.09537,0.644864 1.979051,-0.0067 1.981734,-0.654759 1.978679,-0.657926"
           id="path6195"
           sodipodi:nodetypes="csc" /><path
           style="fill:none;stroke:#ffffff;stroke-width:0.038;stroke-linecap:butt;stroke-linejoin:miter;stroke-dasharray:none;stroke-opacity:1"
           d="m 56.62067,91.877773 c 0,0 0.01209,0.675403 2.10672,0.668312 1.979051,-0.0067 1.99094,-0.667118 1.99094,-0.667118"
           id="path8475"
           sodipodi:nodetypes="csc" /><path
           style="fill:none;stroke:#374845;stroke-width:0.018;stroke-linecap:butt;stroke-linejoin:miter;stroke-dasharray:none;stroke-opacity:1"
           d="m 56.63395,91.876003 c 0,0 7.4e-4,0.651955 2.09537,0.644864 1.979051,-0.0067 1.981734,-0.654759 1.978679,-0.657926"
           id="path7021"
           sodipodi:nodetypes="csc" /><path
           style="fill:none;stroke:#ffffff;stroke-width:0.038;stroke-linecap:butt;stroke-linejoin:miter;stroke-dasharray:none;stroke-opacity:1"
           d="m 56.62067,91.000016 c 0,0 0.01209,0.675403 2.10672,0.668312 1.979051,-0.0067 1.99094,-0.667118 1.99094,-0.667118"
           id="path8481"
           sodipodi:nodetypes="csc" /><path
           style="fill:none;stroke:#374845;stroke-width:0.018;stroke-linecap:butt;stroke-linejoin:miter;stroke-dasharray:none;stroke-opacity:1"
           d="m 56.63395,90.998246 c 0,0 7.4e-4,0.651955 2.09537,0.644864 1.979051,-0.0067 1.981734,-0.654759 1.978679,-0.657926"
           id="path8483"
           sodipodi:nodetypes="csc" /><path
           id="path8487"
           style="fill:none;fill-opacity:1;stroke:#6f918a;stroke-width:0.018;stroke-dasharray:none"
           d="m 56.634005,90.105283 v 2.638396 h 0.0028 a 2.0379989,0.64008184 0 0 0 2.037371,0.632406 2.0379989,0.64008184 0 0 0 2.037886,-0.64012 2.0379989,0.64008184 0 0 0 -0.0026,-0.0314 v -2.599304 z" /><ellipse
           style="fill:url(#radialGradient2401);fill-opacity:1;stroke:#536c67;stroke-width:0.0162873;stroke-dasharray:none"
           id="path1523"
           cx="58.674095"
           cy="90.102547"
           rx="2.0379989"
           ry="0.64008182" /><g
           id="g2516"
           transform="matrix(0.0231359,0,0,0.0231359,57.14819,90.973845)"><path
             id="path19995"
             style="fill:#ffffff;stroke:none;stroke-width:0.256742"
             d="m 61.967966,1.9941512 -29.496754,29.4967548 -2.864783,2.8648 -0.0115,-0.01278 L 18.607177,45.33021 32.47125,59.194242 48.103937,74.826931 61.968002,88.690992 72.955757,77.703731 59.091692,63.839698 58.782297,63.530305 H 108.78282 V 47.991899 H 43.243845 l -2.649657,-2.650167 2.864282,-2.864264 h 65.32432 V 26.939058 H 58.997378 L 72.955714,12.980704 Z"
             sodipodi:nodetypes="ccccccccccccccccccccc" /><g
             id="g20007"
             transform="matrix(0.97036361,0,0,0.97036361,-137.21379,-308.18344)"><path
               id="path19997"
               style="fill:url(#radialGradient20059);fill-opacity:1;stroke:none;stroke-width:0.264583"
               d="m 205.26507,319.65091 -30.39765,30.39764 -2.95229,2.95227 -0.0119,-0.0124 -11.32333,11.32283 14.28751,14.28749 16.11013,16.11013 14.28751,14.2875 11.32335,-11.32282 -14.28751,-14.2875 -0.31884,-0.31884 h 51.52762 v -16.01298 h -67.54062 l -2.73058,-2.7311 2.95175,-2.95176 h 67.31945 V 345.3584 h -51.30594 l 14.38466,-14.38466 z" /><path
               id="path19999"
               style="fill:url(#radialGradient20061);fill-opacity:1;stroke:none;stroke-width:0.264583"
               d="m 205.26507,319.65091 -30.39765,30.39764 -2.95229,2.95227 -0.0119,-0.0124 -11.32333,11.32283 14.28751,14.28749 16.11013,16.11013 14.28751,14.2875 11.32335,-11.32282 -14.28751,-14.2875 -0.31884,-0.31884 h 51.52762 v -16.01298 h -67.54062 l -2.73058,-2.7311 2.95175,-2.95176 h 67.31945 V 345.3584 h -51.30594 l 14.38466,-14.38466 z" /><path
               id="path20001"
               style="fill:url(#radialGradient20063);fill-opacity:1;stroke:none;stroke-width:0.264583"
               d="m 205.26507,319.65091 -30.39765,30.39764 -2.95229,2.95227 -0.0119,-0.0124 -11.32333,11.32283 14.28751,14.28749 16.11013,16.11013 14.28751,14.2875 11.32335,-11.32282 -14.28751,-14.2875 -0.31884,-0.31884 h 51.52762 v -16.01298 h -67.54062 l -2.73058,-2.7311 2.95175,-2.95176 h 67.31945 V 345.3584 h -51.30594 l 14.38466,-14.38466 z" /><path
               id="path20003"
               style="fill:url(#radialGradient20065);fill-opacity:1;stroke:none;stroke-width:0.264583"
               d="m 205.26507,319.65091 -30.39765,30.39764 -2.95229,2.95227 -0.0119,-0.0124 -11.32333,11.32283 14.28751,14.28749 16.11013,16.11013 14.28751,14.2875 11.32335,-11.32282 -14.28751,-14.2875 -0.31884,-0.31884 h 51.52762 v -16.01298 h -67.54062 l -2.73058,-2.7311 2.95175,-2.95176 h 67.31945 V 345.3584 h -51.30594 l 14.38466,-14.38466 z" /><path
               id="path20005"
               style="fill:url(#radialGradient20067);fill-opacity:1;stroke:none;stroke-width:0.264583"
               d="m 205.26506,319.65091 -30.39765,30.39764 -2.95228,2.95227 -0.0119,-0.0124 -11.32333,11.32283 14.2875,14.28749 16.11013,16.11013 14.28751,14.2875 11.32335,-11.32282 -14.28751,-14.2875 -0.31884,-0.31884 h 51.52762 v -16.01298 h -67.54062 l -2.73058,-2.7311 2.95175,-2.95176 h 67.31945 V 345.3584 h -51.30594 l 14.38466,-14.38466 z" /></g><g
             id="g20035"
             transform="matrix(0.97036361,0,0,0.97036361,-8.8426969,-308.18344)"><path
               style="fill:none;stroke:#000000;stroke-width:0.665;stroke-linecap:butt;stroke-linejoin:miter;stroke-miterlimit:4;stroke-dasharray:none;stroke-opacity:1"
               d="m 28.288202,364.31125 44.685121,-44.66034 11.323339,11.32283 -14.38465,14.38466 h 51.305918 v 16.01297 H 53.898519 l -2.951758,2.95176 2.730582,2.7311 h 67.540587 v 16.01298 H 69.690323 l 14.606344,14.60633 -11.323338,11.32281 z"
               id="path20009" /><path
               style="fill:none;stroke:#000000;stroke-width:0.665;stroke-linecap:butt;stroke-linejoin:miter;stroke-miterlimit:4;stroke-dasharray:none;stroke-opacity:1"
               d="m 53.898519,361.37137 16.013493,-16.01297 3.061311,-25.70749 v 0 0 0"
               id="path20011" /><path
               style="fill:none;stroke:#000000;stroke-width:0.665;stroke-linecap:butt;stroke-linejoin:miter;stroke-miterlimit:4;stroke-dasharray:none;stroke-opacity:1"
               d="m 50.946761,364.32313 -22.658559,-0.0119"
               id="path20013" /><path
               style="fill:none;stroke:#000000;stroke-width:0.665;stroke-linecap:butt;stroke-linejoin:miter;stroke-miterlimit:4;stroke-dasharray:none;stroke-opacity:1"
               d="m 53.677343,367.05423 16.01298,16.01298"
               id="path20015" /><path
               style="fill:none;stroke:#000000;stroke-width:0.665;stroke-linecap:butt;stroke-linejoin:miter;stroke-miterlimit:4;stroke-dasharray:none;stroke-opacity:1"
               d="m 69.690323,383.06721 3.283006,25.92914"
               id="path20017" /><path
               style="fill:none;stroke:#000000;stroke-width:0.665;stroke-linecap:butt;stroke-linejoin:miter;stroke-miterlimit:4;stroke-dasharray:none;stroke-opacity:1"
               d="M 84.296667,397.67354 28.288202,364.31125 v 0 0 0"
               id="path20019" /><path
               style="fill:none;stroke:#000000;stroke-width:0.665;stroke-linecap:butt;stroke-linejoin:miter;stroke-miterlimit:4;stroke-dasharray:none;stroke-opacity:1"
               d="m 28.288202,364.31125 56.00846,-33.33751"
               id="path20021" /><path
               style="fill:none;stroke:#000000;stroke-width:0.665;stroke-linecap:butt;stroke-linejoin:miter;stroke-miterlimit:4;stroke-dasharray:none;stroke-opacity:1"
               d="m 69.912012,345.3584 51.305918,16.01297"
               id="path20023" /><path
               style="fill:none;stroke:#000000;stroke-width:0.665;stroke-linecap:butt;stroke-linejoin:miter;stroke-miterlimit:4;stroke-dasharray:none;stroke-opacity:1"
               d="m 121.21793,367.05423 -51.527607,16.01298 v 0 0 0"
               id="path20025" /><path
               style="fill:none;stroke:#000000;stroke-width:0.665;stroke-linecap:butt;stroke-linejoin:miter;stroke-miterlimit:4;stroke-dasharray:none;stroke-opacity:1"
               d="m 69.912012,345.3584 7.259194,15.94915"
               id="path20027"
               sodipodi:nodetypes="cc" /><path
               style="fill:none;stroke:#000000;stroke-width:0.665;stroke-linecap:butt;stroke-linejoin:miter;stroke-miterlimit:4;stroke-dasharray:none;stroke-opacity:1"
               d="M 50.946761,364.32313 45.136395,354.25928"
               id="path20029" /><path
               style="fill:none;stroke:#000000;stroke-width:0.665;stroke-linecap:butt;stroke-linejoin:miter;stroke-miterlimit:4;stroke-dasharray:none;stroke-opacity:1"
               d="m 50.946762,364.32313 -5.810366,10.06385"
               id="path20031" /><path
               style="fill:none;stroke:#000000;stroke-width:0.665;stroke-linecap:butt;stroke-linejoin:miter;stroke-miterlimit:4;stroke-dasharray:none;stroke-opacity:1"
               d="m 69.912012,383.0034 7.259194,-15.94915"
               id="path20033"
               sodipodi:nodetypes="cc" /></g><path
             style="opacity:0.2;fill:#000000;stroke:#000000;stroke-width:0.675806px;stroke-linecap:butt;stroke-linejoin:miter;stroke-opacity:1"
             d="M 59.989864,21.066681 59.4214,26.075554 70.907705,14.584156 Z"
             id="path20041"
             sodipodi:nodetypes="cccc" /><path
             style="opacity:0.2;fill:#000000;stroke:#000000;stroke-width:0.675806px;stroke-linecap:butt;stroke-linejoin:miter;stroke-opacity:1"
             d="M 59.565843,69.829574 58.782275,63.531026 71.687647,76.745291 Z"
             id="path20043"
             sodipodi:nodetypes="cccc" /><path
             style="opacity:0.4;fill:#ffffff;stroke:none;stroke-width:0.675806px;stroke-linecap:butt;stroke-linejoin:miter;stroke-opacity:1"
             d="m 19.797635,44.998165 14.975217,-8.819607 5.240195,8.821549 z"
             id="path20045"
             sodipodi:nodetypes="cccc" /><path
             style="opacity:0.4;fill:#ffffff;stroke:none;stroke-width:0.675806px;stroke-linecap:butt;stroke-linejoin:miter;stroke-opacity:1"
             d="m 19.797635,45.641856 14.975217,8.819607 5.240195,-8.821548 z"
             id="path20047"
             sodipodi:nodetypes="cccc" /><path
             style="opacity:0.1;fill:#000000;stroke:none;stroke-width:0.675806px;stroke-linecap:butt;stroke-linejoin:miter;stroke-opacity:1"
             d="m 19.797635,45.641856 40.192222,24.593278 v 0 L 61.968002,88.691022 18.607174,45.33019 v 0 0"
             id="path20049"
             sodipodi:nodetypes="ccccccc" /><path
             style="opacity:0.1;fill:#000000;stroke:none;stroke-width:0.675806px;stroke-linecap:butt;stroke-linejoin:miter;stroke-opacity:1"
             d="M 19.797635,45.127691 59.989857,20.534405 v 0 L 61.968002,2.0785172 18.607174,45.439358 v 0 0"
             id="path20051"
             sodipodi:nodetypes="ccccccc" /><path
             style="opacity:0.1;fill:#000000;stroke:none;stroke-width:0.675806px;stroke-linecap:butt;stroke-linejoin:miter;stroke-opacity:1"
             d="m 58.997386,26.939727 7.04405,15.476519 42.741354,0.06155 -49.785404,-15.537742 v 0 0"
             id="path20053"
             sodipodi:nodetypes="cccccc" /><path
             style="opacity:0.1;fill:#000000;stroke:none;stroke-width:0.675806px;stroke-linecap:butt;stroke-linejoin:miter;stroke-opacity:1"
             d="m 58.997386,63.469138 7.04405,-15.47652 42.741354,-0.06155 -49.785404,15.537745 v 0 0"
             id="path20055"
             sodipodi:nodetypes="cccccc" /><path
             style="fill:none;stroke:#000000;stroke-width:3.065;stroke-linecap:round;stroke-linejoin:miter;stroke-miterlimit:4;stroke-dasharray:none;stroke-opacity:1"
             d="m 61.968001,2.0785172 -3.5e-5,-0.084366"
             id="path420"
             sodipodi:nodetypes="cc" /><path
             style="fill:none;stroke:#000000;stroke-width:3.065;stroke-linecap:round;stroke-linejoin:miter;stroke-miterlimit:4;stroke-dasharray:none;stroke-opacity:1"
             d="m 72.955715,12.98143 h 10e-7"
             id="path1658"
             sodipodi:nodetypes="cc" /><path
             style="fill:none;stroke:#000000;stroke-width:3.065;stroke-linecap:round;stroke-linejoin:miter;stroke-miterlimit:4;stroke-dasharray:none;stroke-opacity:1"
             d="m 59.691646,20.868296 v 0"
             id="path2247"
             sodipodi:nodetypes="cc" /><path
             style="fill:none;stroke:#000000;stroke-width:3.065;stroke-linecap:round;stroke-linejoin:miter;stroke-miterlimit:4;stroke-dasharray:none;stroke-opacity:1"
             d="m 59.355783,26.923985 v 0"
             id="path2594"
             sodipodi:nodetypes="cc" /><path
             style="fill:none;stroke:#000000;stroke-width:3.065;stroke-linecap:round;stroke-linejoin:miter;stroke-miterlimit:4;stroke-dasharray:none;stroke-opacity:1"
             d="m 34.956018,35.576874 v 0"
             id="path2879"
             sodipodi:nodetypes="cc" /><path
             style="fill:none;stroke:#000000;stroke-width:3.065;stroke-linecap:round;stroke-linejoin:miter;stroke-miterlimit:4;stroke-dasharray:none;stroke-opacity:1"
             d="m 19.136344,45.33021 -3e-6,0.109148"
             id="path3267"
             sodipodi:nodetypes="cc" /><path
             style="fill:none;stroke:#000000;stroke-width:3.065;stroke-linecap:round;stroke-linejoin:miter;stroke-miterlimit:4;stroke-dasharray:none;stroke-opacity:1"
             d="m 108.78277,26.939781 v 0"
             id="path3769"
             sodipodi:nodetypes="cc" /><path
             style="fill:none;stroke:#000000;stroke-width:3.065;stroke-linecap:round;stroke-linejoin:miter;stroke-miterlimit:4;stroke-dasharray:none;stroke-opacity:1"
             d="m 108.78279,42.477468 v 0"
             id="path3976"
             sodipodi:nodetypes="cc" /><path
             style="fill:none;stroke:#000000;stroke-width:3.065;stroke-linecap:round;stroke-linejoin:miter;stroke-miterlimit:4;stroke-dasharray:none;stroke-opacity:1"
             d="m 108.78276,47.992625 v 0"
             id="path4341"
             sodipodi:nodetypes="cc" /><path
             style="fill:none;stroke:#000000;stroke-width:3.065;stroke-linecap:round;stroke-linejoin:miter;stroke-miterlimit:4;stroke-dasharray:none;stroke-opacity:1"
             d="m 108.78276,63.531038 6e-5,-7.33e-4"
             id="path4466"
             sodipodi:nodetypes="cc" /><path
             style="fill:none;stroke:#000000;stroke-width:3.065;stroke-linecap:round;stroke-linejoin:miter;stroke-miterlimit:4;stroke-dasharray:none;stroke-opacity:1"
             d="m 58.997386,63.469136 v 2e-6"
             id="path4831"
             sodipodi:nodetypes="cc" /><path
             style="fill:none;stroke:#000000;stroke-width:3.065;stroke-linecap:round;stroke-linejoin:miter;stroke-miterlimit:4;stroke-dasharray:none;stroke-opacity:1"
             d="m 66.041433,47.992644 v 0"
             id="path4918"
             sodipodi:nodetypes="cc" /><path
             style="fill:none;stroke:#000000;stroke-width:3.065;stroke-linecap:round;stroke-linejoin:miter;stroke-miterlimit:4;stroke-dasharray:none;stroke-opacity:1"
             d="m 59.565844,69.829574 v 0"
             id="path5443"
             sodipodi:nodetypes="cc" /><path
             style="fill:none;stroke:#000000;stroke-width:3.065;stroke-linecap:round;stroke-linejoin:miter;stroke-miterlimit:4;stroke-dasharray:none;stroke-opacity:1"
             d="m 72.955755,77.70373 -5.3e-5,7.69e-4"
             id="path5530"
             sodipodi:nodetypes="cc" /><path
             style="fill:none;stroke:#000000;stroke-width:3.065;stroke-linecap:round;stroke-linejoin:miter;stroke-miterlimit:4;stroke-dasharray:none;stroke-opacity:1"
             d="m 61.968001,88.161825 -3.5e-5,7.4e-4"
             id="path5617"
             sodipodi:nodetypes="cc" /><path
             style="fill:none;stroke:#000000;stroke-width:3.065;stroke-linecap:round;stroke-linejoin:miter;stroke-miterlimit:4;stroke-dasharray:none;stroke-opacity:1"
             d="m 66.041436,42.416246 -3e-6,10e-6"
             id="path6151"
             sodipodi:nodetypes="cc" /><path
             style="fill:none;stroke:#000000;stroke-width:3.065;stroke-linecap:round;stroke-linejoin:miter;stroke-miterlimit:4;stroke-dasharray:none;stroke-opacity:1"
             d="m 40.594142,45.342463 v 0"
             id="path6634"
             sodipodi:nodetypes="cc" /><path
             style="fill:none;stroke:#000000;stroke-width:3.065;stroke-linecap:round;stroke-linejoin:miter;stroke-miterlimit:4;stroke-dasharray:none;stroke-opacity:1"
             d="m 43.458471,42.477468 -6e-6,7.16e-4"
             id="path6759"
             sodipodi:nodetypes="cc" /><path
             style="fill:none;stroke:#000000;stroke-width:3.065;stroke-linecap:round;stroke-linejoin:miter;stroke-miterlimit:4;stroke-dasharray:none;stroke-opacity:1"
             d="m 43.243843,47.992625 v 0"
             id="path6846"
             sodipodi:nodetypes="cc" /><path
             style="fill:none;stroke:#000000;stroke-width:3.065;stroke-linecap:round;stroke-linejoin:miter;stroke-miterlimit:4;stroke-dasharray:none;stroke-opacity:1"
             d="m 34.956019,55.108057 v 10e-7"
             id="path7093"
             sodipodi:nodetypes="cc" /></g></g></g></g></svg>
