<?xml version="1.0" encoding="UTF-8" standalone="no"?>
<!-- Created with Inkscape (http://www.inkscape.org/) -->

<svg
   width="210mm"
   height="31mm"
   viewBox="0 0 210 31"
   version="1.1"
   id="svg1267"
   xmlns="http://www.w3.org/2000/svg"
   xmlns:svg="http://www.w3.org/2000/svg">
  <defs
     id="defs1264" />
  <g
     id="layer1">
    <g
       id="g16537"
       transform="translate(15.073919,-5.462911)">
      <rect
         style="fill:#ffffff;stroke:#b7bec8;stroke-width:0.17;stroke-dasharray:none"
         id="rect90"
         width="165.33905"
         height="26.221836"
         x="6.9540834"
         y="7.9388576" />
      <g
         aria-label="value"
         id="text2440"
         style="font-size:4.58611px;line-height:1.25;fill:#535d6c;stroke-width:0.264583">
        <path
           d="m 22.186673,12.743972 h 0.427709 l 0.727776,2.104953 0.730015,-2.104953 h 0.427709 l -0.891246,2.508029 h -0.530717 z"
           style="font-family:monospace;-inkscape-font-specification:monospace"
           id="path9182" />
        <path
           d="m 26.29581,13.991268 h -0.136598 q -0.360529,0 -0.544153,0.127641 -0.181384,0.125402 -0.181384,0.376204 0,0.226171 0.136598,0.351572 0.136598,0.125402 0.378443,0.125402 0.340376,0 0.535196,-0.235128 0.19482,-0.237367 0.197059,-0.653879 v -0.09181 z m 0.799434,-0.170187 v 1.43092 h -0.414273 v -0.371726 q -0.132119,0.223931 -0.333657,0.331418 -0.199299,0.105248 -0.485931,0.105248 -0.382922,0 -0.611332,-0.214974 -0.22841,-0.217213 -0.22841,-0.579982 0,-0.418751 0.279914,-0.635964 0.282154,-0.217213 0.826306,-0.217213 h 0.55311 v -0.06494 q -0.0022,-0.300067 -0.152273,-0.434426 -0.150034,-0.136598 -0.479212,-0.136598 -0.210496,0 -0.42547,0.06046 -0.214974,0.06046 -0.418751,0.176906 v -0.412033 q 0.22841,-0.08733 0.436666,-0.12988 0.210495,-0.04479 0.407555,-0.04479 0.311264,0 0.530716,0.09181 0.221692,0.09181 0.35829,0.275436 0.08509,0.111965 0.120923,0.277674 0.03583,0.16347 0.03583,0.492649 z"
           style="font-family:monospace;-inkscape-font-specification:monospace"
           id="path9184" />
        <path
           d="m 28.915804,14.34284 q 0,0.277675 0.100769,0.418752 0.103009,0.141076 0.302307,0.141076 h 0.481452 v 0.349333 h -0.521759 q -0.369487,0 -0.573264,-0.237367 -0.201538,-0.237367 -0.201538,-0.671794 V 12.06546 H 27.843174 V 11.743 h 1.07263 z"
           style="font-family:monospace;-inkscape-font-specification:monospace"
           id="path9186" />
        <path
           d="M 30.682621,14.302533 V 12.74845 h 0.412034 v 1.554083 q 0,0.338136 0.118683,0.497127 0.120923,0.158991 0.371726,0.158991 0.29111,0 0.445623,-0.203777 0.154512,-0.206017 0.154512,-0.588939 V 12.74845 h 0.414273 v 2.503551 h -0.414273 v -0.376205 q -0.109726,0.217214 -0.300067,0.329179 -0.188103,0.111966 -0.441145,0.111966 -0.385161,0 -0.573264,-0.250803 -0.188102,-0.253042 -0.188102,-0.763605 z"
           style="font-family:monospace;-inkscape-font-specification:monospace"
           id="path9188" />
        <path
           d="m 35.497141,13.894978 v 0.201538 H 33.71241 v 0.01344 q 0,0.409794 0.212734,0.633725 0.214974,0.223931 0.604615,0.223931 0.197059,0 0.412033,-0.0627 0.214974,-0.0627 0.459059,-0.190342 v 0.409794 q -0.235128,0.09629 -0.45458,0.143316 -0.217214,0.04927 -0.420991,0.04927 -0.58446,0 -0.913639,-0.349333 -0.329179,-0.351572 -0.329179,-0.967382 0,-0.600136 0.322461,-0.958426 0.322461,-0.35829 0.859896,-0.35829 0.479212,0 0.754648,0.324701 0.277674,0.3247 0.277674,0.886767 z m -0.412033,-0.120923 q -0.009,-0.362768 -0.172427,-0.55087 -0.161231,-0.190342 -0.465777,-0.190342 -0.297828,0 -0.490409,0.197059 -0.192581,0.19706 -0.22841,0.546392 z"
           style="font-family:monospace;-inkscape-font-specification:monospace"
           id="path9190" />
      </g>
      <g
         aria-label="numeric"
         id="text4672"
         style="font-size:4.23333px;line-height:1.25;fill:#939dac;stroke-width:0.264583">
        <path
           d="m 24.135217,18.579967 v 1.434536 h -0.382405 v -1.434536 q 0,-0.312125 -0.109554,-0.458886 -0.109554,-0.146761 -0.343131,-0.146761 -0.26665,0 -0.411344,0.190169 -0.142627,0.188102 -0.142627,0.541568 v 1.308446 h -0.380338 v -2.315102 h 0.380338 v 0.347266 q 0.101286,-0.198438 0.274918,-0.299723 0.173633,-0.103353 0.411344,-0.103353 0.353467,0 0.5271,0.233577 0.175699,0.23151 0.175699,0.702799 z"
           style="font-family:monospace;-inkscape-font-specification:monospace"
           id="path9167" />
        <path
           d="m 24.914497,19.138072 v -1.434537 h 0.380338 v 1.434537 q 0,0.312125 0.109554,0.458886 0.111621,0.146761 0.343132,0.146761 0.268717,0 0.411344,-0.188102 0.142627,-0.190169 0.142627,-0.543635 v -1.308447 h 0.382405 v 2.310968 h -0.382405 v -0.347265 q -0.101286,0.200505 -0.276986,0.303857 -0.173633,0.103353 -0.40721,0.103353 -0.355533,0 -0.529166,-0.23151 -0.173633,-0.233577 -0.173633,-0.704866 z"
           style="font-family:monospace;-inkscape-font-specification:monospace"
           id="path9169" />
        <path
           d="m 28.457431,17.935046 q 0.07028,-0.148828 0.177766,-0.219108 0.109554,-0.07235 0.262516,-0.07235 0.279053,0 0.392741,0.217041 0.115755,0.214973 0.115755,0.812352 v 1.341519 h -0.347265 v -1.324982 q 0,-0.489892 -0.05581,-0.607714 -0.05374,-0.11989 -0.198437,-0.11989 -0.165365,0 -0.227376,0.128158 -0.05994,0.12609 -0.05994,0.599446 v 1.324982 H 28.17011 v -1.324982 q 0,-0.496093 -0.05995,-0.611849 -0.05788,-0.115755 -0.210839,-0.115755 -0.150895,0 -0.21084,0.128158 -0.05788,0.12609 -0.05788,0.599446 v 1.324982 H 27.28541 v -2.315102 h 0.345198 v 0.198438 q 0.06821,-0.124024 0.169499,-0.188102 0.103353,-0.06615 0.233577,-0.06615 0.157096,0 0.260449,0.07235 0.10542,0.07235 0.163298,0.219108 z"
           style="font-family:monospace;-inkscape-font-specification:monospace"
           id="path9171" />
        <path
           d="m 31.907347,18.761868 v 0.186035 h -1.647444 v 0.0124 q 0,0.378271 0.196371,0.584977 0.198437,0.206705 0.558105,0.206705 0.181901,0 0.380338,-0.05788 0.198437,-0.05788 0.423746,-0.1757 v 0.378271 q -0.217041,0.08888 -0.419612,0.132292 -0.200504,0.04547 -0.388606,0.04547 -0.539502,0 -0.843359,-0.322461 -0.303857,-0.324527 -0.303857,-0.892968 0,-0.55397 0.297656,-0.884699 0.297656,-0.330729 0.793749,-0.330729 0.44235,0 0.696598,0.299723 0.256315,0.299723 0.256315,0.818554 z m -0.380339,-0.111621 q -0.0083,-0.334863 -0.159163,-0.508496 -0.148828,-0.1757 -0.429947,-0.1757 -0.274919,0 -0.452686,0.181901 -0.177766,0.181901 -0.210839,0.504362 z"
           style="font-family:monospace;-inkscape-font-specification:monospace"
           id="path9173" />
        <path
           d="m 34.544909,18.176891 q -0.121956,-0.09508 -0.248046,-0.138493 -0.126091,-0.04341 -0.276986,-0.04341 -0.355533,0 -0.543635,0.223242 -0.188102,0.223242 -0.188102,0.644922 v 1.151349 h -0.382406 v -2.315102 h 0.382406 v 0.452685 q 0.09508,-0.245979 0.291454,-0.376204 0.198438,-0.132291 0.469222,-0.132291 0.14056,0 0.262516,0.03514 0.121956,0.03514 0.233577,0.109554 z"
           style="font-family:monospace;-inkscape-font-specification:monospace"
           id="path9175" />
        <path
           d="m 35.235306,17.699401 h 0.973583 v 2.019514 h 0.754475 v 0.295588 h -1.889289 v -0.295588 h 0.754476 V 17.99499 h -0.593245 z m 0.593245,-0.901236 h 0.380338 v 0.481624 h -0.380338 z"
           style="font-family:monospace;-inkscape-font-specification:monospace"
           id="path9177" />
        <path
           d="m 39.447966,19.896681 q -0.152962,0.08888 -0.31626,0.132292 -0.16123,0.04547 -0.330729,0.04547 -0.537434,0 -0.841291,-0.322461 -0.30179,-0.32246 -0.30179,-0.892968 0,-0.570507 0.30179,-0.892968 0.303857,-0.32246 0.841291,-0.32246 0.167432,0 0.326595,0.04341 0.159163,0.04341 0.320394,0.134359 v 0.398941 q -0.150895,-0.134358 -0.303857,-0.194303 -0.150895,-0.05994 -0.343132,-0.05994 -0.3576,0 -0.549836,0.231511 -0.192237,0.23151 -0.192237,0.661457 0,0.427881 0.192237,0.661458 0.194303,0.23151 0.549836,0.23151 0.198438,0 0.355534,-0.05994 0.157096,-0.06201 0.291455,-0.190169 z"
           style="font-family:monospace;-inkscape-font-specification:monospace"
           id="path9179" />
      </g>
      <g
         aria-label="t0"
         id="text6854"
         style="font-size:4.58611px;line-height:1.25;fill:#535d6c;stroke-width:0.264583">
        <path
           d="m 139.75433,12.031871 v 0.712101 h 0.93603 v 0.320221 h -0.93603 v 1.361502 q 0,0.277674 0.10525,0.387401 0.10525,0.109726 0.36725,0.109726 h 0.46353 v 0.329179 h -0.50384 q -0.46354,0 -0.65388,-0.185863 -0.19034,-0.185863 -0.19034,-0.640443 v -1.361502 h -0.66956 v -0.320221 h 0.66956 v -0.712101 z"
           style="font-family:monospace;-inkscape-font-specification:monospace"
           id="path9193" />
        <path
           d="m 142.22205,13.572517 q 0,-0.123162 0.0851,-0.212734 0.0873,-0.08957 0.20825,-0.08957 0.1254,0 0.21498,0.08957 0.0896,0.08957 0.0896,0.212734 0,0.125402 -0.0896,0.212735 -0.0873,0.08733 -0.21498,0.08733 -0.1254,0 -0.21049,-0.08509 -0.0829,-0.08509 -0.0829,-0.214974 z m 0.29783,-1.36598 q -0.31574,0 -0.47249,0.340375 -0.15452,0.340376 -0.15452,1.036802 0,0.694186 0.15452,1.034562 0.15675,0.340375 0.47249,0.340375 0.31798,0 0.4725,-0.340375 0.15675,-0.340376 0.15675,-1.034562 0,-0.696426 -0.15675,-1.036802 -0.15452,-0.340375 -0.4725,-0.340375 z m 0,-0.35829 q 0.5352,0 0.80839,0.438905 0.27544,0.438905 0.27544,1.296562 0,0.855417 -0.27544,1.294322 -0.27319,0.438905 -0.80839,0.438905 -0.53519,0 -0.80839,-0.438905 -0.2732,-0.438905 -0.2732,-1.294322 0,-0.857657 0.2732,-1.296562 0.2732,-0.438905 0.80839,-0.438905 z"
           style="font-family:monospace;-inkscape-font-specification:monospace"
           id="path9195" />
      </g>
      <g
         aria-label="text"
         id="text6858"
         style="font-size:4.23333px;line-height:1.25;fill:#939dac;stroke-width:0.264583">
        <path
           d="m 139.64857,17.042078 v 0.657323 h 0.86403 v 0.295589 h -0.86403 v 1.25677 q 0,0.256315 0.0971,0.357601 0.0971,0.101285 0.339,0.101285 h 0.42788 v 0.303857 h -0.46509 q -0.42788,0 -0.60358,-0.171565 -0.1757,-0.171566 -0.1757,-0.591178 v -1.25677 h -0.61805 v -0.295589 h 0.61805 v -0.657323 z"
           style="font-family:monospace;-inkscape-font-specification:monospace"
           id="path9198" />
        <path
           d="m 143.22664,18.761868 v 0.186035 h -1.64744 v 0.0124 q 0,0.378271 0.19637,0.584977 0.19843,0.206705 0.5581,0.206705 0.1819,0 0.38034,-0.05788 0.19844,-0.05788 0.42375,-0.1757 v 0.378271 q -0.21704,0.08888 -0.41962,0.132292 -0.2005,0.04547 -0.3886,0.04547 -0.5395,0 -0.84336,-0.322461 -0.30386,-0.324527 -0.30386,-0.892968 0,-0.55397 0.29766,-0.884699 0.29765,-0.330729 0.79375,-0.330729 0.44235,0 0.6966,0.299723 0.25631,0.299723 0.25631,0.818554 z m -0.38034,-0.111621 q -0.008,-0.334863 -0.15916,-0.508496 -0.14883,-0.1757 -0.42995,-0.1757 -0.27492,0 -0.45268,0.181901 -0.17777,0.181901 -0.21084,0.504362 z"
           style="font-family:monospace;-inkscape-font-specification:monospace"
           id="path9200" />
        <path
           d="m 145.78772,17.699401 -0.82889,1.107942 0.90951,1.20716 h -0.44029 l -0.67799,-0.928107 -0.67593,0.928107 h -0.44028 l 0.9095,-1.20716 -0.82888,-1.107942 h 0.42167 l 0.61392,0.837158 0.60978,-0.837158 z"
           style="font-family:monospace;-inkscape-font-specification:monospace"
           id="path9202" />
        <path
           d="m 147.29461,17.042078 v 0.657323 h 0.86402 v 0.295589 h -0.86402 v 1.25677 q 0,0.256315 0.0971,0.357601 0.0971,0.101285 0.33899,0.101285 h 0.42788 v 0.303857 h -0.46508 q -0.42788,0 -0.60358,-0.171565 -0.1757,-0.171566 -0.1757,-0.591178 v -1.25677 h -0.61805 v -0.295589 h 0.61805 v -0.657323 z"
           style="font-family:monospace;-inkscape-font-specification:monospace"
           id="path9204" />
      </g>
      <path
         style="opacity:0.99;fill:#b7bec8;stroke:#b7bec8;stroke-width:0.17;stroke-linecap:butt;stroke-linejoin:miter;stroke-dasharray:none;stroke-opacity:1"
         d="M 6.889394,23.654236 H 172.16469"
         id="path10553" />
      <path
         style="fill:none;stroke:#b7bec8;stroke-width:0.17;stroke-linecap:butt;stroke-linejoin:miter;stroke-dasharray:none;stroke-opacity:1"
         d="M 16.481708,7.8653975 V 34.225913"
         id="path12013" />
      <path
         style="fill:none;stroke:#b7bec8;stroke-width:0.17;stroke-linecap:butt;stroke-linejoin:miter;stroke-dasharray:none;stroke-opacity:1"
         d="M 133.95674,7.8653975 133.9424,34.138321"
         id="path12015" />
      <g
         aria-label="1"
         id="text13471"
         style="font-size:4.58611px;line-height:1.25;fill:#535d6c;stroke-width:0.264583">
        <path
           d="m 10.925691,30.217149 h 0.703143 v -2.555055 l -0.756887,0.170188 v -0.412033 l 0.752409,-0.165709 h 0.452341 v 2.962609 h 0.694186 v 0.380683 h -1.845192 z"
           style="font-family:monospace;-inkscape-font-specification:monospace"
           id="path9255" />
      </g>
      <g
         aria-label="0.321812485430751"
         id="text13475"
         style="font-size:4.58611px;line-height:1.25;fill:#535d6c;stroke-width:0.264583">
        <path
           d="m 21.985997,28.918348 q 0,-0.123162 0.08509,-0.212735 0.08733,-0.08957 0.208256,-0.08957 0.125401,0 0.214974,0.08957 0.08957,0.08957 0.08957,0.212735 0,0.125401 -0.08957,0.212735 -0.08733,0.08733 -0.214974,0.08733 -0.125402,0 -0.210496,-0.08509 -0.08285,-0.08509 -0.08285,-0.214974 z m 0.297828,-1.36598 q -0.315743,0 -0.472494,0.340375 -0.154513,0.340376 -0.154513,1.036802 0,0.694186 0.154513,1.034562 0.156751,0.340375 0.472494,0.340375 0.317983,0 0.472495,-0.340375 0.156752,-0.340376 0.156752,-1.034562 0,-0.696426 -0.156752,-1.036802 -0.154512,-0.340375 -0.472495,-0.340375 z m 0,-0.35829 q 0.535196,0 0.808392,0.438905 0.275435,0.438905 0.275435,1.296562 0,0.855417 -0.275435,1.294322 -0.273196,0.438905 -0.808392,0.438905 -0.535195,0 -0.808391,-0.438905 -0.273196,-0.438905 -0.273196,-1.294322 0,-0.857657 0.273196,-1.296562 0.273196,-0.438905 0.808391,-0.438905 z"
           style="font-family:monospace;-inkscape-font-specification:monospace"
           id="path9220" />
        <path
           d="m 24.760504,29.914842 h 0.564306 v 0.68299 h -0.564306 z"
           style="font-family:monospace;-inkscape-font-specification:monospace"
           id="path9222" />
        <path
           d="m 28.164258,28.808622 q 0.329178,0.08733 0.503845,0.311264 0.174666,0.221692 0.174666,0.555349 0,0.461299 -0.311264,0.725537 -0.309025,0.262 -0.857657,0.262 -0.230649,0 -0.470255,-0.04255 -0.239606,-0.04255 -0.470255,-0.123162 v -0.450102 q 0.228409,0.118684 0.450101,0.176906 0.221692,0.05822 0.441145,0.05822 0.371725,0 0.571024,-0.167949 0.199299,-0.167948 0.199299,-0.483691 0,-0.29111 -0.199299,-0.461298 -0.199299,-0.172427 -0.539674,-0.172427 H 27.31108 v -0.371726 h 0.344854 q 0.311264,0 0.48593,-0.136598 0.174667,-0.136598 0.174667,-0.380683 0,-0.257521 -0.16347,-0.394119 -0.16123,-0.138837 -0.461298,-0.138837 -0.199299,0 -0.412033,0.04479 -0.212735,0.04479 -0.445623,0.134359 v -0.416512 q 0.270956,-0.07166 0.481452,-0.107487 0.212734,-0.03583 0.376204,-0.03583 0.48817,0 0.77928,0.246324 0.29335,0.244085 0.29335,0.649401 0,0.275435 -0.154512,0.459059 -0.152274,0.183623 -0.445623,0.25976 z"
           style="font-family:monospace;-inkscape-font-specification:monospace"
           id="path9224" />
        <path
           d="m 30.022886,30.217149 h 1.536168 v 0.380683 h -2.031056 v -0.380683 q 0.418752,-0.441145 0.732255,-0.779281 0.313504,-0.338136 0.432187,-0.476973 0.223932,-0.273196 0.302307,-0.441144 0.07838,-0.170188 0.07838,-0.347094 0,-0.279914 -0.165709,-0.438905 -0.163469,-0.158991 -0.450101,-0.158991 -0.203778,0 -0.427709,0.0739 -0.223931,0.0739 -0.474734,0.223932 v -0.45682 q 0.230649,-0.109726 0.452341,-0.165709 0.223931,-0.05598 0.441144,-0.05598 0.49041,0 0.788238,0.262 0.300068,0.25976 0.300068,0.68299 0,0.214974 -0.100769,0.429947 -0.09853,0.214974 -0.322461,0.474734 -0.125401,0.145556 -0.365008,0.403077 -0.237367,0.25752 -0.725537,0.770323 z"
           style="font-family:monospace;-inkscape-font-specification:monospace"
           id="path9226" />
        <path
           d="m 32.553308,30.217149 h 0.703144 v -2.555055 l -0.756887,0.170188 v -0.412033 l 0.752409,-0.165709 h 0.452341 v 2.962609 h 0.694186 v 0.380683 h -1.845193 z"
           style="font-family:monospace;-inkscape-font-specification:monospace"
           id="path9228" />
        <path
           d="m 36.089181,29.01016 q -0.302307,0 -0.468016,0.170187 -0.163469,0.167949 -0.163469,0.476974 0,0.309025 0.165709,0.481452 0.167948,0.170188 0.465776,0.170188 0.304547,0 0.468016,-0.167949 0.16571,-0.170188 0.16571,-0.483691 0,-0.306786 -0.167949,-0.476974 -0.165709,-0.170187 -0.465777,-0.170187 z m -0.394118,-0.188102 q -0.288872,-0.0739 -0.452341,-0.275436 -0.161231,-0.201538 -0.161231,-0.48593 0,-0.398598 0.270957,-0.631486 0.270957,-0.235128 0.736733,-0.235128 0.468016,0 0.738973,0.235128 0.270957,0.232888 0.270957,0.631486 0,0.284392 -0.16347,0.48593 -0.16123,0.201538 -0.450101,0.275436 0.335896,0.0739 0.512802,0.297828 0.179145,0.223931 0.179145,0.579982 0,0.452341 -0.288871,0.707622 -0.288872,0.255282 -0.799435,0.255282 -0.510563,0 -0.799434,-0.253042 -0.286632,-0.255282 -0.286632,-0.705384 0,-0.358289 0.176906,-0.582221 0.179145,-0.22617 0.515042,-0.300067 z m -0.16347,-0.718819 q 0,0.268717 0.143316,0.409794 0.143316,0.141076 0.414272,0.141076 0.273196,0 0.416512,-0.141076 0.143316,-0.141077 0.143316,-0.409794 0,-0.273196 -0.143316,-0.416512 -0.141076,-0.143316 -0.416512,-0.143316 -0.270956,0 -0.414272,0.145555 -0.143316,0.143316 -0.143316,0.414273 z"
           style="font-family:monospace;-inkscape-font-specification:monospace"
           id="path9230" />
        <path
           d="m 38.075451,30.217149 h 0.703144 v -2.555055 l -0.756888,0.170188 v -0.412033 l 0.752409,-0.165709 h 0.452341 v 2.962609 h 0.694187 v 0.380683 h -1.845193 z"
           style="font-family:monospace;-inkscape-font-specification:monospace"
           id="path9232" />
        <path
           d="m 41.067172,30.217149 h 1.536168 v 0.380683 h -2.031056 v -0.380683 q 0.418751,-0.441145 0.732255,-0.779281 0.313504,-0.338136 0.432187,-0.476973 0.223931,-0.273196 0.302307,-0.441144 0.07838,-0.170188 0.07838,-0.347094 0,-0.279914 -0.165709,-0.438905 -0.16347,-0.158991 -0.450102,-0.158991 -0.203777,0 -0.427708,0.0739 -0.223931,0.0739 -0.474734,0.223932 v -0.45682 q 0.230649,-0.109726 0.452341,-0.165709 0.223931,-0.05598 0.441144,-0.05598 0.490409,0 0.788238,0.262 0.300068,0.25976 0.300068,0.68299 0,0.214974 -0.100769,0.429947 -0.09853,0.214974 -0.322461,0.474734 -0.125402,0.145556 -0.365008,0.403077 -0.237367,0.25752 -0.725537,0.770323 z"
           style="font-family:monospace;-inkscape-font-specification:monospace"
           id="path9234" />
        <path
           d="m 44.638873,27.666573 -1.054716,1.766817 h 1.054716 z m -0.0739,-0.412033 h 0.523999 v 2.17885 h 0.445623 v 0.367247 h -0.445623 v 0.797195 h -0.450102 v -0.797195 h -1.417484 v -0.427709 z"
           style="font-family:monospace;-inkscape-font-specification:monospace"
           id="path9236" />
        <path
           d="m 47.133465,29.01016 q -0.302307,0 -0.468016,0.170187 -0.16347,0.167949 -0.16347,0.476974 0,0.309025 0.165709,0.481452 0.167949,0.170188 0.465777,0.170188 0.304547,0 0.468016,-0.167949 0.165709,-0.170188 0.165709,-0.483691 0,-0.306786 -0.167948,-0.476974 -0.165709,-0.170187 -0.465777,-0.170187 z m -0.394119,-0.188102 q -0.288871,-0.0739 -0.452341,-0.275436 -0.16123,-0.201538 -0.16123,-0.48593 0,-0.398598 0.270957,-0.631486 0.270956,-0.235128 0.736733,-0.235128 0.468016,0 0.738973,0.235128 0.270957,0.232888 0.270957,0.631486 0,0.284392 -0.16347,0.48593 -0.16123,0.201538 -0.450102,0.275436 0.335897,0.0739 0.512803,0.297828 0.179145,0.223931 0.179145,0.579982 0,0.452341 -0.288872,0.707622 -0.288871,0.255282 -0.799434,0.255282 -0.510563,0 -0.799434,-0.253042 -0.286632,-0.255282 -0.286632,-0.705384 0,-0.358289 0.176906,-0.582221 0.179145,-0.22617 0.515041,-0.300067 z m -0.163469,-0.718819 q 0,0.268717 0.143316,0.409794 0.143316,0.141076 0.414272,0.141076 0.273196,0 0.416512,-0.141076 0.143316,-0.141077 0.143316,-0.409794 0,-0.273196 -0.143316,-0.416512 -0.141076,-0.143316 -0.416512,-0.143316 -0.270956,0 -0.414272,0.145555 -0.143316,0.143316 -0.143316,0.414273 z"
           style="font-family:monospace;-inkscape-font-specification:monospace"
           id="path9238" />
        <path
           d="m 48.978659,27.25454 h 1.69292 v 0.380683 h -1.280887 v 0.821827 q 0.09629,-0.03583 0.192581,-0.0515 0.09853,-0.01792 0.19706,-0.01792 0.51952,0 0.824066,0.306786 0.304547,0.306786 0.304547,0.830784 0,0.528478 -0.320222,0.833024 -0.317982,0.304547 -0.871092,0.304547 -0.266478,0 -0.48817,-0.03583 -0.219453,-0.03583 -0.394119,-0.107487 v -0.459059 q 0.206017,0.111966 0.414273,0.167948 0.208256,0.05374 0.425469,0.05374 0.373965,0 0.575503,-0.19706 0.203777,-0.197059 0.203777,-0.559828 0,-0.358289 -0.210495,-0.557588 -0.208256,-0.199299 -0.582221,-0.199299 -0.181384,0 -0.353811,0.04255 -0.172427,0.04031 -0.329179,0.123162 z"
           style="font-family:monospace;-inkscape-font-specification:monospace"
           id="path9240" />
        <path
           d="m 52.922088,27.666573 -1.054716,1.766817 h 1.054716 z m -0.0739,-0.412033 h 0.523999 v 2.17885 h 0.445623 v 0.367247 h -0.445623 v 0.797195 h -0.450101 v -0.797195 h -1.417485 v -0.427709 z"
           style="font-family:monospace;-inkscape-font-specification:monospace"
           id="path9242" />
        <path
           d="m 55.77497,28.808622 q 0.329178,0.08733 0.503845,0.311264 0.174666,0.221692 0.174666,0.555349 0,0.461299 -0.311264,0.725537 -0.309025,0.262 -0.857657,0.262 -0.230649,0 -0.470255,-0.04255 -0.239606,-0.04255 -0.470255,-0.123162 v -0.450102 q 0.228409,0.118684 0.450101,0.176906 0.221692,0.05822 0.441145,0.05822 0.371725,0 0.571024,-0.167949 0.199299,-0.167948 0.199299,-0.483691 0,-0.29111 -0.199299,-0.461298 -0.199299,-0.172427 -0.539674,-0.172427 h -0.344854 v -0.371726 h 0.344854 q 0.311264,0 0.485931,-0.136598 0.174666,-0.136598 0.174666,-0.380683 0,-0.257521 -0.16347,-0.394119 -0.16123,-0.138837 -0.461298,-0.138837 -0.199299,0 -0.412033,0.04479 -0.212735,0.04479 -0.445623,0.134359 v -0.416512 q 0.270956,-0.07166 0.481452,-0.107487 0.212734,-0.03583 0.376204,-0.03583 0.48817,0 0.77928,0.246324 0.29335,0.244085 0.29335,0.649401 0,0.275435 -0.154512,0.459059 -0.152274,0.183623 -0.445623,0.25976 z"
           style="font-family:monospace;-inkscape-font-specification:monospace"
           id="path9244" />
        <path
           d="m 57.879922,28.918348 q 0,-0.123162 0.08509,-0.212735 0.08733,-0.08957 0.208256,-0.08957 0.125402,0 0.214974,0.08957 0.08957,0.08957 0.08957,0.212735 0,0.125401 -0.08957,0.212735 -0.08733,0.08733 -0.214974,0.08733 -0.125401,0 -0.210495,-0.08509 -0.08285,-0.08509 -0.08285,-0.214974 z m 0.297828,-1.36598 q -0.315743,0 -0.472495,0.340375 -0.154512,0.340376 -0.154512,1.036802 0,0.694186 0.154512,1.034562 0.156752,0.340375 0.472495,0.340375 0.317982,0 0.472495,-0.340375 0.156752,-0.340376 0.156752,-1.034562 0,-0.696426 -0.156752,-1.036802 -0.154513,-0.340375 -0.472495,-0.340375 z m 0,-0.35829 q 0.535196,0 0.808392,0.438905 0.275435,0.438905 0.275435,1.296562 0,0.855417 -0.275435,1.294322 -0.273196,0.438905 -0.808392,0.438905 -0.535195,0 -0.808391,-0.438905 -0.273196,-0.438905 -0.273196,-1.294322 0,-0.857657 0.273196,-1.296562 0.273196,-0.438905 0.808391,-0.438905 z"
           style="font-family:monospace;-inkscape-font-specification:monospace"
           id="path9246" />
        <path
           d="m 59.870672,27.25454 h 2.104953 v 0.19258 l -1.195792,3.150712 h -0.472495 l 1.164442,-2.962609 h -1.601108 z"
           style="font-family:monospace;-inkscape-font-specification:monospace"
           id="path9248" />
        <path
           d="m 62.784016,27.25454 h 1.692919 v 0.380683 h -1.280886 v 0.821827 q 0.09629,-0.03583 0.192581,-0.0515 0.09853,-0.01792 0.197059,-0.01792 0.519521,0 0.824067,0.306786 0.304547,0.306786 0.304547,0.830784 0,0.528478 -0.320222,0.833024 -0.317982,0.304547 -0.871092,0.304547 -0.266478,0 -0.48817,-0.03583 -0.219453,-0.03583 -0.394119,-0.107487 v -0.459059 q 0.206017,0.111966 0.414273,0.167948 0.208256,0.05374 0.425469,0.05374 0.373965,0 0.575503,-0.19706 0.203777,-0.197059 0.203777,-0.559828 0,-0.358289 -0.210495,-0.557588 -0.208256,-0.199299 -0.582221,-0.199299 -0.181384,0 -0.353811,0.04255 -0.172427,0.04031 -0.329179,0.123162 z"
           style="font-family:monospace;-inkscape-font-specification:monospace"
           id="path9250" />
        <path
           d="m 65.686163,30.217149 h 0.703144 v -2.555055 l -0.756888,0.170188 v -0.412033 l 0.752409,-0.165709 h 0.452341 v 2.962609 h 0.694187 v 0.380683 h -1.845193 z"
           style="font-family:monospace;-inkscape-font-specification:monospace"
           id="path9252" />
      </g>
      <g
         aria-label="d15_11"
         id="text14931"
         style="font-size:4.58611px;line-height:1.25;fill:#535d6c;stroke-width:0.264583">
        <path
           d="m 140.82996,28.410024 v -1.296561 h 0.41203 v 3.484369 h -0.41203 v -0.315743 q -0.10301,0.185863 -0.27544,0.284392 -0.17018,0.09629 -0.39411,0.09629 -0.45458,0 -0.71658,-0.351572 -0.25976,-0.353811 -0.25976,-0.974101 0,-0.611332 0.262,-0.958425 0.26199,-0.349333 0.71434,-0.349333 0.22617,0 0.39859,0.09853 0.17243,0.09629 0.27096,0.282153 z m -1.21147,0.936033 q 0,0.479212 0.15228,0.723297 0.15227,0.244085 0.4501,0.244085 0.29783,0 0.45234,-0.246324 0.15675,-0.246324 0.15675,-0.721058 0,-0.476974 -0.15675,-0.721059 -0.15451,-0.246324 -0.45234,-0.246324 -0.29783,0 -0.4501,0.244085 -0.15228,0.244085 -0.15228,0.723298 z"
           style="font-family:monospace;-inkscape-font-specification:monospace"
           id="path9207" />
        <path
           d="m 142.27432,30.217149 h 0.70314 v -2.555055 l -0.75689,0.170188 v -0.412033 l 0.75241,-0.165709 h 0.45234 v 2.962609 h 0.69419 v 0.380683 h -1.84519 z"
           style="font-family:monospace;-inkscape-font-specification:monospace"
           id="path9209" />
        <path
           d="m 144.89431,27.25454 h 1.69292 v 0.380683 h -1.28089 v 0.821827 q 0.0963,-0.03583 0.19258,-0.0515 0.0985,-0.01792 0.19706,-0.01792 0.51952,0 0.82407,0.306786 0.30455,0.306786 0.30455,0.830784 0,0.528478 -0.32022,0.833024 -0.31799,0.304547 -0.8711,0.304547 -0.26647,0 -0.48817,-0.03583 -0.21945,-0.03583 -0.39412,-0.107487 v -0.459059 q 0.20602,0.111966 0.41428,0.167948 0.20825,0.05374 0.42547,0.05374 0.37396,0 0.5755,-0.19706 0.20378,-0.197059 0.20378,-0.559828 0,-0.358289 -0.2105,-0.557588 -0.20825,-0.199299 -0.58222,-0.199299 -0.18138,0 -0.35381,0.04255 -0.17243,0.04031 -0.32918,0.123162 z"
           style="font-family:monospace;-inkscape-font-specification:monospace"
           id="path9211" />
        <path
           d="m 149.95292,31.500274 v 0.179145 h -2.76108 v -0.179145 z"
           style="font-family:monospace;-inkscape-font-specification:monospace"
           id="path9213" />
        <path
           d="m 150.55753,30.217149 h 0.70314 v -2.555055 l -0.75688,0.170188 v -0.412033 l 0.7524,-0.165709 h 0.45235 v 2.962609 h 0.69418 v 0.380683 h -1.84519 z"
           style="font-family:monospace;-inkscape-font-specification:monospace"
           id="path9215" />
        <path
           d="m 153.3186,30.217149 h 0.70314 v -2.555055 l -0.75688,0.170188 v -0.412033 l 0.75241,-0.165709 h 0.45234 v 2.962609 h 0.69418 v 0.380683 h -1.84519 z"
           style="font-family:monospace;-inkscape-font-specification:monospace"
           id="path9217" />
      </g>
    </g>
  </g>
</svg>
