<?xml version="1.0" encoding="UTF-8" standalone="no"?>
<!-- Created with Inkscape (http://www.inkscape.org/) -->

<svg
   width="210mm"
   height="31mm"
   viewBox="0 0 210 31"
   version="1.1"
   id="svg1267"
   xmlns="http://www.w3.org/2000/svg"
   xmlns:svg="http://www.w3.org/2000/svg">
  <defs
     id="defs1264" />
  <g
     id="layer1">
    <rect
       style="fill:#ffffff;stroke:#b7bec8;stroke-width:0.17;stroke-dasharray:none"
       id="rect90"
       width="165.33905"
       height="26.221836"
       x="22.028002"
       y="2.4759467" />
    <g
       aria-label="value"
       id="text2440"
       style="font-size:4.58611px;line-height:1.25;fill:#535d6c;stroke-width:0.264583">
      <path
         d="m 37.26059,7.2810612 h 0.427709 l 0.727776,2.1049529 0.730016,-2.1049529 h 0.427708 l -0.891246,2.508029 h -0.530717 z"
         style="font-family:monospace;-inkscape-font-specification:monospace"
         id="path11305" />
      <path
         d="m 41.369727,8.5283577 h -0.136598 q -0.360529,0 -0.544153,0.1276408 -0.181384,0.1254014 -0.181384,0.3762043 0,0.2261705 0.136598,0.351572 0.136598,0.1254014 0.378444,0.1254014 0.340375,0 0.535195,-0.2351277 0.19482,-0.237367 0.19706,-0.653879 V 8.5283577 Z M 42.169161,8.3581701 V 9.7890902 H 41.754889 V 9.4173644 q -0.13212,0.2239312 -0.333658,0.3314181 -0.199298,0.1052477 -0.48593,0.1052477 -0.382923,0 -0.611332,-0.2149739 -0.22841,-0.2172132 -0.22841,-0.5799817 0,-0.4187513 0.279914,-0.6359645 0.282153,-0.2172132 0.826306,-0.2172132 h 0.55311 v -0.06494 q -0.0022,-0.3000677 -0.152273,-0.4344264 -0.150034,-0.136598 -0.479213,-0.136598 -0.210495,0 -0.425469,0.060461 -0.214974,0.060461 -0.418752,0.1769056 V 7.3952661 q 0.22841,-0.087333 0.436666,-0.1298801 0.210495,-0.044786 0.407555,-0.044786 0.311264,0 0.530717,0.091812 0.221692,0.091812 0.35829,0.2754354 0.08509,0.1119656 0.120922,0.2776746 0.03583,0.1634698 0.03583,0.4926486 z"
         style="font-family:monospace;-inkscape-font-specification:monospace"
         id="path11307" />
      <path
         d="m 43.989722,8.8799297 q 0,0.2776746 0.100769,0.4187512 0.103008,0.1410767 0.302307,0.1410767 h 0.481452 v 0.3493326 h -0.52176 q -0.369486,0 -0.573264,-0.2373671 -0.201538,-0.237367 -0.201538,-0.6717934 V 6.6025498 H 42.917092 V 6.2800889 h 1.07263 z"
         style="font-family:monospace;-inkscape-font-specification:monospace"
         id="path11309" />
      <path
         d="M 45.756539,8.839622 V 7.2855398 h 0.412033 V 8.839622 q 0,0.3381361 0.118683,0.4971272 0.120923,0.1589911 0.371726,0.1589911 0.291111,0 0.445623,-0.2037773 0.154513,-0.2060167 0.154513,-0.588939 V 7.2855398 h 0.414272 V 9.7890902 H 47.259117 V 9.4128858 q -0.109727,0.2172132 -0.300068,0.3291788 -0.188102,0.1119656 -0.441144,0.1119656 -0.385162,0 -0.573264,-0.2508029 Q 45.756539,9.3501851 45.756539,8.839622 Z"
         style="font-family:monospace;-inkscape-font-specification:monospace"
         id="path11311" />
      <path
         d="m 50.571059,8.4320673 v 0.2015381 h -1.784732 v 0.013436 q 0,0.409794 0.212735,0.6337251 0.214974,0.2239312 0.604614,0.2239312 0.197059,0 0.412033,-0.062701 0.214974,-0.062701 0.459059,-0.1903415 v 0.409794 q -0.235128,0.09629 -0.45458,0.1433159 -0.217213,0.049265 -0.420991,0.049265 -0.58446,0 -0.913639,-0.3493326 -0.329179,-0.3515719 -0.329179,-0.9673826 0,-0.6001355 0.322461,-0.9584254 0.322461,-0.3582898 0.859896,-0.3582898 0.479213,0 0.754648,0.3247002 0.277675,0.3247001 0.277675,0.8867673 z M 50.159025,8.3111445 q -0.009,-0.3627685 -0.172427,-0.5508706 -0.16123,-0.1903415 -0.465777,-0.1903415 -0.297828,0 -0.490409,0.1970594 -0.192581,0.1970594 -0.22841,0.546392 z"
         style="font-family:monospace;-inkscape-font-specification:monospace"
         id="path11313" />
    </g>
    <g
       aria-label="numeric"
       id="text4672"
       style="font-size:4.23333px;line-height:1.25;fill:#939dac;stroke-width:0.264583">
      <path
         d="m 39.209135,13.117056 v 1.434537 h -0.382406 v -1.434537 q 0,-0.312125 -0.109554,-0.458886 -0.109554,-0.146761 -0.343131,-0.146761 -0.26665,0 -0.411344,0.190169 -0.142627,0.188102 -0.142627,0.541569 v 1.308446 h -0.380338 v -2.315102 h 0.380338 v 0.347265 q 0.101286,-0.198437 0.274919,-0.299723 0.173632,-0.103353 0.411344,-0.103353 0.353466,0 0.527099,0.233577 0.1757,0.231511 0.1757,0.702799 z"
         style="font-family:monospace;-inkscape-font-specification:monospace"
         id="path11316" />
      <path
         d="m 39.988415,13.675161 v -1.434536 h 0.380338 v 1.434536 q 0,0.312126 0.109554,0.458887 0.111621,0.146761 0.343131,0.146761 0.268717,0 0.411344,-0.188103 0.142627,-0.190169 0.142627,-0.543635 v -1.308446 h 0.382405 v 2.310968 h -0.382405 v -0.347266 q -0.101286,0.200505 -0.276986,0.303858 -0.173632,0.103352 -0.407209,0.103352 -0.355534,0 -0.529167,-0.23151 -0.173632,-0.233577 -0.173632,-0.704866 z"
         style="font-family:monospace;-inkscape-font-specification:monospace"
         id="path11318" />
      <path
         d="m 43.531348,12.472135 q 0.07028,-0.148828 0.177767,-0.219108 0.109554,-0.07235 0.262516,-0.07235 0.279052,0 0.39274,0.217041 0.115755,0.214974 0.115755,0.812353 v 1.341519 H 44.132861 V 13.22661 q 0,-0.489892 -0.05581,-0.607714 -0.05374,-0.119889 -0.198438,-0.119889 -0.165364,0 -0.227376,0.128157 -0.05994,0.12609 -0.05994,0.599446 v 1.324983 H 43.244027 V 13.22661 q 0,-0.496093 -0.05994,-0.611848 -0.05788,-0.115755 -0.21084,-0.115755 -0.150895,0 -0.21084,0.128157 -0.05788,0.12609 -0.05788,0.599446 v 1.324983 h -0.345199 v -2.315102 h 0.345199 v 0.198437 q 0.06821,-0.124023 0.169498,-0.188102 0.103353,-0.06615 0.233578,-0.06615 0.157096,0 0.260449,0.07235 0.105419,0.07235 0.163297,0.219108 z"
         style="font-family:monospace;-inkscape-font-specification:monospace"
         id="path11320" />
      <path
         d="m 46.981264,13.298957 v 0.186035 h -1.647443 v 0.0124 q 0,0.378272 0.19637,0.584977 0.198437,0.206706 0.558105,0.206706 0.181901,0 0.380338,-0.05788 0.198438,-0.05788 0.423747,-0.1757 v 0.378272 q -0.217041,0.08888 -0.419613,0.132291 -0.200504,0.04547 -0.388606,0.04547 -0.539502,0 -0.843359,-0.32246 -0.303857,-0.324528 -0.303857,-0.892968 0,-0.553971 0.297656,-0.8847 0.297656,-0.330729 0.793749,-0.330729 0.44235,0 0.696598,0.299723 0.256315,0.299723 0.256315,0.818554 z m -0.380338,-0.111621 q -0.0083,-0.334863 -0.159163,-0.508496 -0.148828,-0.175699 -0.429948,-0.175699 -0.274918,0 -0.452685,0.181901 -0.177767,0.181901 -0.21084,0.504361 z"
         style="font-family:monospace;-inkscape-font-specification:monospace"
         id="path11322" />
      <path
         d="m 49.618827,12.71398 q -0.121957,-0.09508 -0.248047,-0.138492 -0.12609,-0.04341 -0.276985,-0.04341 -0.355534,0 -0.543636,0.223242 -0.188102,0.223242 -0.188102,0.644921 v 1.15135 h -0.382405 v -2.315102 h 0.382405 v 0.452685 q 0.09508,-0.24598 0.291455,-0.376204 0.198437,-0.132292 0.469221,-0.132292 0.14056,0 0.262516,0.03514 0.121957,0.03514 0.233578,0.109554 z"
         style="font-family:monospace;-inkscape-font-specification:monospace"
         id="path11324" />
      <path
         d="m 50.309223,12.236491 h 0.973583 v 2.019513 h 0.754476 v 0.295589 h -1.889289 v -0.295589 h 0.754475 V 12.53208 h -0.593245 z m 0.593245,-0.901237 h 0.380338 v 0.481624 h -0.380338 z"
         style="font-family:monospace;-inkscape-font-specification:monospace"
         id="path11326" />
      <path
         d="m 54.521883,14.433771 q -0.152962,0.08888 -0.316259,0.132291 -0.161231,0.04547 -0.330729,0.04547 -0.537435,0 -0.841292,-0.32246 -0.30179,-0.322461 -0.30179,-0.892968 0,-0.570508 0.30179,-0.892968 0.303857,-0.322461 0.841292,-0.322461 0.167431,0 0.326595,0.04341 0.159163,0.04341 0.320393,0.134359 v 0.398942 q -0.150895,-0.134359 -0.303857,-0.194304 -0.150895,-0.05994 -0.343131,-0.05994 -0.357601,0 -0.549837,0.23151 -0.192236,0.23151 -0.192236,0.661458 0,0.42788 0.192236,0.661458 0.194303,0.23151 0.549837,0.23151 0.198437,0 0.355533,-0.05995 0.157097,-0.06201 0.291455,-0.190169 z"
         style="font-family:monospace;-inkscape-font-specification:monospace"
         id="path11328" />
    </g>
    <g
       aria-label="t0"
       id="text6854"
       style="font-size:4.58611px;line-height:1.25;fill:#535d6c;stroke-width:0.264583">
      <path
         d="m 154.82825,6.5689601 v 0.7121011 h 0.93603 v 0.3202215 h -0.93603 v 1.3615015 q 0,0.2776746 0.10524,0.3874009 0.10525,0.1097263 0.36725,0.1097263 h 0.46354 v 0.3291788 h -0.50385 q -0.46353,0 -0.65388,-0.1858629 -0.19034,-0.1858629 -0.19034,-0.6404431 V 7.6012827 h -0.66955 V 7.2810612 h 0.66955 V 6.5689601 Z"
         style="font-family:monospace;-inkscape-font-specification:monospace"
         id="path11392" />
      <path
         d="m 157.29597,8.1096065 q 0,-0.1231622 0.0851,-0.2127346 0.0873,-0.089573 0.20826,-0.089573 0.1254,0 0.21497,0.089573 0.0896,0.089572 0.0896,0.2127346 0,0.1254014 -0.0896,0.2127346 -0.0873,0.087333 -0.21497,0.087333 -0.1254,0 -0.2105,-0.085094 -0.0828,-0.085094 -0.0828,-0.2149739 z m 0.29783,-1.3659801 q -0.31575,0 -0.4725,0.3403754 -0.15451,0.3403753 -0.15451,1.0368012 0,0.6941866 0.15451,1.034562 0.15675,0.3403753 0.4725,0.3403753 0.31798,0 0.47249,-0.3403753 0.15675,-0.3403754 0.15675,-1.034562 0,-0.6964259 -0.15675,-1.0368012 -0.15451,-0.3403754 -0.47249,-0.3403754 z m 0,-0.3582898 q 0.53519,0 0.80839,0.438905 0.27543,0.4389051 0.27543,1.2965614 0,0.8554171 -0.27543,1.2943221 -0.2732,0.4389051 -0.80839,0.4389051 -0.5352,0 -0.8084,-0.4389051 -0.27319,-0.438905 -0.27319,-1.2943221 0,-0.8576563 0.27319,-1.2965614 0.2732,-0.438905 0.8084,-0.438905 z"
         style="font-family:monospace;-inkscape-font-specification:monospace"
         id="path11394" />
    </g>
    <g
       aria-label="text"
       id="text6858"
       style="font-size:4.23333px;line-height:1.25;fill:#939dac;stroke-width:0.264583">
      <path
         d="m 154.72248,11.579167 v 0.657324 h 0.86403 v 0.295589 h -0.86403 v 1.256769 q 0,0.256315 0.0971,0.357601 0.0971,0.101286 0.339,0.101286 h 0.42788 v 0.303857 h -0.46509 q -0.42788,0 -0.60358,-0.171566 -0.1757,-0.171565 -0.1757,-0.591178 V 12.53208 h -0.61805 v -0.295589 h 0.61805 v -0.657324 z"
         style="font-family:monospace;-inkscape-font-specification:monospace"
         id="path11397" />
      <path
         d="m 158.30055,13.298957 v 0.186035 h -1.64744 v 0.0124 q 0,0.378272 0.19637,0.584977 0.19844,0.206706 0.55811,0.206706 0.1819,0 0.38033,-0.05788 0.19844,-0.05788 0.42375,-0.1757 v 0.378272 q -0.21704,0.08888 -0.41961,0.132291 -0.20051,0.04547 -0.38861,0.04547 -0.5395,0 -0.84336,-0.32246 -0.30385,-0.324528 -0.30385,-0.892968 0,-0.553971 0.29765,-0.8847 0.29766,-0.330729 0.79375,-0.330729 0.44235,0 0.6966,0.299723 0.25631,0.299723 0.25631,0.818554 z m -0.38033,-0.111621 q -0.008,-0.334863 -0.15917,-0.508496 -0.14883,-0.175699 -0.42995,-0.175699 -0.27491,0 -0.45268,0.181901 -0.17777,0.181901 -0.21084,0.504361 z"
         style="font-family:monospace;-inkscape-font-specification:monospace"
         id="path11399" />
      <path
         d="m 160.86164,12.236491 -0.82889,1.107941 0.9095,1.207161 h -0.44028 l -0.678,-0.928108 -0.67592,0.928108 h -0.44029 l 0.90951,-1.207161 -0.82889,-1.107941 h 0.42168 l 0.61391,0.837157 0.60978,-0.837157 z"
         style="font-family:monospace;-inkscape-font-specification:monospace"
         id="path11401" />
      <path
         d="m 162.36852,11.579167 v 0.657324 h 0.86403 v 0.295589 h -0.86403 v 1.256769 q 0,0.256315 0.0971,0.357601 0.0971,0.101286 0.339,0.101286 h 0.42788 v 0.303857 h -0.46509 q -0.42788,0 -0.60358,-0.171566 -0.1757,-0.171565 -0.1757,-0.591178 V 12.53208 h -0.61805 v -0.295589 h 0.61805 v -0.657324 z"
         style="font-family:monospace;-inkscape-font-specification:monospace"
         id="path11403" />
    </g>
    <path
       style="opacity:0.99;fill:#b7bec8;stroke:#b7bec8;stroke-width:0.17;stroke-linecap:butt;stroke-linejoin:miter;stroke-dasharray:none;stroke-opacity:1"
       d="M 21.963313,18.191325 H 187.23861"
       id="path10553" />
    <path
       style="fill:none;stroke:#b7bec8;stroke-width:0.17;stroke-linecap:butt;stroke-linejoin:miter;stroke-dasharray:none;stroke-opacity:1"
       d="M 31.555627,2.4024865 V 28.763002"
       id="path12013" />
    <path
       style="fill:none;stroke:#b7bec8;stroke-width:0.17;stroke-linecap:butt;stroke-linejoin:miter;stroke-dasharray:none;stroke-opacity:1"
       d="M 149.03066,2.4024865 149.01632,28.67541"
       id="path12015" />
    <g
       aria-label="1"
       id="text13471"
       style="font-size:4.58611px;line-height:1.25;fill:#535d6c;stroke-width:0.264583">
      <path
         d="m 25.999609,24.754237 h 0.703144 v -2.555054 l -0.756888,0.170187 v -0.412033 l 0.752409,-0.165709 h 0.452341 v 2.962609 h 0.694187 v 0.380683 h -1.845193 z"
         style="font-family:monospace;-inkscape-font-specification:monospace"
         id="path11415" />
    </g>
    <g
       aria-label="0.0000412271789076099520190..."
       id="text13475"
       style="font-size:4.58611px;line-height:1.25;fill:#535d6c;stroke-width:0.264583">
      <path
         d="m 37.059916,23.455436 q 0,-0.123162 0.08509,-0.212734 0.08733,-0.08957 0.208256,-0.08957 0.125401,0 0.214974,0.08957 0.08957,0.08957 0.08957,0.212734 0,0.125402 -0.08957,0.212735 -0.08733,0.08733 -0.214974,0.08733 -0.125401,0 -0.210495,-0.08509 -0.08286,-0.08509 -0.08286,-0.214974 z m 0.297829,-1.36598 q -0.315743,0 -0.472495,0.340376 -0.154513,0.340375 -0.154513,1.036801 0,0.694187 0.154513,1.034562 0.156752,0.340375 0.472495,0.340375 0.317982,0 0.472494,-0.340375 0.156752,-0.340375 0.156752,-1.034562 0,-0.696426 -0.156752,-1.036801 -0.154512,-0.340376 -0.472494,-0.340376 z m 0,-0.358289 q 0.535195,0 0.808391,0.438905 0.275435,0.438905 0.275435,1.296561 0,0.855417 -0.275435,1.294322 -0.273196,0.438905 -0.808391,0.438905 -0.535196,0 -0.808392,-0.438905 -0.273196,-0.438905 -0.273196,-1.294322 0,-0.857656 0.273196,-1.296561 0.273196,-0.438905 0.808392,-0.438905 z"
         style="font-family:monospace;-inkscape-font-specification:monospace"
         id="path11331" />
      <path
         d="m 39.834423,24.45193 h 0.564307 v 0.68299 h -0.564307 z"
         style="font-family:monospace;-inkscape-font-specification:monospace"
         id="path11333" />
      <path
         d="m 42.582059,23.455436 q 0,-0.123162 0.08509,-0.212734 0.08733,-0.08957 0.208256,-0.08957 0.125402,0 0.214974,0.08957 0.08957,0.08957 0.08957,0.212734 0,0.125402 -0.08957,0.212735 -0.08733,0.08733 -0.214974,0.08733 -0.125401,0 -0.210495,-0.08509 -0.08285,-0.08509 -0.08285,-0.214974 z m 0.297828,-1.36598 q -0.315743,0 -0.472495,0.340376 -0.154512,0.340375 -0.154512,1.036801 0,0.694187 0.154512,1.034562 0.156752,0.340375 0.472495,0.340375 0.317982,0 0.472495,-0.340375 0.156752,-0.340375 0.156752,-1.034562 0,-0.696426 -0.156752,-1.036801 -0.154513,-0.340376 -0.472495,-0.340376 z m 0,-0.358289 q 0.535196,0 0.808392,0.438905 0.275435,0.438905 0.275435,1.296561 0,0.855417 -0.275435,1.294322 -0.273196,0.438905 -0.808392,0.438905 -0.535195,0 -0.808391,-0.438905 Q 41.7983,24.32205 41.7983,23.466633 q 0,-0.857656 0.273196,-1.296561 0.273196,-0.438905 0.808391,-0.438905 z"
         style="font-family:monospace;-inkscape-font-specification:monospace"
         id="path11335" />
      <path
         d="m 45.34313,23.455436 q 0,-0.123162 0.08509,-0.212734 0.08733,-0.08957 0.208256,-0.08957 0.125401,0 0.214974,0.08957 0.08957,0.08957 0.08957,0.212734 0,0.125402 -0.08957,0.212735 -0.08733,0.08733 -0.214974,0.08733 -0.125402,0 -0.210496,-0.08509 -0.08285,-0.08509 -0.08285,-0.214974 z m 0.297828,-1.36598 q -0.315743,0 -0.472494,0.340376 -0.154513,0.340375 -0.154513,1.036801 0,0.694187 0.154513,1.034562 0.156751,0.340375 0.472494,0.340375 0.317982,0 0.472495,-0.340375 0.156752,-0.340375 0.156752,-1.034562 0,-0.696426 -0.156752,-1.036801 -0.154513,-0.340376 -0.472495,-0.340376 z m 0,-0.358289 q 0.535196,0 0.808392,0.438905 0.275435,0.438905 0.275435,1.296561 0,0.855417 -0.275435,1.294322 -0.273196,0.438905 -0.808392,0.438905 -0.535195,0 -0.808391,-0.438905 -0.273196,-0.438905 -0.273196,-1.294322 0,-0.857656 0.273196,-1.296561 0.273196,-0.438905 0.808391,-0.438905 z"
         style="font-family:monospace;-inkscape-font-specification:monospace"
         id="path11337" />
      <path
         d="m 48.104201,23.455436 q 0,-0.123162 0.08509,-0.212734 0.08733,-0.08957 0.208256,-0.08957 0.125401,0 0.214974,0.08957 0.08957,0.08957 0.08957,0.212734 0,0.125402 -0.08957,0.212735 -0.08733,0.08733 -0.214974,0.08733 -0.125402,0 -0.210495,-0.08509 -0.08285,-0.08509 -0.08285,-0.214974 z m 0.297828,-1.36598 q -0.315742,0 -0.472494,0.340376 -0.154513,0.340375 -0.154513,1.036801 0,0.694187 0.154513,1.034562 0.156752,0.340375 0.472494,0.340375 0.317983,0 0.472495,-0.340375 0.156752,-0.340375 0.156752,-1.034562 0,-0.696426 -0.156752,-1.036801 -0.154512,-0.340376 -0.472495,-0.340376 z m 0,-0.358289 q 0.535196,0 0.808392,0.438905 0.275435,0.438905 0.275435,1.296561 0,0.855417 -0.275435,1.294322 -0.273196,0.438905 -0.808392,0.438905 -0.535195,0 -0.808391,-0.438905 -0.273196,-0.438905 -0.273196,-1.294322 0,-0.857656 0.273196,-1.296561 0.273196,-0.438905 0.808391,-0.438905 z"
         style="font-family:monospace;-inkscape-font-specification:monospace"
         id="path11339" />
      <path
         d="m 50.865272,23.455436 q 0,-0.123162 0.08509,-0.212734 0.08733,-0.08957 0.208256,-0.08957 0.125401,0 0.214974,0.08957 0.08957,0.08957 0.08957,0.212734 0,0.125402 -0.08957,0.212735 -0.08733,0.08733 -0.214974,0.08733 -0.125401,0 -0.210495,-0.08509 -0.08286,-0.08509 -0.08286,-0.214974 z m 0.297829,-1.36598 q -0.315743,0 -0.472495,0.340376 -0.154513,0.340375 -0.154513,1.036801 0,0.694187 0.154513,1.034562 0.156752,0.340375 0.472495,0.340375 0.317982,0 0.472494,-0.340375 0.156752,-0.340375 0.156752,-1.034562 0,-0.696426 -0.156752,-1.036801 -0.154512,-0.340376 -0.472494,-0.340376 z m 0,-0.358289 q 0.535195,0 0.808391,0.438905 0.275435,0.438905 0.275435,1.296561 0,0.855417 -0.275435,1.294322 -0.273196,0.438905 -0.808391,0.438905 -0.535196,0 -0.808392,-0.438905 -0.273196,-0.438905 -0.273196,-1.294322 0,-0.857656 0.273196,-1.296561 0.273196,-0.438905 0.808392,-0.438905 z"
         style="font-family:monospace;-inkscape-font-specification:monospace"
         id="path11341" />
      <path
         d="m 54.19065,22.203661 -1.054716,1.766817 h 1.054716 z m -0.0739,-0.412033 h 0.523999 v 2.17885 h 0.445623 v 0.367247 H 54.640752 V 25.13492 H 54.19065 v -0.797195 h -1.417484 v -0.427708 z"
         style="font-family:monospace;-inkscape-font-specification:monospace"
         id="path11343" />
      <path
         d="m 55.910442,24.754237 h 0.703144 v -2.555054 l -0.756887,0.170187 v -0.412033 l 0.752408,-0.165709 h 0.452341 v 2.962609 h 0.694187 v 0.380683 h -1.845193 z"
         style="font-family:monospace;-inkscape-font-specification:monospace"
         id="path11345" />
      <path
         d="m 58.902162,24.754237 h 1.536167 v 0.380683 h -2.031055 v -0.380683 q 0.418751,-0.441144 0.732255,-0.77928 0.313503,-0.338136 0.432187,-0.476974 0.223931,-0.273196 0.302307,-0.441144 0.07838,-0.170188 0.07838,-0.347093 0,-0.279914 -0.165709,-0.438905 -0.16347,-0.158992 -0.450102,-0.158992 -0.203777,0 -0.427709,0.0739 -0.223931,0.0739 -0.474734,0.223931 v -0.45682 q 0.23065,-0.109726 0.452341,-0.165709 0.223932,-0.05598 0.441145,-0.05598 0.490409,0 0.788237,0.261999 0.300068,0.25976 0.300068,0.68299 0,0.214974 -0.100769,0.429948 -0.09853,0.214974 -0.322461,0.474734 -0.125401,0.145555 -0.365007,0.403076 -0.237368,0.257521 -0.725537,0.770323 z"
         style="font-family:monospace;-inkscape-font-specification:monospace"
         id="path11347" />
      <path
         d="M 61.663232,24.754237 H 63.1994 v 0.380683 h -2.031056 v -0.380683 q 0.418751,-0.441144 0.732255,-0.77928 0.313503,-0.338136 0.432187,-0.476974 0.223931,-0.273196 0.302307,-0.441144 0.07838,-0.170188 0.07838,-0.347093 0,-0.279914 -0.165709,-0.438905 -0.16347,-0.158992 -0.450102,-0.158992 -0.203777,0 -0.427708,0.0739 -0.223931,0.0739 -0.474734,0.223931 v -0.45682 q 0.230649,-0.109726 0.452341,-0.165709 0.223931,-0.05598 0.441144,-0.05598 0.490409,0 0.788238,0.261999 0.300067,0.25976 0.300067,0.68299 0,0.214974 -0.100769,0.429948 -0.09853,0.214974 -0.32246,0.474734 -0.125402,0.145555 -0.365008,0.403076 -0.237367,0.257521 -0.725537,0.770323 z"
         style="font-family:monospace;-inkscape-font-specification:monospace"
         id="path11349" />
      <path
         d="m 63.900305,21.791628 h 2.104953 v 0.192581 l -1.195792,3.150711 h -0.472495 l 1.164442,-2.962609 h -1.601108 z"
         style="font-family:monospace;-inkscape-font-specification:monospace"
         id="path11351" />
      <path
         d="m 66.954727,24.754237 h 0.703144 v -2.555054 l -0.756887,0.170187 v -0.412033 l 0.752408,-0.165709 h 0.452341 v 2.962609 h 0.694187 v 0.380683 h -1.845193 z"
         style="font-family:monospace;-inkscape-font-specification:monospace"
         id="path11353" />
      <path
         d="M 69.422447,21.791628 H 71.5274 v 0.192581 l -1.195792,3.150711 h -0.472495 l 1.164442,-2.962609 h -1.601108 z"
         style="font-family:monospace;-inkscape-font-specification:monospace"
         id="path11355" />
      <path
         d="m 73.251669,23.547248 q -0.302307,0 -0.468016,0.170188 -0.16347,0.167948 -0.16347,0.476973 0,0.309025 0.16571,0.481452 0.167948,0.170188 0.465776,0.170188 0.304547,0 0.468016,-0.167948 0.16571,-0.170188 0.16571,-0.483692 0,-0.306785 -0.167949,-0.476973 -0.165709,-0.170188 -0.465777,-0.170188 z m -0.394118,-0.188102 q -0.288872,-0.0739 -0.452341,-0.275435 -0.161231,-0.201538 -0.161231,-0.485931 0,-0.398597 0.270957,-0.631486 0.270957,-0.235127 0.736733,-0.235127 0.468016,0 0.738973,0.235127 0.270957,0.232889 0.270957,0.631486 0,0.284393 -0.16347,0.485931 -0.16123,0.201538 -0.450101,0.275435 0.335896,0.0739 0.512802,0.297828 0.179145,0.223932 0.179145,0.579982 0,0.452341 -0.288871,0.707623 -0.288872,0.255281 -0.799435,0.255281 -0.510563,0 -0.799434,-0.253042 -0.286632,-0.255282 -0.286632,-0.705383 0,-0.35829 0.176906,-0.582221 0.179145,-0.226171 0.515042,-0.300068 z m -0.16347,-0.718819 q 0,0.268717 0.143316,0.409794 0.143316,0.141077 0.414272,0.141077 0.273196,0 0.416512,-0.141077 0.143316,-0.141077 0.143316,-0.409794 0,-0.273196 -0.143316,-0.416512 -0.141076,-0.143316 -0.416512,-0.143316 -0.270956,0 -0.414272,0.145555 -0.143316,0.143316 -0.143316,0.414273 z"
         style="font-family:monospace;-inkscape-font-specification:monospace"
         id="path11357" />
      <path
         d="m 75.967957,23.652496 q 0.288871,0 0.452341,-0.208256 0.165709,-0.208256 0.165709,-0.575503 0,-0.367247 -0.165709,-0.575503 -0.16347,-0.208256 -0.452341,-0.208256 -0.300068,0 -0.452341,0.199298 -0.152273,0.19706 -0.152273,0.584461 0,0.38964 0.150034,0.586699 0.152273,0.19706 0.45458,0.19706 z m -0.806152,1.413005 V 24.64899 q 0.141077,0.08285 0.300068,0.12764 0.158991,0.04255 0.331418,0.04255 0.429948,0 0.6494,-0.322461 0.221692,-0.3247 0.221692,-0.953946 -0.105248,0.223931 -0.295589,0.344854 -0.190342,0.118683 -0.436666,0.118683 -0.483691,0 -0.750169,-0.297828 -0.264239,-0.297829 -0.264239,-0.844221 0,-0.539674 0.270957,-0.835263 0.273196,-0.297828 0.770323,-0.297828 0.582221,0 0.853178,0.418751 0.270956,0.418751 0.270956,1.316715 0,0.84422 -0.326939,1.289843 -0.3247,0.443384 -0.94499,0.443384 -0.163469,0 -0.329178,-0.03583 -0.165709,-0.03359 -0.320222,-0.09853 z"
         style="font-family:monospace;-inkscape-font-specification:monospace"
         id="path11359" />
      <path
         d="m 78.475985,23.455436 q 0,-0.123162 0.08509,-0.212734 0.08733,-0.08957 0.208256,-0.08957 0.125401,0 0.214974,0.08957 0.08957,0.08957 0.08957,0.212734 0,0.125402 -0.08957,0.212735 -0.08733,0.08733 -0.214974,0.08733 -0.125401,0 -0.210495,-0.08509 -0.08286,-0.08509 -0.08286,-0.214974 z m 0.297829,-1.36598 q -0.315743,0 -0.472495,0.340376 -0.154513,0.340375 -0.154513,1.036801 0,0.694187 0.154513,1.034562 0.156752,0.340375 0.472495,0.340375 0.317982,0 0.472494,-0.340375 0.156752,-0.340375 0.156752,-1.034562 0,-0.696426 -0.156752,-1.036801 -0.154512,-0.340376 -0.472494,-0.340376 z m 0,-0.358289 q 0.535195,0 0.808391,0.438905 0.275435,0.438905 0.275435,1.296561 0,0.855417 -0.275435,1.294322 -0.273196,0.438905 -0.808391,0.438905 -0.535196,0 -0.808392,-0.438905 -0.273196,-0.438905 -0.273196,-1.294322 0,-0.857656 0.273196,-1.296561 0.273196,-0.438905 0.808392,-0.438905 z"
         style="font-family:monospace;-inkscape-font-specification:monospace"
         id="path11361" />
      <path
         d="m 80.466732,21.791628 h 2.104953 v 0.192581 l -1.195792,3.150711 h -0.472495 l 1.164442,-2.962609 h -1.601108 z"
         style="font-family:monospace;-inkscape-font-specification:monospace"
         id="path11363" />
      <path
         d="m 85.135696,21.865525 v 0.416512 q -0.141077,-0.08285 -0.300068,-0.125401 -0.158991,-0.04479 -0.331418,-0.04479 -0.429948,0 -0.65164,0.324701 -0.221691,0.322461 -0.221691,0.951707 0.107487,-0.223931 0.297828,-0.342615 0.190342,-0.120922 0.436666,-0.120922 0.483691,0 0.74793,0.297828 0.266478,0.295589 0.266478,0.839742 0,0.541913 -0.273196,0.839742 -0.273196,0.297828 -0.768084,0.297828 -0.582221,0 -0.853178,-0.416512 -0.270956,-0.418751 -0.270956,-1.316715 0,-0.84646 0.3247,-1.289843 0.326939,-0.445623 0.944989,-0.445623 0.165709,0 0.331418,0.03583 0.16571,0.03359 0.320222,0.09853 z m -0.806152,1.413006 q -0.288871,0 -0.45458,0.208256 -0.165709,0.208256 -0.165709,0.575503 0,0.367247 0.165709,0.575503 0.165709,0.208256 0.45458,0.208256 0.300068,0 0.452341,-0.197059 0.152273,-0.199299 0.152273,-0.5867 0,-0.38964 -0.152273,-0.5867 -0.152273,-0.197059 -0.452341,-0.197059 z"
         style="font-family:monospace;-inkscape-font-specification:monospace"
         id="path11365" />
      <path
         d="m 86.759196,23.455436 q 0,-0.123162 0.08509,-0.212734 0.08733,-0.08957 0.208256,-0.08957 0.125401,0 0.214974,0.08957 0.08957,0.08957 0.08957,0.212734 0,0.125402 -0.08957,0.212735 -0.08733,0.08733 -0.214974,0.08733 -0.125402,0 -0.210495,-0.08509 -0.08285,-0.08509 -0.08285,-0.214974 z m 0.297828,-1.36598 q -0.315743,0 -0.472494,0.340376 -0.154513,0.340375 -0.154513,1.036801 0,0.694187 0.154513,1.034562 0.156751,0.340375 0.472494,0.340375 0.317983,0 0.472495,-0.340375 0.156752,-0.340375 0.156752,-1.034562 0,-0.696426 -0.156752,-1.036801 -0.154512,-0.340376 -0.472495,-0.340376 z m 0,-0.358289 q 0.535196,0 0.808392,0.438905 0.275435,0.438905 0.275435,1.296561 0,0.855417 -0.275435,1.294322 -0.273196,0.438905 -0.808392,0.438905 -0.535195,0 -0.808391,-0.438905 -0.273196,-0.438905 -0.273196,-1.294322 0,-0.857656 0.273196,-1.296561 0.273196,-0.438905 0.808391,-0.438905 z"
         style="font-family:monospace;-inkscape-font-specification:monospace"
         id="path11367" />
      <path
         d="m 89.773312,23.652496 q 0.288871,0 0.452341,-0.208256 0.165709,-0.208256 0.165709,-0.575503 0,-0.367247 -0.165709,-0.575503 -0.16347,-0.208256 -0.452341,-0.208256 -0.300067,0 -0.452341,0.199298 -0.152273,0.19706 -0.152273,0.584461 0,0.38964 0.150034,0.586699 0.152273,0.19706 0.45458,0.19706 z M 88.96716,25.065501 V 24.64899 q 0.141077,0.08285 0.300068,0.12764 0.158991,0.04255 0.331418,0.04255 0.429948,0 0.6494,-0.322461 0.221692,-0.3247 0.221692,-0.953946 -0.105247,0.223931 -0.295589,0.344854 -0.190341,0.118683 -0.436666,0.118683 -0.483691,0 -0.750169,-0.297828 -0.264239,-0.297829 -0.264239,-0.844221 0,-0.539674 0.270957,-0.835263 0.273196,-0.297828 0.770323,-0.297828 0.582221,0 0.853178,0.418751 0.270956,0.418751 0.270956,1.316715 0,0.84422 -0.326939,1.289843 -0.3247,0.443384 -0.94499,0.443384 -0.163469,0 -0.329178,-0.03583 -0.165709,-0.03359 -0.320222,-0.09853 z"
         style="font-family:monospace;-inkscape-font-specification:monospace"
         id="path11369" />
      <path
         d="m 92.534383,23.652496 q 0.288871,0 0.45234,-0.208256 0.16571,-0.208256 0.16571,-0.575503 0,-0.367247 -0.16571,-0.575503 -0.163469,-0.208256 -0.45234,-0.208256 -0.300068,0 -0.452341,0.199298 -0.152274,0.19706 -0.152274,0.584461 0,0.38964 0.150034,0.586699 0.152273,0.19706 0.454581,0.19706 z M 91.72823,25.065501 V 24.64899 q 0.141077,0.08285 0.300068,0.12764 0.158991,0.04255 0.331418,0.04255 0.429948,0 0.649401,-0.322461 0.221691,-0.3247 0.221691,-0.953946 -0.105247,0.223931 -0.295589,0.344854 -0.190341,0.118683 -0.436665,0.118683 -0.483692,0 -0.75017,-0.297828 -0.264239,-0.297829 -0.264239,-0.844221 0,-0.539674 0.270957,-0.835263 0.273196,-0.297828 0.770323,-0.297828 0.582221,0 0.853178,0.418751 0.270957,0.418751 0.270957,1.316715 0,0.84422 -0.32694,1.289843 -0.3247,0.443384 -0.944989,0.443384 -0.16347,0 -0.329179,-0.03583 -0.165709,-0.03359 -0.320222,-0.09853 z"
         style="font-family:monospace;-inkscape-font-specification:monospace"
         id="path11371" />
      <path
         d="m 94.424361,21.791628 h 1.692919 v 0.380683 h -1.280886 v 0.821827 q 0.09629,-0.03583 0.192581,-0.0515 0.09853,-0.01791 0.197059,-0.01791 0.51952,0 0.824067,0.306785 0.304546,0.306786 0.304546,0.830785 0,0.528477 -0.320221,0.833024 -0.317983,0.304546 -0.871093,0.304546 -0.266478,0 -0.48817,-0.03583 -0.219452,-0.03583 -0.394118,-0.107487 v -0.459059 q 0.206016,0.111966 0.414272,0.167949 0.208256,0.05374 0.425469,0.05374 0.373965,0 0.575504,-0.197059 0.203777,-0.19706 0.203777,-0.559828 0,-0.35829 -0.210495,-0.557589 -0.208256,-0.199298 -0.582221,-0.199298 -0.181385,0 -0.353812,0.04255 -0.172427,0.04031 -0.329178,0.123163 z"
         style="font-family:monospace;-inkscape-font-specification:monospace"
         id="path11373" />
      <path
         d="m 97.55716,24.754237 h 1.536168 v 0.380683 h -2.031056 v -0.380683 q 0.418752,-0.441144 0.732255,-0.77928 0.313504,-0.338136 0.432188,-0.476974 0.223931,-0.273196 0.302307,-0.441144 0.07838,-0.170188 0.07838,-0.347093 0,-0.279914 -0.165709,-0.438905 -0.163469,-0.158992 -0.450101,-0.158992 -0.203778,0 -0.427709,0.0739 -0.223931,0.0739 -0.474734,0.223931 v -0.45682 q 0.230649,-0.109726 0.452341,-0.165709 0.223931,-0.05598 0.441145,-0.05598 0.490409,0 0.788237,0.261999 0.300068,0.25976 0.300068,0.68299 0,0.214974 -0.100769,0.429948 -0.09853,0.214974 -0.322461,0.474734 -0.125401,0.145555 -0.365008,0.403076 -0.237367,0.257521 -0.725537,0.770323 z"
         style="font-family:monospace;-inkscape-font-specification:monospace"
         id="path11375" />
      <path
         d="m 100.56455,23.455436 q 0,-0.123162 0.0851,-0.212734 0.0873,-0.08957 0.20825,-0.08957 0.12541,0 0.21498,0.08957 0.0896,0.08957 0.0896,0.212734 0,0.125402 -0.0896,0.212735 -0.0873,0.08733 -0.21498,0.08733 -0.1254,0 -0.21049,-0.08509 -0.0829,-0.08509 -0.0829,-0.214974 z m 0.29783,-1.36598 q -0.31574,0 -0.47249,0.340376 -0.15451,0.340375 -0.15451,1.036801 0,0.694187 0.15451,1.034562 0.15675,0.340375 0.47249,0.340375 0.31799,0 0.4725,-0.340375 0.15675,-0.340375 0.15675,-1.034562 0,-0.696426 -0.15675,-1.036801 -0.15451,-0.340376 -0.4725,-0.340376 z m 0,-0.358289 q 0.5352,0 0.80839,0.438905 0.27544,0.438905 0.27544,1.296561 0,0.855417 -0.27544,1.294322 -0.27319,0.438905 -0.80839,0.438905 -0.53519,0 -0.80839,-0.438905 -0.273194,-0.438905 -0.273194,-1.294322 0,-0.857656 0.273194,-1.296561 0.2732,-0.438905 0.80839,-0.438905 z"
         style="font-family:monospace;-inkscape-font-specification:monospace"
         id="path11377" />
      <path
         d="m 102.84865,24.754237 h 0.70315 v -2.555054 l -0.75689,0.170187 v -0.412033 l 0.75241,-0.165709 h 0.45234 v 2.962609 h 0.69418 v 0.380683 h -1.84519 z"
         style="font-family:monospace;-inkscape-font-specification:monospace"
         id="path11379" />
      <path
         d="m 106.33974,23.652496 q 0.28887,0 0.45234,-0.208256 0.16571,-0.208256 0.16571,-0.575503 0,-0.367247 -0.16571,-0.575503 -0.16347,-0.208256 -0.45234,-0.208256 -0.30007,0 -0.45234,0.199298 -0.15228,0.19706 -0.15228,0.584461 0,0.38964 0.15004,0.586699 0.15227,0.19706 0.45458,0.19706 z m -0.80615,1.413005 V 24.64899 q 0.14107,0.08285 0.30006,0.12764 0.15899,0.04255 0.33142,0.04255 0.42995,0 0.6494,-0.322461 0.22169,-0.3247 0.22169,-0.953946 -0.10524,0.223931 -0.29559,0.344854 -0.19034,0.118683 -0.43666,0.118683 -0.48369,0 -0.75017,-0.297828 -0.26424,-0.297829 -0.26424,-0.844221 0,-0.539674 0.27096,-0.835263 0.27319,-0.297828 0.77032,-0.297828 0.58222,0 0.85318,0.418751 0.27095,0.418751 0.27095,1.316715 0,0.84422 -0.32693,1.289843 -0.3247,0.443384 -0.94499,0.443384 -0.16347,0 -0.32918,-0.03583 -0.16571,-0.03359 -0.32022,-0.09853 z"
         style="font-family:monospace;-inkscape-font-specification:monospace"
         id="path11381" />
      <path
         d="m 108.84777,23.455436 q 0,-0.123162 0.0851,-0.212734 0.0873,-0.08957 0.20826,-0.08957 0.1254,0 0.21497,0.08957 0.0896,0.08957 0.0896,0.212734 0,0.125402 -0.0896,0.212735 -0.0873,0.08733 -0.21497,0.08733 -0.12541,0 -0.2105,-0.08509 -0.0829,-0.08509 -0.0829,-0.214974 z m 0.29782,-1.36598 q -0.31574,0 -0.47249,0.340376 -0.15451,0.340375 -0.15451,1.036801 0,0.694187 0.15451,1.034562 0.15675,0.340375 0.47249,0.340375 0.31799,0 0.4725,-0.340375 0.15675,-0.340375 0.15675,-1.034562 0,-0.696426 -0.15675,-1.036801 -0.15451,-0.340376 -0.4725,-0.340376 z m 0,-0.358289 q 0.5352,0 0.8084,0.438905 0.27543,0.438905 0.27543,1.296561 0,0.855417 -0.27543,1.294322 -0.2732,0.438905 -0.8084,0.438905 -0.53519,0 -0.80839,-0.438905 -0.27319,-0.438905 -0.27319,-1.294322 0,-0.857656 0.27319,-1.296561 0.2732,-0.438905 0.80839,-0.438905 z"
         style="font-family:monospace;-inkscape-font-specification:monospace"
         id="path11383" />
      <path
         d="m 111.62227,24.45193 h 0.56431 v 0.68299 h -0.56431 z"
         style="font-family:monospace;-inkscape-font-specification:monospace"
         id="path11385" />
      <path
         d="m 114.38335,24.45193 h 0.56431 v 0.68299 h -0.56431 z"
         style="font-family:monospace;-inkscape-font-specification:monospace"
         id="path11387" />
      <path
         d="m 117.14442,24.45193 h 0.56431 v 0.68299 h -0.56431 z"
         style="font-family:monospace;-inkscape-font-specification:monospace"
         id="path11389" />
    </g>
    <g
       aria-label="d150"
       id="text14931"
       style="font-size:4.58611px;line-height:1.25;fill:#535d6c;stroke-width:0.264583">
      <path
         d="m 155.90387,22.947113 v -1.296562 h 0.41204 v 3.484369 h -0.41204 v -0.315743 q -0.10301,0.185863 -0.27543,0.284393 -0.17019,0.09629 -0.39412,0.09629 -0.45458,0 -0.71658,-0.351572 -0.25976,-0.353811 -0.25976,-0.9741 0,-0.611332 0.262,-0.958426 0.262,-0.349332 0.71434,-0.349332 0.22617,0 0.3986,0.09853 0.17242,0.09629 0.27095,0.282154 z m -1.21146,0.936032 q 0,0.479213 0.15227,0.723298 0.15227,0.244085 0.4501,0.244085 0.29783,0 0.45234,-0.246325 0.15675,-0.246324 0.15675,-0.721058 0,-0.476973 -0.15675,-0.721058 -0.15451,-0.246325 -0.45234,-0.246325 -0.29783,0 -0.4501,0.244085 -0.15227,0.244085 -0.15227,0.723298 z"
         style="font-family:monospace;-inkscape-font-specification:monospace"
         id="path11406" />
      <path
         d="m 157.34823,24.754237 h 0.70314 v -2.555054 l -0.75688,0.170187 v -0.412033 l 0.7524,-0.165709 h 0.45235 v 2.962609 h 0.69418 v 0.380683 h -1.84519 z"
         style="font-family:monospace;-inkscape-font-specification:monospace"
         id="path11408" />
      <path
         d="m 159.96822,21.791628 h 1.69292 v 0.380683 h -1.28088 v 0.821827 q 0.0963,-0.03583 0.19258,-0.0515 0.0985,-0.01791 0.19706,-0.01791 0.51952,0 0.82406,0.306785 0.30455,0.306786 0.30455,0.830785 0,0.528477 -0.32022,0.833024 -0.31798,0.304546 -0.87109,0.304546 -0.26648,0 -0.48817,-0.03583 -0.21946,-0.03583 -0.39412,-0.107487 v -0.459059 q 0.20601,0.111966 0.41427,0.167949 0.20826,0.05374 0.42547,0.05374 0.37396,0 0.5755,-0.197059 0.20378,-0.19706 0.20378,-0.559828 0,-0.35829 -0.2105,-0.557589 -0.20825,-0.199298 -0.58222,-0.199298 -0.18138,0 -0.35381,0.04255 -0.17242,0.04031 -0.32918,0.123163 z"
         style="font-family:monospace;-inkscape-font-specification:monospace"
         id="path11410" />
      <path
         d="m 163.34735,23.455436 q 0,-0.123162 0.0851,-0.212734 0.0873,-0.08957 0.20825,-0.08957 0.12541,0 0.21498,0.08957 0.0896,0.08957 0.0896,0.212734 0,0.125402 -0.0896,0.212735 -0.0873,0.08733 -0.21498,0.08733 -0.1254,0 -0.21049,-0.08509 -0.0829,-0.08509 -0.0829,-0.214974 z m 0.29782,-1.36598 q -0.31574,0 -0.47249,0.340376 -0.15451,0.340375 -0.15451,1.036801 0,0.694187 0.15451,1.034562 0.15675,0.340375 0.47249,0.340375 0.31799,0 0.4725,-0.340375 0.15675,-0.340375 0.15675,-1.034562 0,-0.696426 -0.15675,-1.036801 -0.15451,-0.340376 -0.4725,-0.340376 z m 0,-0.358289 q 0.5352,0 0.80839,0.438905 0.27544,0.438905 0.27544,1.296561 0,0.855417 -0.27544,1.294322 -0.27319,0.438905 -0.80839,0.438905 -0.53519,0 -0.80839,-0.438905 -0.27319,-0.438905 -0.27319,-1.294322 0,-0.857656 0.27319,-1.296561 0.2732,-0.438905 0.80839,-0.438905 z"
         style="font-family:monospace;-inkscape-font-specification:monospace"
         id="path11412" />
    </g>
  </g>
</svg>
